<svg width="87" height="87" viewBox="0 0 87 87" fill="none" xmlns="http://www.w3.org/2000/svg">
<path fill-rule="evenodd" clip-rule="evenodd" d="M9.26989 48.8631C9.11377 48.8227 8.97617 48.7346 8.86138 48.5954C8.69715 48.3961 8.61125 48.2043 8.57465 47.9934C8.55708 47.9107 8.54988 47.8231 8.55304 47.7306L8.5586 47.5533L18.92 22.4331C18.9808 22.2966 19.0611 22.1837 19.1391 22.0943C19.2299 21.9942 19.3203 21.9197 19.3805 21.8701L51.0515 8.47656L51.11 8.36355C51.2625 8.11913 51.5544 7.90369 51.8214 7.84197C51.9306 7.81672 52.0392 7.81711 52.1456 7.84098C52.3391 7.88296 52.5199 8.01462 52.6965 8.22886L77.4688 38.2827C77.6507 38.5034 77.8133 38.9198 77.574 39.3042L67.2126 64.4243C67.0833 64.7144 66.9715 64.8066 66.8639 64.8952C66.8338 64.92 66.802 64.9427 66.7718 64.9675L66.6428 65.0739L34.7481 78.6518C34.5899 78.7139 34.4346 78.7446 34.2886 78.7427C34.0435 78.7433 33.825 78.6535 33.6555 78.4478L9.26989 48.8631ZM50.0854 10.9675L40.8019 33.5045L40.6901 33.5967L32.3339 37.1383L21.009 23.3989L50.0854 10.9675ZM31.6509 37.4314L20.5521 23.9663L11.4735 46.007L31.6509 37.4314ZM66.0056 62.2853L75.0388 40.2245L54.8874 48.7966L66.0056 62.2853ZM54.4212 48.231L75.4569 39.207L52.1291 10.9057L42.6796 33.9861L54.4212 48.231ZM33.6159 38.6937L41.4116 35.3659L52.6481 48.9981L44.879 52.358L33.6159 38.6937ZM53.1073 49.5551L45.1705 52.9309L45.0587 53.023L35.5316 76.2897L64.7535 63.6844L53.1073 49.5551ZM34.5895 76.4438L44.2754 52.7475L32.9329 38.9868L11.3218 48.2153L34.5895 76.4438Z" fill="#2F586F"/>
</svg>
