<svg width="112" height="118" viewBox="0 0 112 118" fill="none" xmlns="http://www.w3.org/2000/svg">
<path d="M21.5661 82.753L33.2231 72.1727L44.7768 79.4173L59.2602 105.099L55.0317 102.66L21.5661 82.753ZM46.9853 78.06C46.8555 77.9405 46.8555 77.9405 46.9853 78.06L64.5223 53.2771L82.6536 27.5883L62.0244 105.222L46.9853 78.06ZM31.2944 70.8818L20.1201 80.9377L16.2029 69.8249L12.4245 59.0823L31.2944 70.8818ZM33.1135 69.166L12.7044 56.4339L78.6462 27.7742L33.1135 69.166ZM46.2065 77.3431L35.1628 70.3258L80.2129 29.4584L73.5286 38.804L46.2065 77.3431ZM63.0516 109.316C63.0516 109.316 63.1723 109.184 63.0516 109.316C63.1723 109.184 63.1723 109.184 63.1723 109.184L63.2929 109.053L63.4136 108.922L86.0414 24.1683C86.0414 24.1683 86.0414 24.1683 86.0322 23.9177L86.0231 23.6672C86.0231 23.6672 85.8933 23.5477 86.014 23.4166C86.014 23.4166 86.014 23.4166 85.8842 23.2971C85.8842 23.2971 85.8842 23.2971 85.7544 23.1776C85.7544 23.1776 85.7544 23.1776 85.6246 23.0582C85.6246 23.0582 85.6246 23.0582 85.4948 22.9387C85.4948 22.9387 85.4948 22.9387 85.365 22.8192C85.365 22.8192 85.365 22.8192 85.2352 22.6998C85.2352 22.6998 85.2352 22.6998 85.1054 22.5803C85.1054 22.5803 85.1054 22.5803 84.9756 22.4608C84.9756 22.4608 84.855 22.5919 84.7252 22.4724L9.77387 55.1895C9.77387 55.1895 9.77387 55.1895 9.6532 55.3205L9.53253 55.4516L9.41187 55.5827C9.41187 55.5827 9.41187 55.5827 9.29121 55.7138C9.29121 55.7138 9.2912 55.7138 9.17054 55.8449C9.17054 55.8449 9.17054 55.8449 9.17967 56.0955C9.17967 56.0955 9.30946 56.2149 9.18879 56.346L18.6904 83.0119L18.8202 83.1313L18.95 83.2508L19.0798 83.3703L61.9017 108.741L62.0315 108.861C62.0315 108.861 62.1613 108.98 62.282 108.849L62.5324 108.838C62.5324 108.838 62.6531 108.707 62.7829 108.826C62.9309 109.447 62.9309 109.447 63.0516 109.316Z" fill="#2F586F"/>
</svg>
