<svg width="193" height="206" viewBox="0 0 193 206" fill="none" xmlns="http://www.w3.org/2000/svg">
<path d="M30.7913 106.426L33.8334 106.757L68.5798 109.92L71.5915 108.353L160.563 62.9309L30.7913 106.426ZM67.0621 112.336L25.8129 108.442L23.9919 134.55L67.0621 112.336ZM70.8842 111.591L93.6651 140.303L171.611 60.628L172.168 59.8598L152.062 70.1278L70.8842 111.591ZM103.953 154.563L98.2394 191.211L165.543 72.8725L103.953 154.563ZM94.0568 141.056L102.736 152.04L167.557 65.8935L94.0568 141.056ZM99.1033 169.332L101.483 154.413L92.3011 142.831L57.9404 177.925L94.7855 195.973L99.1033 169.332ZM24.0071 135.499L57.1723 177.368L91.6444 142.12L68.3182 112.543L24.0071 135.499ZM176.57 55.0822C176.724 55.1936 176.835 55.04 176.835 55.04C176.835 55.04 176.835 55.04 176.989 55.1514C176.989 55.1514 176.989 55.1514 177.143 55.2628C177.143 55.2628 177.143 55.2628 177.031 55.4164L176.92 55.57L176.808 55.7237L96.84 198.635L96.7286 198.789L96.6172 198.943C96.6172 198.943 96.5058 199.096 96.3522 198.985L96.0871 199.027C96.0871 199.027 95.9335 198.916 95.8221 199.069C95.8221 199.069 95.8221 199.069 95.6684 198.958L56.0733 179.853C55.9197 179.742 55.7661 179.63 55.6125 179.519L21.5947 136.562C21.2874 136.339 21.2452 136.074 21.3144 135.656L23.3971 106.924L23.5085 106.771L23.6199 106.617L23.7313 106.463L23.8427 106.31L23.9542 106.156C23.9542 106.156 24.0656 106.003 24.2192 106.114L176.082 55.4316C176.152 55.013 176.305 55.1244 176.57 55.0822C176.305 55.1244 176.305 55.1244 176.57 55.0822C176.305 55.1244 176.305 55.1244 176.57 55.0822C176.305 55.1244 176.305 55.1244 176.57 55.0822C176.305 55.1244 176.417 54.9708 176.57 55.0822Z" fill="#2F586F"/>
</svg>
