<svg width="72" height="208" viewBox="0 0 72 208" fill="none" xmlns="http://www.w3.org/2000/svg">
<path fill-rule="evenodd" clip-rule="evenodd" d="M-111.163 207.412C-111.577 207.842 -112.224 208 -112.87 208C-113.75 208 -114.337 207.416 -114.631 206.539L-134.878 138.446C-135.172 137.861 -134.878 137.277 -134.585 136.985L-108.175 87.8878C-107.971 87.4824 -107.485 87.077 -106.913 86.9641L-57.8944 59.9353L49.1087 0.219184C49.6956 -0.0730519 50.2824 -0.0730519 50.8693 0.219184C51.4562 0.511421 51.7497 0.803688 52.0431 1.38816L71.9976 70.3577C71.9263 70.4287 71.8896 70.4998 71.875 70.5666C71.9186 70.6818 71.9508 70.797 71.9716 70.9121C71.9869 70.9315 71.9976 70.9422 71.9976 70.9422C71.9976 70.984 71.9961 71.0273 71.9931 71.0718C71.9977 71.1237 72 71.1755 72 71.2274C72 71.5196 72 71.8119 71.7065 72.1041L45.2963 121.201L44.4159 122.078L-111.163 207.412ZM-88.2843 156.639L-112.043 200.806L-130.477 138.154L-129.962 137.191L-98.9745 120.137L-88.2843 156.639ZM-107.59 200.984L-85.4459 159.704C-85.1006 159.735 -84.7553 159.664 -84.4101 159.492L34.6599 93.0417L42.1708 118.672L42.0683 118.863L-107.59 200.984ZM43.0691 116.998L35.7835 92.4147L58.3171 79.8391L64.9572 76.1955L43.0691 116.998ZM33.3858 88.6937L22.9377 53.0408L-95.0295 117.966L-84.7086 153.78L33.3858 88.6937ZM67.2873 70.0004L48.5629 6.88555L24.1702 52.2317L23.9419 52.4591L34.4988 88.08L67.2873 70.0004ZM-32.1574 50.0413L46.6034 6.66627L22.4072 51.6472C22.4891 51.6472 22.5481 51.67 22.5907 51.7091L-95.3848 116.733L-103.191 89.6458L-32.1574 50.0413ZM-106.707 93.7326L-128.899 135.205L-99.3339 118.91L-106.707 93.7326Z" fill="#2F586F"/>
</svg>
