<svg width="85" height="146" viewBox="0 0 85 146" fill="none" xmlns="http://www.w3.org/2000/svg">
<path d="M9.44913 90.0068C13.5453 78.7449 21.1182 65.4778 30.9256 52.9019C52.3991 25.0389 74.2942 12.3001 81.6172 17.6466L85.2651 24.3208C85.4666 28.2856 84.4594 33.5197 82.1733 39.5905C78.0191 51.0397 70.4462 64.3069 60.3947 77.0126C50.5293 89.776 39.5101 100.334 29.7088 106.955C24.2907 110.619 19.5808 112.654 15.8934 113.362L8.81771 111.173C5.4874 108.088 5.58492 100.519 9.44913 90.0068ZM121.777 89.6355C123.221 90.9038 123.41 94.2486 122.018 98.7475C121.902 99.1224 121.844 99.3099 121.728 99.6848C119.803 105.251 116.167 111.726 111.17 117.985C100.701 131.383 89.7821 137.658 86.522 135.007C83.2619 132.355 86.6591 120.055 97.1288 106.657C107.598 93.2594 118.517 86.9837 121.777 89.6355ZM17.7554 113.938C21.3146 112.985 25.6521 110.835 30.4658 107.805C40.5113 101.054 51.3443 90.4389 61.4539 77.5457C71.3192 64.7824 79.1363 51.3854 83.2905 39.9361C85.1585 34.5575 86.2359 29.756 86.4068 25.9063L119.924 86.3921C113.258 86.1782 103.005 94.9191 95.1843 105.029C90.1295 111.475 85.7738 118.96 83.8021 125.333C82.7582 128.707 82.4469 131.692 82.9842 133.912L17.7554 113.938ZM85.3377 137.516C91.4611 141.464 104.098 131.612 113.243 119.858C118.17 113.167 122.049 106.562 124.091 100.621C126.133 94.6802 126.106 90.153 123.718 87.9767L83.7448 16.0454C83.6166 15.8004 83.6166 15.8004 83.4304 15.7428C78.8546 12.0678 70.5611 13.8153 60.0272 20.8261C49.9816 27.5773 38.9044 38.3225 28.7949 51.2157C18.6854 64.1089 11.0545 77.5635 6.8423 89.2003C6.49434 90.325 6.20437 91.2623 5.91441 92.1996C2.6668 102.697 3.18588 110.252 7.4472 113.624C7.6334 113.682 7.81961 113.739 7.81961 113.739L85.3377 137.516Z" fill="#2F586F"/>
</svg>
