<svg width="193" height="206" viewBox="0 0 193 206" fill="none" xmlns="http://www.w3.org/2000/svg">
<path d="M161.869 106.426L158.827 106.757L124.08 109.92L121.069 108.353L32.097 62.9309L161.869 106.426ZM125.598 112.336L166.847 108.442L168.668 134.55L125.598 112.336ZM121.776 111.591L98.995 140.303L21.0496 60.628L20.4925 59.8598L40.5986 70.1278L121.776 111.591ZM88.7069 154.563L94.4207 191.211L27.1167 72.8725L88.7069 154.563ZM98.6034 141.056L89.9242 152.04L25.1028 65.8935L98.6034 141.056ZM93.5568 169.332L91.1768 154.413L100.359 142.831L134.72 177.925L97.8747 195.973L93.5568 169.332ZM168.653 135.499L135.488 177.368L101.016 142.12L124.342 112.543L168.653 135.499ZM16.0898 55.0822C15.9362 55.1936 15.8248 55.04 15.8248 55.04C15.8248 55.04 15.8248 55.04 15.6711 55.1514C15.6711 55.1514 15.6711 55.1514 15.5175 55.2628C15.5175 55.2628 15.5175 55.2628 15.6289 55.4164L15.7403 55.57L15.8518 55.7237L95.8201 198.635L95.9315 198.789L96.0429 198.943C96.0429 198.943 96.1544 199.096 96.308 198.985L96.573 199.027C96.573 199.027 96.7267 198.916 96.8381 199.069C96.8381 199.069 96.8381 199.069 96.9917 198.958L136.587 179.853C136.74 179.742 136.894 179.63 137.048 179.519L171.065 136.562C171.373 136.339 171.415 136.074 171.346 135.656L169.263 106.924L169.152 106.771L169.04 106.617L168.929 106.463L168.817 106.31L168.706 106.156C168.706 106.156 168.595 106.003 168.441 106.114L16.5777 55.4316C16.5085 55.013 16.3549 55.1244 16.0898 55.0822C16.3549 55.1244 16.3549 55.1244 16.0898 55.0822C16.3549 55.1244 16.3549 55.1244 16.0898 55.0822C16.3549 55.1244 16.3549 55.1244 16.0898 55.0822C16.3549 55.1244 16.2434 54.9708 16.0898 55.0822Z" fill="#2F586F"/>
</svg>
