<svg width="104" height="206" viewBox="0 0 104 206" fill="none" xmlns="http://www.w3.org/2000/svg">
<path d="M72.8669 106.426L69.8248 106.757L35.0784 109.92L32.0667 108.353L-56.9049 62.9309L72.8669 106.426ZM36.5961 112.336L77.8453 108.442L79.6664 134.55L36.5961 112.336ZM32.774 111.591L9.99307 140.303L-67.9523 60.628L-68.5094 59.8598L-48.4033 70.1278L32.774 111.591ZM-0.295009 154.563L5.4188 191.211L-61.8852 72.8725L-0.295009 154.563ZM9.6014 141.056L0.922223 152.04L-63.8991 65.8935L9.6014 141.056ZM4.55487 169.332L2.17481 154.413L11.3571 142.831L45.7178 177.925L8.87273 195.973L4.55487 169.332ZM79.6511 135.499L46.4859 177.368L12.0138 142.12L35.34 112.543L79.6511 135.499ZM-72.9121 55.0822C-73.0658 55.1936 -73.1772 55.04 -73.1772 55.04C-73.1772 55.04 -73.1772 55.04 -73.3308 55.1514C-73.3308 55.1514 -73.3308 55.1514 -73.4844 55.2628C-73.4844 55.2628 -73.4844 55.2628 -73.373 55.4164L-73.2616 55.57L-73.1502 55.7237L6.81816 198.635L6.92958 198.789L7.04099 198.943C7.04099 198.943 7.15241 199.096 7.30604 198.985L7.57108 199.027C7.57108 199.027 7.72471 198.916 7.83613 199.069C7.83613 199.069 7.83613 199.069 7.98976 198.958L47.5849 179.853C47.7385 179.742 47.8921 179.63 48.0457 179.519L82.0635 136.562C82.3708 136.339 82.413 136.074 82.3438 135.656L80.2611 106.924L80.1497 106.771L80.0383 106.617L79.9269 106.463L79.8155 106.31L79.704 106.156C79.704 106.156 79.5926 106.003 79.439 106.114L-72.4243 55.4316C-72.4935 55.013 -72.6471 55.1244 -72.9121 55.0822C-72.6471 55.1244 -72.6471 55.1244 -72.9121 55.0822C-72.6471 55.1244 -72.6471 55.1244 -72.9121 55.0822C-72.6471 55.1244 -72.6471 55.1244 -72.9121 55.0822C-72.6471 55.1244 -72.7585 54.9708 -72.9121 55.0822Z" fill="#2F586F"/>
</svg>
