<svg width="132" height="111" viewBox="0 0 132 111" fill="none" xmlns="http://www.w3.org/2000/svg">
<path d="M107.346 62.4801L128.576 52.9463L107.346 95.3374V62.4801ZM2.39689 51.2439L44.3424 34.2193L63.0039 42.9018L47.4241 75.0782L16.2646 88.3574L2.39689 51.2439ZM129.089 50.2224L106.148 60.4371L64.716 41.1994L67.1128 36.092L104.949 20.9402L105.292 21.1104L129.089 50.2224ZM27.7354 3.57515L32.5292 12.7684L42.8016 32.3466L3.42412 48.1795L27.7354 3.57515ZM104.093 20.4294L67.284 35.2408L62.3191 2.55368L104.093 20.4294ZM61.463 2.21319L66.5992 35.7515L64.2023 40.8589L45.5409 32.1764L29.6187 2.21319H61.463ZM17.2918 88.6979L47.5953 75.9295L61.463 108.106L17.2918 88.6979ZM62.8327 108.787L62.4903 108.617L48.2802 75.4187L63.8599 43.2423L105.121 62.4801V99.2531L62.8327 108.787ZM132 50.9034V50.7331V50.5629V50.3926C132 50.3926 132 50.2224 131.829 50.2224L107.004 19.408C106.833 19.2377 106.661 19.0675 106.49 19.0675L61.9767 0.170245C61.9767 0 61.8054 0 61.6342 0H27.7354C27.5642 0 27.5642 0 27.393 0C27.2218 0 27.2218 0 27.2218 0.170245L27.0506 0.340491L26.8794 0.510736L0 50.2224C0 50.2224 0 50.2224 0 50.3926V50.5629V50.7331V50.9034L14.3813 89.3788C14.5525 89.7193 14.7237 89.8896 15.0661 90.0598L62.3191 110.83C62.4903 110.83 62.6615 111 62.8327 111C63.0039 111 63.0039 111 63.1751 111L106.661 101.296H106.833H107.004C107.004 101.296 107.004 101.296 107.175 101.296C107.175 101.296 107.175 101.296 107.175 101.126L132 51.5844C132 51.0736 132 51.0736 132 50.9034Z" fill="#2F586F"/>
</svg>
