<svg width="57" height="58" viewBox="0 0 57 58" fill="none" xmlns="http://www.w3.org/2000/svg">
<path fill-rule="evenodd" clip-rule="evenodd" d="M6.09679 32.1374C5.99411 32.1108 5.90361 32.0529 5.82812 31.9613C5.72011 31.8303 5.66361 31.7041 5.63954 31.5654C5.62798 31.511 5.62324 31.4534 5.62532 31.3925L5.62898 31.2759L12.4437 14.7545C12.4837 14.6647 12.5365 14.5904 12.5877 14.5316C12.6475 14.4657 12.7069 14.4168 12.7465 14.3841L33.5765 5.57523L33.615 5.5009C33.7153 5.34015 33.9073 5.19845 34.0828 5.15786C34.1547 5.14125 34.2261 5.14151 34.2961 5.15721C34.4234 5.18482 34.5422 5.27141 34.6584 5.41231L50.9511 25.1787C51.0707 25.3238 51.1777 25.5977 51.0203 25.8505L44.2056 42.372C44.1206 42.5628 44.047 42.6234 43.9763 42.6817C43.9565 42.698 43.9355 42.7129 43.9157 42.7292L43.8309 42.7992L22.8538 51.7293C22.7497 51.7702 22.6476 51.7904 22.5516 51.7892C22.3903 51.7895 22.2466 51.7305 22.1352 51.5952L6.09679 32.1374ZM32.9411 7.21354L26.8354 22.0361L26.7618 22.0967L21.2659 24.426L13.8176 15.3897L32.9411 7.21354ZM20.8167 24.6188L13.5171 15.7628L7.5461 30.2589L20.8167 24.6188ZM43.4118 40.9652L49.3529 26.4558L36.0994 32.0937L43.4118 40.9652ZM35.7927 31.7217L49.6279 25.7866L34.2853 7.17284L28.0703 22.3528L35.7927 31.7217ZM22.1091 25.449L27.2363 23.2603L34.6266 32.2262L29.5168 34.436L22.1091 25.449ZM34.9286 32.5925L29.7086 34.8127L29.635 34.8734L23.3691 50.1759L42.5883 41.8853L34.9286 32.5925ZM22.7495 50.2772L29.1199 34.6922L21.66 25.6418L7.44631 31.7113L22.7495 50.2772Z" fill="#2F586F"/>
</svg>
