<svg width="67" height="69" viewBox="0 0 67 69" fill="none" xmlns="http://www.w3.org/2000/svg">
<path d="M3.33448 41.8762C5.55885 35.7606 9.67118 28.5561 14.9969 21.727C26.6578 6.59642 38.5475 -0.321151 42.5242 2.58216L44.5051 6.20648C44.6145 8.35953 44.0676 11.2018 42.8261 14.4984C40.5703 20.7158 36.4579 27.9203 30.9996 34.8199C25.6424 41.7509 19.6586 47.4841 14.3361 51.0797C11.3939 53.0694 8.8363 54.1742 6.83394 54.5586L2.9916 53.3699C1.18313 51.695 1.23609 47.5846 3.33448 41.8762ZM64.3323 41.6746C65.1164 42.3633 65.2192 44.1797 64.4634 46.6227C64.4004 46.8263 64.3689 46.9281 64.3059 47.1317C63.2601 50.1542 61.2859 53.6703 58.5725 57.0692C52.8871 64.3448 46.958 67.7526 45.1876 66.3127C43.4173 64.8727 45.2621 58.1935 50.9475 50.918C56.6328 43.6425 62.562 40.2346 64.3323 41.6746ZM7.84507 54.8714C9.77782 54.354 12.1332 53.1866 14.7472 51.5415C20.2023 47.8754 26.085 42.1109 31.5748 35.1094C36.932 28.1785 41.1769 20.9035 43.4328 14.6861C44.4472 11.7654 45.0323 9.15798 45.125 7.06749L63.3261 39.9133C59.7059 39.7971 54.1382 44.5437 49.8915 50.0336C47.1466 53.5344 44.7813 57.5987 43.7106 61.0596C43.1437 62.8919 42.9747 64.5127 43.2665 65.7183L7.84507 54.8714ZM44.5445 67.6752C47.8697 69.8193 54.732 64.4694 59.698 58.0866C62.3733 54.4528 64.4801 50.8662 65.5889 47.6401C66.6978 44.414 66.6828 41.9556 65.3866 40.7738L43.6795 1.71268C43.6099 1.57961 43.6099 1.57961 43.5088 1.54833C41.024 -0.447296 36.5203 0.501654 30.8 4.30877C25.345 7.97487 19.3297 13.8099 13.8399 20.8113C8.35007 27.8128 4.20623 35.1191 1.91889 41.4382C1.72993 42.049 1.57247 42.558 1.41501 43.0669C-0.348551 48.7674 -0.0666735 52.8699 2.24737 54.7011C2.34848 54.7324 2.4496 54.7637 2.4496 54.7637L44.5445 67.6752Z" fill="#2F586F"/>
</svg>
