<svg width="137" height="292" viewBox="0 0 137 292" fill="none" xmlns="http://www.w3.org/2000/svg">
<path fill-rule="evenodd" clip-rule="evenodd" d="M83.5986 242.894L195.845 242.469L252.079 145.324L196.066 48.6036L83.8201 49.0285L27.5863 146.173L83.5986 242.894ZM193.299 238.072L86.4996 238.504L33.0333 146.18L86.562 53.7631L193.361 53.3314L246.827 145.655L193.299 238.072ZM129.72 147.089C130.256 147.231 130.791 147.372 131.471 146.979C131.521 146.95 131.57 146.921 131.619 146.891C131.184 151.03 133.416 155.142 137.068 157.074L120.481 171.861C119.802 172.254 119.658 172.789 119.514 173.324L115.532 212.661C115.78 213.872 116.368 214.887 117.439 215.17L123.33 216.726C123.865 216.867 124.401 217.009 125.08 216.615C125.759 216.222 125.903 215.687 126.047 215.152L141.489 158.792C141.548 158.572 141.57 158.355 141.562 158.144C143.596 158.214 145.447 157.851 147.167 156.855C149.17 155.695 150.934 153.366 151.677 150.747C151.704 151.182 151.864 151.651 152.156 152.156L165.985 168.986C166.376 169.662 166.912 169.803 167.447 169.945L206.856 173.767C207.391 173.909 207.731 173.712 208.071 173.515C208.41 173.318 209.09 172.925 209.717 171.658L211.299 165.775C211.587 164.705 210.803 163.352 209.732 163.069L154.573 148.498C153.502 148.215 152.483 148.805 152 149.537C151.971 149.581 151.943 149.625 151.918 149.67C152.658 145.207 150.226 140.658 146.187 138.728C146.174 138.696 146.155 138.66 146.131 138.617L146.109 138.577L146.075 138.519L163.139 124.121C163.818 123.728 163.962 123.193 164.106 122.658L168.087 83.3212C167.839 82.11 167.252 81.0954 166.181 80.8125L160.29 79.2563C159.219 78.9734 157.86 79.7602 157.572 80.83L142.614 136.459C142.488 136.93 142.53 137.389 142.68 137.797C138.188 137.469 133.771 140.234 132.181 144.498C132.101 144.22 131.973 143.93 131.798 143.628L117.969 126.798C117.578 126.122 117.042 125.98 116.507 125.839L77.0982 122.017C75.8833 122.269 74.8643 122.859 74.5766 123.929L72.9945 129.812C72.7068 130.882 73.4902 132.235 74.5612 132.518L129.72 147.089ZM124.249 140.774L78.1936 128.608L78.769 126.468L115.356 130.118L124.249 140.774ZM161.281 84.1014L148.912 130.102L159.626 121.188L163.423 84.6672L161.281 84.1014ZM146.282 203.881C155.034 203.329 163.486 200.692 170.959 196.364C177.413 192.627 182.744 187.733 187.148 182.022L187.631 181.29L184.51 179.033L184.026 179.765C174.735 191.919 160.757 199.111 145.878 200.051L145.003 200.106L145.407 203.936L146.282 203.881ZM205.185 169.315L168.598 165.666L159.705 155.01L205.76 167.176L205.185 169.315ZM120.196 211.315L122.338 211.881L134.851 165.345L123.994 174.794L120.196 211.315ZM139.138 142.99C137.779 143.776 136.956 144.705 136.524 146.309C135.661 149.519 137.424 152.562 140.441 153.073C143.654 153.922 146.711 152.151 147.235 149.139C148.098 145.929 146.335 142.886 143.318 142.375C141.711 141.951 140.157 142.399 139.138 142.99ZM113.712 170.36L113.321 169.684C109.9 165.343 107.837 160.215 106.65 155.032L106.598 154.159L110.242 153.403L110.294 154.276C111.286 159.121 113.296 163.376 115.986 167.237L116.378 167.914L113.712 170.36ZM139.814 115.956L138.939 116.011C133.348 116.54 128.201 118.617 123.641 121.709L122.962 122.103L120.664 118.918L121.343 118.524C126.582 115.039 132.604 112.906 138.535 112.181L139.41 112.126L139.814 115.956ZM177.578 148.277L173.541 148.356L173.489 147.483C173.661 141.513 171.546 135.512 168.609 130.439L168.217 129.763L171.614 127.796L172.005 128.472C175.674 134.025 177.841 140.899 177.722 147.742L177.578 148.277ZM159.895 178.84C154.8 181.79 148.582 183.585 142.795 183.775L141.92 183.83L141.856 179.803L142.731 179.748C148.518 179.558 154.057 178.157 158.956 174.868L159.635 174.474L161.594 177.856L160.914 178.25L159.895 178.84ZM108.206 192.968L107.475 192.488C104.158 189.893 100.985 186.763 97.955 183.099L97.5633 182.422L100.764 180.117L101.156 180.793C101.358 181.022 101.56 181.252 101.764 181.484L101.765 181.484C104.229 184.284 106.866 187.281 109.749 189.365L110.48 189.845L108.206 192.968ZM94.0883 177.209L93.6966 176.533C88.017 166.725 85.2507 155.683 85.9852 144.419L85.9332 143.546L89.6299 143.663L89.8777 144.874C89.0912 155.265 91.4658 165.631 97.0934 174.566L97.485 175.242L94.0883 177.209ZM197.59 153.845L193.698 153.389L193.646 152.516C194.157 146.35 193.793 140.238 192.214 134.378L192.162 133.505L196.146 132.553L196.198 133.426C197.973 139.624 198.389 146.608 197.878 152.775L197.59 153.845ZM99.1208 120.1L95.9995 117.844L96.483 117.112C99.384 112.722 102.677 109.009 106.701 105.775L107.38 105.382L110.018 108.37L109.339 108.764C105.654 111.801 102.701 115.317 100.14 119.51L99.1208 120.1ZM144.935 95.8276L144.06 95.8828C139.488 95.8208 135.112 96.0971 130.788 97.2464L129.913 97.3016L129.17 93.6678L130.045 93.6126C134.904 92.6048 139.62 92.1318 144.192 92.1938L145.067 92.1385L144.935 95.8276ZM193.482 123.26L189.889 124.889L189.497 124.213C185.92 117.253 180.788 110.741 174.546 106.227L173.814 105.748L176.088 102.625L176.819 103.104C183.454 108.294 189.121 114.947 193.09 122.584L193.482 123.26Z" fill="#5B8CC9"/>
</svg>
