<svg width="166" height="118" viewBox="0 0 166 118" fill="none" xmlns="http://www.w3.org/2000/svg">
<path d="M109.138 6.97925L108.147 9.87425L96.2657 42.679L93.569 44.7412L14.6828 106.028L109.138 6.97925ZM99.0972 42.33L113.076 3.32677L137.489 12.7572L99.0972 42.33ZM96.8011 45.4748L113.132 78.2873L7.90936 115.054L6.97742 115.233L24.8073 101.384L96.8011 45.4748ZM121.679 93.6545L157.287 104.033L21.5713 114.757L121.679 93.6545ZM113.648 78.9615L119.91 91.4813L14.3973 113.619L113.648 78.9615ZM137.109 95.5302L122.591 91.3544L115.999 78.1247L162.359 61.9045L163.065 102.926L137.109 95.5302ZM138.342 13.1736L162.18 60.9725L115.635 77.2284L98.7522 43.5554L138.342 13.1736ZM0.78293 117.192C0.818622 117.378 0.632236 117.414 0.632236 117.414C0.632236 117.414 0.632236 117.414 0.667929 117.6C0.667929 117.6 0.667928 117.6 0.703621 117.787C0.703621 117.787 0.703621 117.787 0.890008 117.751L1.0764 117.715L1.26278 117.68L164.604 105.916L164.79 105.881L164.977 105.845C164.977 105.845 165.163 105.809 165.127 105.623L165.278 105.401C165.278 105.401 165.242 105.214 165.429 105.179C165.429 105.179 165.429 105.179 165.393 104.992L164.897 61.032C164.861 60.8456 164.826 60.6592 164.79 60.4728L140.329 11.4405C140.257 11.0677 140.035 10.917 139.627 10.802L112.727 0.495236L112.541 0.530929L112.354 0.566622L112.168 0.602315L111.982 0.638008L111.795 0.673701C111.795 0.673701 111.609 0.709394 111.645 0.895788L1.30641 116.899C0.897945 116.784 0.933623 116.97 0.78293 117.192C0.933623 116.97 0.933623 116.97 0.78293 117.192C0.933623 116.97 0.933623 116.97 0.78293 117.192C0.933623 116.97 0.933623 116.97 0.78293 117.192C0.933623 116.97 0.747237 117.006 0.78293 117.192Z" fill="#2F586F"/>
</svg>
