<svg width="105" height="274" viewBox="0 0 105 274" fill="none" xmlns="http://www.w3.org/2000/svg">
<path fill-rule="evenodd" clip-rule="evenodd" d="M-86.7541 224.305L-132.995 130.731L-75.107 44.3309L29.0217 51.5045L75.2625 145.078L17.3746 231.478L-86.7541 224.305ZM-127.94 131.054L-83.9205 220.075L15.1535 226.926L70.2077 144.755L26.3904 55.4318L-72.8859 48.8831L-127.94 131.054ZM30.6673 159.844L23.7007 145.984L32.2018 133.296L17.664 102.546L-0.129019 101.567L-14.095 122.412L-7.53321 136.876L-34.2507 176.753C-35.565 176.748 -36.7786 177.248 -37.5882 178.456C-38.8026 180.269 -38.0964 182.493 -36.5806 183.508C-34.7616 184.727 -32.5369 184.029 -31.5249 182.518C-30.7153 181.31 -30.7144 179.997 -31.2191 178.784L-12.8002 151.293L-8.05474 160.6L-19.7943 178.122C-21.1086 178.117 -22.3221 178.617 -23.1317 179.825C-24.3462 181.638 -23.64 183.862 -22.1241 184.878C-20.3051 186.096 -18.0805 185.398 -17.0684 183.888C-16.2588 182.679 -16.2579 181.367 -16.7626 180.153L-3.80866 160.819L-10.5737 147.97L-3.28713 137.094L-9.84891 122.631L1.8906 105.109L15.7407 106.072L28.7644 133.182L22.4898 142.547L11.5857 120.796C11.9905 120.192 12.3953 119.588 12.2945 119.083C12.397 116.963 10.9829 115.14 8.85983 115.031C6.73679 114.921 4.91605 116.328 4.81351 118.448C4.71098 120.568 6.12514 122.39 8.24818 122.5L27.0275 160.031L11.8471 182.689L-0.790314 182.538L15.1997 158.672L9.44487 146.938C9.84968 146.334 10.0521 146.032 10.1537 145.224C10.2563 143.104 8.84209 141.281 6.71905 141.172C4.59602 141.063 2.77527 142.469 2.67274 144.589C2.5702 146.709 3.98436 148.532 6.10741 148.641L6.41058 148.844L11.2568 158.657L-12.8294 194.607L-43.1592 193.983L-48.1044 181.04L-20.5773 139.954C-18.4542 140.064 -16.6335 138.657 -16.5309 136.537C-16.4284 134.418 -17.8426 132.595 -19.9656 132.485C-22.0887 132.376 -23.9094 133.782 -24.012 135.902C-24.1136 136.71 -24.0128 137.215 -23.6089 137.923L-51.9457 180.217L-45.1833 197.004L-10.6074 197.846L-2.51121 185.762L14.3723 186.131L31.5768 160.453L30.6673 159.844ZM-6.80333 98.4086L-35.1401 140.702C-35.1096 140.855 -35.0513 141.027 -34.9876 141.214C-34.8411 141.646 -34.6662 142.16 -34.737 142.723C-34.8396 144.843 -36.6603 146.249 -38.7834 146.14C-40.9064 146.031 -42.3206 144.208 -42.2181 142.088C-42.1155 139.968 -40.2948 138.562 -38.1717 138.671L-10.847 97.8879L-15.7922 84.945L-46.1219 84.3211L-70.2082 120.271L-65.6651 129.88L-65.362 130.083C-63.2389 130.193 -61.8248 132.016 -61.9273 134.135C-62.0298 136.255 -63.8506 137.662 -65.9736 137.552C-68.0967 137.443 -69.5109 135.62 -69.4083 133.5C-69.3067 132.693 -69.1043 132.391 -68.6995 131.787L-74.4542 120.052L-58.4642 96.1864L-71.3032 95.0254L-86.686 117.985L-67.9067 155.516C-65.7836 155.626 -64.3695 157.449 -64.472 159.569C-64.5745 161.688 -66.3953 163.095 -68.5183 162.985C-70.6414 162.876 -72.0555 161.053 -71.953 158.933C-72.0538 158.428 -71.649 157.824 -71.2441 157.22L-82.1483 135.47L-88.4229 144.835L-75.3992 171.944L-61.5491 172.907L-49.8096 155.386L-56.3713 140.922L-49.0847 130.046L-55.8498 117.197L-42.8959 97.863C-43.4005 96.6494 -43.3997 95.3369 -42.59 94.1285C-41.578 92.618 -39.3533 91.92 -37.5343 93.1387C-36.0185 94.1543 -35.3123 96.3783 -36.5267 98.1909C-37.3364 99.3993 -38.5499 99.8993 -39.8642 99.8942L-51.8061 117.718L-47.0607 127.025L-28.6418 99.5344C-29.1465 98.3208 -29.1456 97.0083 -28.336 95.7999C-27.324 94.2894 -25.0993 93.5914 -23.2803 94.8101C-21.7645 95.8257 -21.0583 98.0497 -22.2727 99.8623C-23.0823 101.071 -24.2959 101.571 -25.6102 101.566L-52.3277 141.443L-45.7659 155.906L-59.7319 176.751L-77.5249 175.773L-92.0626 145.022L-83.5616 132.334L-90.5282 118.475L-73.1213 92.4941L-56.2378 92.8633L-48.1416 80.7794L-13.5657 81.6219L-6.80333 98.4086Z" fill="#F58935"/>
</svg>
