<svg width="149" height="25" viewBox="0 0 149 25" fill="none" xmlns="http://www.w3.org/2000/svg">
<path d="M5.98083 18.6262H1.23741C0.412471 18.6262 0 18.106 0 18.106C0.824943 19.5628 3.19665 24.1414 3.19665 24.1414C3.60912 24.6616 4.0216 24.9738 4.6403 24.9738C5.98083 24.9738 8.04319 23.6211 8.04319 23.6211L15.9833 18.6262H5.98083Z" fill="white"/>
<path d="M6.08509 1.8724L0.413608 15.4C0.104254 16.3365 0.31049 17.4812 1.96037 17.4812H6.39444L10.3129 8.01185C9.0755 4.8901 8.04433 2.39269 8.04433 2.39269C7.94121 2.08052 7.63186 1.24805 7.01315 1.24805C6.39444 1.24805 6.18821 1.76834 6.08509 1.8724Z" fill="white"/>
<path d="M15.4691 0.936363C15.3659 0.832304 15.1597 0.312012 14.4379 0.312012H7.32275C7.32275 0.312012 8.35393 0.41607 8.7664 1.45666C8.7664 1.45666 9.9007 4.16218 10.9319 6.76364C13.9223 13.8396 18.5626 25.0779 18.5626 25.0779H25.4715C25.5746 24.9739 15.5722 1.04042 15.4691 0.936363Z" fill="white"/>
<path d="M45.0605 18.5222H42.4826L41.039 15.0883H34.3363L32.8926 18.5222H30.3147L36.5018 4.16211H38.7704L45.0605 18.5222ZM37.6361 7.17981L35.1612 12.903H40.0078L37.6361 7.17981Z" fill="white"/>
<path d="M68.0572 18.5221H65.5823V6.5554H61.0452V4.26611H72.6975L71.7694 6.5554H68.0572V18.5221Z" fill="white"/>
<path d="M115.697 6.5554H108.066V10.1975H112.913V12.4867H108.066V16.2328H115.697V18.5221H105.591V4.26611H115.697V6.5554Z" fill="white"/>
<path d="M133.434 18.5221H131.062V4.26611H133.434V18.5221Z" fill="white"/>
<path d="M123.326 6.34676C121.883 6.34676 120.645 6.76299 120.645 7.80358C120.645 8.94822 121.367 9.36446 124.048 10.1969C127.039 11.1335 128.585 12.174 128.585 14.5674C128.585 17.2729 126.523 18.8338 123.429 18.8338C121.264 18.8338 119.305 18.1054 117.861 16.8567L118.789 14.5674C120.13 15.712 121.78 16.5445 123.533 16.5445C125.079 16.5445 126.111 15.8161 126.111 14.6714C126.111 13.7349 125.595 13.1106 123.017 12.2781C120.027 11.3416 118.274 10.301 118.274 7.80358C118.274 5.41023 120.542 3.95341 123.326 4.05747C126.11 4.05747 127.76 5.09806 127.967 5.30617L127.039 7.38735C126.523 6.97111 125.286 6.34676 123.326 6.34676Z" fill="white"/>
<path d="M136.527 11.1335L142.817 4.26562H139.827L133.433 11.1335L140.445 18.5216H143.539L136.527 11.1335Z" fill="white"/>
<path d="M80.4286 4.05811C76.3039 4.05811 73.0042 7.28392 73.0042 11.4463C73.0042 15.5045 76.3039 18.8344 80.3255 18.8344C84.3471 18.8344 87.6469 15.5045 87.6469 11.4463C87.75 7.28392 84.4502 4.05811 80.4286 4.05811ZM80.4286 16.5451C77.6444 16.5451 75.5821 14.2558 75.5821 11.4463C75.5821 8.63668 77.6444 6.34739 80.4286 6.34739C83.2128 6.34739 85.2752 8.63668 85.2752 11.4463C85.172 14.2558 83.1097 16.5451 80.4286 16.5451Z" fill="white"/>
<path d="M95.6915 4.26562H90.3293V18.5216H95.6915C99.7131 18.5216 103.013 15.3999 103.013 11.3416C103.013 7.28332 99.7131 4.26562 95.6915 4.26562ZM95.6915 16.2324H92.8042V6.55491H95.6915C98.4756 6.55491 100.538 8.53203 100.538 11.3416C100.538 14.1512 98.4756 16.2324 95.6915 16.2324Z" fill="white"/>
<path d="M58.2606 12.2781C58.2606 16.5445 55.7857 18.8338 52.1766 18.8338C48.5675 18.8338 46.0927 16.5445 46.0927 12.2781V4.26562H48.5675V12.4862C48.5675 14.9837 50.0111 16.4405 52.1766 16.4405C54.239 16.4405 55.7857 14.9837 55.7857 12.4862V4.26562H58.2606V12.2781Z" fill="white"/>
<path d="M148.284 16.7529C148.284 15.7123 147.459 14.9839 146.531 14.9839C145.499 14.9839 144.778 15.8164 144.778 16.7529C144.778 17.7935 145.603 18.5219 146.531 18.5219C147.459 18.5219 148.284 17.7935 148.284 16.7529ZM148.077 16.7529C148.077 17.6894 147.459 18.3138 146.531 18.3138C145.706 18.3138 144.984 17.6894 144.984 16.7529C144.984 15.8164 145.603 15.192 146.531 15.192C147.356 15.192 148.077 15.8164 148.077 16.7529Z" fill="white"/>
<path d="M147.252 17.6895L146.84 17.0651C146.737 16.9611 146.737 16.857 146.634 16.857C146.943 16.857 147.149 16.6489 147.149 16.3367C147.149 16.0245 146.943 15.8164 146.531 15.8164H145.912V17.6895H146.221V16.857C146.324 16.857 146.427 16.857 146.531 17.0651L146.943 17.6895H147.252ZM146.84 16.3367C146.84 16.6489 146.634 16.6489 146.427 16.6489H146.221V16.0245H146.531C146.737 16.0245 146.84 16.1286 146.84 16.3367Z" fill="white"/>
</svg>
