<svg width="88" height="23" viewBox="0 0 88 23" fill="none" xmlns="http://www.w3.org/2000/svg">
<path fill-rule="evenodd" clip-rule="evenodd" d="M86.8831 21.1548L79.3659 10.796L86.2712 1.91698C86.2712 1.91698 86.7082 1.39469 86.7082 1.30764C87.2327 0.698294 87.1453 0.350098 86.7082 0.350098C86.6208 0.350098 81.4637 0.350098 81.2889 0.350098C80.677 0.350098 80.5896 0.611245 80.0651 1.30764C79.9777 1.39469 79.4533 2.09108 79.4533 2.09108L73.6843 9.57729H73.5969V0.785343C73.5969 0.524196 73.422 0.350098 73.1598 0.350098H68.5271C68.2649 0.350098 68.0901 0.524196 68.0901 0.785343V21.8512C68.0901 22.1123 68.2649 22.2864 68.5271 22.2864H73.1598C73.422 22.2864 73.5969 22.1123 73.5969 21.8512V12.7111H73.6843L79.2785 20.6325C79.2785 20.6325 79.7155 21.2419 79.9777 21.59C80.0651 21.6771 80.1526 21.7641 80.1526 21.7641C80.5896 22.1994 80.8518 22.2864 81.3763 22.2864C81.6385 22.2864 86.009 22.2864 86.9705 22.2864C87.4949 22.2864 87.5823 22.0253 87.1453 21.503L86.8831 21.1548Z" fill="#00953B"/>
<path fill-rule="evenodd" clip-rule="evenodd" d="M31.2922 0.436035H22.7261H22.2891C22.0269 0.436035 21.8521 0.610133 21.8521 0.87128V21.763C21.8521 22.0242 22.0269 22.1983 22.2891 22.1983H22.7261H26.3099H26.8344C27.0092 22.1983 27.2714 22.0242 27.2714 21.763V16.6271H30.9426C37.6731 16.6271 41.5191 13.2322 41.5191 8.44454C41.5191 3.7439 37.8479 0.436035 31.2922 0.436035ZM30.4181 12.2747H27.2714V4.87553H30.7678C34.6138 4.87553 35.9249 6.61651 35.9249 8.53159C35.9249 10.7949 34.3516 12.2747 30.4181 12.2747Z" fill="#00953B"/>
<path fill-rule="evenodd" clip-rule="evenodd" d="M54.6305 -0.0859375C48.6867 -0.0859375 43.1799 4.35356 43.1799 11.3175C43.1799 18.2814 48.6867 22.7209 54.6305 22.7209C60.4869 22.7209 65.9937 18.2814 65.9937 11.3175C65.9937 4.35356 60.4869 -0.0859375 54.6305 -0.0859375ZM54.6305 17.4109C51.1342 17.4109 48.9489 14.7124 48.9489 11.3175C48.9489 7.92257 51.1342 5.22405 54.6305 5.22405C58.1269 5.22405 60.3121 7.92257 60.3121 11.3175C60.3121 14.7124 58.1269 17.4109 54.6305 17.4109Z" fill="#00953B"/>
<path fill-rule="evenodd" clip-rule="evenodd" d="M18.8801 21.1538L11.2755 10.795L18.1809 1.916C18.1809 1.916 18.6179 1.39371 18.6179 1.30666C19.1424 0.697317 19.055 0.349121 18.6179 0.349121C18.5305 0.349121 13.3734 0.349121 13.1985 0.349121C12.6741 0.349121 12.4993 0.697317 11.9748 1.30666C11.8874 1.39371 11.4504 2.0901 11.4504 2.0901L5.59394 9.66336H5.50653V0.784366C5.50653 0.523219 5.33172 0.349121 5.06949 0.349121H0.436802C0.174574 0.349121 -0.000244141 0.523219 -0.000244141 0.784366V21.8502C-0.000244141 22.1114 0.174574 22.2855 0.436802 22.2855H5.06949C5.33172 22.2855 5.50653 22.1114 5.50653 21.8502V12.7101H5.59394L11.1881 20.6315C11.1881 20.6315 11.6252 21.2409 11.9748 21.5891C11.9748 21.6761 12.0622 21.7632 12.0622 21.7632C12.4993 22.1984 12.8489 22.2855 13.286 22.2855C13.5482 22.2855 18.006 22.2855 18.8801 22.2855C19.4046 22.2855 19.492 22.0243 19.1424 21.502C19.055 21.502 18.8801 21.1538 18.8801 21.1538Z" fill="#00953B"/>
</svg>
