<svg width="109" height="30" viewBox="0 0 109 30" fill="none" xmlns="http://www.w3.org/2000/svg">
<path d="M69.9827 6.64111H69.0152C64.0181 16.2614 65.2466 22.3933 66.5592 25.839L67.9464 29.0531H75.4688L69.9827 6.64111Z" fill="#2F4486"/>
<path d="M50.2341 21.4392L43.9641 29.0535H52.6916L55.0941 25.8394H64.3631C61.4597 17.5296 52.0119 20.613 50.2341 21.4392Z" fill="white"/>
<path d="M67.4224 6.65283H62.9511L52.521 18.8407C59.5955 17.1003 64.4377 11.5499 67.4224 6.65283Z" fill="#C22821"/>
<path d="M30.9069 16.8685C29.5475 19.8805 30.5183 23.0688 34.2181 23.6638C38.1253 24.2933 41.4891 21.3464 42.6306 18.8143C43.7854 16.2555 43.3724 12.6713 39.4088 12.0335C35.5914 11.4172 32.1741 14.0697 30.9203 16.8422L30.9069 16.8685ZM23.7263 18.0842C25.8357 10.8897 33.2917 6.43213 40.0331 6.43213C47.5703 6.43213 51.4039 11.7227 49.61 17.8462C47.8122 23.9703 40.9069 29.2608 33.3046 29.2608C25.6049 29.2608 22.059 23.7614 23.7182 18.1149L23.7263 18.0842Z" fill="white"/>
<path d="M82.7784 6.63477H91.3792L88.4873 16.956L100.136 6.63477H108.729L94.9461 17.9954L103.399 29.0598H93.4208L87.7359 19.5435L84.9644 29.0598H76.3655L82.7784 6.63477Z" fill="#2F4486"/>
<path d="M14.8473 0.394896C14.8129 0.439583 11.3846 4.84368 10.8034 5.30026C9.40566 6.39752 6.1227 6.68701 5.33542 6.57821L5.27615 6.56995L5.05005 7.25726L5.12797 7.27474C5.16095 7.28203 8.4353 8.02713 10.05 8.9743C11.561 9.86076 13.67 12.1276 13.9534 12.4361C14.1107 12.2583 14.2914 12.0475 14.4898 11.8105C13.9262 11.0187 12.5787 8.18062 12.8053 6.47475C12.9032 5.73499 14.9501 0.519728 14.9706 0.46727L15.1542 0L14.8473 0.394896Z" fill="#C22821"/>
<path d="M13.9547 12.4357C13.7419 12.6761 13.5713 12.8573 13.4786 12.9301C12.1248 13.9929 9.00966 14.297 8.09953 14.2159C8.0068 14.485 7.92793 14.7249 7.86865 14.9197C8.3218 15.0256 11.2314 15.7274 12.7262 16.6042C14.3409 17.5518 16.6391 20.0757 16.6621 20.1009L16.7161 20.1607L17.2457 19.5501L17.2094 19.502C16.674 18.7997 15.2491 15.8528 15.4809 14.1041C15.5789 13.3644 17.6253 8.14912 17.6463 8.09667L17.8299 7.62939L17.5225 8.02429C17.4977 8.05635 15.7051 10.3587 14.491 11.8096L13.9547 12.4357Z" fill="#2F4486"/>
<path d="M7.86897 14.9204C7.80779 15.122 7.76716 15.2774 7.75521 15.3663C7.52863 17.0722 8.87614 19.9103 9.43971 20.702C9.24133 20.9391 9.06065 21.1503 8.90338 21.3276C8.61992 21.0192 6.51095 18.7523 4.99997 17.8659C3.38478 16.9182 0.110421 16.1736 0.0779163 16.1663L0 16.1488L0.226098 15.4615L0.285371 15.4698C1.07217 15.5786 4.35561 15.2891 5.75331 14.1918C6.33457 13.7357 9.76284 9.33114 9.79726 9.28645L10.052 8.9751L9.92058 9.35931C9.90481 9.39962 8.70883 12.4476 8.09985 14.2171L7.86897 14.9204Z" fill="#C3C4C7"/>
<path d="M8.90518 21.3277C8.69247 21.5681 8.52182 21.7493 8.42909 21.8222C7.03139 22.9194 3.74843 23.2089 2.96115 23.1001L2.90188 23.0919L2.67578 23.7792L2.7537 23.7967C2.78668 23.8039 6.06104 24.549 7.67575 25.4962C9.29046 26.4439 11.5887 28.9677 11.6117 28.993L11.6662 29.0527L12.1958 28.4422L12.1595 28.3941C11.6241 27.6917 10.1992 24.7448 10.4315 22.9962C10.5295 22.2564 12.5758 17.0412 12.5968 16.9887L12.7283 16.6045L12.4735 16.9158C12.4487 16.9479 10.6561 19.2503 9.44199 20.7011L8.90518 21.3277Z" fill="white"/>
</svg>
