<svg width="89" height="56" viewBox="0 0 89 56" fill="none" xmlns="http://www.w3.org/2000/svg">
<path fill-rule="evenodd" clip-rule="evenodd" d="M44.2127 8.43999L44.4595 8.37456C32.4964 12.0714 23.0181 18.3855 22.8207 23.0311C22.6068 28.0038 33.1053 29.1652 46.2531 25.632C59.401 22.0987 70.2286 15.1957 70.4425 10.223C70.5577 7.63846 67.7768 6.10084 63.2515 5.69189C68.7805 5.93726 72.2362 7.54032 72.2362 10.4029C72.2362 15.85 59.6807 23.7999 44.1962 28.1674C28.7117 32.5349 16.1562 31.6516 16.1562 26.2045C16.1727 20.7574 28.7446 12.8075 44.2127 8.43999Z" fill="white"/>
<path fill-rule="evenodd" clip-rule="evenodd" d="M22.261 37.0989L61.1286 -0.000488281L57.6071 29.1653L51.1895 21.8371L22.261 37.0989Z" fill="#ED1941"/>
<path d="M6.86043 49.4813C6.86043 51.0516 5.725 52.5565 3.76682 52.5565H1.77572V55.6318H-0.00146484V46.3896H3.32252C5.74146 46.406 6.86043 47.6983 6.86043 49.4813ZM5.08325 49.4813C5.08325 48.6143 4.39212 48.1563 3.53644 48.1563H1.77572V50.7899H3.5529C4.39212 50.8062 5.08325 50.2501 5.08325 49.4813Z" fill="white"/>
<path d="M17.7697 51.0191C17.7697 53.6855 15.5811 55.861 12.8989 55.861C10.2166 55.861 8.02808 53.6855 8.02808 51.0191C8.02808 48.3528 10.2166 46.1772 12.8989 46.1772C15.5811 46.1772 17.7697 48.3528 17.7697 51.0191ZM15.9925 51.0191C15.9925 49.3179 14.6102 47.9439 12.8989 47.9439C11.1875 47.9439 9.80526 49.3179 9.80526 51.0191C9.80526 52.7203 11.1875 54.0944 12.8989 54.0944C14.6102 54.0944 15.9925 52.7203 15.9925 51.0191Z" fill="white"/>
<path d="M26.2778 53.1457L26.9524 54.7487C26.1626 55.4685 24.9778 55.861 23.9411 55.861C21.2095 55.861 18.988 53.6855 18.988 51.0191C18.988 48.3528 21.2095 46.1772 23.9411 46.1772C24.9778 46.1772 26.1626 46.5698 26.9524 47.2732L26.2778 48.8763C25.6854 48.3038 24.8626 47.9439 23.974 47.9439C22.1968 47.9439 20.7652 49.3179 20.7652 51.0191C20.7652 52.7203 22.1968 54.0944 23.974 54.0944C24.8791 54.0944 25.7018 53.7509 26.2778 53.1457Z" fill="white"/>
<path d="M36.7778 55.6486H34.5398L31.0184 51.6083V55.6486H29.2412V46.4065H31.0184V50.2178L34.3095 46.3901H36.5474L32.5652 50.8067L36.7778 55.6486Z" fill="white"/>
<path d="M46.88 51.0191C46.88 53.6855 44.6914 55.861 42.0092 55.861C39.327 55.861 37.1384 53.6855 37.1384 51.0191C37.1384 48.3528 39.327 46.1772 42.0092 46.1772C44.6914 46.1772 46.88 48.3528 46.88 51.0191ZM45.1028 51.0191C45.1028 49.3179 43.7206 47.9439 42.0092 47.9439C40.2979 47.9439 38.9156 49.3179 38.9156 51.0191C38.9156 52.7203 40.2979 54.0944 42.0092 54.0944C43.7206 54.0944 45.1028 52.7203 45.1028 51.0191Z" fill="white"/>
<path d="M55.3879 53.1457L56.0626 54.7487C55.2727 55.4685 54.0879 55.861 53.0512 55.861C50.3196 55.861 48.0981 53.6855 48.0981 51.0191C48.0981 48.3528 50.3196 46.1772 53.0512 46.1772C54.0879 46.1772 55.2727 46.5698 56.0626 47.2732L55.3879 48.8763C54.7955 48.3038 53.9727 47.9439 53.0841 47.9439C51.3069 47.9439 49.8753 49.3179 49.8753 51.0191C49.8753 52.7203 51.3069 54.0944 53.0841 54.0944C53.9892 54.0944 54.8119 53.7509 55.3879 53.1457Z" fill="white"/>
<path d="M68.5678 55.6479H66.6919L65.9185 49.5955L63.4831 55.6479H62.5945L60.1591 49.5955L59.3857 55.6479H57.5098L58.8427 46.4058H60.6198L63.0552 52.3436L65.4906 46.4058H67.2678L68.5678 55.6479Z" fill="white"/>
<path d="M79.2633 51.0191C79.2633 53.6855 77.0747 55.861 74.3925 55.861C71.7103 55.861 69.5217 53.6855 69.5217 51.0191C69.5217 48.3528 71.7103 46.1772 74.3925 46.1772C77.0747 46.1772 79.2633 48.3528 79.2633 51.0191ZM77.4861 51.0191C77.4861 49.3179 76.1039 47.9439 74.3925 47.9439C72.6812 47.9439 71.2989 49.3179 71.2989 51.0191C71.2989 52.7203 72.6812 54.0944 74.3925 54.0944C76.1039 54.0944 77.4861 52.7203 77.4861 51.0191Z" fill="white"/>
<path d="M87.7712 53.1457L88.4459 54.7487C87.656 55.4685 86.4712 55.861 85.4345 55.861C82.7029 55.861 80.4814 53.6855 80.4814 51.0191C80.4814 48.3528 82.7029 46.1772 85.4345 46.1772C86.4712 46.1772 87.656 46.5698 88.4459 47.2732L87.7712 48.8763C87.1788 48.3038 86.356 47.9439 85.4674 47.9439C83.6902 47.9439 82.2586 49.3179 82.2586 51.0191C82.2586 52.7203 83.6902 54.0944 85.4674 54.0944C86.3725 54.0944 87.1788 53.7509 87.7712 53.1457Z" fill="white"/>
</svg>
