<svg width="110" height="36" viewBox="0 0 110 36" fill="none" xmlns="http://www.w3.org/2000/svg">
<path d="M33.2847 5.94727H37.839L41.476 20.4126C41.476 20.4126 41.8705 22.0814 42.034 22.9014C42.1976 22.0847 42.5921 20.3806 42.5921 20.3806L46.3285 5.94727H50.7865L54.523 20.3806C54.523 20.3806 54.9174 22.0814 55.081 22.9014C55.2446 22.0847 55.6391 20.4126 55.6391 20.4126L59.2761 5.94727H63.8303L57.5057 28.856H52.852L48.5607 12.2318L44.2695 28.856H39.6158L33.2847 5.94727Z" fill="white"/>
<path d="M70.5872 12.623H66.4595V28.8565H70.5872V12.623Z" fill="white"/>
<path d="M85.9456 28.8565V19.497C85.9456 17.3701 84.9288 16.028 82.6357 16.028C80.4741 16.028 78.8672 17.8922 78.8672 20.6085V28.8565H74.7395V12.6231H78.8672V15.2401C80.0795 13.3758 82.0136 12.165 84.3708 12.165C87.8442 12.165 90.0733 14.4233 90.0733 17.7929V28.8534H85.9456V28.8565Z" fill="white"/>
<path d="M93.7839 5.94727H97.9115V17.533L102.86 12.6226H107.973L102.042 18.4139L108.762 28.8529H104.009L99.1592 21.2615L97.9148 22.4722V28.8529H93.7871V5.94727H93.7839Z" fill="white"/>
<path d="M65.9106 4.2718L67.5238 5.88297L65.9106 7.49414L67.8189 9.39681L71.3373 5.88297L67.8189 2.36914L65.9106 4.2718Z" fill="white"/>
<path d="M9.75413 0.537109L0.539795 9.73969L8.33653 17.5264L0.539795 25.3165L9.75413 34.5191L26.7684 17.5264L9.75413 0.537109Z" fill="#FF4F12"/>
</svg>
