<svg width="125" height="144" fill="none" xmlns="http://www.w3.org/2000/svg"><path d="M126.138 13.98l-.991 2.894-11.881 32.805-2.697 2.062-78.886 61.287 94.455-99.049zm-10.041 35.35l13.979-39.003 24.413 9.43-38.392 29.573zm-2.296 3.145l16.331 32.812-105.223 36.767-.932.179 17.83-13.849 71.994-55.91zm24.878 48.179l35.608 10.379-135.716 10.724 100.108-21.103zm-8.031-14.692l6.262 12.52-105.513 22.137 99.251-34.657zm23.461 16.568l-14.518-4.176-6.592-13.23 46.36-16.22.706 41.022-25.956-7.396zm1.233-82.356l23.838 47.798-46.545 16.256-16.883-33.673 39.59-30.381zM17.782 124.192c.037.186-.15.222-.15.222l.036.186.036.187.186-.036.186-.036.187-.035 163.341-11.764.186-.035.187-.036s.186-.036.15-.222l.151-.222s-.036-.187.151-.222l-.036-.187-.496-43.96-.107-.56-24.461-49.031c-.072-.373-.294-.524-.702-.639l-26.9-10.307-.186.036-.187.036-.186.035-.186.036-.187.036s-.186.035-.15.222L18.306 123.899c-.408-.115-.372.071-.523.293.15-.222.15-.222 0 0 .15-.222.15-.222 0 0 .15-.222.15-.222 0 0 .15-.222-.036-.186 0 0z" fill="#2F586F"/></svg>