<svg width="73" height="139" fill="none" xmlns="http://www.w3.org/2000/svg"><path d="M69.43 55.282L52.37 112.95V76.162l17.06-20.88zM52.37 74.969V53.492l17.853-.596v.198L52.371 74.97zm-33.522 38.18l7.538-5.369 18.646 10.539 1.19.597-27.374-5.767zm-2.578 1.988l29.555 6.364-59.904 14.715 30.349-21.079zm-62.682-19.289l23.605 35.993-43.044-43.35 19.44 7.357zm-6.744-10.539l4.76 7.159-18.05-6.562 13.29-.597zm.595-21.278l-.793 20.483-15.076.596h-.198l16.067-21.079zm.199-4.374l-15.274 19.686 16.86-54.486-1.586 34.8zm31.737-34.402l-8.133 4.772-16.662-10.141 24.795 5.369zm.992-.597l-26.779-5.767L15.08 4.176l-34.712 20.482zm38.481-17.3L6.55 30.226l-22.811-4.971L20.832 3.38l-1.984 3.977zm25.39 34.998L7.542 30.425 22.22 2.784l22.018 39.572zm3.372.994L28.37 8.55l40.465 41.76-21.225-6.96zm4.166 7.756l-3.57-6.562 19.042 6.164-15.472.398zm-25.192 55.481l-5.95-23.465 29.158-27.84v22.67l-23.208 28.635zm-36.101 2.784l-8.926 26.646-1.389-1.392-25.191-38.379 35.506 13.125zm-42.449-23.863l39.474 11.335 2.578 9.942-37.291-13.72-4.76-7.557zm28.96-28.238L-52.56 83.917l.992-21.079 22.414-28.834 6.15 23.266zm21.82-19.885l-24.398-6.363 8.53-4.972 23.207 4.971-7.339 6.364zm10.91 2.784l-2.38-8.949 37.29 12.13 3.968 6.96L9.724 40.17zm.595 2.784l38.283 10.141-28.564 27.244-9.72-37.385zm-10.513-5.37L6.55 31.42l2.182 8.551-8.926-2.386zm-20.828 17.699l-5.95-22.272 23.604 6.165-17.654 16.107zM-.194 99.428l-9.918-2.784-10.91-40.368 18.447-16.704L9.13 42.754l9.918 38.38L-.194 99.427zm2.777.795L19.84 83.718l5.95 23.067-23.207-6.562zm-.595.597l23.604 6.761-7.736 5.369-23.208-4.971 7.34-7.159zm-2.777-.796l-6.546 6.165-2.38-8.75 8.926 2.585zm-51.375-15.51l29.357-26.448 10.116 37.782-39.473-11.334zm39.077 42.952l5.752-17.499 22.216 4.773-30.944 21.874 2.975-9.148zM-45.42 22.67l14.877 8.948-20.828 26.846 1.587-36.789.397-1.392 3.967 2.386zm94.419 97.041l-21.82-12.329L49.99 79.343v40.766l-.991-.398zM73 51.702v-.398s0-.198-.198-.198L23.609.199 23.41 0h-1.19l-72.599 17.3h-.198s-.199 0-.199.2c0 0-.198 0-.198.198l-.198.199v.199L-72 85.11v.994L-19.237 139h.992l69.227-16.903h.199L71.81 52.299c1.19-.398 1.19-.398 1.19-.597z" fill="#2F586F"/></svg>