<svg width="129" height="274" viewBox="0 0 129 274" fill="none" xmlns="http://www.w3.org/2000/svg">
<path fill-rule="evenodd" clip-rule="evenodd" d="M31.4371 273.225C30.891 273.792 30.0385 274 29.1861 274C28.0251 274 27.2511 273.23 26.8641 272.075L0.160301 182.376C-0.22671 181.606 0.160301 180.836 0.547312 180.451L35.3783 115.775C35.6467 115.241 36.2875 114.707 37.0424 114.558L101.69 78.9532L242.81 0.288716C243.584 -0.0962631 244.358 -0.0962631 245.132 0.288716C245.906 0.673665 246.293 1.05867 246.68 1.8286L272.997 92.6827C272.903 92.7763 272.854 92.8699 272.835 92.958C272.893 93.1097 272.935 93.2614 272.962 93.4131C272.983 93.4386 272.997 93.4527 272.997 93.4527C272.997 93.5078 272.995 93.5648 272.991 93.6234C272.997 93.6917 273 93.7601 273 93.8284C273 94.2134 273 94.5983 272.613 94.9833L237.782 159.659L236.621 160.814L31.4371 273.225ZM61.6105 206.341L30.2771 264.523L5.96546 181.991L6.64473 180.723L47.5119 158.257L61.6105 206.341ZM36.1494 264.757L65.354 210.38C65.8093 210.42 66.2647 210.327 66.7201 210.1L223.754 122.565L233.66 156.328L233.525 156.579L36.1494 264.757ZM234.845 154.122L225.236 121.739L254.954 105.173L263.712 100.373L234.845 154.122ZM222.074 116.837L208.295 69.871L52.7147 155.397L66.3263 202.576L222.074 116.837ZM266.785 92.2121L242.09 9.07036L209.92 68.8052L209.619 69.1048L223.542 116.028L266.785 92.2121ZM135.633 65.9197L239.506 8.78148L207.595 68.0353C207.703 68.0353 207.781 68.0653 207.837 68.1168L52.2461 153.773L41.9514 118.091L135.633 65.9197ZM37.3133 123.475L8.04655 178.106L47.0379 156.641L37.3133 123.475Z" fill="#2F586F"/>
</svg>
