<svg width="81" height="93" fill="none" xmlns="http://www.w3.org/2000/svg"><path fill-rule="evenodd" clip-rule="evenodd" d="M.5 69.3l40 23 40-23v-46l-40-23-40 23v46zm40 20.748L2.435 68.174V24.426L40.5 2.552l38.064 21.874v43.748L40.5 90.048zm12.892-61.597c.263.09.507.157.818.157.161 0 .323 0 .484-.161.645 0 1.129-.483 1.451-.965a2.228 2.228 0 00.323-1.77c0-.643-.484-1.125-.968-1.447-1.129-.643-2.58-.322-3.225.804-.323.483-.484 1.126-.323 1.77 0 .47.259.854.587 1.153l-1.11 1.788-5.766-3.584-.484.804c-1.662 2.677-1.297 6.062.612 8.392-2.826-.63-5.782.508-7.55 3.027l-1.954 3.123-2.568-1.586 4.36-7.006-11.935-7.398-11.613 18.657 11.936 7.399 4.489-7.212 2.557 1.579-6.827 10.91-1.509-.934-5.484 5.308 18.387 11.42 2.42-7.238-1.388-.86 6.814-10.976 2.475 1.529-4.512 7.25 11.935 7.398 11.613-18.657-11.935-7.399-4.431 7.12-2.48-1.532 2.07-3.335c1.519-2.652 1.15-5.799-.718-8.041a7.2 7.2 0 001.526.16c.242 0 .525-.04.807-.08.282-.04.564-.08.806-.08 1.936-.483 3.549-1.61 4.517-3.218l.483-.804-5.832-3.625 1.142-1.84zM34.025 45.156l1.75-2.795-2.566-1.585-1.743 2.8 2.56 1.58zm-4.234-2.615l1.75-2.794-8.677-5.36-1.751 2.795 8.678 5.359zm-11.467-.91l-1.212 1.935 8.71 5.307 1.18-1.882-8.678-5.36zm9.19 4.541l-8.677-5.358L20.6 38l8.678 5.36-1.763 2.812zm21.398 8.142l-2.477-1.53 1.646-2.65 2.48 1.531-1.65 2.649zM46.63 61.74l1.22-1.946 8.676 5.36-1.187 1.894-8.71-5.308zm10.409 2.596l-8.677-5.36 1.747-2.787 8.678 5.359-1.748 2.788zm-6.417-8.965l8.678 5.358 1.656-2.643-8.677-5.359-1.657 2.644zM32.055 38.928l1.75-2.793-8.677-5.358-1.75 2.792 8.677 5.36zM63.24 54.442l-1.771 2.826-8.678-5.36 1.771-2.825 8.678 5.36zm-9.03-29.534c-.484 0-.968.161-1.129.644-.161.322-.323.643-.161 1.126.161.321.322.643.645.804.322.16.645.322 1.129.16.322-.16.645-.321.806-.643.484-.643.162-1.447-.483-1.93-.323-.16-.484-.16-.807-.16zm-5.644 10.456c-2.097-1.448-3.064-4.182-2.097-6.595l8.871 5.63c-.645.804-1.612 1.286-2.741 1.608a5.202 5.202 0 01-4.033-.643zM38.08 66.244l-9.128-5.673-3.614-2.207-2.58 2.573 14.355 8.846 1.129-3.538-.118-.072-.044.072zm1.612-26.86L28.255 57.859l4.157 2.574 6.647-10.71.823.508-6.646 10.71 4.198 2.57 11.452-18.496c1.452-2.574.484-5.63-1.936-7.077-2.419-1.447-5.645-.804-7.258 1.448zM25.64 29.959l1.15-1.833 8.709 5.308-1.18 1.884-8.679-5.359zm38.114 23.666l-8.678-5.359 1.232-1.965 8.71 5.308-1.264 2.016z" fill="#fff"/></svg>