<svg width="81" height="93" fill="none" xmlns="http://www.w3.org/2000/svg"><path fill-rule="evenodd" clip-rule="evenodd" d="M40.5 92.4L.5 69.44V23.36L40.5.4l40 22.96v45.92l-40 23.12zM2.435 68.317L40.5 90.153l38.064-21.836V24.484L40.5 2.648 2.435 24.484v43.833zm32.097-9.152c1.774.963 3.87 1.445 5.967 1.445 1.775 0 3.549-.321 5.484-.963h.162c2.903-1.124 5.16-3.372 6.612-6.102 1.452-2.89 1.775-5.94 1.13-9.151-.807-3.372-2.742-6.262-5.646-8.189a9.709 9.709 0 01-.398-.283c-.293-.215-.553-.407-.892-.52-3.548-1.766-7.742-1.926-11.29-.481h-.162c-2.903 1.284-5.16 3.371-6.613 6.1l-.16.161c-1.452 2.73-1.775 5.941-1.13 8.992.807 3.693 3.387 7.064 6.774 8.83l.162.16zm7.742-1.445c.201-.16.403-.321.645-.482.161.16.322.321.484.642l-.32.082c-.496.13-.92.24-1.455.24.242-.161.444-.322.645-.482zm-2.097-1.606c-1.29.803-2.58 1.124-3.549 1.124l1.936-3.532c.968.482 1.774 1.124 2.58 1.766-.16.08-.322.2-.483.321-.162.12-.323.241-.484.321zm-6.774-3.532v-1.124c.967.16 1.935.482 3.064.964l-1.935 3.692c-.645-.802-1.13-2.087-1.13-3.532zm-2.42 0a7.486 7.486 0 01-.806-1.606h.806v1.606zm19.839-9.152h-.806v-1.605a7.47 7.47 0 01.806 1.605zm-3.226-.481c-.968-.161-2.097-.482-3.064-.964l1.935-3.693c.645.803 1.13 2.088 1.13 3.533v1.123zm-7.903-3.854c.323-.321.645-.482.968-.642 1.29-.803 2.58-1.124 3.548-1.124l-1.936 3.693c-.967-.642-1.774-1.285-2.58-1.927zm-2.016-2.087a2.163 2.163 0 00-.242-.321c.242-.08.484-.12.726-.16.242-.041.483-.081.725-.161h.323c-.242.16-.444.32-.645.481-.202.16-.403.321-.645.482a2.18 2.18 0 01-.242-.321zm7.374 18.946a8.438 8.438 0 01-.358-.482 12.862 12.862 0 002.42-3.372l2.419 1.285c-.968 1.445-2.258 2.73-3.871 3.532-.108-.321-.359-.642-.61-.963zm-2.132-2.248a23.046 23.046 0 00-3.226-2.248l1.129-2.569 4.032 2.087c-.484.964-1.129 1.927-1.935 2.73zm7.742-2.569l-2.42-1.285c.645-1.284 1.13-2.568 1.29-3.853h1.775c.161 1.766 0 3.532-.645 5.138zm-13.226-.803c-1.13-.482-2.42-.963-3.71-1.284.122-.851.43-1.703.712-2.484.09-.25.178-.494.256-.727l4.032 2.087-1.29 2.408zm8.71-1.605l-4.033-2.088 1.29-2.408c1.29.482 2.581.963 3.872 1.284a25.4 25.4 0 01-1.13 3.212zm-14.84-.16h-1.29c-.16 0-.322 0-.483-.162-.162-1.766 0-3.532.645-5.137l2.42 1.284c-.124.37-.248.727-.369 1.078-.352 1.023-.682 1.98-.922 2.936zm8.71-2.891l-4.032-2.087c.484-1.124 1.29-1.927 2.097-2.57a23.052 23.052 0 003.226 2.249l-1.29 2.408zm-6.29-3.211l-2.42-1.285c.969-1.445 2.259-2.73 3.872-3.532.107.321.358.642.61.963.125.161.25.322.358.482-.807.964-1.613 2.087-2.42 3.372zm20.323 13.005l-.645 8.99c-.968.804-1.774 1.446-1.774 1.446-.646.642-1.613 2.408-.807 3.211.645.803 2.58.16 3.226-.482l1.613-1.605h9.516l1.129-1.124-7.742-1.927.806-.803c.721-.717 1.341-1.384 1.889-1.973.432-.466.82-.883 1.176-1.238h3.226l.968-1.124-2.904-1.284-.967-3.211-1.13.963-.483 3.05c-.646.429-1.362 1-2.199 1.666-.418.333-.866.69-1.35 1.064-.161.08-.322.2-.483.321-.162.12-.323.241-.484.321l-1.452-7.867-1.13 1.606zm1.612-25.209c4.839 4.496 7.742 10.436 8.064 17.02h1.613c-.322-7.065-3.387-13.488-8.548-18.144a26.323 26.323 0 00-18.871-6.743V24c6.613-.32 12.903 1.927 17.742 6.262zm4.84 14.611c-.967-5.459-4.032-10.436-8.387-13.647l.968-1.285c4.677 3.532 8.064 8.83 9.032 14.611l-1.613.321zm-42.58 6.584c1.613 5.62 5.484 10.597 10.484 13.648l.968-1.446c-4.84-2.73-8.388-7.385-9.84-12.684l-1.612.482zm22.743 19.91c-5.645 0-11.29-1.767-15.806-5.3-5.646-4.174-9.194-10.435-10.162-17.34l1.613-.16c.807 6.422 4.194 12.202 9.516 16.216 5.162 4.014 11.774 5.62 18.226 4.817l.161 1.606c-.666 0-1.29.043-1.892.084-.565.039-1.11.076-1.656.076zM21.951 30.263c5.806-4.977 9.838-4.014 10.161-3.853 0 0 .161.16 0 .642 0 1.445-.806 4.496-4.516 8.189-.645.642-1.29 1.284-1.936 1.766l-.645 2.73-2.419 2.086-1.13-2.89c-.967.16-1.45 0-1.773-.16l-1.13.963-.967-1.124.968-.963c-.323-.482-.323-.963-.323-1.606l-2.903-1.124 2.097-2.408 2.903-.642a12.623 12.623 0 011.613-1.606zm1.935 1.766c0 .964.807 1.606 1.613 1.606.807 0 1.613-.803 1.613-1.606 0-.963-.645-1.605-1.613-1.605s-1.613.802-1.613 1.605z" fill="#fff"/></svg>