<svg width="81" height="93" fill="none" xmlns="http://www.w3.org/2000/svg"><path fill-rule="evenodd" clip-rule="evenodd" d="M40.438 92.9L.6 69.9v-46l40-23 40 23v46l-40.162 23zM2.374 68.774L40.438 90.65l38.226-21.874v-43.75L40.438 3.152 2.374 25.026v43.749zm57.743-38.923V67.72c.1.194.163.448.163.734.161.643-.162 1.125-.645 1.125H22.538c-.323 0-.645-.482-.645-1.126 0-.283.062-.535.16-.728V26.397a1.634 1.634 0 01-.16-.729c0-.643.322-1.125.645-1.125h37.097c.322 0 .645.482.645 1.125.096.386.02.714-.163.915v3.268zm-.967 32.812v1.447H23.02v-1.447h36.13zm-18.065 3.699H23.02v.965h36.13v-.965H41.085zM59.15 60.41H23.02V34.676h36.13v25.735zm0-29.434v1.447H23.02v-1.447h36.13zm0-2.252v-1.61H23.02v1.61h36.13zM30.6 47.544c0 5.79 4.677 10.454 10.483 10.454 5.807 0 10.646-4.664 10.484-10.454 0-5.79-4.677-10.455-10.483-10.455-5.807 0-10.484 4.665-10.484 10.455zm1.129 0c0-5.147 4.193-9.329 9.355-9.329 5.16 0 9.354 4.182 9.354 9.329s-4.193 9.328-9.355 9.328c-5.16 0-9.354-4.181-9.354-9.328zm9.356 8.202c-1.13 0-2.258-.322-3.387-.804l-.323-.161 2.903-5.469.323.161c.322.161.645.161.968 0l.322-.16 2.903 5.468-.322.16c-.968.644-2.097.805-3.387.805zm-2.581-1.287a7.142 7.142 0 005.161 0l-2.258-4.02h-.806l-2.097 4.02zm4.515-7.237v.321l6.29-.321v-.483c-.16-2.412-1.451-4.503-3.386-5.79l-.323-.16-3.387 5.468.322.16c.162 0 .323.161.323.322.161.161.161.322.161.483zm.404-1.126c-.04-.04-.081-.08-.081-.161l2.58-4.02c1.452 1.125 2.42 2.733 2.581 4.503l-4.839.16c0-.08-.04-.12-.08-.16-.04-.04-.08-.08-.08-.161 0-.08-.041-.12-.081-.161zm-4.274 1.447l-6.452-.321v-.483c.162-2.412 1.452-4.503 3.387-5.79l.323-.16 3.548 5.307-.322.16-.323.322c0 .08-.04.161-.08.242-.04.08-.081.16-.081.24v.483zm-5.484-1.125l4.839.16c0-.08.04-.12.08-.16.04-.04.081-.08.081-.161 0-.08.04-.12.08-.161.041-.04.081-.08.081-.161l-2.58-4.02c-1.29 1.125-2.258 2.733-2.581 4.503zm7.581-.162c-.806 0-1.451.643-1.451 1.447s.645 1.448 1.451 1.448c.807 0 1.452-.644 1.452-1.448 0-.804-.645-1.447-1.452-1.447z" fill="#fff"/></svg>