<svg width="81" height="93" fill="none" xmlns="http://www.w3.org/2000/svg"><path fill-rule="evenodd" clip-rule="evenodd" d="M40.1 92.6L.1 69.64V23.56L40.1.6l40 22.96v45.92l-40 23.12zM2.035 68.516L40.1 90.352l38.064-21.836V24.683L40.1 2.847 2.035 24.683v43.833zm52.42 3.372H20.421V58.562l-1.129-1.124V28.216l1.451-1.284 2.904-2.89h.055l1.076-.964h14.676l.16-.16h9.355l1.13 1.124h9.838v9.955h.002v27.616h-.002v4.656l-5.484 5.62zm-6.291-1.445h5.645l4.516-4.495v-3.693l-1.129-1.124V34.639l1.13-1.124v-7.868h-8.872l-1.129-1.124h-8.064l-1.13 1.124H24.294l-2.258 2.248v7.868l-1.13 1.123v19.91l1.13 1.124v11.239h25.161l.968 1.284zM39.228 43.7a1.665 1.665 0 01-.096-.231c-.161-.642.161-1.124.645-1.285.484-.16 1.129.16 1.29.643.03.118.043.231.042.338l4.486 3.512a1.35 1.35 0 01.312-.04l3.03-4.021c-.05-.536.253-.93.682-1.073.596-.148 1.055.115 1.248.536l3.102.588-.16 1.124-3.167-.573a.914.914 0 01-.378.252c-.161.16-.161.16-.323.16-.05 0-.1-.003-.148-.01l-2.89 3.836c.087.575-.223 1.001-.672 1.15-.162.16-.162.16-.323.16-.484 0-.806-.32-.968-.802a1.41 1.41 0 01-.034-.193l-4.578-3.584a.513.513 0 01-.163.077l-3.61 6.611c.15.632-.171 1.105-.65 1.264-.161.16-.323.16-.323.16-.483 0-.806-.32-.967-.803a.55.55 0 01-.013-.025l-2.532-1.193a.831.831 0 01-.186.092l-.01.026a.132.132 0 01-.03.075l-1.59 3.894.009.022c.16.482-.162 1.124-.646 1.285-.16.16-.16.16-.322.16h-.038l-.018-.001-1.85 2.41-1.026-.781 1.943-2.529c-.106-.593.207-1.034.666-1.186.053-.013.105-.023.155-.03l1.542-3.778a1.707 1.707 0 01-.084-.206c-.161-.642.161-1.124.645-1.284.476-.158 1.108.15 1.282.618l2.513 1.184a.681.681 0 01.235-.037.675.675 0 01.227-.067l3.741-6.445zm.71-.552s0-.16.162-.16c.08.08.12.12.12.16 0 .04-.04.08-.12.16l-.162-.16zm-10.804 11.56s0-.16.16-.16c.162.16.162.32 0 .32l-.16-.16zm6.448-3.693c-.16 0-.16.16-.16.16l.16.16s.162-.16 0-.32zm14.198-8.509s0-.16.161-.16c.162.16 0 .32 0 .32l-.16-.16zm-3.71 5.137h-.323l.045.045c-.045.047-.045.115-.045.115l.08-.08.081.08c.08 0 .121 0 .141-.02.02-.02.02-.06.02-.14zm-.242.08l-.036-.035a.152.152 0 01.116-.045l-.08.08zM31.39 49.41s0-.16.162-.16c.16.16.16.32 0 .32l-.162-.16z" fill="#0A202C"/></svg>