<svg width="81" height="92" fill="none" xmlns="http://www.w3.org/2000/svg"><path fill-rule="evenodd" clip-rule="evenodd" d="M40.6 92L.6 69V23l40-23 40 23v46l-40 23zM2.535 68.035L40.6 89.909l38.065-21.874v-43.91L40.6 2.253 2.535 24.126v43.909zM44.47 26.378a2.577 2.577 0 002.58-2.573 2.577 2.577 0 00-2.58-2.573 2.577 2.577 0 00-2.581 2.573 2.577 2.577 0 002.58 2.573zm-7.902 23.32c-1.127.113-2.097.775-2.579 1.713v-9.432c0-.321.161-.804.323-.965.161-.16.484-.321.968-.321.645 0 1.29.16 1.29 1.286v7.72h-.002zM35.44 55.49h.03c.283.102.595.16.935.16h3.71l4.355 4.825c.593.59 1.321 1.046 2.186 1.116l-1.89 2.262h-9.934l-4.555-5.951v-2.826c.222.06.442.092.647.092h.16c.807 0 1.453-.482 1.936-.965.081.08.121.16.162.241.04.08.08.161.161.242a2.675 2.675 0 001.935.804h.162zm-1.617 9.225l-4.836-6.33-.047-4.07c-.447-.456-.597-.772-.597-1.238v-8.524c0-.644.161-1.126.645-1.609.323-.482.968-.804 1.936-.804.806 0 1.29.161 1.774.483v-.644c0-.804.161-1.447.645-1.93.323-.321.968-.643 1.935-.643.968 0 1.613.322 2.097.804v-.804c0-.804.162-1.448.645-1.93.07-.047.141-.097.214-.149.425-.303.919-.655 1.883-.655.968 0 1.452.16 1.936.643v-1.849a11.65 11.65 0 01-9.517-11.501c0-6.594 5.323-11.902 11.936-11.902 6.613 0 11.935 5.308 11.774 11.902 0 5.722-4.026 10.552-9.355 11.63v9.132l2.792 10.023c.37.355.593.578.593.578.593.665.641 1.534.395 2.388l.251.668-5.486 6.382v2.142h1.294v9.65H32.537v-9.65h1.287v-2.193zm1.29 2.193h9.033V65.14h-9.032v1.768zm11.779-32.307c4.848-1.205 8.548-5.552 8.548-10.636 0-6.112-5-10.937-10.968-10.937-6.13 0-10.968 4.986-10.968 10.937 0 5.14 3.631 9.376 8.549 10.514v-3.254c-2.998-.974-5.325-3.9-5.325-7.26 0-4.343 3.548-7.72 7.742-7.72 4.193 0 7.58 3.377 7.42 7.72 0 3.25-2.042 6.092-4.998 7.158V34.6zm-9.197-10.636c0 2.876 1.858 5.182 4.362 6.114.08-1.37 1.172-2.414 2.415-2.414 1.204 0 2.268.98 2.405 2.287 2.342-1.003 4.044-3.234 4.044-5.987 0-3.7-2.903-6.595-6.612-6.595-3.71 0-6.614 3.056-6.614 6.595zm8.064 21.553l2.048 7.49c-1.056-.942-2.256-1.94-3.176-2.505 0 0-.161-.161-.322-.161a2.67 2.67 0 00-1.772-.8v-4.024h3.222zm-2.577-1.443a49.54 49.54 0 012.258.057V30.399c0-.643-.484-1.287-1.13-1.287-.644 0-1.128.644-1.128 1.287v13.676zm-1.936-4.67V49.57l-2.742.076v-10.4c0-.322 0-.804.323-.965.322-.322.645-.322 1.129-.322.968 0 1.29.483 1.29 1.448zm-10.16 14.477c.806 0 1.29-.643 1.29-.804v-8.524c0-.804-.322-1.126-1.29-1.126-.484 0-.968.16-1.13.322-.16.16-.322.321-.322.643v8.685c0 .322.645.804 1.452.804zm14.514 5.95c.322.322.806.644 1.29.644s1.13-.16 1.452-.483c.968-.965 1.935-2.573 1.29-3.216 0 0-3.387-3.539-5.484-4.665a.302.302 0 01-.083-.012l-2.535 3.539 4.07 4.194zm-5.363-4.986l2.613-3.473a1.616 1.616 0 00-.476-.065l-5.806.16c-.968 0-1.613.805-1.613 1.77 0 .483.16.804.483 1.126.323.322.646.483.968.483h3.831zm-6.41 20.427h11.614v-7.077H33.828v7.077z" fill="#fff"/></svg>