<svg width="80" height="93" fill="none" xmlns="http://www.w3.org/2000/svg"><path fill-rule="evenodd" clip-rule="evenodd" d="M40 92.2l-40-23v-46l40-23 40 23v46l-40 23zM1.935 68.074L40 89.948l38.065-21.874V24.326L40 2.452 1.935 24.326v43.748zm16.128-19.622v-5.63h19.455a16.937 16.937 0 0116.029-11.42c9.355 0 16.935 7.56 16.935 16.888-.161 9.329-7.742 16.888-16.935 16.888-1.154 0-2.28-.115-3.37-.334l-32.114-.147v-11.42H12.58c-1.936 0-3.549-1.126-3.549-2.412 0-1.287 1.613-2.413 3.549-2.413h5.482zM44.791 62.75c-4.904-2.958-8.18-8.327-8.18-14.46 0-1.156.116-2.285.338-3.377H20.32v17.693l24.472.144zM18.062 49.9H12.58c-.807 0-1.452.482-1.452.965 0 .482.645.965 1.452.965h5.482V49.9zm5.325-10.134c-.322 0-.645-.322-.645-.644 0-1.608.807-2.412 1.452-3.056.645-.643 1.129-1.126 1.129-2.251 0-1.126-.484-1.609-1.13-2.252-.644-.643-1.45-1.448-1.45-3.056s.806-2.413 1.45-3.056c.646-.643 1.13-1.126 1.13-2.252 0-.321.322-.643.645-.643s.645.322.645.643c0 1.609-.806 2.413-1.451 3.056-.646.644-1.13 1.126-1.13 2.252s.484 1.608 1.13 2.252c.645.643 1.451 1.447 1.451 3.056 0 1.608-.806 2.412-1.451 3.056-.646.643-1.13 1.125-1.13 2.251 0 .322-.322.644-.645.644zm5-.644c0 .322.322.644.645.644s.484-.322.645-.644c0-1.126.484-1.608 1.13-2.251.644-.644 1.45-1.448 1.45-3.056 0-1.609-.806-2.413-1.45-3.056-.646-.644-1.13-1.126-1.13-2.252s.484-1.608 1.13-2.252c.644-.643 1.45-1.447 1.45-3.056 0-.321-.322-.643-.644-.643-.323 0-.646.322-.646.643 0 1.126-.483 1.609-1.129 2.252-.645.643-1.451 1.448-1.451 3.056s.806 2.413 1.451 3.056c.645.643 1.13 1.126 1.13 2.252s-.485 1.608-1.13 2.251c-.645.644-1.451 1.448-1.451 3.056zm6.45.644c-.323 0-.646-.322-.646-.644 0-1.608.807-2.412 1.452-3.056.645-.643 1.129-1.126 1.129-2.251 0-1.126-.484-1.609-1.129-2.252-.645-.643-1.452-1.448-1.452-3.056s.807-2.413 1.452-3.056c.645-.643 1.129-1.126 1.129-2.252 0-.321.323-.643.645-.643.323 0 .645.322.645.643 0 1.609-.806 2.413-1.451 3.056-.645.644-1.13 1.126-1.13 2.252s.485 1.608 1.13 2.252c.645.643 1.451 1.447 1.451 3.056 0 1.608-.806 2.412-1.451 3.056-.645.643-1.13 1.125-1.13 2.251-.16.322-.322.644-.644.644zm3.065 8.524c0-8.685 7.096-15.601 15.645-15.601 8.548 0 15.645 6.916 15.645 15.601s-7.097 15.602-15.645 15.602c-8.71 0-15.645-6.917-15.645-15.602zm15.646 13.995c-7.742 0-14.032-6.273-14.032-13.993 0-7.72 6.29-13.994 14.032-13.994S67.58 40.571 67.58 48.291c0 7.72-6.29 13.994-14.032 13.994zm0-27.182c-7.258 0-13.226 5.95-13.226 13.188s5.968 13.19 13.226 13.19c7.258 0 13.226-5.952 13.226-13.19 0-7.237-5.968-13.188-13.226-13.188zm.163 17.852c-.807 0-1.613-.643-1.613-1.608V46.04c0-.804.645-1.608 1.613-1.608.806 0 1.613.643 1.613 1.608v5.308c-.162.965-.807 1.608-1.613 1.608zm0-7.398c-.323 0-.484.16-.484.482v5.308c0 .322.161.483.484.483.322 0 .483-.161.483-.483V46.04c0-.16-.322-.482-.483-.482zm-6.938 3.055c0 3.86 3.065 6.917 6.936 6.917 3.71 0 6.935-3.056 6.935-6.917 0-3.86-3.064-6.916-6.935-6.916-3.871 0-6.936 3.056-6.936 6.916zm1.29 0c0-3.055 2.581-5.629 5.646-5.629 3.064 0 5.645 2.574 5.645 5.63s-2.58 5.629-5.645 5.629c-3.065 0-5.645-2.573-5.645-5.63z" fill="#0A202C"/></svg>