<svg width="81" height="92" fill="none" xmlns="http://www.w3.org/2000/svg"><path fill-rule="evenodd" clip-rule="evenodd" d="M40.6 92L.6 69V23l40-23 40 23v46l-40 23zM2.535 68.035L40.6 89.909l38.064-21.874v-43.91L40.6 2.253 2.535 24.126v43.909zm25.807-4.02c-3.71 0-4.193-.483-4.193-1.287-.609-3.945.218-7.746 2.48-11.405-1.704-.32-3.052-.702-3.932-1.141l-.484-.322v-3.217l.161-.321c.268-.134.646-.267 1.044-.4l-4.593-9.733c-.162-.483-.162-1.126.161-1.448.161-.322.484-.483.968-.483h.806c.484 0 1.13.322 1.452.805l6.736 9.637c2.959-.384 6.395-.63 10.2-.63h.969c4.136 0 7.98.29 10.982.733l6.92-9.9c.322-.483.806-.805 1.451-.805h.807c.322 0 .645.161.968.483.322.482.322.965.16 1.447l-4.674 10.053c.241.08.483.16.804.24l.484.322v3.217l-.483.322c-.784.39-1.954.752-3.416 1.065 2.517 3.73 3.388 7.611 2.61 11.64 0 .644-.322 1.127-4.193 1.127-.484 0-.968-.322-1.29-.644-.323-.482-.484-.965-.323-1.447.79-2.52.033-5.965-2.119-9.882a75.21 75.21 0 01-3.052.242l-3.01 3.002c.38.547.6 1.224.6 1.974 0 1.93-1.613 3.377-3.388 3.377-1.935 0-3.387-1.447-3.387-3.377 0-.799.249-1.515.677-2.08l-2.848-2.964a94.377 94.377 0 01-2.405-.184c-2.089 3.845-2.816 7.083-2.037 9.57.161.483 0 .966-.322 1.448-.323.644-.807.965-1.29.965zM55.73 47.902c-.417.42-1.012.727-1.744.832h-.645c-1.129 0-2.258-.483-2.742-1.287a2.176 2.176 0 01-.238-.853A84.42 84.42 0 0040.278 46h-.806c-3.757 0-6.996.258-9.602.543.019.355-.061.71-.239 1.064-.645.643-1.774 1.126-3.064 1.126h-.323c-.855-.122-1.526-.428-1.94-.99l-.075.025c-.12.04-.242.08-.403.161v.804c1.447.516 4.218 1.097 8.06 1.448h1.134l-.05.09c1.891.144 4.014.232 6.34.232h.967c7.742 0 13.226-.805 15.484-1.77v-.804a.354.354 0 00-.03-.027zM26.553 61.989c.396.044.85.095 1.305.095-.645-2.734-.161-6.112 1.774-9.811h-1.451c-1.936 3.217-2.742 6.434-2.42 9.65.212 0 .484.031.792.066zm26.468.095c.645-2.735.161-6.112-1.775-9.812h1.452c2.097 3.056 2.903 6.273 2.42 9.65-.484.162-1.29.162-2.097.162zm-15.048-7.602l-1.727-1.566h7.258l-1.568 1.564a3.45 3.45 0 00-1.98-.599 3.45 3.45 0 00-1.983.6zm.53 2.777c0-.804.646-1.448 1.453-1.448.806 0 1.451.644 1.451 1.448 0 .804-.645 1.447-1.451 1.447a1.444 1.444 0 01-1.452-1.447zm-5.482-24.126h-11.13v.16c0 .322 0 .483-.162.644-.08 0-.16.04-.241.08-.081.04-.162.08-.242.08H19.47c-.16 0-.322 0-.483-.16-.162-.161-.162-.483-.162-.644v-.298l-1.611.459-9.678-.965v-1.77h11.667c.225-.675.569-1.286 1.074-1.286.026 0 .05.002.076.005a.768.768 0 01.085-.005c.595 0 1.007.73 1.236 1.442l1.669-.476 9.677.965v1.77zm-11.937-.644h-1.451l-.162.804h1.613v-.804zm-.322-.804H19.74c.133-.58.357-1.163.487-1.378.17.188.405.73.535 1.378zm1.292.644h10.161v-.16l-8.71-.966-1.451.483v.643zm36.29.804H47.053v-1.769l9.677-.965 1.92.547c.223-.759.584-1.513 1.145-1.513.026 0 .051.002.076.005a.768.768 0 01.086-.005c.551 0 .946.628 1.183 1.287h11.397v1.769l-9.677.965-1.452-.414v.253c0 .322 0 .483-.161.644-.08 0-.161.04-.242.08a.572.572 0 01-.242.08H58.99c-.161 0-.323 0-.484-.16-.161-.161-.161-.483-.161-.644v-.16zm3.064-.966v-.643h10.161v.16l-8.71.966-1.45-.483zm-2.15-.482c.132-.58.356-1.163.486-1.378.171.188.405.73.535 1.378h-1.021zm-.108.804l-.161.804h1.613v-.804H59.15zm-1.13-.16H47.86v-.16l8.709-.966 1.451.483v.643zm-49.676-.644l8.71.965 1.45-.483v-.643H8.345v.16zm11.448 3.7s0 .16.162.321l5.161 11.098c.323.643.807.804 1.29.804.807 0 1.613-.322 1.936-.804.161-.161.161-.322 0-.644l-7.42-10.615c-.16-.16-.322-.322-.483-.322h-.646v.161zm31.936 11.42c-.16-.161-.16-.322 0-.644l7.258-10.454c.162-.161.323-.322.484-.322h.645v.322l-5.16 11.097c-.323.644-.807.805-1.291.805-.807 0-1.613-.322-1.936-.805z" fill="#fff"/></svg>