<svg width="81" height="92" fill="none" xmlns="http://www.w3.org/2000/svg"><path fill-rule="evenodd" clip-rule="evenodd" d="M.1 69l40 23 40-23V23l-40-23-40 23v46zm40 20.91L2.035 68.034v-43.91L40.1 2.253l38.064 21.874v43.909L40.1 89.909zm-8.225-26.217c0 2.252 4.677 2.895 7.58 2.895 2.904 0 7.743-.643 7.581-2.895v-.644h15c1.13 0 2.097-.965 1.936-2.091V33.776c0-.965-.807-1.93-1.936-1.93H16.875c-.968 0-1.935.804-1.935 1.93v27.343c0 .965.806 1.93 1.935 1.93h15v.644zm7.58 1.287c-3.709 0-5.806-.965-5.967-1.287h-.161v-.322h12.096v.322c-.16.483-2.096 1.287-5.967 1.287zm-22.58-31.204l-.161 27.182s0 .16.161.16h45.161s.162 0 .162-.16V33.776s0-.16-.162-.16H16.875v.16zm11.451 13.671c0 5.63 4.516 10.294 10.323 10.294 5.645 0 10.322-4.665 10.322-10.294 0-5.63-4.516-10.294-10.322-10.294-5.645 0-10.323 4.665-10.323 10.294zm.807 0c0-5.308 4.354-9.49 9.516-9.49 5.161 0 9.516 4.182 9.516 9.49s-4.355 9.49-9.516 9.49c-5.323 0-9.516-4.182-9.516-9.49zm.806 0c0 4.825 3.871 8.685 8.71 8.685 4.677 0 8.71-4.02 8.71-8.685 0-4.825-3.872-8.685-8.71-8.685-4.839 0-8.71 3.86-8.71 8.685zm8.71-6.915c-3.709 0-6.774 3.056-6.774 6.755 0 3.7 3.065 6.756 6.775 6.756 3.71 0 6.774-3.056 6.774-6.756 0-3.699-3.065-6.755-6.774-6.755zm4.676 6.593l-7.58-5.147v10.294l7.58-5.147zm-2.42 0l-3.71 2.574v-5.147l3.71 2.573z" fill="#0A202C"/></svg>