<svg width="81" height="92" fill="none" xmlns="http://www.w3.org/2000/svg"><path fill-rule="evenodd" clip-rule="evenodd" d="M.4 69l40 23 40-23V23l-40-23-40 23v46zm40 20.91L2.336 68.034v-43.91L40.4 2.253l38.065 21.874v43.909L40.4 89.909zM19.434 58.063l-.161-.483c-6.13-11.741-1.452-26.378 10.322-32.329l.807-.482 3.548 6.755-.806.483c-3.871 2.09-6.774 5.468-8.226 9.65-1.324 3.815-1.038 7.897.614 11.515l3.095-1.543c-1.29-2.895-1.452-5.951-.484-9.007.968-3.217 3.226-5.951 6.29-7.56l.484-.16.807 1.608-.484.16c-2.58 1.287-4.516 3.7-5.484 6.434-.968 2.735-.645 5.79.645 8.364l.484.804-6.129 3.539-.484-.805c-2.258-4.342-2.742-9.328-1.129-13.993a18.161 18.161 0 018.33-10.393l-1.878-3.278c-10.322 5.79-14.193 18.98-8.71 29.434l.162.482-1.613.805zm14.677-11.26c0 3.299 2.437 5.958 5.48 6.495v19.723h2.098V53.327c3.121-.468 5.648-3.163 5.648-6.523 0-3.7-2.903-6.594-6.613-6.594-3.71 0-6.613 2.895-6.613 6.594zm6.613-4.503c-2.42 0-4.516 2.09-4.516 4.503 0 2.413 2.097 4.504 4.516 4.504 2.42 0 4.516-2.091 4.516-4.504 0-2.412-2.096-4.503-4.516-4.503zm21.128-6.756c6.119 11.722 1.467 26.33-10.264 32.3l-.058.03v-.001l-.646.482-3.548-6.755.806-.482c3.871-2.091 6.775-5.469 8.226-9.65 1.177-3.815 1.012-7.897-.617-11.514l-3.093 1.542c2.742 6.112.162 13.35-5.967 16.406l-.484.16-.807-1.608.484-.16c5.484-2.735 7.58-9.49 4.678-14.798l-.484-.804 6.451-3.378.484.804c2.258 4.343 2.742 9.329 1.13 13.993a18.161 18.161 0 01-8.334 10.396l1.72 3.275c10.323-5.79 14.194-18.98 8.71-29.434l-.161-.482 1.613-.804.161.482z" fill="#fff"/></svg>