<svg width="80" height="93" fill="none" xmlns="http://www.w3.org/2000/svg"><path fill-rule="evenodd" clip-rule="evenodd" d="M40 92.9L0 69.94V23.86L40 .9l40 22.96v45.92L40 92.9zM1.935 68.817L40 90.653l38.064-21.836V24.984L40 3.148 1.935 24.984v43.833zm56.128 3.532H22.096V22.576h35.967v49.773zM24.353 70.1h31.614V24.824H24.354V70.1zm1.293-6.743h28.871V26.59h-28.87v36.768zm27.742-1.124H26.776v-34.68h26.612v34.68zm-13.227 6.904c-1.29 0-2.419-1.124-2.419-2.409 0-1.284 1.13-2.408 2.42-2.408s2.419 1.124 2.419 2.408c0 1.445-1.13 2.409-2.42 2.409zm0-3.533c-.645 0-1.29.643-1.29 1.285 0 .642.645 1.284 1.29 1.284.646 0 1.29-.642 1.29-1.284 0-.803-.644-1.285-1.29-1.285zm5.807-26.813c.806 4.174-3.065 5.298-3.065 5.298s4.355 1.124 3.872 5.62c-.323 2.89-3.065 4.335-5.807 4.656v1.927h-2.58v-1.766c-.484 0-.807 0-1.13-.161v2.087h-2.58v-22.96h2.58v1.767h1.13v-1.767h2.58v1.927c2.097.321 4.516 1.124 5 3.372zm-2.258 1.445c0-2.73-2.58-2.89-2.58-2.89h-3.71l.161 5.94h3.87s2.098-.32 2.259-3.05zm-6.29 12.042h3.548s3.548-.16 3.548-3.372c-.16-3.372-3.064-3.693-3.064-3.693H37.42v7.065z" fill="#fff"/></svg>