<svg width="80" height="92" fill="none" xmlns="http://www.w3.org/2000/svg"><path fill-rule="evenodd" clip-rule="evenodd" d="M40 92L0 69V23L40 0l40 23v46L40 92zM1.935 68.035L40 89.909l38.064-21.874v-43.91L40 2.253 1.935 24.126v43.909zm38.389-.643c1.935 1.769 4.516 2.895 7.258 2.895 5 0 9.355-3.7 10.161-8.686 3.71-.804 6.29-4.02 6.29-7.88a7.945 7.945 0 00-2.903-6.113 7.945 7.945 0 002.903-6.111c0-3.86-2.58-7.077-6.29-7.882-.806-4.986-5.161-8.685-10.161-8.685-2.742 0-5.323.965-7.258 2.895-1.774-1.77-4.355-2.895-7.097-2.895-5 0-9.355 3.7-10.161 8.685-3.71.805-6.29 4.021-6.29 7.881a7.945 7.945 0 002.903 6.112 7.945 7.945 0 00-2.904 6.112c0 3.86 2.581 7.077 6.29 7.881.807 4.986 5.162 8.686 10.162 8.686 2.58 0 5.161-.965 7.097-2.895zm.806-2.091l-.806-.965-.807.643c-1.613 1.93-4.032 3.056-6.451 3.056-4.194 0-7.904-3.217-8.226-7.56v-.804l-.806-.16c-3.065-.322-5.323-2.896-5.323-5.952 0-2.251 1.29-4.181 3.226-5.307l1.613-.804-1.613-.805C20 45.517 18.71 43.587 18.71 41.336c0-3.056 2.258-5.63 5.323-5.951l.806-.161v-.804c.323-4.182 3.87-7.56 8.226-7.56 2.58 0 4.838 1.126 6.451 3.056l.807.965.806-.804c1.613-1.93 4.032-3.056 6.452-3.056 4.355 0 8.064 3.217 8.387 7.56v.804l.806.321c3.065.322 5.323 2.895 5.323 5.951 0 2.252-1.29 4.182-3.226 5.308l-1.613.804 1.613.804c1.936 1.126 3.226 3.056 3.226 5.308 0 3.056-2.258 5.63-5.323 5.951l-.806.161v.804c-.484 4.182-4.032 7.56-8.387 7.56-2.58 0-4.839-1.126-6.452-3.056zm-5.322-14.637l-4.677 13.19L48.389 47.93 44.195 46l5.645-13.832-18.71 17.21 4.678 1.286zm2.58-1.608l-3.225-.804 9.355-8.525-2.903 7.238 3.225 1.448-9.032 8.202 2.58-7.56zm.807 28.468c0 .482.484.965.968.965s.968-.483.968-.965v-4.825c0-.483-.484-.965-.968-.965s-.968.482-.968.965v4.825zm0-55.168c0 .483.484.965.968.965s.968-.482.968-.965v-4.825c0-.482-.484-.965-.968-.965s-.968.483-.968.965v4.825zm26.128 26.057h4.839c.484 0 .968-.321.968-.965 0-.482-.484-.965-.968-.965h-4.839c-.484 0-.967.483-.967.965 0 .483.483.965.967.965zm-55.324 0h4.839c.645 0 1.129-.321.967-.965 0-.482-.483-.965-.967-.965H9.999c-.484 0-.968.483-.968.965 0 .483.484.965.968.965zm49.516-16.406c.162.16.323.322.645.322.323 0 .484-.161.646-.322l3.387-3.378c.161-.16.322-.321.322-.643s0-.643-.16-.804c-.485-.322-1.13-.322-1.453 0l-3.387 3.377c-.322.483-.322 1.126 0 1.448zM16.453 69.32c.161.161.323.322.645.322.323 0 .645-.16.806-.482l3.388-3.378c.16-.16.322-.322.322-.643 0-.161-.161-.483-.322-.644-.484-.321-1.13-.321-1.452 0l-3.387 3.378c-.323.482-.323 1.126 0 1.447zm3.546-37.314c.161.161.322.322.645.322.067 0 .161-.028.272-.06.156-.046.345-.1.534-.1.323-.483.323-1.127 0-1.448l-3.387-3.378c-.484-.322-1.129-.322-1.451 0-.162.16-.323.322-.323.643 0 .161.161.483.323.644l3.387 3.377zm42.904 36.028c.16.161.322.322.645.322.236 0 .386-.086.575-.195.07-.04.145-.083.231-.127.323-.482.323-1.125 0-1.447l-3.387-3.378c-.484-.321-1.129-.482-1.452 0-.322.483-.322 1.126 0 1.448l3.388 3.377z" fill="#fff"/></svg>