<svg width="81" height="93" fill="none" xmlns="http://www.w3.org/2000/svg"><path fill-rule="evenodd" clip-rule="evenodd" d="M40.3 92.4l-40-23v-46l40-23 40 23v46l-40 23zM2.237 68.274L40.301 90.15l38.064-21.874v-43.75L40.301 2.491 2.236 24.526v43.749zm65.322-28.469l-5.967-3.378v-6.755l-12.904-7.72-6.774 4.02v11.099l5.968 3.7V62c-.484.322-.806.804-.806 1.447 0 .965.806 1.609 1.612 1.609.968 0 1.613-.804 1.613-1.609 0-.643-.322-1.126-.806-1.447V47.365l4.032 2.251v9.329c-.484.322-.806.804-.806 1.447 0 .965.806 1.609 1.613 1.609.967 0 1.613-.804 1.613-1.608 0-.644-.323-1.126-.807-1.448V48.65l-5.645-3.056v-5.79l-5.968-3.7v-9.328l5.323-3.056 11.45 6.756v4.986l-9.354-5.307c0-.322 0-.644-.162-.805-.484-.804-1.451-1.125-2.258-.643-.806.483-1.129 1.448-.645 2.252.484.804 1.452 1.126 2.258.643l16.13 9.168v12.063l-4.678 3.056V43.183l-5-2.895c0-.322 0-.483-.162-.805-.483-.804-1.451-1.125-2.258-.643-.806.482-1.129 1.448-.645 2.252.484.804 1.452 1.126 2.258.643h.162l4.193 2.413v19.14l-11.29 7.237-5-3.538V45.113c.806-.483 1.129-1.448.645-2.252-.484-.804-1.452-1.126-2.258-.643-.807.482-1.13 1.447-.645 2.251.16.322.322.483.645.644V67.63l6.613 4.504 12.903-8.203v-6.434l6.29-4.02V39.804h-.484zm-28.873-13.35v22.518c.05.049.113.097.182.15.16.123.351.269.464.493.483.804.16 1.77-.646 2.252-.806.482-1.774.16-2.258-.643-.484-.805-.161-1.77.645-2.252V27.26l-5-3.539-11.29 7.238v19.14l4.032 2.412h.162c.806-.482 1.774-.16 2.258.644s.161 1.769-.645 2.251c-.807.483-1.775.161-2.258-.643-.162-.322-.162-.482-.162-.804l-5-2.895V38.358l-5 2.734v12.224l16.13 9.167c.806-.482 1.773-.16 2.257.644.484.804.162 1.769-.645 2.252-.806.482-1.774.16-2.258-.644-.161-.16-.161-.482-.161-.804l-9.355-5.308v4.986l11.452 6.756 5.322-3.056v-9.33l-5.968-3.698v-5.79l-5.645-3.057V35.141c-.484-.322-.806-.804-.806-1.448 0-.804.645-1.608 1.613-1.608.806 0 1.613.643 1.613 1.608 0 .644-.323 1.126-.807 1.448v9.49l4.032 2.251V32.246c-.483-.322-.806-.805-.806-1.448 0-.804.645-1.608 1.613-1.608.806 0 1.613.643 1.613 1.608 0 .643-.323 1.126-.807 1.448v21.23l5.968 3.7v11.098l-6.774 4.02-12.903-7.72V57.82l-5.968-3.378V40.61l6.29-4.02v-6.434l12.903-8.203 6.613 4.503z" fill="#fff"/></svg>