<svg width="80" height="92" fill="none" xmlns="http://www.w3.org/2000/svg"><path fill-rule="evenodd" clip-rule="evenodd" d="M0 69l40 23 40-23V23L40 0 0 23v46zm40 20.91L1.935 68.034v-43.91L40 2.253l38.064 21.874v43.909L40 89.909zm11.615-46.082c.12.04.242.08.322.08a.72.72 0 00.107-.011c.161-.026.346-.056.216.334l4.355-4.343c0-.08.04-.201.08-.322.04-.12.081-.241.081-.322v-.165l.161-.156a.488.488 0 000-.643c-6.253-6.236-15.354-7.996-23.2-5.218a22.299 22.299 0 00-8.16 4.666l-4.034-4.023c10.983-10.056 28.378-9.66 38.943.875.08 0 .202.04.323.08.12.04.241.08.322.08.323 0 .484 0 .645-.16 0-.08.04-.2.08-.322.027-.077.053-.154.068-.221a.41.41 0 00.174-.1.488.488 0 000-.643 29.728 29.728 0 00-12.896-7.466c-10.127-2.983-21.54-.495-29.523 7.465a.776.776 0 000 1.126l5.162 5.147c.08 0 .201.04.322.08s.242.081.323.081c.322 0 .484 0 .645-.16 7.903-7.882 20.806-8.204 29.032-.644l-3.069 3.06a16.385 16.385 0 00-22.9.317c0 .08-.04.201-.08.322-.04.12-.08.241-.08.322 0 .188.055.321.1.432l.018.042c.007.021.014.042.023.062.012.037.02.072.02.107l4.473 4.46.04.045h.004a.778.778 0 00.903.16h.223c3.226-3.216 8.71-3.216 11.935 0a.781.781 0 001.13 0c0-.08.04-.2.08-.321.04-.12.08-.242.08-.322 0-.1 0-.184-.004-.257a.387.387 0 00.007-.066c0-.321 0-.482-.162-.643-3.71-3.7-9.677-3.86-13.71-.483l-3.052-3.044c5.691-5.15 14.563-4.94 20.15.632.081 0 .202.04.323.08zm.805 25.976c-2.096 0-3.71-1.447-3.87-3.377H30.969c-.323 1.93-1.936 3.377-3.871 3.377-1.936 0-3.71-1.447-3.871-3.377h-2.42a.888.888 0 01-.806-.483c-.161-.322-.161-.643-.161-.965 0-.16 1.774-5.308 5.322-6.594 2.904-1.126 4.517-2.252 5.968-3.378 2.097-1.608 4.194-3.056 8.871-3.378 2.097-.16 4.355-.16 6.774-.16 2.742 0 5.484 1.125 7.42 3.056l5.645 5.468c.161.16.322.482.322.643v4.665c0 .482-.483.965-.967.965h-2.581c-.484 1.93-2.258 3.538-4.194 3.538zm-22.419-5.468h19.516c.323 0 .645.16.807.321.161.161.322.483.161.805v.321c0 1.126.968 1.93 1.935 1.93 1.13 0 1.936-.965 1.936-1.93v-.322c0-.321 0-.643.161-.804.161-.16.484-.321.807-.321h2.58v-3.217l-5.322-5.147c-1.613-1.608-3.871-2.413-6.13-2.573-2.419 0-4.677 0-6.612.16-4.032.322-5.645 1.448-7.742 3.056l-.21.147c-1.559 1.09-3.31 2.315-6.242 3.392-1.613.643-2.903 2.573-3.548 4.02h2.097c.322 0 .645.162.806.322.161.161.323.483.161.805v.321c0 1.126.968 1.93 1.936 1.93s1.935-.965 1.935-1.93v-.321c0-.322 0-.644.162-.805.067 0 .161-.027.272-.06.156-.045.345-.1.534-.1zm10.804-1.77c-1.935 0-3.387-1.447-3.387-3.377 0-1.93 1.452-3.377 3.387-3.377s3.387 1.447 3.387 3.377c0 1.93-1.613 3.378-3.387 3.378zm0-5.146c-.968 0-1.774.804-1.774 1.77 0 .964.806 1.768 1.774 1.768s1.774-.804 1.774-1.769c0-.965-.806-1.77-1.774-1.77z" fill="#fff"/></svg>