<svg width="81" height="93" fill="none" xmlns="http://www.w3.org/2000/svg"><path fill-rule="evenodd" clip-rule="evenodd" d="M.8 69.14l40 22.96 40-23.12V23.06L40.8.1.8 23.06v46.08zm40 20.712L2.737 68.016V24.183L40.801 2.347l38.064 21.836v43.833L40.801 89.852zm1.936-66.471h-5.807c-.806 0-1.29.642-1.29 1.284v.16c0 .643.483 1.285 1.29 1.285h5.806c.646 0 1.29-.482 1.29-1.284v-.161c0-.642-.483-1.284-1.29-1.284zm-5.807 44.153h5.806c.807 0 1.29.642 1.29 1.285v.16c0 .803-.644 1.285-1.29 1.285H36.93c-.806 0-1.29-.643-1.29-1.285v-.16c0-.643.483-1.285 1.29-1.285zm-7.419 5.62h21.774a4.498 4.498 0 004.517-4.496V24.184c0-2.409-2.097-4.496-4.517-4.496H29.51c-2.42 0-4.516 2.087-4.516 4.496v44.474c0 2.409 2.097 4.496 4.516 4.496zm-2.903-48.97c0-1.606 1.29-2.89 2.903-2.89h21.774a2.885 2.885 0 012.904 2.89v3.372H26.607v-3.372zm0 41.906h27.58v2.568c0 1.606-1.29 2.89-2.902 2.89H29.51a2.885 2.885 0 01-2.903-2.89V66.09zm.806-1.124h26.29V28.841h-26.29v36.125zm3.708-12.363l9.677 4.816V46.34v11.08l9.84-4.818V41.677l.323-.153-10-4.977-9.759 4.857-.08-.04v.08l-.161.08.16.078v11zm8.387 2.729L32.25 51.8v-8.35l7.258 3.533v8.349zm2.581-8.349v8.349l7.258-3.532v-8.35l-7.258 3.533zm-1.29-2.087l-7.096-3.372 7.097-3.532 7.096 3.532-7.096 3.372z" fill="#fff"/></svg>