<svg width="80" height="92" fill="none" xmlns="http://www.w3.org/2000/svg"><path fill-rule="evenodd" clip-rule="evenodd" d="M0 69l40 23 40-23V23L40 0 0 23v46zm40 20.91L1.935 68.034v-43.91L40 2.253l38.064 21.874v43.909L40 89.909zm.324-65.944a1.101 1.101 0 01-1.129-1.126v-4.182a1.1 1.1 0 011.13-1.126c.644 0 1.128.483 1.128 1.126v4.182c0 .643-.484 1.126-1.129 1.126zm0 54.201a1.1 1.1 0 01-1.129-1.126V72.86c0-.644.484-1.126 1.13-1.126a1.1 1.1 0 011.128 1.126v4.181c0 .483-.484 1.126-1.129 1.126zM22.58 31.364c-.322 0-.645-.16-.806-.321l-2.903-2.895c-.484-.483-.484-1.126 0-1.609.484-.482 1.129-.482 1.613 0l2.903 2.895c.484.483.484 1.126 0 1.609-.087.043-.161.086-.23.126-.19.11-.34.195-.577.195zm38.39 38.278c-.323 0-.646-.16-.807-.322l-2.904-2.895c-.483-.482-.483-1.126 0-1.608.484-.483 1.29-.483 1.613 0l2.904 2.895c.16.16.322.483.322.804 0 .322-.161.644-.322.804a1.235 1.235 0 01-.807.322zM15.16 48.895h-4.193a1.101 1.101 0 01-1.13-1.126 1.1 1.1 0 011.13-1.126h4.194a1.1 1.1 0 011.129 1.126 1.1 1.1 0 01-1.13 1.126zm54.358 0h-4.194a1.1 1.1 0 01-1.129-1.126 1.1 1.1 0 011.13-1.126h4.193a1.1 1.1 0 011.129 1.126 1.1 1.1 0 01-1.13 1.126zm-50 20.747c-.323 0-.646-.16-.807-.322a1.227 1.227 0 01-.322-.804c0-.322.161-.643.322-.804l2.904-2.895c.483-.483 1.129-.483 1.612 0 .484.482.484 1.126 0 1.608l-2.903 2.895a1.233 1.233 0 01-.806.322zm38.386-38.278c-.323 0-.645-.16-.807-.321-.484-.483-.484-1.287 0-1.609l2.904-2.895c.483-.482 1.129-.482 1.612 0 .484.483.484 1.287 0 1.608l-2.903 2.896c-.161.16-.484.321-.806.321zM22.58 42.3c0-.482.323-.804.807-.804 3.225 0 5.967 2.413 6.29 5.63h6.129c.484 0 .806.321.806.804 0 .482-.322.804-.806.804h-6.13c-.322 3.217-3.064 5.63-6.29 5.63-.483 0-.806-.322-.806-.805 0-.482.323-.804.807-.804 2.58 0 4.838-2.091 4.838-4.825 0-2.574-2.097-4.825-4.838-4.825-.484 0-.807-.322-.807-.805zm-.16 17.692c.484 4.503 4.194 7.88 8.71 7.88 4.839 0 8.871-3.86 8.871-8.845V36.509c0-4.825-4.032-8.846-8.87-8.846-4.356 0-8.227 3.538-8.71 7.881-3.226.483-5.646 3.217-5.646 6.595 0 2.251 1.13 4.342 3.065 5.629-1.936 1.287-3.065 3.378-3.065 5.63 0 3.216 2.42 6.111 5.646 6.594zm2.097-23.483c0-3.538 2.904-6.594 6.613-6.594 3.71 0 6.613 2.895 6.613 6.594v6.595c-3.226-.483-5.645-3.378-5.645-6.595a1.1 1.1 0 00-1.13-1.126 1.1 1.1 0 00-1.128 1.126c0 4.343 3.387 8.203 7.742 8.685v5.147c-4.355.483-7.742 4.182-7.742 8.686a1.1 1.1 0 001.129 1.126c.645 0 1.129-.483 1.129-1.126 0-3.378 2.42-6.112 5.645-6.595v6.595c0 3.538-2.903 6.594-6.613 6.594-3.548 0-6.613-2.895-6.613-6.594a1.1 1.1 0 00-1.129-1.126c-2.42 0-4.516-2.091-4.516-4.504a4.502 4.502 0 014.516-4.503 1.1 1.1 0 001.13-1.126 1.1 1.1 0 00-1.13-1.126c-2.42 0-4.516-2.09-4.516-4.503a4.502 4.502 0 014.516-4.504 1.1 1.1 0 001.13-1.126zM57.42 52.755c-2.742 0-4.838-2.252-4.838-4.825 0-2.734 2.258-4.825 4.838-4.825.484 0 .807-.322.807-.805 0-.482-.323-.804-.807-.804-3.226 0-5.968 2.413-6.29 5.63H45c-.483 0-.806.321-.806.804 0 .482.323.804.807.804h6.129c.322 3.217 3.064 5.63 6.29 5.63.484 0 .807-.322.807-.805 0-.482-.484-.804-.807-.804zm-7.74 15.118c-4.838 0-8.87-4.021-8.87-8.846V36.509c0-4.825 4.032-8.846 8.87-8.846 4.517 0 8.226 3.378 8.71 7.881 3.226.483 5.645 3.378 5.645 6.595 0 2.251-1.129 4.342-3.064 5.629 1.935 1.287 3.064 3.378 3.064 5.63 0 3.377-2.419 6.111-5.645 6.594-.484 4.503-4.355 7.88-8.71 7.88zm-6.774-15.28v6.594c0 3.7 3.065 6.595 6.613 6.595 3.549 0 6.613-3.056 6.613-6.594a1.1 1.1 0 011.13-1.126 4.501 4.501 0 004.515-4.504c0-2.412-2.096-4.503-4.516-4.503a1.1 1.1 0 01-1.129-1.126 1.1 1.1 0 011.13-1.126 4.501 4.501 0 004.515-4.504c0-2.412-2.096-4.503-4.516-4.503a1.1 1.1 0 01-1.129-1.126c0-3.7-3.064-6.594-6.613-6.594-3.548 0-6.613 3.056-6.613 6.594v6.594c3.226-.482 5.645-3.216 5.645-6.594 0-.643.484-1.126 1.13-1.126a1.1 1.1 0 011.129 1.126c0 4.504-3.387 8.203-7.742 8.685v5.147c4.355.483 7.742 4.343 7.742 8.685a1.1 1.1 0 01-1.13 1.126 1.1 1.1 0 01-1.129-1.126c0-3.377-2.419-6.111-5.645-6.594z" fill="#fff"/></svg>