<svg width="80" height="92" fill="none" xmlns="http://www.w3.org/2000/svg"><path fill-rule="evenodd" clip-rule="evenodd" d="M0 69l40 23 40-23V23L40 0 0 23v46zm40 20.91L1.935 68.034v-43.91L40 2.253l38.065 21.874v43.909L40 89.909zm19.517-40.05l.807 1.608c.161.161.161.161-.161.322v.965c0 .483-.323.804-.807.804-.484 0-.806-.321-.806-.804v-.643l-.645-1.126h-2.581l-.645 1.126v.643c0 .483-.323.804-.807.804-.484 0-.806-.321-.806-.804v-.965s.161-.16.161-.322l.807-1.608v-.482c0-1.287.645-2.252 1.774-2.574v-2.252c-.968-.321-1.774-1.447-1.774-2.573 0-1.287.806-2.252 1.774-2.574-.161-2.09-1.613-3.86-3.549-4.503 0-.16-.16-.16-.16-.16-.485.32-1.13.642-1.775.642v20.427h2.742c.968 0 1.774.804 1.774 1.77v2.733c0 .483-.323.805-.806.805v9.168c0 .965-.807 1.769-1.775 1.769h-3.71a1.787 1.787 0 01-1.773-1.77v-3.699H32.097v3.7c0 .965-.806 1.769-1.774 1.769h-3.71a1.787 1.787 0 01-1.774-1.77V61.12c-.484 0-.807-.322-.807-.804V57.58c0-.965.807-1.769 1.775-1.769h2.741V35.546c-.16 0-.282-.04-.403-.08a1.194 1.194 0 00-.403-.08c-1.451-.644-1.774-1.609-1.935-2.092v-.482c0-1.287.806-2.252 1.935-2.573.323-6.112 5.484-11.098 11.774-11.098 6.29 0 11.452 4.986 11.775 11.098.967.321 1.774 1.447 1.774 2.573v.483c2.42.965 4.193 3.216 4.516 5.95 1.129.322 1.935 1.448 1.935 2.574 0 1.287-.645 2.252-1.774 2.573v2.252c.968.322 1.774 1.448 1.774 2.574v.643zM49.68 29.917c-.484-5.147-4.839-9.168-10.162-9.168-5.322 0-9.677 4.021-10.161 9.168H49.68zm-23.065 40.21h3.71v-2.413l-3.71 1.287v1.126zm0-3.056l3.71-1.287v-1.77l-3.71 1.288v1.769zm0-3.7l3.71-1.286v-1.287h-3.71v2.573zm-.968-4.181h5.484v-1.93h-5.484v1.93zm6.29 5.468h14.84v-3.7c-.484 0-.807-.32-.807-.803v-.965h-.484l-1.129 2.09c-.484.805-1.452 1.448-2.42 1.448h-5.16c-.968 0-1.936-.482-2.42-1.447l-1.129-2.091h-.484v.965c0 .482-.323.804-.806.804v3.7zm11.614-5.63h-8.226l.968 1.448a.888.888 0 00.806.483h5a.886.886 0 00.806-.483l.646-1.447zM33.066 57.26h12.903c0-.965.806-1.77 1.774-1.609h.968V35.385h-3.71v10.938c0 3.056-2.42 5.468-5.484 5.468s-5.484-2.412-5.484-5.468V35.384h-3.71V55.49h.968c.968 0 1.775.804 1.775 1.77zm10.161-10.938v-7.398h-7.42v7.398c0 2.091 1.614 3.7 3.71 3.7 2.097 0 3.71-1.609 3.71-3.7zm-7.42-10.937v1.93h7.42v-1.93h-7.42zm12.904 34.742h3.71V68.84l-3.71-1.287v2.574zm0-4.343l3.71 1.287V65.3l-3.71-1.286v1.77zm0-3.538l3.71 1.286V60.96h-3.71v1.287zm4.516-3.056v-1.93h-5.645v1.93h5.645zM28.55 33.616h21.935c.484 0 .968-.482.968-.965 0-.482-.484-.965-.968-.965H28.55c-.483 0-.967.483-.967.965 0 .483.484.965.967.965zm28.387 7.238c-.484 0-.968.483-.968.965s.323.965.968.965c.484 0 .968-.483.968-.965 0-.483-.484-.965-.968-.965zm-.968 8.364h1.936c0-.644-.484-1.126-.968-.965-.484 0-.968.482-.968.965z" fill="#fff"/></svg>