<svg width="81" height="92" fill="none" xmlns="http://www.w3.org/2000/svg"><path fill-rule="evenodd" clip-rule="evenodd" d="M40.5 92L.5 69.04V22.96L40.5 0l40 22.96v46.08L40.5 92zM2.435 67.916L40.5 89.752l38.064-21.836V24.084L40.5 2.248 2.435 24.084v43.832zm29.156-46.24h-2.058c.117.408.32.774.592 1.074a15.806 15.806 0 00-4.74 6.632H24.21c.122.487.384.951.741 1.34a16.034 16.034 0 00-.394 6.688H22.92c.253 1.007 1.101 1.916 2.156 2.261a15.867 15.867 0 003.678 6.248h-.996c.322 1.285 1.613 2.248 3.064 2.248.18 0 .358-.015.53-.043a15.948 15.948 0 007.606 2.714c-.432 4.429-1.122 13.102-1.311 15.794H30.5v4.174h1.374l2.013 6.262h14.194l1.887-6.262h1.5v-4.174h-7.203c-.288-2.723-.98-11.566-1.293-15.946a15.908 15.908 0 007.215-3.136c.395.188.83.296 1.28.296 1.452 0 2.742-.963 3.064-2.408h-2.11a15.812 15.812 0 003.888-10.436c0-.992-.092-1.961-.267-2.901.087.007.175.01.264.01 1.613 0 2.903-.963 3.226-2.408h-4.136a15.76 15.76 0 00-1.424-2.965c.339-.323.587-.737.722-1.209H53.15c-2.93-3.906-7.61-6.422-12.808-6.422-3.24 0-6.243.942-8.75 2.568zm2.296 24.243a2.801 2.801 0 01-.708 1.255 13.998 13.998 0 006.972 1.956h.38a14.003 14.003 0 008.255-2.816 2.986 2.986 0 01-.384-.876h1.439c2.785-2.554 4.532-6.214 4.532-10.275 0-1.518-.244-2.98-.695-4.35a3.67 3.67 0 01-.598-1.11h.178a13.927 13.927 0 00-1.217-2.248c-1.254-.03-2.191-.823-2.508-1.926h.963a14.024 14.024 0 00-10.155-4.335c-2.185 0-4.254.499-6.098 1.388a2.58 2.58 0 01-1.736.994 14.064 14.064 0 00-4.941 5.806h2.772c-.323 1.445-1.613 2.408-3.065 2.408a2.93 2.93 0 01-.539-.051 13.976 13.976 0 00-.245 5.671h2.56a3.063 3.063 0 01-2.003 2.23 14.008 14.008 0 004.348 6.28h2.493zm14.468 24.887H33.613l1.403 4.656h11.936l1.403-4.656zm-5.61-4.174h-.955V55.07c.19 2.445.434 5.332.636 7.723.135 1.59.25 2.961.32 3.838zm-2.567 0h-.957c.096-1.3.283-3.515.485-5.9.161-1.906.331-3.92.471-5.661v11.56zm9.354 2.247H32.436v-.32h17.096v.32zM37.275 43.672h1.775v-2.087l1.881-.857 1.828.857v2.087h1.936V40.46l-1.588-.723 1.588-.722v-5.46l-1.457-.662 1.457-.622V28.9h-1.936v2.087l-1.828.856-1.881-.856V28.9h-1.775v3.371l1.416.622-1.416.663v5.459l1.543.722-1.543.723v3.21zm3.656-9.794l1.828.803v3.21l-1.828.857-1.881-.856V34.68l1.881-.803z" fill="#fff"/></svg>