<svg width="80" height="92" fill="none" xmlns="http://www.w3.org/2000/svg"><path fill-rule="evenodd" clip-rule="evenodd" d="M0 69l40 23 40-23V23L40 0 0 23v46zm40 20.91L1.935 68.034v-43.91L40 2.253l38.064 21.874v43.909L40 89.909zm.325-50.986l-7.58-4.343v-8.685l7.58-4.343 7.58 4.343v8.685l-7.58 4.343zm-5.645-5.469l4.675 2.665V30.1l-4.675-2.225v5.58zm11.29 0l-4.84 2.758v-6.047l4.84-2.357v5.646zm-10.331-7.14l4.686-2.671 4.628 2.637-4.632 2.188-4.682-2.155zm21.137 23.384h1.936V38.923l-8.871-4.987-.968 1.609 7.903 4.503v9.65zM31.451 62.567l8.065 4.664 8.387-4.664-.968-1.608-7.42 4.181-7.096-4.181-.968 1.608zm-9.515-11.741h1.935V40.05l7.097-4.021L30 34.42l-8.064 4.504v11.902zm-6.614 13.67l7.58 4.343 7.582-4.343v-8.685l-7.581-4.343-7.58 4.343v8.685zm6.614 1.701l-4.678-2.666v-5.645l4.678 2.278v6.033zm1.774.091l4.838-2.756v-5.645l-4.838 2.356v6.045zm-.807-12.568l-4.683 2.67 4.684 2.156 4.683-2.156-4.684-2.669zM57.74 68.84l-7.58-4.344v-8.685l7.58-4.343 7.58 4.343v8.685l-7.58 4.343zm-5.807-5.309l4.84 2.758v-6.115l-4.84-2.303v5.66zm11.29 0l-4.676 2.666v-5.953l4.677-2.278v5.566zM52.97 56.348l4.61-2.627 4.704 2.68-4.54 2.145-4.774-2.198z" fill="#fff"/></svg>