<svg width="81" height="92" fill="none" xmlns="http://www.w3.org/2000/svg"><path fill-rule="evenodd" clip-rule="evenodd" d="M40.1 92L.1 69V23l40-23 40 23v46l-40 23zM2.035 68.035L40.1 89.909l38.065-21.874v-43.91L40.1 2.253 2.035 24.126v43.909zm37.26 1.768L15.102 59.51l10.806-4.665 13.549 5.63 14.838-5.63 10.807 4.665-25.807 10.293zM19.134 59.35l20.161 8.685 21.613-8.685-6.774-2.895-14.839 5.629-13.548-5.63-6.613 2.896zM14.94 36.028l24.355 9.65L65.1 35.385 40.746 24.93 14.94 36.028zm24.516 7.881l-3.19-1.272 20.873-9.106 3.93 1.693-21.613 8.685zm16.14-11.043l-20.93 9.132-3.995-1.593 20.673-9.37 4.252 1.831zm-5.774-2.487l-20.73 9.396-4.67-1.863 21.308-9.296 4.092 1.763zm-30.528 5.488l3.527 1.407 21.367-9.322-3.28-1.414-21.614 9.33zM39.131 57.42l.161.16 25.484-10.133-10.484-4.503-15 5.468-13.387-5.468-10.323 5.147 23.549 9.328zm.161-1.287L26.77 51.158l3.33-1.78 4.678 2.735 4.678-2.413 4.677 2.413 4.678-2.735 3.213 1.658-12.732 5.097zm-9.353-8.041l-4.564 2.511-3.179-1.263-1.773-.766-.08.03-1.696-.674 7.258-3.538 11.979 4.749-3.267 1.685-4.677-2.734zm14.033 2.734l-3.218-1.66 13.538-4.935 7.097 3.056-8.221 3.29-4.519-2.485-4.677 2.734zM26.713 60.959c.162.16.323.16.484.16.329 0 .657-.074.885-.322l1.73.69c.009.447.306.847.772 1.08.162.16.323.16.484.16.484 0 .968-.321 1.13-.804.322-.643 0-1.287-.646-1.608-.54-.27-1.079-.088-1.43.354l-1.68-.718c.073-.512-.238-.983-.761-1.244-.645-.322-1.29 0-1.613.643-.322.644 0 1.287.645 1.609zm.162-1.126c0-.161.16-.161.322-.161.323 0 .323.16.323.483-.162.16-.323.16-.484.16-.161-.16-.161-.321-.161-.482zm4.193 1.286c-.161 0-.322 0-.322.16 0 .162 0 .322.161.483.161 0 .323 0 .484-.16 0-.161 0-.322-.323-.483zm6.29 2.885c-.002-.477-.163-.795-.484-.955-.322-.322-.645-.322-.967-.322-.645.161-1.13.805-1.13 1.448 0 .643.646 1.126 1.29 1.126.31-.062.572-.195.778-.362l2.448 1.005 2.632-1.02c.274.236.595.377.916.377.162 0 .323 0 .323-.16.322 0 .484-.322.645-.644a1.023 1.023 0 000-.965c0-.321-.323-.482-.645-.643a1.03 1.03 0 00-.968 0c-.322 0-.484.322-.645.643a1.028 1.028 0 00-.106.653l-1.99.794-2.097-.975zm11.129-1.437c.161.16.322.16.484.16.161 0 .322 0 .484-.32.322 0 .483-.322.645-.644a1.2 1.2 0 00.1-.283l1.788-.832c.294.291.656.47 1.017.47.162 0 .323 0 .323-.16.322 0 .484-.322.645-.643a1.023 1.023 0 000-.965c0-.322-.322-.483-.645-.644a1.031 1.031 0 00-.968 0c-.322 0-.484.322-.645.644a1.064 1.064 0 00-.12.497l-1.617.645c-.123-.138-.323-.238-.523-.338a1.03 1.03 0 00-.968 0c-.645.322-.968 1.126-.645 1.77 0 .321.322.482.645.643zm.161-1.287s.161-.16.323-.16c.322 0 .322 0 .322.16v.322s0 .16-.16.16h-.324s-.16 0-.16-.16v-.322zm-5.807 2.413c-.161 0-.322.161-.322.161v.322c0 .16.322.321.483.16.162 0 .162-.16.162-.16v-.322s-.161-.16-.323-.16zm-7.096.16c0-.16.162-.321.323-.321l.161.16c.162 0 .162 0 .162.161s-.162.322-.323.322-.323-.16-.323-.322zm17.26-4.343c-.16 0-.322.161-.322.161v.322c0 .16.322.322.484.16.161 0 .322-.32.161-.482 0-.16-.161-.16-.323-.16z" fill="#1CA89D"/></svg>