<svg width="80" height="92" fill="none" xmlns="http://www.w3.org/2000/svg"><path fill-rule="evenodd" clip-rule="evenodd" d="M0 69l40 23 40-23V23L40 0 0 23v46zm40 20.91L1.935 68.034v-43.91L40 2.253l38.064 21.874v43.909L40 89.909zm-.967-11.904l.645.805.806-.805c.807-.804 21.452-22.678 21.936-34.58.483-5.469-1.613-10.937-5.484-15.119-4.355-4.664-10.484-7.238-16.774-7.238-6.29 0-12.258 2.574-16.613 7.077-3.871 4.343-5.968 9.65-5.645 15.28.645 11.902 20.322 33.776 21.129 34.58zM25 29.594c4.033-4.182 9.516-6.595 15.323-6.595a21.163 21.163 0 0115.484 6.756c3.548 3.86 5.322 8.685 5 13.67-.645 9.973-17.258 28.63-20.968 32.651-3.548-4.02-19.516-22.678-20-32.65-.323-5.147 1.452-9.972 5.161-13.832zm15.16 31.363c-10.16 0-18.387-8.202-18.387-18.335 0-10.133 8.226-18.336 18.387-18.336 10.162 0 18.388 8.203 18.388 18.336.16 10.133-8.226 18.335-18.388 18.335zm0-34.42c-8.87 0-16.128 7.239-16.128 16.085S31.29 58.706 40.16 58.706c8.872 0 16.13-7.238 16.13-16.084a16.05 16.05 0 00-16.13-16.084zm-7.096 27.666h10.16l-3.547-4.986c3.99.612 8.128-1.544 8.796-1.892l.074-.038.968-.483-15.161-13.832-.484.965c-.161.322-3.71 7.881 1.452 13.189.16.16.322.281.483.402.162.12.323.241.484.402l-3.225 6.273zm7.096-1.609h-4.516l1.936-3.699 2.58 3.7zm6.775-6.111c-2.259.965-7.259 2.734-10.484-.483-3.387-3.538-2.097-8.364-1.452-10.455l11.935 10.938zm-1.613-7.398h-1.613c0-.322-.323-.644-.807-.644l.162-1.608c1.29 0 2.419.965 2.258 2.252zm4.676.322h1.613c.161-4.825-3.71-9.007-8.548-9.168v1.608c3.225.161 6.935 3.217 6.935 7.56zm-2.903-.161h1.613c0-1.448-.645-3.056-1.774-4.182-1.13-1.126-2.42-1.769-3.71-1.769v1.608c.806 0 1.774.483 2.58 1.287.807.965 1.29 2.091 1.29 3.056z" fill="#fff"/></svg>