<svg width="80" height="92" fill="none" xmlns="http://www.w3.org/2000/svg"><path fill-rule="evenodd" clip-rule="evenodd" d="M0 69l40 23 40-23V23L40 0 0 23v46zm40 20.91L1.935 68.034v-43.91L40 2.253l38.065 21.874v43.909L40 89.909zm24.677-43.588c0-13.672-11.13-24.609-24.678-24.609S15.322 32.811 15.322 46.322c0 13.51 10.968 24.608 24.677 24.608 13.71 0 24.678-11.098 24.678-24.608zm-50.968 0c0-14.476 11.774-26.217 26.29-26.217 14.517 0 26.29 11.741 26.29 26.217 0 14.475-11.773 26.216-26.29 26.216-14.516 0-26.29-11.74-26.29-26.216zm26.29-17.21c9.517 0 17.259 7.72 17.259 17.209 0 9.49-7.742 17.21-17.258 17.21-9.516 0-17.258-7.72-17.258-17.21 0-9.49 7.742-17.21 17.258-17.21zm0-1.61c-10.483 0-18.87 8.365-18.87 18.819 0 10.455 8.387 18.818 18.87 18.818 10.485 0 18.872-8.363 18.872-18.818 0-10.454-8.387-18.818-18.871-18.818zM40 66.749c-.806 0-1.29.644-1.29 1.287 0 .643.645 1.287 1.29 1.287.806 0 1.29-.644 1.29-1.287 0-.804-.645-1.287-1.29-1.287zm-9.355-.804c-.322.643 0 1.287.645 1.608 0 0 .162 0 .484.161.484 0 .968-.321 1.13-.804.322-.643 0-1.287-.646-1.608-.645-.322-1.29 0-1.613.643zm17.258-.643c-.645.321-.967.965-.645 1.608.161.483.645.643 1.13.643h.483c.645-.321.968-.965.645-1.608-.322-.643-.968-.965-1.613-.643zM23.71 60.797a1.26 1.26 0 000 1.77c.322.16.645.321.967.321.323 0 .484 0 .807-.322a1.26 1.26 0 000-1.769 1.268 1.268 0 00-1.774 0zm30.806 0a1.26 1.26 0 000 1.77c.162.16.484.321.968.321.322 0 .645-.16.806-.322a1.26 1.26 0 000-1.769 1.268 1.268 0 00-1.774 0zM19.355 53.56c-.645.322-.968.966-.645 1.609.322.482.645.804 1.129.804.08 0 .161-.04.242-.08.08-.04.161-.08.242-.08.645-.322.967-.966.645-1.61-.323-.643-.968-.964-1.613-.643zm39.677.644c-.322.643 0 1.286.646 1.608.16 0 .322 0 .483.161.484 0 .968-.322 1.13-.804.322-.643 0-1.287-.646-1.609-.645-.321-1.29 0-1.613.644zm-40.806-9.168c-.807 0-1.29.643-1.29 1.287 0 .804.645 1.286 1.29 1.286.806 0 1.29-.643 1.29-1.286 0-.805-.645-1.287-1.29-1.287zm43.548 0c-.806 0-1.29.483-1.29 1.287 0 .643.645 1.286 1.29 1.286.807 0 1.29-.643 1.29-1.286 0-.805-.645-1.287-1.29-1.287zm-43.064-7.4c-.323.644 0 1.287.645 1.609.161 0 .322 0 .484.16.484 0 .968-.321 1.129-.804.322-.643 0-1.286-.645-1.608-.646-.322-1.29 0-1.613.643zm40.806-.804c-.645.322-.968.965-.645 1.609.161.482.645.804 1.13.804.08 0 .16-.04.241-.08.08-.04.161-.081.242-.081.645-.322.968-.965.645-1.609-.322-.643-.968-.965-1.613-.643zM23.71 30.077a1.26 1.26 0 000 1.77c.161.32.484.482.967.32.237 0 .386-.085.576-.195.07-.04.145-.083.23-.126a1.26 1.26 0 000-1.77 1.268 1.268 0 00-1.773 0zm30.806 0a1.26 1.26 0 000 1.77c.162.16.484.32.968.32.322 0 .484 0 .806-.32a1.26 1.26 0 000-1.77 1.268 1.268 0 00-1.774 0zM31.13 25.252c-.645.321-.968.965-.645 1.608.161.322.645.643 1.129.804.08 0 .161-.04.242-.08.08-.04.161-.08.242-.08.645-.322.968-.966.645-1.609-.323-.643-.968-.965-1.613-.643zm15.968.482c-.323.644 0 1.287.645 1.609.161.16.323.16.484.16.484 0 .968-.321 1.129-.804.323-.643 0-1.286-.645-1.608-.645-.322-1.29 0-1.613.643zM40 23.322c-.806 0-1.29.643-1.29 1.286 0 .644.484 1.287 1.29 1.287s1.29-.643 1.29-1.287c0-.804-.645-1.286-1.29-1.286zm2.741 36.188c.323-.161.323-.643 0-.965l-2.903-3.056-3.065 3.056c-.322.16-.322.643 0 .965.162.322.646.322.968 0l1.936-2.091 2.096 2.09c.162.162.323.162.484.162.162 0 .323 0 .484-.161zm0-25.574l-3.064 3.056-3.065-3.056c-.322-.16-.322-.643 0-.965.161-.321.645-.321.968 0l2.097 2.091 2.096-2.09c.162-.322.646-.322.968 0 .323.16.323.643 0 .964zm-16.29 9.007c.161-.321.645-.321.968 0L30.483 46l-3.064 3.056c-.162.161-.323.161-.484.161-.162 0-.323 0-.484-.16-.323-.161-.323-.644 0-.966L28.548 46l-2.097-2.092c-.323-.16-.323-.643 0-.965zm26.774.965L51.128 46l2.097 2.091c.323.161.323.644 0 .965-.161.161-.322.161-.484.161-.161 0-.322 0-.484-.16L49.193 46l3.064-3.056c.162-.321.646-.321.968 0 .323.161.323.644 0 .965zm-2.42 9.65c.323 0 .646-.32.646-.642 0-.483-.323-.805-.806-.966h-3.872l-1.29-1.286v-9.329l1.29-1.287h3.388c.322 0 .645-.321.645-.643s-.323-.643-.645-.643h-2.42L50 36.51c.323-.161.323-.643 0-.965-.161-.322-.645-.322-.967 0l-2.258 2.252v-2.413c0-.322-.323-.643-.646-.643-.322 0-.645.321-.645.643v3.86l-1.29 1.287h-9.355l-1.29-1.287v-3.86c0-.322-.323-.643-.645-.643-.323 0-.646.321-.646.643v2.413L30 35.545c-.161-.322-.645-.322-.967 0-.323.16-.323.643 0 .965l2.258 2.413h-2.42c-.322 0-.645.321-.645.643s.323.643.645.643h3.871l1.774 1.609v9.328l-1.29 1.287h-3.87c-.323 0-.646.322-.646.643 0 .322.323.644.645.644h2.42l-2.259 2.251c-.322.161-.322.644 0 .965.162.161.323.161.484.161.162 0 .323 0 .484-.16l2.258-2.252v2.412c0 .322.323.644.645.644.323 0 .646-.322.646-.644v-3.86l1.29-1.287h9.355l1.29 1.287v3.86c0 .322.323.644.645.644.323 0 .645-.322.645-.644v-2.412l2.42 2.09c.161.161.322.161.484.161.16 0 .322 0 .483-.16.323-.161.323-.644 0-.965l-2.258-2.252h2.42zm-6.773-3.055h-8.548v-8.525h8.548v8.525zm1.774-4.343l4.032-4.02c.323-.322.806-.322.968 0 .322.16.322.643 0 .964L47.74 46.16l3.065 3.056c.322.161.322.643 0 .965-.161.161-.323.161-.484.161-.161 0-.323 0-.484-.16l-4.032-4.022zm-2.097-9.972l-4.032 4.021-4.032-4.02c-.323-.162-.323-.644 0-.966.16-.322.645-.322.967 0l3.065 3.056 3.064-3.056c.162-.322.645-.322.968 0 .323.161.323.644 0 .965zM28.548 50.181c-.323-.16-.323-.643 0-.965l3.064-3.056-3.064-3.056c-.323-.16-.323-.643 0-.965.161-.321.645-.321.967 0l4.033 4.021-4.033 4.021c-.16.161-.322.161-.483.161-.162 0-.323 0-.484-.16zm7.097 6.112l4.032-4.02 4.032 4.02c.323.16.323.643 0 .965-.161.16-.323.161-.484.161-.161 0-.322 0-.484-.16l-3.064-3.057-3.065 3.056c-.161.322-.645.322-.968 0-.322-.16-.322-.643 0-.965z" fill="#fff"/></svg>