<svg width="80" height="92" fill="none" xmlns="http://www.w3.org/2000/svg"><path fill-rule="evenodd" clip-rule="evenodd" d="M0 69l40 23 40-23V23L40 0 0 23v46zm40 20.91L1.935 68.034v-43.91L40 2.253l38.064 21.874v43.909L40 89.909zM26.45 70.93h1.613c3.71 0 7.097-.162 8.548-2.092l.968-1.447c.14-.186.283-.382.429-.582.862-1.18 1.808-2.474 2.636-2.474.483 0 1.29.321 2.58 2.734l.323.483c1.613 2.895 2.258 3.377 7.58 3.377h5.968c.013 0 .041.002.081.006.45.035 2.472.196 3.951-1.132.807-.804 1.29-2.09 1.29-3.538V55.006s0-2.09-1.45-3.538c-1.13-1.126-2.581-1.609-4.517-1.609H25.16l-.082-.005c-.449-.036-2.471-.197-3.95 1.131-.968.804-1.452 1.93-1.452 3.539v11.74c0 .323 0 .644.161.966l.024.073c.34 1.023 1.203 3.626 5.137 3.626h1.452zm-4.032-18.658c.806-.483 1.774-.643 2.258-.643.161 0 .322 0 .322-.161h31.13c1.451 0 2.58.482 3.225 1.125.968.965.968 2.252.968 2.252v11.259c.161.965-.161 1.608-.645 2.09-.736.734-2.141.665-2.506.647a2.026 2.026 0 00-.075-.003h-6.129c-4.677 0-4.839-.16-5.968-2.412l-.322-.483c-1.29-2.252-2.58-3.538-4.032-3.538-2.097 0-3.549 2.09-4.678 3.86-.127.19-.23.38-.326.56-.149.278-.285.532-.48.727-1.13 1.447-5.162 1.447-8.71 1.447h-1.452c-2.6 0-3.024-1.302-3.337-2.26l-.05-.153V54.525c0-1.126.323-1.77.807-2.252zm33.549 3.218h-30v1.93h30v-1.93zM45.324 33.776l8.064 4.664c.161.16.323.322.323.483v7.88c0 .322-.323.644-.646.644H27.743c-.323 0-.645-.322-.645-.643V33.615l.014-.454c.147-4.703.152-4.854.308-4.854h.323l7.903 5.308v-3.378c0-.321.323-.643.645-.643h1.29V25.25c0-.322.323-.643.646-.643h1.613l.322-6.273.807-.483.483 6.756h1.29c.323 0 .646.322.646.643v4.343h1.29c.323 0 .646.322.646.643v3.539zM52.42 46.16v-6.755l-7.096-4.021V46.16h7.096zM38.71 25.895v3.699h3.226v-3.7h-3.225zm5.323 20.265V30.88h-7.097v15.28h7.097zm-8.548.161V35.223l-7.097-4.664V46.32h7.097zm5-4.503c.323 0 .485-.16.485-.482v-2.252c0-.322-.162-.483-.484-.483-.323 0-.484.161-.484.483v2.252c.161.321.322.482.484.482zm-10 3.056c0 .322-.161.483-.483.483-.108 0-.216-.143-.323-.286a1.91 1.91 0 00-.161-.197v-2.251c0-.322.16-.483.483-.483.323 0 .484.161.484.483v2.252zm10-6.916c.323 0 .485-.16.485-.482V32.65c0-.321-.162-.482-.484-.482-.323 0-.484.16-.484.482v4.826c.161.321.322.482.484.482zm-10 1.448c0 .322-.161.483-.483.483-.162 0-.323-.161-.484-.483V34.58c0-.322.16-.483.483-.483.323 0 .484.161.484.483v4.825zm12.095 3.7c.322 0 .483-.162.483-.483v-5.63c0-.321-.16-.482-.483-.482-.323 0-.484.322-.484.482v5.63c0 .16.161.482.484.482zm4.517 1.285c0 .322-.162.483-.484.483-.323 0-.484-.322-.484-.644v-5.468c0-.322.161-.483.484-.483.322 0 .484.161.484.483v5.63zm-8.549-4.663c.323 0 .484-.322.484-.483V36.19c0-.322-.161-.482-.484-.482-.322 0-.483.16-.483.482v3.056c0 .16.16.483.483.483zm-6.13 1.929c0 .482-.16.643-.483.643-.161 0-.484-.16-.484-.643V38.44c0-.322.162-.483.484-.483.323 0 .484 0 .484.483v3.217z" fill="#fff"/></svg>