<svg width="81" height="92" fill="none" xmlns="http://www.w3.org/2000/svg"><path fill-rule="evenodd" clip-rule="evenodd" d="M.8 69l40 23 40-23V23l-40-23-40 23v46zm40 20.91L2.737 68.034v-43.91L40.801 2.253l38.064 21.874v43.909L40.801 89.909zm-3.87-45.518c.16.16.322.321.644.321h.07c-1.006 1.384-1.06 3.309-.159 4.75l-8.942 1.845c-.323 0-.484.161-.645.322L18.38 64.82c-.161.482-.16.965.162 1.287l1.774 1.769c.161.16.322.322.645.322s.484-.161.645-.322l17.097-16.888a.887.887 0 00.159-.216c.71.445 1.442.697 2.259.697.951 0 2.058-.466 2.861-1.245-.08.16-.12.36-.12.601l1.452 8.846c0 .322.161.483.323.643l13.225 9.49c.162.16.323.16.484.16.161 0 .484 0 .968-.32l1.774-1.77c.323-.322.323-.965 0-1.287L45.476 50.02c-.322-.322-.806-.322-1.129-.161l-.015.008-.017.009a.975.975 0 00-.025.014c1.183-1.437 1.255-3.56.216-5.08.003-.023.003-.054.003-.097l9.032-1.609c.323 0 .484-.16.646-.321l9.516-13.19c.161-.482.161-.964-.162-1.286l-1.774-1.77c-.322-.32-.967-.32-1.29 0L43.703 43.266a.905.905 0 00-.252.49c-1.53-1.043-3.67-.97-5.113.221.028-.115.043-.245.043-.389l-1.452-8.846c0-.321-.161-.482-.323-.643l-13.225-9.49c-.484-.16-.968-.16-1.29.161l-1.775 1.77c-.322.321-.322.965 0 1.286L36.93 44.392zm-.646-3.378L22.413 27.182l.645-.643 12.258 8.846.968 5.63zm24.838-12.546L47.252 42.3l5.644-.965 8.871-12.224-.645-.643zM31.123 68.035a23.154 23.154 0 0010.323 2.412c3.065 0 5.968-.643 8.71-1.769l.322-.16-.645-1.448-.322.16c-5.807 2.413-12.259 2.091-17.743-.643l-.322-.16-.645 1.447.322.16zm28.063-.162l-12.258-8.846-.968-5.63L59.831 67.23l-.645.643zm-38.87-2.572l.646.644 14.032-13.993-5.806 1.126L20.317 65.3zm20.806-20.427c-.645 0-1.13.161-1.613.643-.968.965-.968 2.413 0 3.217.968.965 2.42.965 3.226 0 .968-.965.968-2.412 0-3.217-.484-.482-1.13-.643-1.613-.643zm-14.677 4.504v-.322c-.323-2.252 0-4.503.645-6.594l.161-.322 1.452.483-.161.321c-.646 1.93-.807 3.86-.646 5.79v.322l-1.451.322zm20.484-13.992l-.323-.161c-2.096-.965-4.354-1.287-6.612-1.126h-.323l-.161-1.608h.322a16.447 16.447 0 017.42 1.286l.322.161-.645 1.448zm6.773 19.3l-1.452-.805.161-.321c1.29-2.091 1.774-4.665 1.774-7.077v-.322h1.613v.322c.162 2.734-.483 5.63-1.935 8.042l-.161.16zM41.12 61.924c-2.42 0-5-.644-7.097-1.77l-.323-.16.807-1.448.322.16c2.097 1.127 4.355 1.77 6.774 1.61h.323v1.608h-.806zm-21.29-5.63l-.16-.322c-.646-1.608-1.13-3.377-1.452-5.307v-.322l1.613-.16v.32l.074.372c.3 1.506.62 3.117 1.216 4.454l.161.322-1.451.643zm-1.774-8.524v-.322c0-4.665 1.29-9.168 3.87-13.028l.162-.322 1.29.804-.161.483c-2.42 3.538-3.71 7.72-3.549 12.063v.322h-1.612zM59.67 60.797l-1.29-.965.161-.322c1.452-2.091 2.58-4.343 3.226-6.755l.161-.322 1.613.483-.161.321c-.645 2.574-1.936 5.147-3.387 7.238l-.323.322zM31.606 28.469l-.645-1.448.323-.16c1.935-.966 3.87-1.61 5.967-1.93h.323l.322 1.607h-.322c-1.936.322-3.71.965-5.484 1.93h-.484zm21.29.804l-.323-.16c-1.613-.966-3.226-1.77-5-2.253l-.323-.16.484-1.448.322.16c1.936.644 3.71 1.448 5.323 2.414l.323.16-.807 1.287zm11.612 19.783l-1.613-.16v-.322c.162-3.217-.322-6.595-1.613-9.49l-.16-.321 1.45-.644.162.322c1.29 3.217 1.935 6.755 1.774 10.294v.321z" fill="#fff"/></svg>