<svg width="81" height="92" fill="none" xmlns="http://www.w3.org/2000/svg"><path fill-rule="evenodd" clip-rule="evenodd" d="M.7 69l40 23 40-23V23l-40-23-40 23v46zm40 20.91L2.634 68.034v-43.91L40.699 2.253l38.065 21.874v43.909L40.699 89.909zm22.258-40.05v-6.916h4.354v21.874h-4.677v-2.895h-4.032v-4.02h-3.71v5.146h-7.258v-9.65h-.806v6.433h-4.517v4.986h-4.516v-4.986h-4.355V53.56h-.645v9.49h-7.258v-5.308h-3.87v4.021h-3.71v3.056H13.44V42.944h4.516v6.916h2.259v-4.02h4.032V31.684h4.516v11.902h4.839V31.524h4.032V20.91h5.161v10.616h4.355v12.063h5.161V31.684h4.517V45.84h3.71v4.021h2.419zm1.612 13.51h1.936V44.554h-1.613v6.916h-5.484v-4.021H55.7V33.294h-1.451v11.902h-8.226V33.133h-4.355V22.517H39.57v10.616h-4.032v12.063h-7.903V33.294h-1.452v14.154h-4.032v4.02h-5.323v-6.916h-1.451v18.819h1.451v-3.056h3.71v-4.021h6.936V61.6h4.193v-9.49h3.71v6.274h4.355v4.986h1.451v-4.986H45.7V51.95h3.87v9.65h4.194v-5.307h6.774v4.182h4.032v2.895z" fill="#fff"/></svg>