<svg width="81" height="92" fill="none" xmlns="http://www.w3.org/2000/svg"><path fill-rule="evenodd" clip-rule="evenodd" d="M40.7 92L.7 69.04V22.96L40.7 0l40 22.96v45.92L40.7 92zM2.634 67.916l38.064 21.836 38.065-21.836V24.084L40.699 2.248 2.635 24.084v43.832zm15.646.963h8.549c.483 0 .806-.32.967-.963V50.094c0-.486-.185-.88-.485-1.043V36.608c0-.321-.16-.482-.483-.642-.323 0-.646 0-.807.16l-8.548 7.547c0 .08-.04.16-.08.24a.57.57 0 00-.081.241v6.262a.57.57 0 00.162.384v16.956c0 .642.322 1.123.806 1.123zM26.184 50.8a.57.57 0 01-.162-.384v-4.212l-6.45 5.656c-.161.16-.161.16-.322.16-.057 0-.113 0-.163-.006v14.778h7.097V50.8zm-7.097.277v-.983a1.48 1.48 0 00-.162-.706v-1.864l.002.001c0 .16.161.16.323.16.08 0 .12-.04.16-.08.041-.04.081-.08.162-.08l6.45-5.657v3.289c-.12 0-.24.04-.32.12l-6.615 5.8zm-.162-4.194v-2.408l7.097-6.261v2.608c-.12 0-.24.04-.32.12l-6.775 5.94h-.002zM47.96 59.538a.83.83 0 01.16.511v7.868h14.355V60.4a.828.828 0 01-.16-.512V31.79H47.959v27.748zm-1.453 1.022a.828.828 0 01-.16-.512v-29.06c0-.482.322-.803.806-.803H62.96c.483 0 .806.32.806.802v28.398c.202.138.322.372.322.664v8.67c-.162.482-.484.803-.968.803H47.312c-.484 0-.806-.32-.806-.802v-8.16zM56.99 36.63l.002-.022v-2.73c0-.08 0-.12-.02-.14-.02-.02-.06-.02-.142-.02h-.144c.155.01.304.166.304.32v2.592zm-2.902.62h2.581c.323 0 .484-.321.484-.481v-2.73c0-.321-.161-.482-.484-.482h-2.58c-.323 0-.485.16-.485.482v2.73c0 .32.162.481.484.481zm2.097-1.124h-1.613V34.36h1.613v1.766zm.801 5.024a.195.195 0 00.006-.048v-2.73c0-.08 0-.12-.02-.14a.059.059 0 00-.03-.014c.03.048.048.102.048.156v2.73a.258.258 0 01-.004.046zm-2.898.434h2.581c.323 0 .484-.16.484-.482v-2.73c0-.32-.161-.48-.484-.48h-2.58c-.323 0-.485.16-.485.48v2.73c0 .321.162.482.484.482zm2.097-.963h-1.613v-1.767h1.613v1.767zm.806 4.84v-2.752c0-.08 0-.12-.02-.14-.02-.02-.06-.02-.14-.02h-.145c.155.01.304.165.304.32v2.592zm-2.903.62h2.581c.323 0 .484-.321.484-.482v-2.73c0-.32-.161-.481-.484-.481h-2.58c-.323 0-.485.16-.485.482v2.73c0 .32.162.48.484.48zm2.097-1.124h-1.613v-1.766h1.613v1.766zm.806 6.605V48.81c0-.16 0-.16-.16-.16h-.145c.155.01.304.165.304.32v2.592zm-2.903.62h2.581c.323 0 .484-.321.484-.482v-2.73c0-.32-.161-.481-.484-.481h-2.58c-.323 0-.485.16-.485.482v2.73c0 .32.162.48.484.48zm2.097-.964h-1.613v-1.766h1.613v1.766zm.8 4.87a.19.19 0 00.007-.053v-2.729c0-.08 0-.12-.02-.14a.058.058 0 00-.029-.015c.03.048.047.101.047.154v2.73a.255.255 0 01-.005.053zm-2.897.43h2.581c.323 0 .484-.161.484-.483v-2.729c0-.321-.161-.482-.484-.482h-2.58c-.323 0-.485.16-.485.482v2.73c0 .32.162.481.484.481zm2.097-.964h-1.613v-1.766h1.613v1.766zm.806 4.838V57.64c0-.16 0-.16-.16-.16h-.145c.155.011.304.166.304.32v2.592zm-2.903.62h2.581c.323 0 .484-.16.484-.481V57.8c0-.32-.161-.481-.484-.481h-2.58c-.323 0-.485.16-.485.481v2.73c0 .32.162.482.484.482zm2.097-.963h-1.613v-1.766h1.613v1.766zm-6.611 2.89H60.87c.316.007.474.323.474.482v2.248c0 .16-.161.481-.484.481H49.57c-.323 0-.484-.32-.484-.481V63.42c0-.321.161-.482.484-.482h.003zm10.803 2.087H50.054v-1.284h10.322v1.284zM31.99 44.796h2.42c.162 0 .485.161.485.482 0 .321-.162.482-.484.482H31.99v2.407h2.42c.162 0 .485.161.485.482 0 .16-.162.482-.484.482H31.99v2.57h2.42c.162 0 .485.16.485.48 0 .322-.162.482-.484.482H31.99v2.408h2.42c.162 0 .485.16.485.482 0 .321-.162.482-.484.482H31.99v2.409h2.42c.162 0 .485.16.485.481 0 .322-.162.482-.484.482H31.99v2.248h2.42c.162 0 .485.16.485.482 0 .32-.162.481-.484.481H31.99v1.765h2.42c.162 0 .485.16.485.482 0 .321-.162.482-.484.482H31.99v1.766h10.645v-1.766h-5.643c-.162 0-.484-.16-.484-.482 0-.16.161-.482.484-.482h5.643v-1.765h-5.643c-.162 0-.484-.16-.484-.481 0-.321.161-.482.484-.482h5.643v-2.248h-5.643c-.162 0-.484-.16-.484-.481 0-.322.161-.482.484-.482h5.643v-2.41h-5.643c-.162 0-.484-.16-.484-.481 0-.321.161-.482.484-.482h5.643v-2.408h-5.643c-.162 0-.484-.16-.484-.481 0-.321.161-.482.484-.482h5.643v-2.57h-5.643c-.162 0-.484-.16-.484-.48 0-.161.161-.483.484-.483h5.643V45.76h-5.643c-.162 0-.484-.16-.484-.482 0-.16.161-.482.484-.482h5.643v-2.569h-5.644a.25.25 0 01-.045-.004c-.17-.025-.438-.185-.438-.477 0-.161.161-.482.484-.482h5.643v-2.41h-5.643c-.162 0-.484-.16-.484-.481 0-.16.161-.482.484-.482h5.643v-2.408h-5.643c-.162 0-.484-.16-.484-.481 0-.321.161-.482.484-.482h5.643v-2.088h-5.643c-.162 0-.484-.16-.484-.482 0-.16.161-.481.484-.481h5.643v-2.73h-5.643c-.162 0-.484-.16-.484-.481 0-.16.161-.482.484-.482h5.643v-2.569h-5.643c-.162 0-.484-.16-.484-.482 0-.16.161-.481.484-.481h5.643v-1.285H31.99v1.285h2.42c.162 0 .485.16.485.481 0 .322-.162.482-.484.482H31.99v2.57h2.42c.162 0 .485.16.485.481 0 .321-.162.482-.484.482H31.99v2.729h2.42c.162 0 .485.16.485.482 0 .16-.162.481-.484.481H31.99v2.088h2.42c.162 0 .485.16.485.482 0 .32-.162.481-.484.481H31.99v2.408h2.42c.162 0 .485.16.485.482 0 .32-.162.482-.484.482H31.99v2.409h2.42c.162 0 .485.16.485.481 0 .317-.157.477-.47.482a.23.23 0 01-.014 0H31.99v2.57zm5.001 14.45h5.644-5.644zm-5.001 0h2.432-2.432zm2.442-34.2c.09 0 .122-.003.134-.046a.307.307 0 01-.134.047zm9.816 20.07v23.281c0 .643-.323 1.124-.806 1.124h-12.26c-.483 0-.806-.481-.806-1.284v-46.08c0-.482.323-.803.806-.803H43.44c.484 0 .807.321.807.803v22.96z" fill="#0A202C"/></svg>