<svg width="81" height="92" fill="none" xmlns="http://www.w3.org/2000/svg"><path fill-rule="evenodd" clip-rule="evenodd" d="M40.9 92L.9 69V23l40-23 40 23v46l-40 23zM2.836 68.035L40.9 89.909l38.065-21.874v-43.91L40.9 2.253 2.836 24.126v43.909zm31.614-26.7h-2.584v1.93c.161.966-.645 1.77-1.774 1.77h-1.129v14.798c0 2.09 1.774 3.86 3.871 3.86h2.903c2.097 0 3.871-1.77 3.871-3.86v-24.93a7.218 7.218 0 017.259-7.238h2.419a7.218 7.218 0 017.258 7.237v1.716c1.963.675 3.39 2.544 3.39 4.717V55.65c0 2.173-1.427 4.041-3.389 4.717v11.527h-3.387V60.307c-1.877-.72-3.224-2.545-3.224-4.657V41.335c0-2.111 1.346-3.935 3.223-4.656v-1.777c0-2.09-1.774-3.86-3.871-3.86h-2.42c-2.096 0-3.87 1.77-3.87 3.86v24.93a7.218 7.218 0 01-7.259 7.238h-2.903a7.218 7.218 0 01-7.258-7.237V45.035h-1.452a1.787 1.787 0 01-1.774-1.77v-1.93h-2.416c-1.13 0-2.258-.965-2.258-2.252V30.72h3.547v-5.79h11.935v5.789h3.389v8.363c0 1.287-.968 2.252-2.097 2.252zm20.804-6.433v1.457a4.993 4.993 0 00-.807.014v-1.47c0-2.896-2.258-5.147-5.161-5.147h-2.42c-2.903 0-5.16 2.251-5.16 5.146v24.93a5.946 5.946 0 01-5.969 5.952h-2.903c-3.226 0-5.968-2.574-5.968-5.952V45.035h.807v14.798c0 2.895 2.258 5.146 5.161 5.146h2.903c2.904 0 5.162-2.251 5.162-5.146v-24.93a5.946 5.946 0 015.968-5.952h2.419c3.226 0 5.968 2.574 5.968 5.951zm-.32 25.734c.108 0 .215-.004.321-.01v9.982h-.806v-9.996c.16.016.321.024.485.024zM32.029 27.182v-.965h-9.516v.965h9.516zm-9.516 1.286h9.516v2.252h-9.516v-2.252zm8.062 12.867H23.64v1.93c0 .322.161.483.484.483h5.968c.322 0 .483-.16.483-.482v-1.931zM19.29 32.328v6.755c0 .322.322.644.645.644H34.45c.323 0 .645-.322.645-.644v-6.755H19.29zm35.645 5.79a3.23 3.23 0 00-3.226 3.217V55.65a3.23 3.23 0 003.226 3.217 3.23 3.23 0 003.225-3.217V41.335a3.23 3.23 0 00-3.225-3.217zm1.612 3.86a1.61 1.61 0 01-1.613 1.609 1.61 1.61 0 01-1.613-1.608 1.61 1.61 0 011.613-1.609c.891 0 1.613.72 1.613 1.609zm-1.613 14.638a1.61 1.61 0 001.613-1.608 1.61 1.61 0 00-1.613-1.609c-.89 0-1.613.72-1.613 1.608a1.61 1.61 0 001.613 1.609zm1.613-8.204a1.61 1.61 0 01-1.613 1.608 1.61 1.61 0 01-1.613-1.608 1.61 1.61 0 011.613-1.609c.891 0 1.613.72 1.613 1.609z" fill="#fff"/></svg>