<svg width="81" height="92" fill="none" xmlns="http://www.w3.org/2000/svg"><path fill-rule="evenodd" clip-rule="evenodd" d="M40.7 92L.7 69V23l40-23 40 23v46l-40 23zM2.635 68.035L40.7 89.909l38.064-21.874v-43.91L40.7 2.253 2.635 24.126v43.909zM54.22 29.433c-.22-1.683-1.586-2.894-3.356-2.894v6.755c1.77 0 3.136-1.212 3.356-2.896h9.062v-.965H54.22zm-28.65 0c.22-1.683 1.586-2.894 3.356-2.894v6.755c-1.77 0-3.136-1.212-3.356-2.896h-8.902v-.965h8.902zm5.451 38.763l-.484.966h20.968l-.484-.966h-20zm0 4.825l-.484-.965h20.968l-.484.965h-20zm-.644-2.574v.644H51.83v-1.126H30.377v.482zm17.098-4.18c1.129 0 1.935.321 2.742.964H31.668a4.388 4.388 0 012.742-.965h2.87c.08-.294.2-.568.358-.804.967-1.287 3.387-1.448 5.806-1.609 3.065-.16 5.161-.482 5.161-1.769 0-.322-.16-.483-.322-.643-.968-.965-4.516-.805-7.258-.644l-.553.026c-3.231.149-5.305.245-6.222-.669-.322-.322-.483-.643-.483-1.126v-.16c.32-1.754 2.064-1.928 3.665-2.087l.044-.005c.267 0 .484-.048.68-.092a2.08 2.08 0 01.45-.069c.483-.16.645-.482.645-.643l-.162-.16-.022-.023c-.308-.3-2.881-2.813-2.881-5.929 0-.241.04-.442.08-.643s.081-.402.081-.643c-.161-.483-.322-1.126-.322-1.609v-2.734h-5.968v-8.203H16.668v-.965h13.389V22.839h19.516v12.224h13.545v.965H49.573v8.364h-5.968v2.734c0 .643-.16 1.126-.322 1.608.161.483.161.805.161 1.287 0 2.573-1.613 4.664-2.42 5.469.05.072.105.145.162.219.322.42.685.89 0 1.71-.806.483-1.935.644-3.065.805-1.29.16-2.258.322-2.419.804.645.644 3.549.483 5.807.322 3.387-.161 6.935-.322 8.387.965.322.482.645.965.161 1.608 0 2.564-2.979 2.865-5.877 3.158l-.575.059-.193.016c-1.89.156-4.022.332-4.645 1.11h8.708zm-15.485 7.56c.646.482 1.613.964 2.581.964h13.065c.967 0 1.935-.322 2.58-.965H31.99zm.325-31.848c0 .161 0 .161.161.161H47.96c.161 0 .161 0 .161-.16V24.608c0-.161 0-.161-.16-.161H32.475c-.161 0-.161 0-.161.16V41.98z" fill="#fff"/></svg>