<svg width="80" height="93" fill="none" xmlns="http://www.w3.org/2000/svg"><path fill-rule="evenodd" clip-rule="evenodd" d="M39.839 92.5L0 69.5v-46l40-23 40 23v46l-40.161 23zM1.774 68.374L39.84 90.248l38.064-21.874V24.626L39.84 2.59 1.774 24.465v43.91zm67.259-12.866c-.807-.644-1.613-1.287-2.258-1.93-2.258-2.091-4.678-4.182-9.516-4.182-4.688 0-6.953 1.962-9.29 3.985l-.227.197-.233.2c-2.172 1.86-4.272 3.66-8.476 3.66-2.742 0-5.162-1.77-7.58-3.539-5-3.7-10.646-7.72-20.969 2.413v3.217c10.162-10.455 15.323-6.756 20.162-3.056 2.58 1.93 5.161 3.699 8.387 3.699 4.687 0 6.953-1.962 9.29-3.986l.226-.196.233-.2c.343-.293.683-.585 1.03-.868-.624 1.437-.772 3.18-.136 4.767.041.102.084.203.129.302l-9.046 6.574a4.216 4.216 0 00-1.211-.279l-3.816-1.455.074-.157-6.935-1.126-.484 1.286 5.901 2.113-1.075 2.358-5.471-3.183-.484 1.287 4.921 4.164-.081.18 5.322 2.412.014-.03c.391.17.82.287 1.274.351h.322c.968 0 1.936-.321 2.742-1.126.807-.643 1.29-1.608 1.452-2.734.054-.375.05-.74-.006-1.09l9.331-6.543c.166.086.337.164.514.235.807.482 1.613.643 2.581.643.645 0 1.452-.16 2.258-.482 3.226-1.287 5-4.986 3.71-8.203a6.588 6.588 0 00-2.274-2.891c2.884.485 4.616 1.97 6.397 3.495l.233.2c.272.232.534.465.794.695h.001l.001.001.002.002h.001v.001c.818.725 1.61 1.426 2.588 2.035a23.613 23.613 0 01-.157-1.61 17.937 17.937 0 00-.165-1.606zM41.184 67.843l1.15 1.764c.084.327.115.67.083 1.02-.16 1.769-1.774 3.216-3.548 3.055a3.323 3.323 0 01-1.093-.294l.687-1.5c.08.016.162.025.246.025.807 0 1.613-.644 1.613-1.448 0-.503-.252-.944-.64-1.242l.83-1.81c.24.118.466.263.672.43zm-3.956 5.228l.657-1.464a1.72 1.72 0 01-.627-1.303c0-.804.806-1.447 1.613-1.447.075.015.15.034.221.057l.748-1.665-.395-.152-.038-.004a3.287 3.287 0 00-.054-.005h-.323c-1.774 0-3.226 1.287-3.226 3.056-.106 1.17.493 2.27 1.424 2.927zm.598-6.594l-2.18-.837-2.742 5.79 2.838 1.307c-.528-.772-.886-1.763-.744-2.754.161-1.126.645-2.091 1.452-2.734a4.797 4.797 0 011.376-.772zm5.152 2.216l8.633-5.948-1.774-1.769-8.226 5.951.096.164c.56.415 1.004.967 1.271 1.603zm10.892-16.08c.056-.022.112-.041.169-.06.22-.063.446-.12.68-.17 2.368-.41 4.9.99 5.764 3.285.968 2.574-.323 5.63-3.065 6.595-1.29.482-2.58.482-3.87-.161-1.291-.643-2.259-1.608-2.743-2.895-.483-1.287-.483-2.574.162-3.86.645-1.287 1.613-2.252 2.903-2.735zm12.905-8.526c.645.644 1.29 1.126 1.935 1.609v3.056a18.55 18.55 0 01-2.742-2.252l-.233-.2c-2.172-1.861-4.272-3.66-8.476-3.66-4.205 0-6.305 1.799-8.477 3.66l-.233.2-.227.196c-2.336 2.024-4.602 3.986-9.29 3.986-3.225 0-5.806-1.77-8.386-3.7-4.839-3.699-10-7.398-20.162 3.056v-3.216c3.908-3.837 7.146-5.644 9.932-6.208 1.886-6.254 5.764-10.388 10.23-11.003H49.68v.161c4.19.643 7.735 4.496 9.672 10.278 3.495.507 5.517 2.272 7.424 4.037zm-9.407-4.181h.047c-1.815-5.04-5.113-8.374-8.865-8.686H31.13c-3.89.155-7.481 3.755-9.322 9.21 3.878-.239 6.861 1.92 9.644 3.98 2.42 1.768 4.839 3.538 7.58 3.538 4.205 0 6.305-1.8 8.477-3.66l.233-.2.227-.197c2.337-2.023 4.602-3.985 9.29-3.985h.11zm-22.37-.644c0 2.573 2.097 4.503 4.677 4.503 2.581 0 4.678-1.93 4.678-4.503 0-2.574-2.097-4.504-4.678-4.504-2.58 0-4.677 2.091-4.677 4.504zm1.613.16c0-1.608 1.29-2.894 3.064-2.894 1.613 0 3.065 1.286 3.065 2.895 0 1.608-1.452 2.895-3.065 2.895-1.612 0-3.064-1.287-3.064-2.895zm-4.192 31.525l-4.355-3.538 4.839 2.412-.484 1.126zm-3.226-6.434l5.162 1.769.483-1.126-5.645-.643zm23.227-7.237a3.23 3.23 0 003.226 3.217 3.23 3.23 0 003.225-3.217 3.23 3.23 0 00-3.225-3.217 3.23 3.23 0 00-3.226 3.217zm.806.16c0-1.286 1.13-2.412 2.42-2.412s2.42 1.126 2.42 2.413-1.13 2.412-2.42 2.412-2.42-1.125-2.42-2.412z" fill="#0A202C"/></svg>