<svg width="81" height="93" fill="none" xmlns="http://www.w3.org/2000/svg"><path fill-rule="evenodd" clip-rule="evenodd" d="M40.8 92.5L.8 69.54V23.46L40.8.5l40 22.96v45.92l-40 23.12zM2.737 68.416l38.065 21.836 38.064-21.836V24.584L40.801 2.748 2.736 24.584v43.832zm37.418-1.605c-11.29 0-20.484-9.152-20.484-20.39 0-11.24 9.193-20.392 20.484-20.392 11.29 0 20.484 9.152 20.484 20.391 0 11.24-9.194 20.391-20.484 20.391zm0-39.337c-10.484 0-19.194 8.51-19.194 19.107s8.71 18.946 19.194 18.946c10.484 0 19.193-8.51 19.193-19.107 0-10.596-8.71-18.946-19.193-18.946zm-9.677 29.703c0 1.124.967 2.087 2.096 2.087h16.13c1.128 0 2.096-.963 2.257-2.087V44.332c0-1.124-.967-2.087-2.096-2.087h-.645v-.963c0-4.175-3.388-7.386-7.581-7.386-4.194 0-7.58 3.371-7.58 7.386v.963h-.485c-1.129 0-2.096.963-2.096 2.087v12.845zm1.613-13.005c0-.322.16-.482.483-.482h1.936v-2.57c0-3.21 2.742-5.78 5.968-5.78 3.225 0 5.967 2.57 5.967 5.78v2.57h2.258c.323 0 .484.16.484.482v12.844c0 .321-.161.482-.484.482h-16.13c-.322 0-.483-.16-.483-.482V44.172zm6.451 8.51c0 1.123.968 2.086 2.097 2.086s2.097-.963 2.097-2.087v-3.853c0-1.124-.968-2.088-2.097-2.088-1.13 0-2.097.964-2.097 2.088v3.853zm1.613-4.015c0-.32.161-.482.484-.482.322 0 .484.161.484.482v3.854c0 .32-.162.481-.484.481-.323 0-.484-.16-.484-.481v-3.854zM35.8 43.69h9.678v-2.57c0-2.568-2.097-4.655-4.84-4.655-2.58 0-4.838 2.087-4.838 4.656v2.569zm8.065-1.606h-6.452v-.963c0-1.606 1.452-3.05 3.226-3.05s3.226 1.284 3.226 3.05v.963zM40.8 70.825c13.548 0 24.515-10.918 24.515-24.405 0-13.487-10.967-24.405-24.516-24.405-4.032 0-6.935.643-10.161 2.248h-.161l-.484-1.605h.161l.035-.015a25.586 25.586 0 0110.45-2.233h.16c14.516 0 26.29 11.72 26.29 26.17 0 14.451-11.935 26.011-26.451 26.011-7.42 0-14.032-2.89-19.032-8.188l-.162-.16 1.613-1.125.162.16c4.656 4.796 10.911 7.523 17.492 7.547h.089zm-.161 1.445c-7.118 0-13.493-2.66-18.272-7.412 4.796 4.844 11.23 7.412 18.27 7.412h.002z" fill="#fff"/></svg>