<svg width="80" height="92" fill="none" xmlns="http://www.w3.org/2000/svg"><path fill-rule="evenodd" clip-rule="evenodd" d="M40 92L0 69V23L40 0l40 23v46L40 92zM1.935 68.035L40 89.909l38.064-21.874v-43.91L40 2.253 1.935 24.126v43.909zm36.794 4.568c-7.889-.874-14.052-7.571-14.052-15.665 0-7.56 5.322-14.154 12.742-15.602l.645-.16V21.07h-4.355v-1.126h13.548v1.126h-4.355v20.104l.645.161c7.42 1.609 12.742 8.042 12.742 15.602 0 8.166-6.274 14.91-14.264 15.687a16.179 16.179 0 01-3.296-.022zm-1.316-31.75h.006-.005zm-14.51 15.924c0 9.65 7.903 17.531 17.58 17.531s17.58-7.88 17.58-17.37c0-8.042-5.645-15.12-13.548-17.05V22.68h4.355v-4.343H31.935v4.343h4.354v17.049c-7.742 1.93-13.387 9.007-13.387 17.049zm3.224.16c0 7.88 6.452 14.314 14.355 14.314 8.064 0 14.516-6.433 14.516-14.315 0-.804-.161-1.769-.323-2.734l-.161-.965H26.611l-.162.965c-.16.804-.322 1.77-.322 2.734zm2.339-.724c.04-.242.08-.483.08-.724h23.871c.162.482.162.965.162 1.447C52.579 63.531 47.095 69 40.482 69c-6.613 0-12.097-5.468-12.097-12.063 0-.24.04-.482.08-.723zm2.665 3.298c0 1.126.968 2.09 2.097 2.09s1.935-.964 2.096-2.09c0-1.126-.967-2.091-2.096-2.091-1.13 0-2.097.965-2.097 2.09zm1.29 0c0-.483.323-.804.807-.804.322 0 .645.482.645.804 0 .322-.161.804-.645.804s-.807-.322-.807-.804zm11.664-2.481zm-1.046.551a1.119 1.119 0 01.14.007c.208.036.208.175.208.313 0 .161-.162.322-.323.322s-.322-.16-.322-.322c0-.152.144-.304.297-.32zm-1.588.481c0 .805.645 1.609 1.613 1.609s1.774-.804 1.613-1.609c0-.804-.645-1.608-1.613-1.608-.806 0-1.613.643-1.613 1.608zM45 62.244c0 1.287.968 2.252 2.258 2.252 1.13 0 2.258-.965 2.258-2.252 0-1.286-.968-2.251-2.258-2.251S45 60.958 45 62.244zm1.29 0c0-.482.484-.965.968-.965s.968.483.968.965c0 .483-.484.965-.968.965s-.968-.482-.968-.965zm-9.523 4.818a3.346 3.346 0 002.146.962 3.55 3.55 0 01-2.145-.962zm2.682.964a3.552 3.552 0 002.206-.998 3.349 3.349 0 01-2.206.998zm.734-5.755zm-4.699 2.225c0 2.091 1.775 3.7 3.71 3.7 2.097 0 3.71-1.609 3.71-3.7 0-2.09-1.613-3.7-3.71-3.7s-3.71 1.77-3.71 3.7zm1.452 0c0-1.286.968-2.252 2.258-2.252s2.258.965 2.258 2.252-.968 2.252-2.258 2.252-2.258-.965-2.258-2.252z" fill="#fff"/></svg>