<svg width="80" height="93" fill="none" xmlns="http://www.w3.org/2000/svg"><path fill-rule="evenodd" clip-rule="evenodd" d="M40 92.8L0 69.84V23.92L40 .8l40 22.96v45.92L40 92.8zM1.935 68.716L40 90.552l38.065-21.836V24.884L40 3.048 1.935 24.884v43.832zm59.196-4.656c-3.606 0-7.913-2.648-10.441-5.866-.83.563-1.841.89-2.947.89-2.571 0-4.637-1.764-5.075-4.176h-6.14c-.439 2.412-2.504 4.175-5.076 4.175a5.263 5.263 0 01-2.46-.597c-3.244 3.93-9.351 6.29-12.86 4.772-3.71-1.606-3.55-7.065.483-16.056 0-.321-.161-1.124-.322-1.606a13.106 13.106 0 00-.28-1.216c-.111-.42-.204-.773-.204-1.032 0-5.94 4.838-10.596 10.645-10.596 2.42 0 4.677.802 6.613 2.247h13.387c1.935-1.445 4.193-2.248 6.613-2.248 5.967 0 10.645 4.817 10.645 10.597 0 .643-.161 1.445-.484 2.248-.161.482-.323 1.285-.323 1.606.968 2.087 2.42 5.78 2.742 9.312.484 4.656-1.129 6.422-2.742 7.065-.16.32-.967.481-1.774.481zm1.452-2.247c-2.64 1.082-7.82-1.408-10.506-5.033a5.166 5.166 0 00.828-2.835c0-2.89-2.258-5.138-5.162-5.138-2.684 0-4.817 1.922-5.123 4.496h-6.044c-.307-2.574-2.44-4.496-5.124-4.496-2.903 0-5.161 2.248-5.161 5.138a5.13 5.13 0 001.167 3.297c-2.739 3.233-7.927 5.464-10.52 4.25-2.42-1.124-1.936-6.102 1.451-13.648.162-.482 0-1.284-.322-2.73-.162-.802-.323-1.605-.323-1.926 0-4.977 4.032-8.83 8.871-8.83 2.097 0 4.032.802 5.645 2.086l.323.16H47.26l.323-.16c1.613-1.284 3.548-2.087 5.645-2.087 5 0 8.87 4.014 8.87 8.83 0 .483-.16 1.285-.322 1.928-.484 1.445-.645 2.247-.322 2.729 1.451 3.211 2.42 6.422 2.742 8.83.322 2.89-.323 4.496-1.613 5.139zM31.453 49.93c-2.098 0-3.872 1.766-3.872 3.854 0 2.087 1.774 3.853 3.871 3.853s3.871-1.766 3.871-3.853c0-2.088-1.613-3.854-3.87-3.854zm-2.906 4.013c0 1.606 1.29 2.89 2.903 2.89a2.885 2.885 0 002.903-2.89c0-1.605-1.29-2.89-2.903-2.89a2.885 2.885 0 00-2.903 2.89zm.968 0c0-1.124.806-1.926 1.935-1.926 1.13 0 2.097.802 1.936 1.926 0 1.124-.807 1.927-1.936 1.927s-1.935-.803-1.935-1.927zm18.228-4.013c-2.096 0-3.87 1.766-3.87 3.854 0 2.087 1.774 3.853 3.87 3.853 2.097 0 3.871-1.766 3.871-3.853 0-2.088-1.774-3.854-3.87-3.854zm-2.903 4.013c0 1.606 1.29 2.89 2.903 2.89a2.885 2.885 0 002.903-2.89c0-1.605-1.29-2.89-2.903-2.89a2.885 2.885 0 00-2.903 2.89zm.968 0c0-1.124.806-1.926 1.935-1.926 1.13 0 1.936.802 1.936 1.926 0 1.124-.807 1.927-1.936 1.927s-1.935-.803-1.935-1.927zM28.226 41.261h-1.774v-1.766c0-.481-.323-.802-.807-.802h-1.129c-.484 0-.806.32-.806.802v1.766h-1.775c-.483 0-.806.322-.806.803v1.124c0 .482.322.803.806.803h1.775v1.766c0 .482.322.803.806.803h1.129c.484 0 .806-.321.806-.803v-1.766h1.775c.484 0 .806-.321.806-.803v-1.124c0-.32-.322-.803-.806-.803zm25.969-.642c.645 0 1.29-.482 1.29-1.285 0-.803-.645-1.284-1.29-1.284s-1.29.481-1.29 1.284c0 .642.483 1.285 1.29 1.285zm1.29 5.62c0 .803-.645 1.285-1.29 1.285-.807 0-1.29-.643-1.29-1.285 0-.803.645-1.284 1.29-1.284.645-.161 1.29.481 1.29 1.284zm.806-3.372c0 .642.484 1.284 1.29 1.284.807 0 1.29-.642 1.29-1.284s-.483-1.285-1.29-1.285c-.645 0-1.29.482-1.29 1.285zm-5.647 1.284c-.807 0-1.29-.642-1.29-1.284 0-.803.645-1.285 1.29-1.285.806 0 1.29.642 1.29 1.285.162.642-.484 1.284-1.29 1.284zm-14.998 1.124h8.387c1.129 0 2.096-.963 2.096-2.087s-.967-2.087-2.096-2.087h-8.387c-1.13 0-2.097.963-2.097 2.087s.968 2.087 2.097 2.087zm-1.13-1.926a1.1 1.1 0 011.13-1.124h8.387a1.1 1.1 0 011.129 1.124 1.1 1.1 0 01-1.13 1.124h-8.386a1.1 1.1 0 01-1.13-1.124z" fill="#fff"/></svg>