<svg width="81" height="92" fill="none" xmlns="http://www.w3.org/2000/svg"><path fill-rule="evenodd" clip-rule="evenodd" d="M40.7 92L.7 69V23l40-23 40 23v46l-40 23zM2.634 68.035l38.064 21.874 38.065-21.874v-43.91L40.699 2.253 2.635 24.126v43.909zm32.42-34.098l-5.16-2.895.322-2.252 4.355.965.968-.804-.645-.965-4.355-.483.484-2.09 5.806-1.127 3.27 4.038 12.9.247a7.16 7.16 0 01.118-.102c1.129-.965 2.58-1.287 4.032-1.126 1.452.16 2.742.965 3.71 2.09.967 1.127 1.29 2.574 1.129 4.022-.152 1.358-.872 2.576-1.893 3.518L57.139 51.85c.216.7.313 1.437.293 2.187 2.485-2.096 4.074-4.498 4.074-4.498.323-.483.968-.644 1.452-.322.483.322.645.965.322 1.447 0 .256-3.351 5.474-8.443 7.618l-.104.103c-.08 0-.15.01-.212.025-1.237.482-2.572.779-3.983.779-4.354 0-8.387-2.895-11.935-8.525-3.226-5.307-6.774-8.041-10.484-8.041h-.161c-4.83 0-8.596 4.59-9.685 5.917-.184.224-.292.355-.315.355-.323.483-.968.644-1.452.322s-.645-.965-.323-1.448c.162-.321 5-7.398 11.936-7.237 4.355 0 8.548 3.056 12.258 9.007 1.197 1.948 2.444 3.528 3.73 4.73a6.49 6.49 0 01.142-1.835c.301-1.649 1.302-3.018 2.612-3.978l5.556-11.913a5.484 5.484 0 01-.935-1.433l-12.88-3.425.023-.12-3.57 2.372zm4.792-3.186l11.225 3.014a5.796 5.796 0 01-.051-1.597c.107-.957.495-1.843 1.072-2.613l-11.991-.282-.207 1.447-.048.031zm-8.823-.192l4.032 2.252 3.71-2.252.16-1.287-2.741-3.377-4.516.804v.322l3.71.321 1.451 2.252-2.097 1.608-3.548-.804-.161.161zm25.48 7.72h-.644a5.38 5.38 0 01-2.725-1.075l-4.807 10.432c1.187-.472 2.506-.588 3.825-.349 1.774.322 3.226 1.448 4.193 2.895l.022.032 2.447-12.474c-.747.33-1.564.54-2.31.54zm0-8.845c-.806 0-1.45.321-2.096.643-.645.483-1.129 1.287-1.29 2.252-.162 1.769 1.129 3.538 2.903 3.7.968.16 1.774-.162 2.42-.644.645-.483 1.128-1.287 1.29-2.252.16-.965-.162-1.77-.645-2.413-.484-.643-1.29-1.125-2.259-1.286h-.322zm-6.127 27.664c1.977 0 3.837-.787 5.45-1.853.12-.167.197-.308.197-.398.322-1.448 0-2.895-.807-4.182-.806-1.287-2.096-2.091-3.548-2.413-1.452-.322-2.903 0-4.194.804-1.29.805-2.096 2.091-2.419 3.539-.216.86-.143 1.72.121 2.58 1.68 1.275 3.42 1.923 5.2 1.923zm-11.774 5.63c3.548 5.629 7.58 8.524 11.935 8.524 7.42 0 12.742-8.203 12.742-8.524.323-.483.161-1.126-.322-1.448-.484-.322-1.13-.16-1.452.322 0 0-5 7.56-11.129 7.56-3.548 0-6.936-2.574-10-7.56-3.71-5.951-7.903-9.007-12.258-9.007h-.161c-6.774 0-11.613 6.916-11.775 7.237-.322.483-.16 1.126.323 1.448.484.322 1.13.16 1.452-.322.023 0 .13-.13.315-.355 1.089-1.328 4.856-5.917 9.685-5.917h.161c3.71 0 7.258 2.734 10.484 8.041z" fill="#fff"/></svg>