<svg width="81" height="92" fill="none" xmlns="http://www.w3.org/2000/svg"><path fill-rule="evenodd" clip-rule="evenodd" d="M.2 69l40 23 40-23V23l-40-23-40 23v46zm40 20.91L2.134 68.034v-43.91L40.199 2.253l38.065 21.874v43.909L40.199 89.909zm9.84-51.792a9.479 9.479 0 01-.65 3.474 10.415 10.415 0 011.295 5.051v.59c2.65-2.669 4.03-6.249 4.03-10.08 0-8.041-6.451-14.475-14.516-14.475-8.064 0-14.516 6.434-14.516 14.476 0 3.757 1.449 7.274 4.034 10.029v-.54c0-1.835.47-3.557 1.297-5.053a9.478 9.478 0 01-.65-3.472c0-5.468 4.354-9.81 9.838-9.81 5.323 0 9.839 4.342 9.839 9.81zm5.965-.964c0 4.52-1.969 8.89-5.32 11.79v3.147c4.91-3.344 7.74-8.895 7.74-14.937 0-9.972-8.226-18.175-18.226-18.175-10 0-18.225 8.203-18.225 18.175 0 6.024 2.936 11.437 7.743 14.86v-3.05c-3.409-3.027-5.324-7.198-5.324-11.81 0-8.686 7.096-15.763 15.806-15.763 8.71 0 15.806 7.077 15.806 15.763zm3.388 0c0 6.549-3.301 12.57-8.708 16.04v11.624c0 5.79-4.678 10.455-10.484 10.455-5.807 0-10.484-4.664-10.484-10.455V53.16c-5.41-3.564-8.711-9.455-8.711-16.005 0-10.615 8.548-19.14 19.193-19.14 10.646 0 19.194 8.525 19.194 19.14zM48.425 53.4c.109-.053.217-.107.324-.161v-3.69c-.687 1.157-1.293 2.885-1.293 4.977 0 2.278.506 4.052 1.293 5.098v-5.686l-.324-.538zm.324 8.32c-1.573-1.15-2.583-3.903-2.583-7.033 0-3.13 1.01-5.884 2.583-7.034v-1.009c0-4.664-3.87-8.524-8.548-8.524s-8.549 3.86-8.549 8.524v.578c1.664 1.076 2.743 3.908 2.743 7.143s-1.079 6.066-2.743 7.143v3.311c0 4.665 3.871 8.525 8.549 8.525 4.677 0 8.548-3.86 8.548-8.525V61.72zm-17.097-7.786v5.726c.686-1.157 1.291-2.884 1.291-4.974 0-2.418-.505-4.207-1.29-5.256v3.797c.106.059.213.116.32.173l-.32.534zm.002-15.815c0 .709.097 1.417.266 2.1a10.479 10.479 0 012.994-2.613c.561-2.632 2.93-4.468 5.608-4.311 2.404.141 4.188 1.765 4.809 4.222a10.48 10.48 0 013.152 2.704 8.73 8.73 0 00.267-2.102c0-4.664-3.87-8.524-8.548-8.524-4.677 0-8.548 3.86-8.548 8.524zm5.969-1.613c-.366.091-.723.202-1.072.33.73-1.386 2.3-2.383 3.971-2.254 1.717.107 2.792 1.068 3.366 2.268-.188-.07-.378-.134-.57-.194-.572-.857-1.568-1.432-2.795-1.432-1.232-.136-2.232.422-2.9 1.282zm-2 29.92c.541.923 1.261 1.722 2.16 2.198.06 1.242 1.163 2.306 2.418 2.306 1.254 0 2.204-.912 2.404-2.293a4.57 4.57 0 002.14-2.21c1.279-.013 2.393-.974 2.393-2.412 0-1.287-1.13-2.413-2.42-2.413h-.052a4.565 4.565 0 00-2.052-2.043 3.49 3.49 0 00.006-.047c0-1.287-1.13-2.413-2.42-2.413s-2.419 1.126-2.419 2.413v.05a4.564 4.564 0 00-2.048 2.04h-.05c-1.29 0-2.42 1.126-2.42 2.413 0 1.266 1.095 2.377 2.36 2.412zm6.676-2.411c0 .868.513 1.662 1.244 2.088-.28.527-.709.98-1.218 1.296-.419-.757-1.233-1.294-2.124-1.294-.871 0-1.669.513-2.095 1.243a3.43 3.43 0 01-1.285-1.191c.75-.384 1.281-1.15 1.281-2.142 0-.826-.464-1.585-1.139-2.024a4.6 4.6 0 011.22-1.185c.442.663 1.197 1.118 2.018 1.118.858 0 1.574-.427 2.005-1.14.517.32.959.706 1.261 1.189-.69.435-1.168 1.204-1.168 2.042zm-3.227-4.343a1.1 1.1 0 011.129-1.126c.483 0 .967.483 1.129 1.126a1.1 1.1 0 01-1.13 1.126 1.1 1.1 0 01-1.128-1.126zm1.129 7.88a1.1 1.1 0 00-1.13 1.127 1.1 1.1 0 001.13 1.126 1.1 1.1 0 001.129-1.126c-.162-.644-.645-1.126-1.13-1.126zm-5.647-3.376a1.1 1.1 0 011.129-1.126c.645 0 1.13.482 1.13 1.126a1.1 1.1 0 01-1.13 1.125 1.1 1.1 0 01-1.129-1.125zm10.164-1.126a1.1 1.1 0 00-1.129 1.126 1.1 1.1 0 001.13 1.125 1.1 1.1 0 001.128-1.125 1.1 1.1 0 00-1.129-1.126zM34.717 46.16c0 2.896 2.42 5.308 5.322 5.308 2.904 0 5.323-2.412 5.323-5.308 0-2.895-2.42-5.307-5.323-5.307-2.903 0-5.322 2.412-5.322 5.307zm1.29 0c0-2.251 1.774-4.02 4.032-4.02s4.033 1.93 4.033 4.02c0 2.252-1.775 4.021-4.033 4.021-2.258 0-4.032-1.769-4.032-4.02z" fill="#0A202C"/></svg>