<svg width="80" height="93" fill="none" xmlns="http://www.w3.org/2000/svg"><path fill-rule="evenodd" clip-rule="evenodd" d="M0 69.14L40 92.1l40-23.12V23.06L40 .1 0 23.06v46.08zm40 20.712L1.935 68.016V24.183L40 2.347l38.064 21.836v43.833L40 89.852zm8.075-39.2a2.784 2.784 0 001.602.506c1.452 0 2.581-1.285 2.742-2.73 0-1.605-1.129-2.73-2.741-2.73-1.613 0-2.742 1.285-2.742 2.73 0 .564.159 1.069.428 1.486l-4.14 3.974c-.161 0-.161.16-.161.321v16.215h-2.418V39.228c1.242-.245 2.257-1.4 2.257-2.682 0-1.605-1.29-2.73-2.742-2.73-1.613 0-2.742 1.285-2.742 2.73 0 1.425 1.016 2.47 2.26 2.688v31.19h-2.419v-20.39c0-.08-.04-.12-.08-.16-.04-.04-.081-.081-.081-.161l-3.046-4.331c.691-.476 1.11-1.275 1.11-2.252 0-1.605-1.29-2.73-2.742-2.73-1.613 0-2.742 1.125-2.742 2.73 0 1.606 1.29 2.73 2.742 2.73.233 0 .457-.024.668-.07l3.203 4.404v20.23H24.518V42.648c0-.482-.484-.964-.968-.964h-7.258l24.355-21.193 10.484 9.312c.323.321.807.321 1.13.16.483-.16.644-.642.644-.963v-5.298h3.71v10.596c0 .322.161.643.323.803l7.258 6.583h-6.452c-.484 0-.968.482-.968.964v27.776H44.03V54.53l4.045-3.877zm-.01-2.384c0-.803.645-1.606 1.613-1.606.806 0 1.612.803 1.612 1.606s-.806 1.605-1.612 1.605c-.807 0-1.613-.642-1.613-1.605zM40.16 34.94c-.968 0-1.613.803-1.613 1.605 0 .964.806 1.606 1.613 1.606.968 0 1.613-.803 1.613-1.606.161-.963-.645-1.605-1.613-1.605zm-9.353 8.19c0-.804.645-1.606 1.613-1.606.967 0 1.613.802 1.613 1.605 0 .803-.646 1.606-1.613 1.606-.807 0-1.613-.803-1.613-1.606zM23.55 72.35h34.354c.484 0 .968-.321.645-.803V43.772h8.065c.484 0 .806-.322.968-.643.161-.481 0-.803-.323-1.124l-8.87-8.028V22.9c0-.482-.485-.963-.968-.963h-5.807c-.484 0-.968.481-.968.963v4.014l-9.355-8.51c-.322-.32-.967-.32-1.29 0L12.905 41.845c-.322.32-.483.803-.322 1.124.161.32.484.642.967.642h9.033v27.777c0 .481.484.963.968.963z" fill="#fff"/></svg>