<svg width="113" height="200" fill="none" xmlns="http://www.w3.org/2000/svg"><path d="M107.854 79.542l-24.589 82.976v-52.933l24.589-30.043zm-24.589 28.326v-30.9l25.732-.86v.287l-25.732 31.473zm-48.318 54.936l10.864-7.725 26.876 15.164 1.715.859-39.455-8.298zm-3.717 2.861l42.6 9.156-86.344 21.173 43.744-30.329zm-90.348-27.754l34.024 51.789-62.043-62.375 28.02 10.586zm-9.72-15.164l6.861 10.3-26.018-9.442 19.156-.858zm.857-30.615l-1.144 29.47-21.729.859h-.285l23.158-30.33zm.286-6.295l-22.015 28.326 24.302-78.398-2.287 50.072zm45.746-49.5l-11.723 6.868-24.016-14.593 35.739 7.726zm1.43-.858l-38.599-8.297L29.514 6.009l-50.034 29.47zm55.466-24.892L17.22 43.49l-32.88-7.153L37.807 4.864l-2.86 5.723zm36.596 50.357L18.65 43.777 39.807 4.006l31.736 56.938zm4.86 1.43L48.67 12.305l58.326 60.085-30.592-10.014zm6.005 11.16l-5.147-9.442 27.448 8.87-22.301.572zm-36.31 79.828l-8.578-33.763 42.029-40.057v32.618l-33.452 41.202zm-52.036 4.006l-12.866 38.34-2.002-2.003-36.31-55.221 51.178 18.884zm-61.185-34.335l56.896 16.309 3.717 14.306-53.751-19.742-6.862-10.873zm41.743-40.63l-42.6 38.341 1.429-30.33 32.308-41.487 8.863 33.476zM6.07 53.791l-35.167-9.156 12.294-7.153 33.451 7.153L6.07 53.791zm15.725 4.006L18.364 44.92l53.75 17.454 5.72 10.014-56.04-14.592zm.857 4.006l55.181 14.592-41.17 39.199-14.01-53.791zM7.5 54.077l9.721-8.87 3.145 12.304L7.5 54.077zm-30.02 25.465l-8.58-32.046 34.024 8.87-25.446 23.176zm30.02 63.52l-14.295-4.006-15.725-58.083L4.07 56.938l16.868 4.578 14.296 55.222L7.5 143.062zm4.003 1.144l24.874-23.748 8.578 33.19-33.452-9.442zm-.858.858l34.024 9.729-11.15 7.725-33.452-7.153 10.578-10.301zm-4.002-1.144l-9.435 8.87-3.431-12.59 12.866 3.72zm-74.051-22.318l42.315-38.054 14.581 54.363-56.896-16.309zm56.324 61.803l8.292-25.179 32.021 6.867-44.602 31.474 4.29-13.162zM-57.688 32.618l21.443 12.876-30.02 38.626 2.287-52.933.572-2.003 5.718 3.434zM78.405 172.246l-31.45-17.74 32.88-40.343v58.655l-1.43-.572zM113 74.392v-.572s0-.286-.286-.286L41.809.286 41.523 0h-1.716L-64.836 24.893h-.286s-.286 0-.286.286c0 0-.286 0-.286.286l-.285.286v.286L-96 122.461v1.43L-19.948 200h1.429l99.783-24.32h.286l29.735-100.43c1.715-.572 1.715-.572 1.715-.858z" fill="#2F586F"/></svg>