<svg width="88" height="124" fill="none" xmlns="http://www.w3.org/2000/svg"><path d="M-8.39 83.337L8.9 68.744l16.22 11.004 19.474 37.639-5.948-3.723L-8.39 83.337zm36.753-5.424c-.18-.178-.18-.178 0 0l26.474-34.689L82.21 7.265 48.558 117.706 28.363 77.913zM6.198 66.79l-16.572 13.864-5.05-16.164-4.871-15.626L6.197 66.79zm2.701-2.37l-28.655-19.346 96.2-37.75L8.9 64.42zm18.383 12.423l-15.5-10.652L78.609 9.825 68.523 22.903l-41.241 53.94zm22.539 46.796s.18-.182 0 0l.18-.182.18-.182.18-.182L87.254 2.529v-.721s-.181-.178 0-.36l-.181-.179-.18-.178-.18-.178-.18-.179-.181-.178-.18-.178-.18-.179-.18-.178s-.18.182-.361.004l-109.352 43.11-.18.182-.18.182-.18.182-.18.182-.18.182v.36s.18.179 0 .36l12.266 38.795.18.178.18.178.181.179 60.193 38.66.18.178s.18.179.36-.003l.361-.004s.18-.182.36-.004c.18.899.18.899.361.717z" fill="#2F586F"/></svg>