<svg width="56" height="109" fill="none" xmlns="http://www.w3.org/2000/svg"><path d="M5.4 53.265l20.786-8.937 12.321 15.244 7.692 41.673-4.608-5.29L5.4 53.265zm36.743 5.493c-.12-.223-.12-.223 0 0l35.413-25.495L114.2 6.813l-64.301 95.89-7.756-43.945zM24.168 41.672l-19.886 8.45-.134-16.935L4.03 16.82l20.138 24.852zm3.274-1.482L5.647 13.35l103.02-8.156L27.442 40.19zM41.42 57.42L29.686 42.723l80.323-34.508-13.45 9.581-55.14 39.624zm7.963 51.327s.226-.121 0 0l.226-.121.225-.122.225-.122L120.403 3.746l.104-.344.105-.345s-.121-.223.105-.345l-.121-.223-.121-.223-.12-.223-.121-.223-.12-.223-.121-.223-.121-.223-.12-.223s-.226.122-.346-.101L2.245 10.29l-.225.122-.226.122-.225.122-.225.122-.225.121-.105.345s.12.223-.105.345l.46 40.684.121.223.121.223.12.224 46.357 54.487.121.223s.12.223.346.101l.346.101s.225-.122.346.101c-.089.913-.089.913.136.791z" fill="#2F586F"/></svg>