<svg width="61" height="67" fill="none" xmlns="http://www.w3.org/2000/svg"><path fill-rule="evenodd" clip-rule="evenodd" d="M20.051 66.649a.775.775 0 01-.423.243 1.254 1.254 0 01-.667-.016 1.087 1.087 0 01-.244-.099l-.156-.085L.827 46.104a1.362 1.362 0 01-.204-.349 2.206 2.206 0 01-.09-.316l2.35-34.306-.074-.104a1.246 1.246 0 01-.144-.87.722.722 0 01.145-.29c.125-.153.324-.255.595-.316l38.002-8.532c.279-.062.724-.02.958.368L60.1 21.977c.2.246.232.387.263.523.008.038.014.077.023.115l.036.163-2.287 34.59a1.22 1.22 0 01-.127.45.784.784 0 01-.549.432l-37.408 8.4zM4.67 13.119l15.916 18.46.032.142-.614 9.055-17.372 3.9L4.67 13.12zm15.287 28.398L2.933 45.34l15.566 18.053 1.46-21.876zm37.69-19.43L42.041 4.068l-1.451 21.85 17.055-3.83zm-17.771 3.99l1.447-22.843-35.786 8.034 16.327 18.853 18.012-4.044zM21.97 40.334l.551-8.458 17.237-3.87-.51 8.449-17.278 3.88zm18.493-12.486l-.572 8.605.031.142L56.38 55.602l1.948-31.765-17.865 4.01zm15.629 28.664L39.324 37.169l-17.4 3.907-1.524 23.45 35.693-8.014z" fill="#2F586F"/></svg>