<svg width="57" height="126" fill="none" xmlns="http://www.w3.org/2000/svg"><path d="M6.45 77.006c4.095-11.262 11.668-24.53 21.476-37.105C49.399 12.038 71.294-.701 78.617 4.646l3.648 6.674c.202 3.965-.806 9.199-3.092 15.27-4.154 11.449-11.727 24.716-21.778 37.422-9.866 12.763-20.885 23.32-30.686 29.942-5.418 3.664-10.128 5.699-13.816 6.407l-7.075-2.19c-3.33-3.084-3.233-10.653.631-21.165zm112.327-.371c1.444 1.268 1.633 4.613.241 9.112l-.29.937c-1.925 5.566-5.561 12.04-10.558 18.3-10.47 13.398-21.388 19.674-24.648 17.022-3.26-2.652.137-14.952 10.607-28.35 10.469-13.398 21.388-19.673 24.648-17.022zM14.755 100.936c3.56-.953 7.897-3.103 12.71-6.132 10.046-6.752 20.88-17.367 30.989-30.26 9.865-12.764 17.682-26.16 21.836-37.61 1.868-5.378 2.946-10.18 3.117-14.03l33.517 60.486c-6.666-.214-16.919 8.527-24.74 18.637-5.055 6.446-9.41 13.931-11.382 20.304-1.044 3.374-1.355 6.359-.818 8.579l-65.229-19.974zm67.583 23.578c6.123 3.948 18.76-5.904 27.905-17.658 4.927-6.691 8.806-13.296 10.848-19.237 2.042-5.94 2.015-10.468-.373-12.644L80.745 3.044c-.128-.245-.128-.245-.315-.302C75.855-.933 67.561.814 57.027 7.825c-10.045 6.751-21.123 17.497-31.232 30.39-10.11 12.893-17.74 26.348-21.953 37.984l-.928 3C-.333 89.696.186 97.25 4.447 100.623l.373.115 77.518 23.777z" fill="#2F586F"/></svg>