<svg width="47" height="47" fill="none" xmlns="http://www.w3.org/2000/svg"><path fill-rule="evenodd" clip-rule="evenodd" d="M1.097 27.137a.51.51 0 01-.269-.176.823.823 0 01-.203-.569l.004-.116L7.444 9.754a.896.896 0 01.144-.222c.06-.066.119-.115.159-.148L28.577.575l.038-.074a.82.82 0 01.468-.343.476.476 0 01.213 0c.127.027.246.113.362.254L45.951 20.18c.12.145.227.419.07.672l-6.815 16.521c-.085.19-.159.251-.23.31-.02.016-.04.03-.06.047l-.085.07-20.977 8.93a.803.803 0 01-.302.06.515.515 0 01-.417-.194L1.097 27.137zM27.94 2.214l-6.106 14.822-.073.06-5.496 2.33-7.448-9.036L27.94 2.214zM15.817 19.619l-7.3-8.856-5.97 14.496 13.27-5.64zm22.595 16.346l5.94-14.51-13.252 5.64 7.313 8.871zm-7.62-9.243l13.836-5.935L29.285 2.173l-6.215 15.18 7.723 9.369zM17.11 20.449l5.127-2.189 7.39 8.966-5.11 2.21-7.407-8.987zm12.82 7.143l-5.22 2.22-.074.061-6.266 15.303 19.22-8.29-7.66-9.294zM17.75 45.277l6.37-15.585-7.459-9.05-14.214 6.07L17.75 45.276z" fill="#2F586F"/></svg>