<svg width="36" height="72" fill="none" xmlns="http://www.w3.org/2000/svg"><path fill-rule="evenodd" clip-rule="evenodd" d="M1.27 41.863a.774.774 0 01-.409-.268 1.242 1.242 0 01-.286-.602 1.083 1.083 0 01-.022-.262l.006-.178 10.361-25.12c.06-.136.141-.25.22-.339.09-.1.18-.174.24-.224L43.051 1.477l.059-.113c.153-.245.444-.46.711-.522a.723.723 0 01.325-.001c.193.042.374.174.55.388L69.47 31.283c.182.22.344.637.105 1.021l-10.361 25.12c-.13.29-.242.383-.35.471l-.091.072-.13.107-31.894 13.578a1.22 1.22 0 01-.46.09.783.783 0 01-.633-.294L1.27 41.863zM42.085 3.968l-9.283 22.537-.112.092-8.356 3.541-11.325-13.74 29.076-12.43zM23.651 30.43L12.552 16.966 3.473 39.007l20.178-8.576zm34.355 24.854l9.033-22.06-20.152 8.572 11.119 13.488zM46.42 41.231l21.036-9.024L44.129 3.906l-9.45 23.08 11.742 14.245zm-20.805-9.537l7.796-3.328 11.236 13.632-7.769 3.36-11.263-13.664zm19.491 10.861l-7.937 3.376-.111.092-9.527 23.267 29.222-12.606-11.647-14.129zM26.59 69.444l9.685-23.697-11.342-13.76-21.611 9.228L26.59 69.444z" fill="#2F586F"/></svg>