<svg width="25" height="24" fill="none" xmlns="http://www.w3.org/2000/svg"><path d="M18.871 21.431c-5.08 3.166-11.793 2.031-15.483-2.389.303.06.666.06 1.029.06.665 0 1.451-.12 2.298-.299 2.419-.537 5.261-1.792 7.983-3.524 2.722-1.732 5.08-3.704 6.592-5.615.847-1.075 1.33-2.031 1.573-2.867 2.721 5.137 1.088 11.469-3.992 14.634zM6.11 2.616C10.888-.37 17.057.405 20.867 4.168c-2.359-.477-6.713.896-11.189 3.704-4.475 2.807-7.5 6.033-8.043 8.363-1.996-4.899-.242-10.693 4.475-13.62zm14.515 6.63c-1.452 1.853-3.69 3.764-6.35 5.437C8.59 18.206 3.69 19.102 2.42 17.727a9.548 9.548 0 01-.605-1.075c.181-2.15 3.326-5.675 7.983-8.542s9.253-4.241 11.37-3.524c.303.298.545.597.787.955.423.777-.061 2.091-1.331 3.704zm2.359-3.762c-.06-.12-.182-.24-.303-.419 0-.06-.06-.119-.06-.119C18.75-.192 11.31-1.566 5.687 1.958.062 5.423-1.631 12.531 1.695 18.027c.06.06.06.12.121.12.06.119.181.238.242.358C4.478 22.029 8.468 24 12.58 24c2.359 0 4.718-.597 6.774-1.912 5.745-3.584 7.378-11.05 3.629-16.605z" fill="#2F586F"/></svg>