<svg width="80" height="136" fill="none" xmlns="http://www.w3.org/2000/svg"><path d="M84.56 33.515L62.363 6.703l63.419 44.98L84.56 33.515zm-1.41 50.449l49.327-25.578-51.088 73.557 1.761-47.98zM52.674 99.486L77.16 132.12 5.99 81.847l46.684 17.64zm3.17-95.958L54.26 49.214 4.404 76.379l51.44-72.851zm28.892 37.395l.176-4.939 48.446 21.168-50.208 25.93 1.586-42.158zM2.995 79.553l51.264-27.87-1.585 46.921L3.699 80.26l-.704-.705zm51.969-30.692l1.585-45.686 25.72 30.87L54.964 48.86zM80.86 85.022l-1.762 48.508-.176-.176L53.378 99.31 80.86 85.022zM53.202 98.604l1.586-47.273 27.834-15.17-1.41 39.865-.352 8.29-27.658 14.288zM136 57.152v-.882l-.176-.177L56.902.176s-.177 0-.177-.176h-.704s-.176 0-.176.176v.177L0 78.848v.706s0 .176.176.176c0 0 .176 0 .176.177L79.451 136h1.057s.176 0 .176-.176l.176-.177L136 57.152c-.176.176-.176.176 0 0-.176.176-.176 0 0 0-.176 0-.176 0 0 0z" fill="#2F586F"/></svg>