<svg width="85" height="197" fill="none" xmlns="http://www.w3.org/2000/svg"><path d="M10.487 48.547L-21.666 9.71 70.2 74.865 10.487 48.547zm-2.041 73.077l71.45-37.05-74.002 106.55 2.552-69.499zm-44.147 22.485l35.47 47.27-103.093-72.821 67.623 25.551zM-31.108 5.11l-2.296 66.178-72.216 39.349L-31.107 5.11zm41.85 54.169l.255-7.155 70.175 30.662-72.726 37.56 2.296-61.067zm-118.404 55.957l74.258-40.37-2.297 67.965-70.94-26.573-1.021-1.022zm75.279-44.46L-30.087 4.6 7.17 49.314l-39.553 21.463zm37.511 52.381l-2.552 70.266-.255-.256-37.001-49.314 39.808-20.696zm-40.063 19.674l2.296-68.477L7.681 52.38l-2.042 57.746-.51 12.009-40.064 20.696zM85 82.786v-1.278l-.255-.255L-29.576.256s-.256 0-.256-.256h-1.02s-.256 0-.256.256V.51L-112 114.214v1.022s0 .256.255.256c0 0 .255 0 .255.255L3.087 197h1.531s.255 0 .255-.256l.255-.255L85 82.786c-.255.255-.255.255 0 0-.255.255-.255 0 0 0-.255 0-.255 0 0 0z" fill="#2F586F"/></svg>