<svg width="72" height="168" fill="none" xmlns="http://www.w3.org/2000/svg"><path d="M25.099 14.66l.86 2.936 9.216 33.65-1.014 3.24L5.07 150.054 25.099 14.659zm12.187 34.668L26.21 9.404l25.382-6.378-14.305 46.302zm-.061 3.894l32.267 17.384-64.749 90.727-.658.683 6.577-21.597 26.563-87.197zM85.336 78.23l35.075-12.06-104.68 87.04 69.606-74.98zm-15.034-7.37l12.336 6.615-73.423 78.943L70.302 70.86zm28.722.002l-14.27 4.963L71.74 68.82l28.515-39.99 24.238 33.103-25.47 8.93zM52.528 2.875L99.57 28.17 70.925 68.298 37.71 50.528 52.528 2.876zM.154 167.19c.137.131.005.268.005.268l.137.132.137.131.131-.136.132-.137.132-.137L127.474 63.488l.132-.137.132-.136s.131-.137-.005-.269l-.005-.268s-.137-.132-.005-.269l-.137-.131-25.761-35.625-.41-.395L53.151.313C52.878.05 52.61.055 52.21.196L24.29 7.292l-.131.137-.132.137-.131.136-.132.137-.132.137s-.131.136.005.268L.413 166.648c-.4.142-.264.273-.259.542-.005-.269-.005-.269 0 0-.005-.269-.005-.269 0 0-.005-.269-.005-.269 0 0-.005-.269-.136-.132 0 0z" fill="#2F586F"/></svg>