<svg width="88" height="200" fill="none" xmlns="http://www.w3.org/2000/svg"><path d="M82.854 79.542l-24.589 82.976v-52.933l24.589-30.043zm-24.589 28.326v-30.9l25.732-.86v.287l-25.732 31.473zM9.947 162.804l10.864-7.725 26.876 15.164 1.715.859-39.455-8.298zm-3.717 2.861l42.6 9.156-86.344 21.173L6.23 165.665zm-90.348-27.754l34.024 51.789-62.043-62.375 28.02 10.586zm-9.72-15.164l6.861 10.3-26.018-9.442 19.156-.858zm.857-30.615l-1.144 29.47-21.729.859h-.286l23.16-30.33zm.286-6.295l-22.015 28.326 24.302-78.398-2.287 50.072zm45.746-49.5l-11.723 6.868-24.016-14.593 35.739 7.726zm1.43-.858l-38.599-8.297L4.514 6.009l-50.034 29.47zM9.946 10.587L-7.78 43.49l-32.88-7.153L12.807 4.864l-2.86 5.723zm36.596 50.357L-6.35 43.777 14.807 4.006l31.736 56.938zm4.86 1.43L23.67 12.305 81.996 72.39 51.404 62.376zm6.005 11.16l-5.147-9.442 27.448 8.87-22.301.572zm-36.31 79.828l-8.578-33.763 42.029-40.057v32.618l-33.452 41.202zm-52.036 4.006l-12.866 38.34-2.002-2.003-36.31-55.221 51.178 18.884zm-61.185-34.335l56.896 16.309 3.717 14.306-53.751-19.742-6.862-10.873zm41.743-40.63l-42.6 38.341 1.429-30.33 32.308-41.487 8.863 33.476zm31.45-28.612l-35.167-9.156 12.294-7.153 33.451 7.153-10.578 9.156zm15.725 4.006l-3.43-12.877 53.75 17.454 5.72 10.014-56.04-14.592zm.858 4.006l55.18 14.592-41.17 39.199-14.01-53.791zm-15.154-7.726l9.721-8.87 3.145 12.304-12.866-3.434zm-30.02 25.465L-56.1 47.496l34.024 8.87-25.446 23.176zm30.02 63.52l-14.295-4.006-15.725-58.083 26.59-24.035 16.868 4.578 14.296 55.222-27.734 26.324zm4.003 1.144l24.874-23.748 8.577 33.19-33.45-9.442zm-.858.858l34.024 9.729-11.15 7.725-33.452-7.153 10.578-10.301zm-4.002-1.144l-9.435 8.87-3.431-12.59 12.866 3.72zm-74.051-22.318l42.315-38.054 14.581 54.363-56.896-16.309zm56.324 61.803l8.292-25.179 32.021 6.867-44.602 31.474 4.29-13.162zM-82.688 32.618l21.443 12.876-30.02 38.626 2.287-52.933.572-2.003 5.718 3.434zM53.405 172.246l-31.45-17.74 32.88-40.343v58.655l-1.43-.572zM88 74.392v-.572s0-.286-.286-.286L16.808.286 16.523 0h-1.716L-89.836 24.893h-.286s-.286 0-.286.286c0 0-.286 0-.286.286l-.285.286v.286L-121 122.461v1.43L-44.948 200h1.429l99.783-24.32h.286L86.284 75.25C88 74.678 88 74.678 88 74.392z" fill="#2F586F"/></svg>