<svg width="87" height="113" fill="none" xmlns="http://www.w3.org/2000/svg"><path d="M-32.744 54.903l21.569-9.274L1.609 61.447l7.981 43.241-4.782-5.49-37.552-44.295zm38.126 5.7c-.125-.232-.125-.232 0 0l36.745-26.455L80.149 6.703l-66.72 99.498-8.047-45.598zm-18.652-17.73l-20.634 8.768-.14-17.572-.122-16.982 20.896 25.787zm3.397-1.537l-22.615-27.849L74.407 5.023l-84.28 36.313zM4.631 59.214l-12.176-15.25L75.801 8.159 61.844 18.1 4.63 59.214zm8.263 53.258s.234-.126 0 0l.234-.126.233-.127.234-.126L86.585 3.521l.109-.357.108-.358s-.125-.232.109-.358l-.125-.231-.126-.232-.125-.231-.125-.232-.125-.231-.125-.231-.125-.232-.126-.231s-.233.126-.359-.105l-121.568 9.82-.233.126-.234.126-.234.127-.234.126-.233.127-.109.357s.125.232-.108.358l.477 42.215.126.231.125.232.125.231 48.1 56.537.126.232s.125.231.358.105l.36.105s.233-.127.358.105c-.092.947-.092.947.142.82z" fill="#2F586F"/></svg>