<svg width="56" height="56" fill="none" xmlns="http://www.w3.org/2000/svg"><circle cx="28" cy="28" r="28" fill="#5181B8"/><path d="M41.636 35.937l-4.006.048s-.856.16-2.003-.576c-1.507-.96-2.91-3.455-4.023-3.135-1.113.336-1.079 2.575-1.079 2.575s0 .48-.24.736c-.274.288-.821.352-.821.352h-1.781s-3.955.224-7.448-3.167c-3.8-3.696-7.156-11.039-7.156-11.039s-.189-.48.017-.72c.24-.256.873-.272.873-.272l4.28-.032s.411.064.685.256c.257.176.394.48.394.48s.685 1.632 1.61 3.12c1.797 2.895 2.619 3.52 3.235 3.215.89-.448.617-4.095.617-4.095s.017-1.312-.446-1.904c-.36-.464-1.027-.592-1.335-.624-.24-.032.154-.56.668-.784.77-.352 2.14-.384 3.75-.368 1.249.016 1.608.08 2.105.192 1.472.336.976 1.616.976 4.704 0 .991-.188 2.383.582 2.847.325.192 1.13.032 3.133-3.151.959-1.504 1.66-3.296 1.66-3.296s.155-.32.395-.448c.24-.144.582-.096.582-.096l4.52-.032s1.352-.16 1.575.416c.222.608-.514 2-2.346 4.304-3.03 3.775-3.355 3.423-.856 5.599 2.397 2.08 2.894 3.103 2.98 3.215.992 1.552-1.096 1.68-1.096 1.68z" fill="#fff"/></svg>