<svg width="22" height="21" fill="none" xmlns="http://www.w3.org/2000/svg"><path fill-rule="evenodd" clip-rule="evenodd" d="M13.356 8.137l-.475-.945-1.88-3.74-1.882 3.74-.475.945-1.048.14-4.118.548 2.945 2.728.809.749-.201 1.083-.737 3.967 3.79-1.953.916-.473.917.473 3.788 1.953-.735-3.967-.201-1.083.808-.749 2.945-2.728-4.118-.549-1.048-.14zM7.332 6.294l-6.225.829a1 1 0 00-.548 1.725l4.505 4.172-1.109 5.973a1 1 0 001.442 1.072L11 17.176l5.602 2.889a1 1 0 001.442-1.072l-1.108-5.973 4.505-4.172a1 1 0 00-.548-1.725l-6.225-.83L11.894.777a1 1 0 00-1.787 0L7.332 6.294z" fill="#fff"/></svg>