<svg width="145" height="139" fill="none" xmlns="http://www.w3.org/2000/svg"><path d="M141.43 55.282l-17.059 57.668V76.162l17.059-20.88zm-17.059 19.687V53.492l17.852-.596v.198L124.371 74.97zm-33.523 38.18l7.538-5.369 18.645 10.539 1.191.597-27.374-5.767zm-2.579 1.988l29.556 6.364-59.904 14.715 30.348-21.079zM25.59 95.848l23.604 35.993L6.15 88.491l19.44 7.357zM18.843 85.31l4.76 7.159-18.05-6.562 13.29-.597zm.595-21.278l-.793 20.483-15.076.596h-.198l16.069-21.08zm.198-4.374L4.364 79.343l16.86-54.486-1.587 34.8zm31.738-34.402l-8.133 4.772L26.58 19.886l24.795 5.369zm.992-.597l-26.779-5.767L87.08 4.176 52.367 24.658zm38.481-17.3L78.55 30.226l-22.811-4.971L92.832 3.38l-1.984 3.977zm25.39 34.998L79.542 30.425 94.22 2.784l22.018 39.572zm3.372.994l-19.241-34.8 40.465 41.76-21.224-6.96zm4.166 7.756l-3.571-6.562 19.043 6.164-15.472.398zm-25.192 55.481l-5.95-23.465 29.158-27.84v22.67l-23.208 28.635zm-36.101 2.784l-8.926 26.646-1.389-1.392-25.191-38.379 35.506 13.125zM20.034 85.508l39.474 11.335 2.578 9.942-37.291-13.72-4.76-7.557zm28.96-28.238L19.44 83.917l.992-21.079 22.414-28.834 6.15 23.266zm21.82-19.885l-24.398-6.363 8.53-4.972 23.207 4.971-7.339 6.364zm10.91 2.784l-2.38-8.949 37.291 12.13 3.967 6.96-38.878-10.14zm.595 2.784l38.283 10.141-28.564 27.244-9.72-37.385zm-10.513-5.37l6.744-6.164 2.182 8.551-8.926-2.386zm-20.828 17.7l-5.95-22.272 23.604 6.165-17.654 16.107zm20.828 44.146l-9.918-2.784-10.91-40.368 18.447-16.704 11.704 3.182 9.917 38.38-19.24 18.294zm2.777.795L91.84 83.718l5.95 23.067-23.207-6.562zm-.595.597l23.604 6.761-7.736 5.369-23.208-4.971 7.34-7.159zm-2.777-.796l-6.546 6.165-2.38-8.75 8.926 2.585zm-51.375-15.51l29.357-26.448 10.116 37.782-39.473-11.334zm39.077 42.952l5.752-17.499 22.216 4.773-30.944 21.874 2.976-9.148zM26.58 22.67l14.877 8.948-20.828 26.846 1.587-36.789.397-1.392 3.967 2.386zm94.419 97.041l-21.82-12.329 22.811-28.039v40.766l-.991-.398zM145 51.702v-.398s0-.198-.198-.198L95.609.199 95.41 0h-1.19L21.621 17.3h-.198s-.199 0-.199.2c0 0-.198 0-.198.198l-.198.199v.199L0 85.11v.994L52.763 139h.992l69.227-16.903h.199l20.629-69.798c1.19-.398 1.19-.398 1.19-.597z" fill="#2F586F"/></svg>