<svg width="80" height="92" viewBox="0 0 80 92" fill="none" xmlns="http://www.w3.org/2000/svg">
<path fill-rule="evenodd" clip-rule="evenodd" d="M40 92L0 69V23L40 0L80 23V69L40 92ZM1.93548 68.035L40 89.9091L78.0645 68.035V24.1259L40 2.25175L1.93548 24.1259V68.035ZM40.3238 67.3916C42.2593 69.1608 44.8399 70.2867 47.5818 70.2867C52.5818 70.2867 56.9367 66.5874 57.7431 61.6014C61.4528 60.7972 64.0334 57.5804 64.0334 53.7203C64.0334 51.3077 62.9044 49.0559 61.1302 47.6084C62.9044 46.1608 64.0334 43.9091 64.0334 41.4965C64.0334 37.6364 61.4528 34.4196 57.7431 33.6154C56.9367 28.6294 52.5818 24.9301 47.5818 24.9301C44.8399 24.9301 42.2593 25.8951 40.3238 27.8252C38.5496 26.0559 35.9689 24.9301 33.227 24.9301C28.227 24.9301 23.8722 28.6294 23.0657 33.6154C19.356 34.4196 16.7754 37.6364 16.7754 41.4965C16.7754 43.9091 17.9044 46.1608 19.6786 47.6084C17.9044 49.0559 16.7754 51.3077 16.7754 53.7203C16.7754 57.5804 19.356 60.7972 23.0657 61.6014C23.8722 66.5874 28.227 70.2867 33.227 70.2867C35.8076 70.2867 38.3883 69.3217 40.3238 67.3916ZM41.1302 65.3007L40.3238 64.3357L39.5173 64.979C37.9044 66.9091 35.4851 68.035 33.0657 68.035C28.8722 68.035 25.1625 64.8182 24.8399 60.4755V59.6713L24.0335 59.5105C20.9689 59.1888 18.7109 56.6154 18.7109 53.5594C18.7109 51.3077 20.0012 49.3776 21.9367 48.2517L23.5496 47.4476L21.9367 46.6434C20.0012 45.5175 18.7109 43.5874 18.7109 41.3357C18.7109 38.2797 20.9689 35.7063 24.0335 35.3846L24.8399 35.2238V34.4196C25.1625 30.2378 28.7109 26.8601 33.0657 26.8601C35.6464 26.8601 37.9044 27.986 39.5173 29.9161L40.3238 30.8811L41.1302 30.0769C42.7431 28.1469 45.1625 27.021 47.5818 27.021C51.9367 27.021 55.6464 30.2378 55.9689 34.5804V35.3846L56.7754 35.7063C59.8399 36.028 62.098 38.6014 62.098 41.6573C62.098 43.9091 60.8076 45.8392 58.8722 46.965L57.2593 47.7692L58.8722 48.5734C60.8076 49.6993 62.098 51.6294 62.098 53.8811C62.098 56.9371 59.8399 59.5105 56.7754 59.8322L55.9689 59.993V60.7972C55.4851 64.979 51.9367 68.3566 47.5818 68.3566C45.0012 68.3566 42.7431 67.2308 41.1302 65.3007ZM35.8083 50.6643L31.1309 63.8531L48.3889 47.9301L44.1954 46L49.8405 32.1678L31.1309 49.3776L35.8083 50.6643ZM38.3889 49.0559L35.1631 48.2517L44.518 39.7273L41.6147 46.965L44.8405 48.4126L35.8083 56.6154L38.3889 49.0559ZM39.1953 77.5238C39.1953 78.0064 39.6792 78.4889 40.1631 78.4889C40.6469 78.4889 41.1308 78.0064 41.1308 77.5238V72.6987C41.1308 72.2162 40.6469 71.7336 40.1631 71.7336C39.6792 71.7336 39.1953 72.2162 39.1953 72.6987V77.5238ZM39.1953 22.3563C39.1953 22.8388 39.6792 23.3214 40.1631 23.3214C40.6469 23.3214 41.1308 22.8388 41.1308 22.3563V17.5312C41.1308 17.0486 40.6469 16.5661 40.1631 16.5661C39.6792 16.5661 39.1953 17.0486 39.1953 17.5312V22.3563ZM65.3232 48.4132H70.1619C70.6458 48.4132 71.1297 48.0915 71.1297 47.4482C71.1297 46.9657 70.6458 46.4831 70.1619 46.4831H65.3232C64.8393 46.4831 64.3555 46.9657 64.3555 47.4482C64.3555 47.9307 64.8393 48.4132 65.3232 48.4132ZM9.99899 48.4132H14.8377C15.4829 48.4132 15.9667 48.0915 15.8054 47.4482C15.8054 46.9657 15.3216 46.4831 14.8377 46.4831H9.99899C9.51512 46.4831 9.03125 46.9657 9.03125 47.4482C9.03125 47.9307 9.51512 48.4132 9.99899 48.4132ZM59.5154 32.007C59.6767 32.1678 59.838 32.3287 60.1605 32.3287C60.4831 32.3287 60.6444 32.1678 60.8057 32.007L64.1928 28.6294C64.3541 28.4685 64.5154 28.3077 64.5154 27.986C64.5154 27.6643 64.5154 27.3427 64.3541 27.1818C63.8702 26.8601 63.225 26.8601 62.9025 27.1818L59.5154 30.5594C59.1928 31.042 59.1928 31.6853 59.5154 32.007ZM16.4529 69.3204C16.6142 69.4813 16.7755 69.6421 17.098 69.6421C17.4206 69.6421 17.7432 69.4813 17.9045 69.1596L21.2916 65.782C21.4529 65.6211 21.6142 65.4603 21.6142 65.1386C21.6142 64.9778 21.4529 64.6561 21.2916 64.4952C20.8077 64.1736 20.1625 64.1736 19.84 64.4952L16.4529 67.8729C16.1303 68.3554 16.1303 68.9987 16.4529 69.3204ZM19.9987 32.0064C20.16 32.1672 20.3213 32.328 20.6439 32.328C20.7107 32.328 20.8052 32.3004 20.9159 32.2681C21.0724 32.2224 21.2614 32.1672 21.4504 32.1672C21.7729 31.6847 21.7729 31.0413 21.4504 30.7197L18.0633 27.342C17.5794 27.0203 16.9342 27.0203 16.6116 27.342C16.4504 27.5029 16.2891 27.6637 16.2891 27.9854C16.2891 28.1462 16.4504 28.4679 16.6116 28.6287L19.9987 32.0064ZM62.9025 68.0345C63.0638 68.1953 63.2251 68.3561 63.5476 68.3561C63.7838 68.3561 63.9335 68.27 64.1233 68.1607C64.1928 68.1207 64.2676 68.0776 64.3541 68.0345C64.6767 67.5519 64.6767 66.9086 64.3541 66.5869L60.967 63.2093C60.4831 62.8876 59.838 62.7268 59.5154 63.2093C59.1928 63.6918 59.1928 64.3352 59.5154 64.6568L62.9025 68.0345Z" fill="white"/>
</svg>
