<svg width="81" height="92" viewBox="0 0 81 92" fill="none" xmlns="http://www.w3.org/2000/svg">
<path fill-rule="evenodd" clip-rule="evenodd" d="M40.6992 91.9999L0.699219 69.0401V22.9598L40.6992 0L80.6992 22.9598V68.8795L40.6992 91.9999ZM2.63472 67.9162L40.6992 89.7521L78.7637 67.9162V24.0837L40.6992 2.24782L2.63472 24.0837V67.9162ZM18.2811 68.8795H26.8295C27.3134 68.8795 27.6359 68.5584 27.7972 67.9162V50.0942C27.7972 49.608 27.6123 49.2138 27.3125 49.0509V36.6079C27.3125 36.2868 27.1513 36.1262 26.8287 35.9657C26.5061 35.9657 26.1835 35.9657 26.0222 36.1263L17.4738 43.6725C17.4738 43.7528 17.4334 43.833 17.3931 43.9133C17.3528 43.9936 17.3125 44.0739 17.3125 44.1542V50.4159C17.3125 50.5523 17.3707 50.6886 17.4746 50.8004V67.7556C17.4746 68.3979 17.7972 68.8795 18.2811 68.8795ZM26.1843 50.8004C26.0804 50.6886 26.0222 50.5523 26.0222 50.4159V46.2038L19.5721 51.8603C19.4108 52.0209 19.4108 52.0209 19.2495 52.0209C19.1932 52.0209 19.1369 52.0209 19.0875 52.0141V66.7923H26.1843V50.8004ZM19.0875 51.0772V50.0942C19.0875 49.8215 19.0294 49.5778 18.9254 49.3876V47.5235L18.9269 47.525C18.9269 47.6855 19.0882 47.6855 19.2495 47.6855C19.3301 47.6855 19.3704 47.6454 19.4108 47.6052C19.4511 47.5651 19.4914 47.525 19.5721 47.525L26.0222 41.8684V45.157C25.9017 45.1573 25.7814 45.1975 25.7011 45.2774L19.0875 51.0772ZM18.9254 46.8827V44.4753L26.0222 38.2135V40.8216C25.9017 40.822 25.7814 40.8621 25.7011 40.9421L18.9269 46.8827L18.9254 46.8827ZM47.9586 59.5376C48.0613 59.6716 48.1188 59.8462 48.1188 60.0494V67.9168H62.4736V60.3998C62.3709 60.2658 62.3135 60.0912 62.3135 59.8879V31.7902H47.9586V59.5376ZM46.5059 60.5604C46.4031 60.4264 46.3457 60.2517 46.3457 60.0485V30.9874C46.3457 30.5058 46.6683 30.1847 47.1522 30.1847H62.9586C63.4425 30.1847 63.765 30.5058 63.765 30.9874V59.385C63.9673 59.5231 64.0866 59.7566 64.0866 60.0494V68.7196C63.9253 69.2013 63.6027 69.5224 63.1189 69.5224H47.3123C46.8284 69.5224 46.5059 69.2013 46.5059 68.7196V60.5604ZM56.9895 36.6301C56.9902 36.6231 56.9906 36.6157 56.9906 36.6079V33.8784V33.8783C56.9906 33.7982 56.9906 33.7581 56.9705 33.738C56.9504 33.7179 56.9101 33.7179 56.8293 33.7179H56.6846C56.8398 33.7289 56.9895 33.8836 56.9895 34.0384V36.6301ZM54.0874 37.2502H56.6681C56.9907 37.2502 57.1519 36.929 57.1519 36.7685V34.039C57.1519 33.7179 56.9907 33.5573 56.6681 33.5573H54.0874C53.7648 33.5573 53.6035 33.7179 53.6035 34.039V36.7685C53.6035 37.0896 53.7648 37.2502 54.0874 37.2502ZM56.1841 36.1263H54.5712V34.3601H56.1841V36.1263ZM56.985 41.1504C56.9886 41.1362 56.9906 41.1203 56.9906 41.1023V38.3728V38.3727C56.9906 38.2926 56.9906 38.2525 56.9705 38.2324C56.9634 38.2253 56.9538 38.2207 56.9408 38.2177C56.9712 38.2657 56.9895 38.3197 56.9895 38.3738V41.1032C56.9895 41.119 56.9879 41.1348 56.985 41.1504ZM54.0874 41.584H56.6681C56.9907 41.584 57.1519 41.4234 57.1519 41.1023V38.3728C57.1519 38.0517 56.9907 37.8911 56.6681 37.8911H54.0874C53.7648 37.8911 53.6035 38.0517 53.6035 38.3728V41.1023C53.6035 41.4234 53.7648 41.584 54.0874 41.584ZM56.1841 40.6206H54.5712V38.8545H56.1841V40.6206ZM56.9895 45.4608L56.9903 45.4507C56.9905 45.4468 56.9906 45.4428 56.9906 45.4386V42.7091V42.7091C56.9906 42.629 56.9906 42.5888 56.9705 42.5687C56.9504 42.5486 56.9101 42.5486 56.8293 42.5486H56.6846C56.8398 42.5596 56.9895 42.7144 56.9895 42.8691V45.4608ZM54.0874 46.0809H56.6681C56.9907 46.0809 57.1519 45.7598 57.1519 45.5992V42.8697C57.1519 42.5486 56.9907 42.388 56.6681 42.388H54.0874C53.7648 42.388 53.6035 42.5486 53.6035 42.8697V45.5992C53.6035 45.9203 53.7648 46.0809 54.0874 46.0809ZM56.1841 44.957H54.5712V43.1908H56.1841V44.957ZM56.9895 51.5617C56.9902 51.5547 56.9906 51.5473 56.9906 51.5395V48.81V48.8099C56.9906 48.6495 56.9906 48.6495 56.8293 48.6495H56.6845C56.8397 48.6605 56.9895 48.8152 56.9895 48.97V51.5617ZM54.0874 52.1818H56.6681C56.9907 52.1818 57.1519 51.8607 57.1519 51.7001V48.9706C57.1519 48.6495 56.9907 48.4889 56.6681 48.4889H54.0874C53.7648 48.4889 53.6035 48.6495 53.6035 48.9706V51.7001C53.6035 52.0212 53.7648 52.1818 54.0874 52.1818ZM56.1841 51.2184H54.5712V49.4523H56.1841V51.2184ZM56.9837 56.0883C56.9881 56.073 56.9906 56.0555 56.9906 56.0355V53.306V53.3059C56.9906 53.2258 56.9906 53.1857 56.9705 53.1656C56.9636 53.1587 56.9544 53.1542 56.942 53.1512C56.9717 53.1986 56.9895 53.252 56.9895 53.3054V56.0349C56.9895 56.0527 56.9875 56.0706 56.9837 56.0883ZM54.0874 56.5172H56.6681C56.9907 56.5172 57.1519 56.3566 57.1519 56.0355V53.306C57.1519 52.9849 56.9907 52.8243 56.6681 52.8243H54.0874C53.7648 52.8243 53.6035 52.9849 53.6035 53.306V56.0355C53.6035 56.3566 53.7648 56.5172 54.0874 56.5172ZM56.1841 55.5538H54.5712V53.7877H56.1841V55.5538ZM56.9895 60.3924C56.9902 60.3854 56.9906 60.378 56.9906 60.3702V57.6408V57.6406C56.9906 57.4802 56.9906 57.4802 56.8293 57.4802H56.6845C56.8397 57.4912 56.9895 57.646 56.9895 57.8007V60.3924ZM54.0874 61.0125H56.6681C56.9907 61.0125 57.1519 60.8519 57.1519 60.5308V57.8013C57.1519 57.4802 56.9907 57.3196 56.6681 57.3196H54.0874C53.7648 57.3196 53.6035 57.4802 53.6035 57.8013V60.5308C53.6035 60.8519 53.7648 61.0125 54.0874 61.0125ZM56.1841 60.0491H54.5712V58.283H56.1841V60.0491ZM49.5726 62.9392H60.8601H60.8629L60.8698 62.9393C61.1859 62.9456 61.344 63.2619 61.344 63.4209V65.6687C61.344 65.8292 61.1827 66.1503 60.8601 66.1503H49.5698C49.2472 66.1503 49.0859 65.8292 49.0859 65.6687V63.4209C49.0859 63.0997 49.2472 62.9392 49.5698 62.9392H49.5726ZM60.3763 65.0264H50.0536V63.742H60.3763V65.0264ZM31.9899 44.7964H34.4108C34.5721 44.7964 34.8948 44.957 34.8948 45.2781C34.8948 45.5992 34.7334 45.7598 34.4108 45.7598H31.9899V48.1675H34.4108C34.5721 48.1675 34.8948 48.3281 34.8948 48.6492C34.8948 48.8097 34.7334 49.1308 34.4108 49.1308H31.9899V51.7001H34.4108C34.5721 51.7001 34.8948 51.8607 34.8948 52.1818C34.8948 52.5029 34.7334 52.6634 34.4108 52.6634H31.9899V55.0712H34.4108C34.5721 55.0712 34.8948 55.2318 34.8948 55.5529C34.8948 55.874 34.7334 56.0345 34.4108 56.0345H31.9899V58.4439H34.4108C34.5721 58.4439 34.8948 58.6044 34.8948 58.9255C34.8948 59.2467 34.7334 59.4072 34.4108 59.4072H31.9899V61.655H34.4108C34.5721 61.655 34.8948 61.8156 34.8948 62.1367C34.8948 62.4578 34.7334 62.6184 34.4108 62.6184H31.9899V64.3833H34.4108C34.5721 64.3833 34.8948 64.5438 34.8948 64.8649C34.8948 65.1861 34.7334 65.3466 34.4108 65.3466H31.9899V67.1131H42.6351V65.3466H36.9917C36.8304 65.3466 36.5078 65.1861 36.5078 64.8649C36.5078 64.7044 36.6691 64.3833 36.9917 64.3833H42.6351V62.6184H36.9917C36.8304 62.6184 36.5078 62.4578 36.5078 62.1367C36.5078 61.8156 36.6691 61.655 36.9917 61.655H42.6351V59.4072H36.9917C36.8304 59.4072 36.5078 59.2467 36.5078 58.9255C36.5078 58.6044 36.6691 58.4439 36.9917 58.4439H42.6351V56.0345H36.9917C36.8304 56.0345 36.5078 55.874 36.5078 55.5529C36.5078 55.2318 36.6691 55.0712 36.9917 55.0712H42.6351V52.6634H36.9917C36.8304 52.6634 36.5078 52.5029 36.5078 52.1818C36.5078 51.8607 36.6691 51.7001 36.9917 51.7001H42.6351V49.1308H36.9917C36.8304 49.1308 36.5078 48.9703 36.5078 48.6492C36.5078 48.4886 36.6691 48.1675 36.9917 48.1675H42.6351V45.7598H36.9917C36.8304 45.7598 36.5078 45.5992 36.5078 45.2781C36.5078 45.1175 36.6691 44.7964 36.9917 44.7964H42.6351V42.2275H36.9906C36.9756 42.2275 36.9605 42.2261 36.9457 42.2234C36.7761 42.1976 36.5078 42.0383 36.5078 41.7455C36.5078 41.5849 36.6691 41.2638 36.9917 41.2638H42.6351V38.8545H36.9917C36.8304 38.8545 36.5078 38.6939 36.5078 38.3728C36.5078 38.2123 36.6691 37.8911 36.9917 37.8911H42.6351V35.4834H36.9917C36.8304 35.4834 36.5078 35.3228 36.5078 35.0017C36.5078 34.6806 36.6691 34.52 36.9917 34.52H42.6351V32.4322H36.9917C36.8304 32.4322 36.5078 32.2716 36.5078 31.9505C36.5078 31.7899 36.6691 31.4688 36.9917 31.4688H42.6351V28.7396H36.9917C36.8304 28.7396 36.5078 28.5791 36.5078 28.258C36.5078 28.0974 36.6691 27.7763 36.9917 27.7763H42.6351V25.207H36.9917C36.8304 25.207 36.5078 25.0465 36.5078 24.7254C36.5078 24.5648 36.6691 24.2437 36.9917 24.2437H42.6351V22.9595H31.9899V24.2437H34.4108C34.5721 24.2437 34.8948 24.4042 34.8948 24.7254C34.8948 25.0465 34.7334 25.207 34.4108 25.207H31.9899V27.7763H34.4108C34.5721 27.7763 34.8948 27.9368 34.8948 28.258C34.8948 28.5791 34.7334 28.7396 34.4108 28.7396H31.9899V31.4688H34.4108C34.5721 31.4688 34.8948 31.6294 34.8948 31.9505C34.8948 32.111 34.7334 32.4322 34.4108 32.4322H31.9899V34.52H34.4108C34.5721 34.52 34.8948 34.6806 34.8948 35.0017C34.8948 35.3228 34.7334 35.4834 34.4108 35.4834H31.9899V37.8911H34.4108C34.5721 37.8911 34.8948 38.0517 34.8948 38.3728C34.8948 38.6939 34.7334 38.8545 34.4108 38.8545H31.9899V41.2638H34.4108C34.5721 41.2638 34.8948 41.4244 34.8948 41.7455C34.8948 42.0618 34.7382 42.2223 34.4252 42.227C34.4204 42.2273 34.4156 42.2275 34.4108 42.2275H31.9899V44.7964ZM36.9911 59.246L36.9917 59.2467H42.6351V59.246H36.9911ZM31.9899 59.2467H34.4108L34.4152 59.2465L34.4216 59.246L34.4108 59.246H31.9899V59.2467ZM34.4325 25.0465C34.5226 25.0462 34.5545 25.0432 34.5659 25C34.5246 25.0256 34.4789 25.0424 34.4325 25.0465ZM44.248 45.1166V68.3975C44.248 69.0398 43.9254 69.5214 43.4415 69.5214H31.1834C30.6995 69.5214 30.377 69.0398 30.377 68.237V45.1166V22.1567C30.377 21.6751 30.6995 21.3539 31.1834 21.3539H43.4415C43.9254 21.3539 44.248 21.6751 44.248 22.1567V45.1166Z" fill="#0A202C"/>
</svg>
