<svg width="80" height="92" viewBox="0 0 80 92" fill="none" xmlns="http://www.w3.org/2000/svg">
<path fill-rule="evenodd" clip-rule="evenodd" d="M0 69.0001L40.0003 92.0001L80.0005 69.0001V23L40.0003 0L0 23V69.0001ZM40.0003 89.9092L1.9355 68.035V24.1259L40.0003 2.25175L78.065 24.1259V68.035L40.0003 89.9092ZM59.5175 49.861L60.3239 51.4694C60.4852 51.6302 60.4852 51.6302 60.1627 51.791V52.7561C60.1627 53.2386 59.8401 53.5603 59.3562 53.5603C58.8723 53.5603 58.5497 53.2386 58.5497 52.7561V52.1127L57.9046 50.9868H55.3239L54.6787 52.1127V52.7561C54.6787 53.2386 54.3562 53.5603 53.8723 53.5603C53.3884 53.5603 53.0658 53.2386 53.0658 52.7561V51.791C53.0658 51.791 53.2271 51.6302 53.2271 51.4694L54.0336 49.861V49.3785C54.0336 48.0917 54.6787 47.1267 55.8078 46.805V44.5533C54.84 44.2316 54.0336 43.1057 54.0336 41.9798C54.0336 40.6931 54.84 39.7281 55.8078 39.4064C55.6465 37.3155 54.1949 35.5463 52.2594 34.9029C52.2594 34.7421 52.0981 34.7421 52.0981 34.7421C51.6142 35.0638 50.969 35.3854 50.3239 35.3854V55.812H53.0658C54.0336 55.812 54.84 56.6162 54.84 57.5813V60.3155C54.84 60.798 54.5175 61.1197 54.0336 61.1197V70.2876C54.0336 71.2526 53.2271 72.0568 52.2594 72.0568H48.5497C47.5819 72.0568 46.7755 71.2526 46.7755 70.2876V66.5883H32.0979V70.2876C32.0979 71.2526 31.2915 72.0568 30.3237 72.0568H26.614C25.6463 72.0568 24.8398 71.2526 24.8398 70.2876V61.1197C24.356 61.1197 24.0334 60.798 24.0334 60.3155V57.5813C24.0334 56.6162 24.8398 55.812 25.8076 55.812H28.5495V35.5463C28.3882 35.5463 28.2673 35.5061 28.1463 35.4659C28.0253 35.4256 27.9044 35.3854 27.7431 35.3854C26.2915 34.7421 25.9689 33.777 25.8076 33.2945V32.812C25.8076 31.5253 26.614 30.5603 27.7431 30.2386C28.0657 24.1267 33.227 19.1407 39.5173 19.1407C45.8077 19.1407 50.969 24.1267 51.2916 30.2386C52.2594 30.5603 53.0658 31.6861 53.0658 32.812V33.2945C55.4852 34.2596 57.2594 36.5113 57.582 39.2456C58.711 39.5673 59.5175 40.6931 59.5175 41.819C59.5175 43.1057 58.8723 44.0708 57.7433 44.3924V46.6442C58.711 46.9659 59.5175 48.0917 59.5175 49.2176V49.861ZM49.6787 29.9169C49.1948 24.77 44.84 20.7491 39.5173 20.7491C34.1947 20.7491 29.8399 24.77 29.356 29.9169H49.6787ZM26.614 70.1267H30.3237V67.7141L26.614 69.0008V70.1267ZM26.614 67.0708L30.3237 65.7841V64.0148L26.614 65.3015V67.0708ZM26.614 63.3715L30.3237 62.0848V60.798H26.614V63.3715ZM25.6463 59.1896H31.1302V57.2596H25.6463V59.1896ZM31.9367 64.6582H46.7755V60.9589C46.2916 60.9589 45.969 60.6372 45.969 60.1547V59.1896H45.4851L44.3561 61.2806C43.8722 62.0848 42.9045 62.7281 41.9367 62.7281H36.7754C35.8076 62.7281 34.8399 62.2456 34.356 61.2806L33.227 59.1896H32.7431V60.1547C32.7431 60.6372 32.4205 60.9589 31.9367 60.9589V64.6582ZM43.5496 59.0288H35.3238L36.2915 60.4764C36.4528 60.798 36.7754 60.9589 37.098 60.9589H42.098C42.4206 60.9589 42.7432 60.798 42.9045 60.4764L43.5496 59.0288ZM33.0657 57.2596H45.969C45.969 56.2945 46.7755 55.4903 47.7432 55.6512H48.711V35.3854H45.0013V46.3225C45.0013 49.3785 42.5819 51.791 39.5173 51.791C36.4528 51.791 34.0334 49.3785 34.0334 46.3225V35.3854H30.3237V55.4903H31.2915C32.2592 55.4903 33.0657 56.2945 33.0657 57.2596ZM43.2271 46.3225V38.9239H35.8076V46.3225C35.8076 48.4134 37.4206 50.0218 39.5173 50.0218C41.6141 50.0218 43.2271 48.4134 43.2271 46.3225ZM35.8076 35.3854V37.3155H43.2271V35.3854H35.8076ZM48.711 70.1267H52.4207V68.84L48.711 67.5533V70.1267ZM48.711 65.7841L52.4207 67.0708V65.3015L48.711 64.0148V65.7841ZM48.711 62.2456L52.4207 63.5323V60.9589H48.711V62.2456ZM53.2271 59.1896V57.2596H47.5819V59.1896H53.2271ZM28.5495 33.6162H50.4852C50.969 33.6162 51.4529 33.1337 51.4529 32.6512C51.4529 32.1686 50.969 31.6861 50.4852 31.6861H28.5495C28.0657 31.6861 27.5818 32.1686 27.5818 32.6512C27.5818 33.1337 28.0657 33.6162 28.5495 33.6162ZM56.9368 40.854C56.4529 40.854 55.9691 41.3365 55.9691 41.819C55.9691 42.3015 56.2917 42.784 56.9368 42.784C57.4207 42.784 57.9046 42.3015 57.9046 41.819C57.9046 41.3365 57.4207 40.854 56.9368 40.854ZM55.9691 49.2176H57.9046C57.9046 48.5743 57.4207 48.0917 56.9368 48.2526C56.4529 48.2526 55.9691 48.7351 55.9691 49.2176Z" fill="white"/>
</svg>
