<svg width="80" height="92" viewBox="0 0 80 92" fill="none" xmlns="http://www.w3.org/2000/svg">
<path fill-rule="evenodd" clip-rule="evenodd" d="M0 69L40 92L80 69V23L40 0L0 23V69ZM40 89.9091L1.93548 68.035V24.1259L40 2.25175L78.0645 24.1259V68.035L40 89.9091ZM40.3243 23.9657C39.6792 23.9657 39.1953 23.4831 39.1953 22.8398V18.658C39.1953 18.0146 39.6792 17.5321 40.3243 17.5321C40.9695 17.5321 41.4534 18.0146 41.4534 18.658V22.8398C41.4534 23.4831 40.9695 23.9657 40.3243 23.9657ZM40.3243 78.1672C39.6792 78.1672 39.1953 77.6847 39.1953 77.0413V72.8595C39.1953 72.2162 39.6792 71.7336 40.3243 71.7336C40.9695 71.7336 41.4534 72.2162 41.4534 72.8595V77.0413C41.4534 77.5238 40.9695 78.1672 40.3243 78.1672ZM22.5804 31.3643C22.2578 31.3643 21.9352 31.2034 21.7739 31.0426L18.8707 28.1475C18.3868 27.665 18.3868 27.0216 18.8707 26.5391C19.3546 26.0566 19.9997 26.0566 20.4836 26.5391L23.3868 29.4342C23.8707 29.9167 23.8707 30.5601 23.3868 31.0426C23.3004 31.0857 23.2256 31.1288 23.1561 31.1688L23.1561 31.1688C22.9662 31.2781 22.8165 31.3643 22.5804 31.3643ZM60.9691 69.6421C60.6465 69.6421 60.3239 69.4813 60.1626 69.3204L57.2594 66.4253C56.7755 65.9428 56.7755 65.2994 57.2594 64.8169C57.7433 64.3344 58.5497 64.3344 58.8723 64.8169L61.7755 67.712C61.9368 67.8729 62.0981 68.1945 62.0981 68.5162C62.0981 68.8379 61.9368 69.1596 61.7755 69.3204C61.6142 69.4813 61.2916 69.6421 60.9691 69.6421ZM15.1605 48.8951H10.9669C10.3218 48.8951 9.83789 48.4126 9.83789 47.7692C9.83789 47.1259 10.3218 46.6434 10.9669 46.6434H15.1605C15.8056 46.6434 16.2895 47.1259 16.2895 47.7692C16.2895 48.4126 15.8056 48.8951 15.1605 48.8951ZM69.5179 48.8951H65.3243C64.6792 48.8951 64.1953 48.4126 64.1953 47.7692C64.1953 47.1259 64.6792 46.6434 65.3243 46.6434H69.5179C70.1631 46.6434 70.6469 47.1259 70.6469 47.7692C70.6469 48.4126 70.1631 48.8951 69.5179 48.8951ZM19.5177 69.6421C19.1951 69.6421 18.8725 69.4813 18.7113 69.3204C18.55 69.1596 18.3887 68.8379 18.3887 68.5162C18.3887 68.1945 18.55 67.8729 18.7113 67.712L21.6145 64.8169C22.0983 64.3344 22.7435 64.3344 23.2274 64.8169C23.7113 65.2994 23.7113 65.9428 23.2274 66.4253L20.3242 69.3204C20.1629 69.4813 19.8403 69.6421 19.5177 69.6421ZM57.9037 31.3643C57.5812 31.3643 57.2586 31.2034 57.0973 31.0426C56.6134 30.5601 56.6134 29.7559 57.0973 29.4342L60.0005 26.5391C60.4844 26.0566 61.1295 26.0566 61.6134 26.5391C62.0973 27.0216 62.0973 27.8258 61.6134 28.1475L58.7102 31.0426C58.5489 31.2034 58.2263 31.3643 57.9037 31.3643ZM22.5801 42.3004C22.5801 41.8179 22.9027 41.4962 23.3865 41.4962C26.6123 41.4962 29.3543 43.9088 29.6769 47.1256H35.8059C36.2898 47.1256 36.6123 47.4472 36.6123 47.9298C36.6123 48.4123 36.2898 48.734 35.8059 48.734H29.6769C29.3543 51.9507 26.6123 54.3633 23.3865 54.3633C22.9027 54.3633 22.5801 54.0416 22.5801 53.5591C22.5801 53.0766 22.9027 52.7549 23.3865 52.7549C25.9672 52.7549 28.2252 50.664 28.2252 47.9298C28.2252 45.3563 26.1285 43.1046 23.3865 43.1046C22.9027 43.1046 22.5801 42.7829 22.5801 42.3004ZM22.4206 59.9917C22.9044 64.4952 26.6141 67.8729 31.1302 67.8729C35.9689 67.8729 40.0012 64.0127 40.0012 59.0267V36.5092C40.0012 31.6841 35.9689 27.6631 31.1302 27.6631C26.7754 27.6631 22.9044 31.2015 22.4206 35.5442C19.1947 36.0267 16.7754 38.761 16.7754 42.1386C16.7754 44.3904 17.9044 46.4813 19.8399 47.768C17.9044 49.0547 16.7754 51.1456 16.7754 53.3973C16.7754 56.6141 19.1947 59.5092 22.4206 59.9917ZM24.5173 36.5092C24.5173 32.9708 27.4205 29.9148 31.1302 29.9148C34.8399 29.9148 37.7431 32.8099 37.7431 36.5092V43.1036C34.5173 42.6211 32.098 39.726 32.098 36.5092C32.098 35.8659 31.6141 35.3834 30.9689 35.3834C30.3238 35.3834 29.8399 35.8659 29.8399 36.5092C29.8399 40.8519 33.227 44.712 37.5818 45.1945V50.3414C33.227 50.8239 29.8399 54.5232 29.8399 59.0267C29.8399 59.6701 30.3238 60.1526 30.9689 60.1526C31.6141 60.1526 32.098 59.6701 32.098 59.0267C32.098 55.6491 34.5173 52.9148 37.7431 52.4323V59.0267C37.7431 62.5652 34.8399 65.6211 31.1302 65.6211C27.5818 65.6211 24.5173 62.726 24.5173 59.0267C24.5173 58.3834 24.0335 57.9008 23.3883 57.9008C20.9689 57.9008 18.8722 55.8099 18.8722 53.3973C18.8722 50.9848 20.8076 48.8938 23.3883 48.8938C24.0335 48.8938 24.5173 48.4113 24.5173 47.768C24.5173 47.1246 24.0335 46.6421 23.3883 46.6421C20.9689 46.6421 18.8722 44.5512 18.8722 42.1386C18.8722 39.726 20.8076 37.6351 23.3883 37.6351C24.0335 37.6351 24.5173 37.1526 24.5173 36.5092ZM57.4192 52.7549C54.6772 52.7549 52.5805 50.5032 52.5805 47.9298C52.5805 45.1955 54.8385 43.1046 57.4192 43.1046C57.903 43.1046 58.2256 42.7829 58.2256 42.3004C58.2256 41.8179 57.903 41.4962 57.4192 41.4962C54.1934 41.4962 51.4514 43.9088 51.1288 47.1256H44.9998C44.5159 47.1256 44.1934 47.4472 44.1934 47.9298C44.1934 48.4123 44.5159 48.734 44.9998 48.734H51.1288C51.4514 51.9507 54.1934 54.3633 57.4192 54.3633C57.903 54.3633 58.2256 54.0416 58.2256 53.5591C58.2256 53.0766 57.7417 52.7549 57.4192 52.7549ZM49.6796 67.8729C44.8409 67.8729 40.8086 63.8519 40.8086 59.0267V36.5092C40.8086 31.6841 44.8409 27.6631 49.6796 27.6631C54.1957 27.6631 57.9054 31.0407 58.3892 35.5442C61.615 36.0267 64.0344 38.9218 64.0344 42.1386C64.0344 44.3904 62.9054 46.4813 60.9699 47.768C62.9054 49.0547 64.0344 51.1456 64.0344 53.3973C64.0344 56.775 61.615 59.5092 58.3892 59.9917C57.9054 64.4952 54.0344 67.8729 49.6796 67.8729ZM42.9054 52.5931V59.1875C42.9054 62.8868 45.9699 65.782 49.5183 65.782C53.0667 65.782 56.1312 62.726 56.1312 59.1875C56.1312 58.5442 56.615 58.0617 57.2602 58.0617C59.8409 58.0617 61.7763 55.9708 61.7763 53.5582C61.7763 51.1456 59.6796 49.0547 57.2602 49.0547C56.615 49.0547 56.1312 48.5722 56.1312 47.9288C56.1312 47.2855 56.615 46.8029 57.2602 46.8029C59.8409 46.8029 61.7763 44.712 61.7763 42.2994C61.7763 39.8869 59.6796 37.7959 57.2602 37.7959C56.615 37.7959 56.1312 37.3134 56.1312 36.6701C56.1312 32.9708 53.0667 30.0757 49.5183 30.0757C45.9699 30.0757 42.9054 33.1316 42.9054 36.6701V43.2645C46.1312 42.782 48.5505 40.0477 48.5505 36.6701C48.5505 36.0267 49.0344 35.5442 49.6796 35.5442C50.3247 35.5442 50.8086 36.0267 50.8086 36.6701C50.8086 41.1736 47.4215 44.8729 43.0667 45.3554V50.5022C47.4215 50.9848 50.8086 54.8449 50.8086 59.1875C50.8086 59.8309 50.3247 60.3134 49.6796 60.3134C49.0344 60.3134 48.5505 59.8309 48.5505 59.1875C48.5505 55.8099 46.1312 53.0757 42.9054 52.5931Z" fill="white"/>
</svg>
