<svg width="81" height="92" viewBox="0 0 81 92" fill="none" xmlns="http://www.w3.org/2000/svg">
<path fill-rule="evenodd" clip-rule="evenodd" d="M40.5 91.9999L0.5 69.0401V22.9598L40.5 0L80.5 22.9598V69.0401L40.5 91.9999ZM2.43548 67.9162L40.5 89.7521L78.5645 67.9162V24.0837L40.5 2.24782L2.43548 24.0837V67.9162ZM31.5913 21.6754H29.5332C29.6504 22.0839 29.8529 22.4499 30.1251 22.7504C28.0136 24.4931 26.3665 26.7706 25.3859 29.3819H24.209C24.3314 29.8692 24.593 30.3333 24.95 30.7218C24.5738 32.0819 24.373 33.5171 24.373 35.0023C24.373 35.8214 24.4355 36.6253 24.5557 37.4098H22.9199C23.173 38.4173 24.0214 39.326 25.0761 39.6711C25.8098 42.0401 27.0863 44.1686 28.7545 45.9191H27.7578C28.0804 47.2035 29.3707 48.1669 30.8223 48.1669C31.0022 48.1669 31.1796 48.1521 31.3529 48.1237C33.5644 49.6296 36.1669 50.596 38.9576 50.8379C38.526 55.267 37.8364 63.9399 37.6466 66.6317H30.5V70.8062H31.8744L33.8873 77.068H48.0808L49.9679 70.8062H51.4677V66.6317H44.2646C43.9769 63.9089 43.2847 55.0661 42.9724 50.6863C45.6699 50.2478 48.1322 49.1452 50.1866 47.5504C50.5818 47.7379 51.0165 47.8461 51.4669 47.8461C52.9185 47.8461 54.2088 46.8827 54.5314 45.4377H52.4219C54.8472 42.653 56.3085 39.0095 56.3085 35.0023C56.3085 34.0104 56.2169 33.0408 56.042 32.101C56.1293 32.1081 56.2173 32.1117 56.3059 32.1117C57.9188 32.1117 59.2091 31.1483 59.5317 29.7033H55.3955C55.0231 28.6599 54.5442 27.6674 53.9722 26.7383C54.3106 26.4154 54.5592 26.0006 54.6945 25.5294H53.1493C50.2196 21.6233 45.5387 19.1071 40.3408 19.1071C37.1013 19.1071 34.0984 20.0492 31.5913 21.6754ZM33.8868 45.9191C33.7682 46.3913 33.5188 46.8201 33.1787 47.1737C35.2253 48.3869 37.6071 49.0966 40.151 49.1302H40.5305C43.6265 49.0892 46.4825 48.047 48.7862 46.3144C48.6107 46.0399 48.4791 45.7434 48.4023 45.4377H49.841C52.6263 42.8839 54.373 39.224 54.373 35.1629C54.373 33.6446 54.1289 32.1824 53.6776 30.8131C53.4226 30.49 53.2184 30.1163 53.0801 29.7033H53.2582C52.9207 28.9142 52.5123 28.1622 52.041 27.4552C50.7872 27.4256 49.8497 26.6321 49.5332 25.5294H50.4964C47.9396 22.8595 44.3332 21.1943 40.3408 21.1943C38.1564 21.1943 36.0875 21.6928 34.2429 22.5816C33.8375 23.1135 33.2359 23.4793 32.507 23.5764C30.3675 25.0138 28.6464 27.0227 27.5657 29.3819H30.338C30.0154 30.8269 28.7251 31.7902 27.2735 31.7902C27.0907 31.7902 26.9104 31.7724 26.7343 31.7387C26.4563 32.8346 26.3085 33.9818 26.3085 35.1629C26.3085 35.9277 26.3705 36.6782 26.4896 37.4098H29.0489C28.8083 38.4877 28.0292 39.2975 27.0464 39.6395C27.8895 42.1168 29.4126 44.2836 31.3938 45.9191H33.8868ZM48.355 70.8062H33.6131L35.0163 75.4624H40.9841H46.9518L48.355 70.8062ZM42.7457 66.6317H41.7904V55.0709C41.9793 57.5163 42.2237 60.4025 42.4261 62.7935C42.5607 64.3838 42.6767 65.755 42.7457 66.6317ZM40.1775 66.6317H39.2214C39.3169 65.3321 39.5043 63.1167 39.706 60.7317L39.706 60.7316C39.8672 58.8262 40.0375 56.8125 40.1775 55.0709V66.6317ZM49.5323 68.8795H32.4355V68.5584H49.5323V68.8795ZM37.2754 43.6719H39.0496V41.5846L40.9313 40.7283L42.7593 41.5846V43.6719H44.6947V40.4607L43.107 39.7382L44.6947 39.0157V33.5567L43.2379 32.8937L44.6947 32.2722V28.9005H42.7593V30.9878L40.9313 31.8441L39.0496 30.9878V28.9005H37.2754V32.2722L38.6906 32.8937L37.2754 33.5567V39.0157L38.8177 39.7382L37.2754 40.4607V43.6719ZM40.9313 33.8778L42.7593 34.6806V37.8918L40.9313 38.7481L39.0496 37.8918V34.6806L40.9313 33.8778Z" fill="white"/>
</svg>
