<svg width="81" height="93" viewBox="0 0 81 93" fill="none" xmlns="http://www.w3.org/2000/svg">
<path fill-rule="evenodd" clip-rule="evenodd" d="M40.8008 92.4999L0.800781 69.5401V23.4598L40.8008 0.5L80.8008 23.4598V69.3795L40.8008 92.4999ZM2.73626 68.4162L40.8008 90.2521L78.8653 68.4162V24.5837L40.8008 2.74782L2.73626 24.5837V68.4162ZM40.1538 66.8112C28.8635 66.8112 19.6699 57.6594 19.6699 46.4203C19.6699 35.1812 28.8635 26.0294 40.1538 26.0294C51.4441 26.0294 60.6377 35.1812 60.6377 46.4203C60.6377 57.6594 51.4441 66.8112 40.1538 66.8112ZM40.1538 27.4744C29.6699 27.4744 20.9603 35.984 20.9603 46.5809C20.9603 57.1777 29.6699 65.5267 40.1538 65.5267C50.6377 65.5267 59.3474 57.0172 59.3474 46.4203C59.3474 35.8235 50.6377 27.4744 40.1538 27.4744ZM30.4766 57.1768C30.4766 58.3007 31.4443 59.264 32.5733 59.264H48.7024C49.8314 59.264 50.7991 58.3007 50.9604 57.1768V44.3321C50.9604 43.2082 49.9927 42.2449 48.8637 42.2449H48.2185V41.2815C48.2185 37.107 44.8314 33.8958 40.6379 33.8958C36.4443 33.8958 33.0572 37.2675 33.0572 41.2815V42.2449H32.5733C31.4443 42.2449 30.4766 43.2082 30.4766 44.3321V57.1768ZM32.0895 44.1716C32.0895 43.8504 32.2508 43.6899 32.5733 43.6899H34.5088V41.1209C34.5088 37.9098 37.2508 35.3408 40.4766 35.3408C43.7024 35.3408 46.4443 37.9098 46.4443 41.1209V43.6899H48.7024C49.025 43.6899 49.1863 43.8504 49.1863 44.1716V57.0162C49.1863 57.3373 49.025 57.4979 48.7024 57.4979H32.5733C32.2508 57.4979 32.0895 57.3373 32.0895 57.0162V44.1716ZM38.5411 52.6811C38.5411 53.805 39.5088 54.7684 40.6379 54.7684C41.7669 54.7684 42.7346 53.805 42.7346 52.6811V48.8277C42.7346 47.7038 41.7669 46.7405 40.6379 46.7405C39.5088 46.7405 38.5411 47.7038 38.5411 48.8277V52.6811ZM40.154 48.6672C40.154 48.3461 40.3153 48.1855 40.6379 48.1855C40.9604 48.1855 41.1217 48.3461 41.1217 48.6672V52.5206C41.1217 52.8417 40.9604 53.0023 40.6379 53.0023C40.3153 53.0023 40.154 52.8417 40.154 52.5206V48.6672ZM35.7991 43.6899H45.4766V41.1209C45.4766 38.552 43.3798 36.4648 40.6379 36.4648C38.0572 36.4648 35.7991 38.552 35.7991 41.1209V43.6899ZM43.8637 42.0843H37.4121V41.1209C37.4121 39.5154 38.8637 38.0703 40.6379 38.0703C42.4121 38.0703 43.8637 39.3548 43.8637 41.1209V42.0843ZM40.799 70.8252C54.347 70.8247 65.3143 59.9069 65.3143 46.4203C65.3143 32.9334 54.3466 22.0154 40.7982 22.0154C36.7659 22.0154 33.8627 22.6577 30.6369 24.2633H30.4756L29.9917 22.6577H30.153C30.1646 22.6528 30.1761 22.6478 30.1876 22.6429C33.4047 21.2072 36.9415 20.4099 40.6385 20.4099C40.6657 20.4099 40.6928 20.4099 40.7199 20.41C40.746 20.4099 40.7721 20.4099 40.7982 20.4099C55.3143 20.4099 67.0885 32.1306 67.0885 46.5809C67.0885 61.0311 55.153 72.5913 40.6369 72.5913C33.2175 72.5913 26.6046 69.7013 21.6046 64.4028L21.4434 64.2423L23.0563 63.1184L23.2175 63.2789C27.8742 68.0743 34.1294 70.8008 40.71 70.825C40.7397 70.8251 40.7693 70.8252 40.799 70.8252ZM40.6377 72.2702C33.5203 72.27 27.145 69.6101 22.3664 64.8576C27.1623 69.7016 33.5961 72.2702 40.6369 72.2702C40.6372 72.2702 40.6374 72.2702 40.6377 72.2702Z" fill="white"/>
</svg>
