<svg width="81" height="92" viewBox="0 0 81 92" fill="none" xmlns="http://www.w3.org/2000/svg">
<path fill-rule="evenodd" clip-rule="evenodd" d="M0.400391 69.0001L40.4004 92.0001L80.4004 69.0001V23L40.4004 0L0.400391 23V69.0001ZM40.4004 89.9092L2.33587 68.035V24.1259L40.4004 2.25175L78.4649 24.1259V68.035L40.4004 89.9092ZM19.4341 58.0636L19.2728 57.5811C13.1438 45.8398 17.8212 31.2035 29.5954 25.2524L30.4018 24.7699L33.9502 31.5251L33.1438 32.0076C29.2728 34.0986 26.3696 37.4762 24.918 41.658C23.5938 45.4727 23.8802 49.5552 25.5323 53.1727L28.627 51.6297C27.3367 48.7346 27.1754 45.6787 28.1431 42.6227C29.1108 39.4059 31.3689 36.6717 34.4334 35.0633L34.9173 34.9024L35.7238 36.5108L35.2399 36.6717C32.6592 37.9584 30.7237 40.371 29.756 43.1052C28.7883 45.8395 29.1108 48.8955 30.4012 51.4689L30.885 52.2731L24.756 55.8116L24.2721 55.0074C22.0141 50.6647 21.5302 45.6787 23.1431 41.0143C24.5156 36.6043 27.4741 32.9131 31.4733 30.6206L29.5954 27.3433C19.2728 33.1335 15.4018 46.3223 20.8857 56.7769L21.047 57.2594L19.4341 58.0636ZM34.1113 46.8042C34.1113 50.103 36.5481 52.7622 39.5918 53.2995V73.0217H41.6886V53.3269C44.8102 52.8595 47.3371 50.1635 47.3371 46.8042C47.3371 43.1049 44.4339 40.2098 40.7242 40.2098C37.0145 40.2098 34.1113 43.1049 34.1113 46.8042ZM40.7242 42.3007C38.3049 42.3007 36.2081 44.3916 36.2081 46.8042C36.2081 49.2168 38.3049 51.3077 40.7242 51.3077C43.1436 51.3077 45.2403 49.2168 45.2403 46.8042C45.2403 44.3916 43.1436 42.3007 40.7242 42.3007ZM61.8521 35.5452C67.9709 47.267 63.3191 61.8744 51.5879 67.8442L51.5297 67.8742L51.5293 67.874L50.8843 68.3564L47.3359 61.6011L48.1424 61.1186C52.0134 59.0277 54.9166 55.6501 56.3682 51.4683C57.5451 47.654 57.3802 43.5721 55.751 39.9549L52.6585 41.4969C55.4004 47.6087 52.8197 54.8465 46.6907 57.9025L46.2068 58.0633L45.4004 56.4549L45.8843 56.2941C51.3681 53.5598 53.4649 46.8046 50.5617 41.4969L50.0778 40.6927L56.5294 37.315L57.0133 38.1192C59.2714 42.4619 59.7552 47.4479 58.1423 52.1122C56.7695 56.5234 53.8098 60.2153 49.8091 62.5077L51.5295 65.783C61.8521 59.9927 65.723 46.8039 60.2392 36.3494L60.0779 35.8668L61.6908 35.0627L61.8521 35.5452Z" fill="white"/>
</svg>
