<svg width="81" height="92" viewBox="0 0 81 92" fill="none" xmlns="http://www.w3.org/2000/svg">
<path fill-rule="evenodd" clip-rule="evenodd" d="M0.699219 69.0001L40.6992 92.0001L80.6992 69.0001V23L40.6992 0L0.699219 23V69.0001ZM40.6992 89.9092L2.6347 68.035V24.1259L40.6992 2.25175L78.7637 24.1259V68.035L40.6992 89.9092ZM62.9575 49.8602V42.9441H67.3124V64.8182H62.635V61.9231H58.6027V57.9021H54.893V63.049H47.6349V53.3986H46.8285V59.8322H42.3124V64.8182H37.7962V59.8322H33.4414V53.5595H32.7962V63.049H25.5382V57.7413H21.6672V61.7623H17.9575V64.8182H13.4414V42.9441H17.9575V49.8602H20.2156V45.8392H24.2479V31.6853H28.764V43.5875H33.6027V31.5245H37.635V20.9091H42.7962V31.5245H47.1511V43.5875H52.3124V31.6853H56.8285V45.8392H60.5382V49.8602H62.9575ZM64.5704 63.3707H66.1833H66.5059V44.5525H64.893V51.4686H59.4091V47.4476H55.6995V33.2937H54.2478V45.1958H46.022V33.1329H41.6672V22.5175H39.5704V33.1329H35.5382V45.1958H35.0543H34.7317H27.6349V33.2937H26.1833V47.4476H22.1511V51.4686H16.8285V44.5525H15.3769V63.3707H16.8285V60.3147H20.5382V56.2938H27.4737V61.6014H31.6672V52.1119H35.3769V58.3847H39.7317V63.3707H41.1833V58.3847H45.6995V51.9511H49.5704V61.6014H53.764V56.2938H60.5382V60.4756H64.5704V63.3707Z" fill="white"/>
</svg>
