<svg width="81" height="93" viewBox="0 0 81 93" fill="none" xmlns="http://www.w3.org/2000/svg">
<path fill-rule="evenodd" clip-rule="evenodd" d="M40.4383 92.9004L0.599609 69.9004V23.9004L40.5996 0.900391L80.5996 23.9004V69.9004L40.4383 92.9004ZM2.3738 68.7745L40.4383 90.6486L78.6641 68.7745V25.0263L40.4383 3.15214L2.3738 25.0263V68.7745ZM60.1172 29.8511V33.5501V61.5368V65.2357V67.7191C60.2161 67.9131 60.2797 68.167 60.2797 68.4525C60.441 69.0959 60.1184 69.5784 59.6345 69.5784H22.5377C22.2151 69.5784 21.8926 69.0959 21.8926 68.4525C21.8926 68.1692 21.9551 67.917 22.0527 67.7235V65.2357V61.5368V33.5501V29.8511V26.3973C21.9551 26.2039 21.8926 25.9517 21.8926 25.6684C21.8926 25.025 22.2151 24.5425 22.5377 24.5425H59.6345C59.9571 24.5425 60.2797 25.025 60.2797 25.6684C60.3764 26.0543 60.2991 26.3823 60.1172 26.583V29.8511ZM59.1495 62.6626V64.1099H41.085H23.0205V62.6626H41.085H59.1495ZM41.085 66.3616H23.0205V67.3267H59.1495V66.3616H41.085ZM59.1495 60.4109H41.085H23.0205V34.676H41.085H59.1495V60.4109ZM59.1495 30.977V32.4242H41.085H23.0205V30.977H41.085H59.1495ZM59.1495 28.7253V27.1159H23.0205V28.7253H41.085H59.1495ZM30.5996 47.5438C30.5996 53.334 35.277 57.9983 41.0835 57.9983C46.8899 57.9983 51.7286 53.334 51.5673 47.5438C51.5673 41.7535 46.8899 37.0892 41.0835 37.0892C35.277 37.0892 30.5996 41.7535 30.5996 47.5438ZM31.7286 47.5438C31.7286 42.3969 35.9222 38.2151 41.0835 38.2151C46.2448 38.2151 50.4383 42.3969 50.4383 47.5438C50.4383 52.6906 46.2448 56.8724 41.0835 56.8724C35.9222 56.8724 31.7286 52.6906 31.7286 47.5438ZM41.0847 55.7459C39.9556 55.7459 38.8266 55.4242 37.6976 54.9417L37.375 54.7809L40.2782 49.3124L40.6008 49.4732C40.9234 49.634 41.246 49.634 41.5685 49.4732L41.8911 49.3124L44.7943 54.7809L44.4718 54.9417C43.504 55.5851 42.375 55.7459 41.0847 55.7459ZM38.504 54.4592C40.1169 55.1026 42.0524 55.1026 43.6653 54.4592L41.4073 50.4382H40.6008L38.504 54.4592ZM43.0193 47.2218V47.5434L49.3097 47.2218V46.7392C49.1484 44.3266 47.858 42.2357 45.9226 40.949L45.6 40.7882L42.2129 46.2567L42.5355 46.4176C42.6968 46.4176 42.8581 46.5784 42.8581 46.7392C43.0193 46.9001 43.0193 47.0609 43.0193 47.2218ZM43.4226 46.0959C43.3822 46.0557 43.3419 46.0155 43.3419 45.935L45.9226 41.9141C47.3742 43.0399 48.3419 44.6483 48.5032 46.4176L43.6645 46.5784C43.6645 46.498 43.6242 46.4578 43.5839 46.4176C43.5435 46.3773 43.5032 46.3371 43.5032 46.2567C43.5032 46.1763 43.4629 46.1361 43.4226 46.0959ZM39.1489 47.5434L32.6973 47.2218V46.7392C32.8586 44.3266 34.1489 42.2357 36.0844 40.949L36.4069 40.7882L39.9553 46.0959L39.6328 46.2567L39.3102 46.5784C39.3102 46.6588 39.2698 46.7392 39.2295 46.8197C39.1892 46.9001 39.1489 46.9805 39.1489 47.0609V47.5434ZM33.665 46.4176L38.5037 46.5784C38.5037 46.498 38.544 46.4578 38.5844 46.4176C38.6247 46.3773 38.665 46.3371 38.665 46.2567C38.665 46.1763 38.7053 46.1361 38.7457 46.0959C38.786 46.0557 38.8263 46.0155 38.8263 45.935L36.2456 41.9141C34.9553 43.0399 33.9876 44.6483 33.665 46.4176ZM41.2465 46.2558C40.4401 46.2558 39.7949 46.8991 39.7949 47.7033C39.7949 48.5075 40.4401 49.1509 41.2465 49.1509C42.053 49.1509 42.6981 48.5075 42.6981 47.7033C42.6981 46.8991 42.053 46.2558 41.2465 46.2558Z" fill="white"/>
</svg>
