<svg width="81" height="92" viewBox="0 0 81 92" fill="none" xmlns="http://www.w3.org/2000/svg">
<path fill-rule="evenodd" clip-rule="evenodd" d="M0.800781 69L40.8008 92L80.8008 69V23L40.8008 0L0.800781 23V69ZM40.8008 89.9091L2.73626 68.035V24.1259L40.8008 2.25175L78.8653 24.1259V68.035L40.8008 89.9091ZM36.9291 44.3917C37.0903 44.5525 37.2516 44.7134 37.5742 44.7134C37.5979 44.7134 37.6216 44.7134 37.6448 44.7129C36.6381 46.0972 36.5849 48.0219 37.4854 49.4633L28.5426 51.3084C28.2201 51.3084 28.0588 51.4692 27.8975 51.6301L18.3813 64.8189C18.22 65.3014 18.2201 65.7839 18.5426 66.1056L20.3168 67.8748C20.4781 68.0357 20.6394 68.1965 20.962 68.1965C21.2846 68.1965 21.4458 68.0357 21.6071 67.8748L38.7039 50.9867C38.77 50.9208 38.8226 50.8481 38.863 50.7714C39.5722 51.2158 40.3048 51.4685 41.1219 51.4685C42.073 51.4685 43.1798 51.0025 43.9832 50.223C43.9032 50.3835 43.8633 50.5838 43.8633 50.824L45.3149 59.6702C45.3149 59.9918 45.4762 60.1527 45.6375 60.3135L58.8633 69.803C59.0246 69.9639 59.1859 69.9639 59.3472 69.9639C59.5084 69.9639 59.831 69.9639 60.3149 69.6422L62.0891 67.873C62.4117 67.5513 62.4117 66.9079 62.0891 66.5863L45.4762 50.0198C45.1536 49.6981 44.6697 49.6981 44.3472 49.859L44.3318 49.8668L44.3148 49.8759C44.3065 49.8805 44.2984 49.8852 44.2903 49.89C45.473 48.4528 45.5449 46.3307 44.5062 44.8102C44.5092 44.7871 44.5092 44.7556 44.5092 44.7127L53.5415 43.1043C53.8641 43.1043 54.0254 42.9434 54.1867 42.7826L63.7028 29.5938C63.8641 29.1113 63.8641 28.6287 63.5415 28.3071L61.7673 26.5378C61.4447 26.2162 60.7996 26.2162 60.477 26.5378L43.7028 43.2651C43.5609 43.4066 43.4814 43.5792 43.4506 43.7555C41.9211 42.712 39.781 42.7857 38.3376 43.9765C38.3663 43.8611 38.3807 43.7315 38.3807 43.5875L36.9291 34.7414C36.9291 34.4197 36.7678 34.2588 36.6065 34.098L23.3807 24.6085C22.8968 24.4476 22.4129 24.4476 22.0903 24.7693L20.3162 26.5386C19.9936 26.8602 19.9936 27.5036 20.3162 27.8253L36.9291 44.3917ZM36.2839 41.0141L22.4129 27.1819L23.0581 26.5386L35.3162 35.3847L36.2839 41.0141ZM61.1221 28.4679L47.2512 42.3001L52.8963 41.335L61.7673 29.1113L61.1221 28.4679ZM31.1234 68.0347C34.3492 69.643 37.8976 70.4472 41.4459 70.4472C44.5105 70.4472 47.4137 69.8039 50.1556 68.678L50.4782 68.5172L49.833 67.0696L49.5105 67.2305C43.704 69.643 37.2524 69.3214 31.7685 66.5871L31.4459 66.4263L30.8008 67.8738L31.1234 68.0347ZM59.1859 67.873L46.9278 59.0268L45.9601 53.3974L59.831 67.2296L59.1859 67.873ZM20.3168 65.3014L20.962 65.9447L34.9942 51.9517L29.1878 53.0776L20.3168 65.3014ZM41.1219 44.8741C40.4767 44.8741 39.9928 45.035 39.5089 45.5175C38.5412 46.4825 38.5412 47.9301 39.5089 48.7343C40.4767 49.6993 41.9283 49.6993 42.7348 48.7343C43.7025 47.7692 43.7025 46.3217 42.7348 45.5175C42.2509 45.035 41.6057 44.8741 41.1219 44.8741ZM26.4449 49.3779V49.0563C26.1223 46.8045 26.4449 44.5528 27.0901 42.4619L27.2514 42.1402L28.703 42.6227L28.5417 42.9444C27.8965 44.8744 27.7352 46.8045 27.8965 48.7346V49.0563L26.4449 49.3779ZM46.9291 35.3856L46.6065 35.2247C44.5098 34.2597 42.2517 33.938 39.9936 34.0989H39.6711L39.5098 32.4905H39.8323C42.413 32.3296 44.9936 32.8121 47.2517 33.7772L47.5743 33.938L46.9291 35.3856ZM53.7016 54.6856L52.25 53.8814L52.4113 53.5597C53.7016 51.4688 54.1855 48.8954 54.1855 46.4828V46.1612H55.7984V46.4828C55.9597 49.2171 55.3145 52.1122 53.8629 54.5248L53.7016 54.6856ZM41.1205 61.9237C38.7012 61.9237 36.1205 61.2803 34.0238 60.1545L33.7012 59.9936L34.5076 58.5461L34.8302 58.7069C36.927 59.8328 39.185 60.4762 41.6044 60.3153H41.927V61.9237H41.6044H41.1205ZM19.8317 56.294L19.6704 55.9723C19.0252 54.3639 18.5413 52.5947 18.2188 50.6646V50.343L19.8317 50.1821V50.5038C19.8563 50.6268 19.881 50.7507 19.9058 50.8754C20.2055 52.3809 20.5262 53.9921 21.122 55.329L21.2833 55.6507L19.8317 56.294ZM18.0566 47.7695V47.4479C18.0566 42.7835 19.347 38.28 21.9276 34.4199L22.0889 34.0982L23.3792 34.9024L23.2179 35.3849C20.7986 38.9234 19.5083 43.1052 19.6695 47.4479V47.7695H18.0566ZM59.6712 60.7966L58.3809 59.8315L58.5421 59.5099C59.9938 57.419 61.1228 55.1672 61.768 52.7546L61.9292 52.4329L63.5421 52.9155L63.3809 53.2371C62.7357 55.8106 61.4454 58.384 59.9938 60.4749L59.6712 60.7966ZM31.6061 28.4685L30.9609 27.021L31.2835 26.8601C33.219 25.8951 35.1545 25.2517 37.2513 24.9301H37.5738L37.8964 26.5385H37.5738C35.6384 26.8601 33.8642 27.5035 32.09 28.4685H31.6061ZM52.8952 29.273L52.5726 29.1122C50.9597 28.1472 49.3468 27.343 47.5726 26.8605L47.25 26.6996L47.7339 25.2521L48.0565 25.4129C49.9919 26.0563 51.7661 26.8605 53.379 27.8255L53.7016 27.9863L52.8952 29.273ZM64.5082 49.0563L62.8953 48.8954V48.5737C63.0566 45.357 62.5727 41.9793 61.2824 39.0842L61.1211 38.7626L62.5727 38.1192L62.734 38.4409C64.0243 41.6577 64.6695 45.1961 64.5082 48.7346V49.0563Z" fill="white"/>
</svg>
