<svg width="80" height="92" viewBox="0 0 80 92" fill="none" xmlns="http://www.w3.org/2000/svg">
<path fill-rule="evenodd" clip-rule="evenodd" d="M40 92L0 69V23L40 0L80 23V69L40 92ZM1.93548 68.035L40 89.9091L78.0645 68.035V24.1259L40 2.25175L1.93548 24.1259V68.035ZM38.7287 72.6033C30.8401 71.7291 24.6765 65.0319 24.6765 56.9377C24.6765 49.3783 29.9991 42.7838 37.4185 41.3363L38.0636 41.1755V21.0706H33.7088V19.9447H47.2572V21.0706H42.9023V41.1755L43.5475 41.3363C50.9669 42.9447 56.2894 49.3783 56.2894 56.9377C56.2894 65.1043 50.015 71.8489 42.025 72.6254C41.5178 72.6739 41.004 72.6987 40.4846 72.6987C39.8916 72.6987 39.3057 72.6663 38.7287 72.6033ZM37.4135 40.8538H37.4185V40.8528L37.4135 40.8538ZM22.9023 56.7768C22.9023 66.4272 30.8056 74.3083 40.483 74.3083C50.1604 74.3083 58.0636 66.4272 58.0636 56.9377C58.0636 48.8957 52.4185 41.8188 44.5152 39.8887V22.679H48.8701V18.3363H31.9346V22.679H36.2894V39.7279C28.5475 41.658 22.9023 48.7349 22.9023 56.7768ZM26.127 56.9364C26.127 64.8176 32.5786 71.2511 40.4818 71.2511C48.5463 71.2511 54.9979 64.8176 54.9979 56.9364C54.9979 56.1322 54.8366 55.1672 54.6753 54.2022L54.514 53.2371H26.6108L26.4495 54.2022C26.2882 55.0064 26.127 55.9714 26.127 56.9364ZM28.4657 56.2127L28.4657 56.2126C28.506 55.9714 28.5463 55.7301 28.5463 55.4889H52.4173C52.5786 55.9714 52.5786 56.4539 52.5786 56.9364C52.5786 63.5308 47.0947 68.9994 40.4818 68.9994C33.8689 68.9994 28.385 63.5308 28.385 56.9364C28.385 56.6952 28.4253 56.4539 28.4657 56.2127ZM31.1309 59.5108C31.1309 60.6367 32.0986 61.6017 33.2276 61.6017C34.3567 61.6017 35.1631 60.6367 35.3244 59.5108C35.3244 58.3849 34.3567 57.4199 33.2276 57.4199C32.0986 57.4199 31.1309 58.3849 31.1309 59.5108ZM32.4212 59.5108C32.4212 59.0283 32.7438 58.7066 33.2276 58.7066C33.5502 58.7066 33.8728 59.1891 33.8728 59.5108C33.8728 59.8325 33.7115 60.315 33.2276 60.315C32.7438 60.315 32.4212 59.9933 32.4212 59.5108ZM44.0848 57.0297C43.843 56.7813 43.4744 56.6148 43.0641 56.6148C42.9621 56.6148 42.8652 56.625 42.7739 56.6443C42.8678 56.6255 42.9651 56.6157 43.0649 56.6157C43.4639 56.6157 43.8234 56.7732 44.0848 57.0297ZM43.0387 57.5811C43.0473 57.5809 43.056 57.5807 43.0649 57.5807C43.1054 57.5807 43.1433 57.5833 43.1787 57.5883C43.3867 57.6236 43.3867 57.7625 43.3867 57.9015C43.3867 58.0623 43.2254 58.2231 43.0641 58.2231C42.9028 58.2231 42.7415 58.0623 42.7415 57.9015C42.7415 57.7491 42.8863 57.5967 43.0387 57.5811ZM41.4512 58.0623C41.4512 58.8665 42.0963 59.6707 43.0641 59.6707C44.0318 59.6707 44.8383 58.8665 44.677 58.0623C44.677 57.2581 44.0318 56.4539 43.0641 56.4539C42.2576 56.4539 41.4512 57.0973 41.4512 58.0623ZM45 62.2444C45 63.5312 45.9677 64.4962 47.2581 64.4962C48.3871 64.4962 49.5161 63.5312 49.5161 62.2444C49.5161 60.9577 48.5484 59.9927 47.2581 59.9927C45.9677 59.9927 45 60.9577 45 62.2444ZM46.2903 62.2444C46.2903 61.7619 46.7742 61.2794 47.2581 61.2794C47.7419 61.2794 48.2258 61.7619 48.2258 62.2444C48.2258 62.727 47.7419 63.2095 47.2581 63.2095C46.7742 63.2095 46.2903 62.727 46.2903 62.2444ZM36.7675 67.0624C37.3137 67.6106 38.0589 67.9611 38.9131 68.0243C38.0911 67.958 37.3411 67.6027 36.7675 67.0624ZM39.4489 68.0262C40.2977 67.9636 41.071 67.5928 41.6545 67.0279C41.0999 67.6015 40.3319 67.967 39.4489 68.0262ZM40.1832 62.2714C40.4485 62.3776 40.6903 62.5259 40.9009 62.7086C40.6947 62.5274 40.4522 62.3783 40.1832 62.2714ZM35.4844 64.4962C35.4844 66.5871 37.2586 68.1955 39.194 68.1955C41.2908 68.1955 42.9037 66.5871 42.9037 64.4962C42.9037 62.4053 41.2908 60.7969 39.194 60.7969C37.0973 60.7969 35.4844 62.5661 35.4844 64.4962ZM36.936 64.4962C36.936 63.2095 37.9037 62.2444 39.194 62.2444C40.4844 62.2444 41.4521 63.2095 41.4521 64.4962C41.4521 65.7829 40.4844 66.7479 39.194 66.7479C37.9037 66.7479 36.936 65.7829 36.936 64.4962Z" fill="white"/>
</svg>
