<svg width="80" height="93" viewBox="0 0 80 93" fill="none" xmlns="http://www.w3.org/2000/svg">
<path fill-rule="evenodd" clip-rule="evenodd" d="M0 69.1397L40 92.0995L80 68.9791V23.0594L40 0.0996094L0 23.0594V69.1397ZM40 89.8517L1.93548 68.0158V24.1834L40 2.34743L78.0645 24.1834V68.0158L40 89.8517ZM48.0754 50.6525C48.534 50.9754 49.0927 51.1578 49.6775 51.1578C51.1291 51.1578 52.2581 49.8733 52.4194 48.4283C52.4194 46.8227 51.2904 45.6988 49.6775 45.6988C48.0646 45.6988 46.9355 46.9833 46.9355 48.4283C46.9355 48.9921 47.0947 49.4965 47.364 49.9137L43.2238 53.8879C43.0625 53.8879 43.0625 54.0485 43.0625 54.209V70.4242H40.6455V39.228C41.8874 38.9827 42.9018 37.8276 42.9018 36.5463C42.9018 34.9408 41.6115 33.8169 40.1599 33.8169C38.547 33.8169 37.418 35.1013 37.418 36.5463C37.418 37.9713 38.4343 39.0169 39.6777 39.2341V70.4242H37.2591V50.0339C37.2591 49.9536 37.2188 49.9135 37.1785 49.8733C37.1382 49.8332 37.0978 49.793 37.0978 49.7128L34.0523 45.3818C34.7434 44.9062 35.1616 44.1074 35.1616 43.1302C35.1616 41.5246 33.8713 40.4007 32.4197 40.4007C30.8068 40.4007 29.6777 41.5246 29.6777 43.1302C29.6777 44.7358 30.9681 45.8597 32.4197 45.8597C32.6533 45.8597 32.8767 45.8361 33.0881 45.7909L36.2914 50.1944V70.4242H24.5183V42.6476C24.5183 42.1659 24.0344 41.6842 23.5505 41.6842H16.2925L40.6473 20.4905L51.1312 29.8029C51.4538 30.124 51.9376 30.124 52.2602 29.9635C52.7441 29.8029 52.9054 29.3212 52.9054 29.0001V23.7017H56.6151V34.2985C56.6151 34.6196 56.7763 34.9408 56.9376 35.1013L64.1957 41.6842H57.7441C57.2602 41.6842 56.7764 42.1659 56.7764 42.6476V70.4242H44.0302V54.5301L48.0754 50.6525ZM48.0646 48.2677C48.0646 47.4649 48.7097 46.6622 49.6775 46.6622C50.4839 46.6622 51.2904 47.4649 51.2904 48.2677C51.2904 49.0705 50.4839 49.8733 49.6775 49.8733C48.871 49.8733 48.0646 49.2311 48.0646 48.2677ZM40.1599 34.9408C39.1922 34.9408 38.547 35.7436 38.547 36.5463C38.547 37.5097 39.3535 38.1519 40.1599 38.1519C41.1276 38.1519 41.7728 37.3491 41.7728 36.5463C41.9341 35.583 41.1276 34.9408 40.1599 34.9408ZM30.8068 43.1302C30.8068 42.3274 31.4519 41.5246 32.4197 41.5246C33.3874 41.5246 34.0326 42.3274 34.0326 43.1302C34.0326 43.933 33.3874 44.7358 32.4197 44.7358C31.6132 44.7358 30.8068 43.933 30.8068 43.1302ZM23.5505 72.3509H57.9054C58.3893 72.3509 58.8731 72.0297 58.5505 71.5481V43.7715H66.6151C67.0989 43.7715 67.4215 43.4504 67.5828 43.1292C67.7441 42.6476 67.5828 42.3264 67.2602 42.0053L58.3893 33.9774V22.8989C58.3893 22.4172 57.9054 21.9355 57.4215 21.9355H51.6151C51.1312 21.9355 50.6473 22.4172 50.6473 22.8989V26.9128L41.2925 18.4033C40.9699 18.0821 40.3247 18.0821 40.0022 18.4033L12.9054 41.8448C12.5828 42.1659 12.4215 42.6476 12.5828 42.9687C12.7441 43.2898 13.0667 43.6109 13.5505 43.6109H22.5828V71.3875C22.5828 71.8692 23.0667 72.3509 23.5505 72.3509Z" fill="white"/>
</svg>
