<svg width="81" height="92" viewBox="0 0 81 92" fill="none" xmlns="http://www.w3.org/2000/svg">
<path fill-rule="evenodd" clip-rule="evenodd" d="M0.199219 69.0001L40.1992 92.0001L80.1993 69.0001V23L40.1992 0L0.199219 23V69.0001ZM40.1992 89.9092L2.13471 68.035V24.1259L40.1992 2.25175L78.2638 24.1259V68.035L40.1992 89.9092ZM50.0407 38.1183C50.0407 39.3059 49.8236 40.4935 49.3893 41.5923C50.2152 43.0881 50.6846 44.8092 50.6846 46.6434V47.2321C53.3347 44.5644 54.7152 40.9841 54.7152 37.1536C54.7152 29.1116 48.2636 22.678 40.199 22.678C32.1345 22.678 25.6829 29.1116 25.6829 37.1536C25.6829 40.9112 27.132 44.428 29.7168 47.1829V46.6434C29.7168 44.8081 30.1867 43.0859 31.0136 41.5895C30.58 40.4915 30.3633 39.3049 30.3633 38.1183C30.3633 32.6497 34.7181 28.3071 40.202 28.3071C45.5246 28.3071 50.0407 32.6497 50.0407 38.1183ZM56.0055 37.1536C56.0055 41.674 54.0361 46.0434 50.6846 48.944V52.0912C55.5941 48.747 58.4252 43.1961 58.4252 37.1542C58.4252 27.1822 50.1994 18.9794 40.1994 18.9794C30.1994 18.9794 21.9736 27.1822 21.9736 37.1542C21.9736 43.1777 24.9098 48.5911 29.7168 52.0133V48.9648C26.3082 45.9367 24.3926 41.7655 24.3926 37.1536C24.3926 28.4682 31.4894 21.3913 40.199 21.3913C48.9087 21.3913 56.0055 28.4682 56.0055 37.1536ZM59.393 37.1542C59.393 43.7029 56.0919 49.7249 50.6846 53.1949V64.8182C50.6846 70.6085 46.0071 75.2728 40.2007 75.2728C34.3942 75.2728 29.7168 70.6085 29.7168 64.8182V53.159C24.3079 49.5951 21.0059 43.7039 21.0059 37.1542C21.0059 26.5388 29.5543 18.0143 40.1994 18.0143C50.8446 18.0143 59.393 26.5388 59.393 37.1542ZM48.4252 53.399C48.5339 53.3461 48.6419 53.2924 48.7491 53.2376V49.548C48.0624 50.7046 47.4563 52.4334 47.4563 54.5248C47.4563 56.8027 47.9618 58.5765 48.7491 59.6232V53.9372L48.4252 53.399ZM48.7491 61.719C47.1759 60.569 46.166 57.8162 46.166 54.6857C46.166 51.5552 47.1759 48.8024 48.7491 47.6523V46.6434C48.7491 41.9791 44.8781 38.1189 40.2007 38.1189C35.5233 38.1189 31.6523 41.9791 31.6523 46.6434V47.2206C33.3162 48.297 34.3947 51.1287 34.3947 54.3637C34.3947 57.5987 33.3162 60.4303 31.6523 61.5068V64.8182C31.6523 69.4826 35.5233 73.3427 40.2007 73.3427C44.8781 73.3427 48.7491 69.4826 48.7491 64.8182V61.719ZM31.6523 53.933V59.659C32.3382 58.5024 32.9431 56.7748 32.9431 54.6854C32.9431 52.2671 32.4384 50.4778 31.6523 49.429V53.2265C31.7587 53.2849 31.8658 53.3424 31.9736 53.399L31.6523 53.933ZM31.6536 38.1183C31.6536 38.8269 31.7514 39.5355 31.9202 40.2173C32.7394 39.1675 33.7557 38.2787 34.9144 37.6053C35.4751 34.9733 37.8449 33.1369 40.5221 33.294C42.9257 33.435 44.7096 35.0591 45.3305 37.5162C46.5553 38.2001 47.6269 39.1219 48.4832 40.2198C48.6523 39.5373 48.7504 38.8278 48.7504 38.1183C48.7504 33.4539 44.8794 29.5938 40.202 29.5938C35.5246 29.5938 31.6536 33.4539 31.6536 38.1183ZM37.6228 36.5049C37.2573 36.5965 36.8995 36.7071 36.5505 36.8356C37.2817 35.4486 38.8507 34.4525 40.5221 34.5807C42.2393 34.6877 43.3137 35.6493 43.888 36.8494C43.7004 36.7795 43.5101 36.7147 43.3175 36.6553C42.7463 35.7976 41.7497 35.2229 40.5227 35.2229C39.291 35.0865 38.2915 35.6448 37.6228 36.5049ZM35.6225 66.4255C36.164 67.3476 36.8844 68.1466 37.7838 68.623C37.8437 69.8649 38.9459 70.9295 40.2006 70.9295C41.4553 70.9295 42.405 70.017 42.6048 68.6356C43.5582 68.1612 44.2978 67.3983 44.7441 66.4262C46.0236 66.4133 47.1375 65.4516 47.1375 64.0137C47.1375 62.727 46.0085 61.6011 44.7182 61.6011C44.7009 61.6011 44.6837 61.6013 44.6664 61.6017C44.2159 60.7096 43.5098 60.0065 42.6143 59.5584C42.6163 59.5425 42.6182 59.5266 42.62 59.5105C42.62 58.2238 41.4909 57.0979 40.2006 57.0979C38.9103 57.0979 37.7812 58.2238 37.7812 59.5105C37.7812 59.5271 37.7814 59.5436 37.7818 59.5602C36.888 60.0083 36.1831 60.7107 35.7332 61.6017C35.7165 61.6013 35.6998 61.6011 35.683 61.6011C34.3927 61.6011 33.2637 62.727 33.2637 64.0137C33.2637 65.2803 34.3576 66.391 35.6225 66.4255ZM42.2988 64.0137C42.2988 64.8816 42.8124 65.6762 43.5427 66.1017C43.2622 66.6294 42.8345 67.0829 42.3246 67.3977C41.9061 66.6414 41.0918 66.1043 40.2006 66.1043C39.3296 66.1043 38.532 66.6174 38.1057 67.3467C37.5849 67.0713 37.1361 66.6537 36.8212 66.1556C37.5712 65.7724 38.1024 65.0066 38.1024 64.0137C38.1024 63.1881 37.6375 62.4286 36.9634 61.9904C37.2626 61.5527 37.6879 61.1391 38.1834 60.8052C38.6246 61.4677 39.38 61.9231 40.2006 61.9231C41.0594 61.9231 41.7753 61.4956 42.2056 60.7829C42.7231 61.1037 43.1646 61.4894 43.4671 61.9716C42.7772 62.4067 42.2988 63.1761 42.2988 64.0137ZM39.0716 59.6714C39.0716 59.028 39.5554 58.5455 40.2006 58.5455C40.6845 58.5455 41.1683 59.028 41.3296 59.6714C41.3296 60.3147 40.8458 60.7973 40.2006 60.7973C39.5554 60.7973 39.0716 60.3147 39.0716 59.6714ZM40.2006 67.5519C39.5554 67.5519 39.0716 68.0344 39.0716 68.6778C39.0716 69.3211 39.5554 69.8036 40.2006 69.8036C40.8458 69.8036 41.3296 69.3211 41.3296 68.6778C41.1683 68.0344 40.6845 67.5519 40.2006 67.5519ZM34.554 64.1746C34.554 63.5312 35.0379 63.0487 35.683 63.0487C36.3282 63.0487 36.8121 63.5312 36.8121 64.1746C36.8121 64.8179 36.3282 65.3004 35.683 65.3004C35.0379 65.3004 34.554 64.8179 34.554 64.1746ZM44.7182 63.0487C44.073 63.0487 43.5891 63.5312 43.5891 64.1746C43.5891 64.8179 44.073 65.3004 44.7182 65.3004C45.3633 65.3004 45.8472 64.8179 45.8472 64.1746C45.8472 63.5312 45.3633 63.0487 44.7182 63.0487ZM34.7168 46.1615C34.7168 49.0566 37.1362 51.4692 40.0394 51.4692C42.9426 51.4692 45.362 49.0566 45.362 46.1615C45.362 43.2664 42.9426 40.8538 40.0394 40.8538C37.1362 40.8538 34.7168 43.2664 34.7168 46.1615ZM36.0071 46.1615C36.0071 43.9098 37.7813 42.1405 40.0394 42.1405C42.2975 42.1405 44.0716 44.0706 44.0716 46.1615C44.0716 48.4133 42.2975 50.1825 40.0394 50.1825C37.7813 50.1825 36.0071 48.4133 36.0071 46.1615Z" fill="#0A202C"/>
</svg>
