<svg width="80" height="92" viewBox="0 0 80 92" fill="none" xmlns="http://www.w3.org/2000/svg">
<path fill-rule="evenodd" clip-rule="evenodd" d="M0 69L40 92L80 69V23L40 0L0 23V69ZM40 89.9091L1.93548 68.035V24.1259L40 2.25175L78.0645 24.1259V68.035L40 89.9091ZM39.0326 78.0064L39.6777 78.8106L40.4842 78.0064C41.2906 77.2022 61.9358 55.328 62.4197 43.4259C62.9035 37.9574 60.8068 32.4889 56.9358 28.3071C52.581 23.6427 46.4519 21.0693 40.1616 21.0693C33.8713 21.0693 27.9035 23.6427 23.5487 28.1462C19.6777 32.4889 17.581 37.7966 17.9035 43.4259C18.5487 55.328 38.2261 77.2022 39.0326 78.0064ZM25.0003 29.5938C29.0326 25.412 34.5164 22.9994 40.3229 22.9994C46.1293 22.9994 51.7745 25.412 55.8068 29.7546C59.3552 33.6148 61.1293 38.4399 60.8068 43.4259C60.1616 53.398 43.5487 72.0553 39.839 76.0763C36.2906 72.0553 20.3229 53.398 19.839 43.4259C19.5164 38.2791 21.2906 33.4539 25.0003 29.5938ZM40.1605 60.9574C29.9992 60.9574 21.7734 52.7546 21.7734 42.6217C21.7734 32.4889 29.9992 24.2861 40.1605 24.2861C50.3218 24.2861 58.5476 32.4889 58.5476 42.6217C58.7089 52.7546 50.3218 60.9574 40.1605 60.9574ZM40.1605 26.5378C31.2896 26.5378 24.0315 33.7756 24.0315 42.6217C24.0315 51.4679 31.2896 58.7057 40.1605 58.7057C49.0315 58.7057 56.2896 51.4679 56.2896 42.6217C56.2896 33.7756 49.1928 26.5378 40.1605 26.5378ZM33.0636 54.2028H43.2249L39.6765 49.2168C43.6678 49.8291 47.8053 47.6731 48.4731 47.3251L48.4734 47.325C48.5071 47.3074 48.5319 47.2944 48.5474 47.2867L49.5152 46.8042L34.3539 32.972L33.87 33.9371C33.7087 34.2587 30.1603 41.8182 35.3216 47.1259C35.4829 47.2867 35.6442 47.4073 35.8055 47.528C35.9668 47.6486 36.1281 47.7692 36.2894 47.9301L33.0636 54.2028ZM40.1603 52.5944H35.6442L37.5797 48.8951L40.1603 52.5944ZM46.9345 46.4825C44.6765 47.4476 39.6765 49.2168 36.4507 46C33.0636 42.4615 34.3539 37.6364 34.9991 35.5455L46.9345 46.4825ZM45.3217 39.0845H43.7088C43.7088 38.7629 43.3862 38.4412 42.9023 38.4412L43.0636 36.8328C44.354 36.8328 45.483 37.7978 45.3217 39.0845ZM49.998 39.4069H51.6109C51.7722 34.5817 47.9012 30.3999 43.0625 30.239V31.8474C46.2883 32.0082 49.998 35.0642 49.998 39.4069ZM47.0948 39.246H48.7077C48.7077 37.7985 48.0625 36.1901 46.9335 35.0642C45.8044 33.9383 44.5141 33.295 43.2238 33.295V34.9034C44.0302 34.9034 44.998 35.3859 45.8044 36.1901C46.6109 37.1551 47.0948 38.281 47.0948 39.246Z" fill="white"/>
</svg>
