<svg width="80" height="92" viewBox="0 0 80 92" fill="none" xmlns="http://www.w3.org/2000/svg">
<path fill-rule="evenodd" clip-rule="evenodd" d="M0 69.0001L40 92.0001L80 69.0001V23L40 0L0 23V69.0001ZM40 89.9092L1.93548 68.035V24.1259L40 2.25175L78.0645 24.1259V68.035L40 89.9092ZM26.45 70.9292H28.0629C31.7726 70.9292 35.1597 70.7683 36.6113 68.8383L37.579 67.3907C37.7188 67.2048 37.8621 67.0088 38.0077 66.8095L38.0079 66.8091C38.8699 65.6293 39.8157 64.3348 40.6435 64.3348C41.1274 64.3348 41.9338 64.6564 43.2242 67.069L43.5467 67.5515C45.1597 70.4467 45.8048 70.9292 51.1274 70.9292H57.0951C57.1084 70.9292 57.136 70.9314 57.1764 70.9346L57.1767 70.9346C57.6257 70.9703 59.6479 71.1311 61.1274 69.8033C61.9338 68.9991 62.4177 67.7124 62.4177 66.2648V55.0061C62.4177 55.0061 62.4177 52.9152 60.9661 51.4676C59.8371 50.3417 58.3855 49.8592 56.45 49.8592H25.1597C25.1463 49.8592 25.1186 49.857 25.0781 49.8538C24.6291 49.8181 22.6068 49.6573 21.1274 50.9851C20.1597 51.7893 19.6758 52.9152 19.6758 54.5236V66.2648C19.6758 66.5865 19.6758 66.9082 19.8371 67.2299L19.8615 67.3033C20.2008 68.3262 21.0641 70.9292 24.9984 70.9292H26.45ZM22.4177 52.2718C23.2242 51.7893 24.1919 51.6285 24.6758 51.6285C24.8371 51.6285 24.9984 51.6285 24.9984 51.4676H56.1274C57.579 51.4676 58.708 51.9501 59.3532 52.5935C60.3209 53.5585 60.3209 54.8452 60.3209 54.8452V66.104C60.4822 67.069 60.1596 67.7124 59.6758 68.1949C58.9405 68.9281 57.535 68.8591 57.1702 68.8412C57.1349 68.8395 57.1094 68.8383 57.0951 68.8383H50.9661C46.2887 68.8383 46.1274 68.6774 44.9984 66.4257L44.6758 65.9432C43.3855 63.6914 42.0951 62.4047 40.6435 62.4047C38.5467 62.4047 37.0951 64.4956 35.9661 66.2648C35.8389 66.4552 35.7367 66.6455 35.6399 66.8259C35.4912 67.103 35.355 67.3568 35.1596 67.5515C34.0306 68.9991 29.9984 68.9991 26.45 68.9991H24.9984C22.3979 68.9991 21.9736 67.697 21.6615 66.7394C21.6445 66.6874 21.6279 66.6363 21.6113 66.5865V66.2648V54.5236C21.6113 53.3977 21.9338 52.7543 22.4177 52.2718ZM55.9668 55.4896H25.9668V57.4196H55.9668V55.4896ZM45.3235 33.7756L53.388 38.44C53.5493 38.6008 53.7106 38.7616 53.7106 38.9225V46.8036C53.7106 47.1253 53.388 47.447 53.0654 47.447H27.7428C27.4202 47.447 27.0977 47.1253 27.0977 46.8036V38.9225V33.6148L27.1119 33.1609L27.1119 33.1608C27.2591 28.4583 27.2638 28.3071 27.4202 28.3071H27.5815H27.7428L35.646 33.6148V30.2372C35.646 29.9155 35.9686 29.5938 36.2912 29.5938H37.5815V25.2511C37.5815 24.9295 37.9041 24.6078 38.2267 24.6078H39.8396L40.1622 18.3351L40.9686 17.8525L41.4525 24.6078H42.7428C43.0654 24.6078 43.388 24.9295 43.388 25.2511V29.5938H44.6783C45.0009 29.5938 45.3235 29.9155 45.3235 30.2372V33.7756ZM52.4202 46.1603V39.405L45.3235 35.384V46.1603H52.4202ZM38.7106 25.8945V29.5938H41.9364V25.8945H38.7106ZM44.0331 46.1603V30.8805H36.9364V46.1603H44.0331ZM35.4848 46.3211V35.2232L28.388 30.5588V46.3211H35.4848ZM40.4858 41.8182C40.8084 41.8182 40.9697 41.6574 40.9697 41.3357V39.084C40.9697 38.7623 40.8084 38.6014 40.4858 38.6014C40.1632 38.6014 40.002 38.7623 40.002 39.084V41.3357C40.1632 41.6574 40.3245 41.8182 40.4858 41.8182ZM30.4853 44.8745C30.4853 45.1962 30.324 45.357 30.0015 45.357C29.8939 45.357 29.7864 45.214 29.6789 45.0711C29.6251 44.9996 29.5713 44.9281 29.5176 44.8745V42.6227C29.5176 42.301 29.6789 42.1402 30.0015 42.1402C30.324 42.1402 30.4853 42.301 30.4853 42.6227V44.8745ZM40.4858 37.9581C40.8084 37.9581 40.9697 37.7972 40.9697 37.4756V32.6504C40.9697 32.3287 40.8084 32.1679 40.4858 32.1679C40.1632 32.1679 40.002 32.3287 40.002 32.6504V37.4756C40.1632 37.7972 40.3245 37.9581 40.4858 37.9581ZM30.4853 39.4059C30.4853 39.7276 30.324 39.8885 30.0015 39.8885C29.8402 39.8885 29.6789 39.7276 29.5176 39.4059V34.5808C29.5176 34.2591 29.6789 34.0982 30.0015 34.0982C30.324 34.0982 30.4853 34.2591 30.4853 34.5808V39.4059ZM42.5796 43.1052C42.9022 43.1052 43.0634 42.9444 43.0634 42.6227V36.9934C43.0634 36.6717 42.9022 36.5108 42.5796 36.5108C42.257 36.5108 42.0957 36.8325 42.0957 36.9934V42.6227C42.0957 42.7836 42.257 43.1052 42.5796 43.1052ZM47.0966 44.3913C47.0966 44.713 46.9354 44.8738 46.6128 44.8738C46.2902 44.8738 46.1289 44.5522 46.1289 44.2305V38.762C46.1289 38.4403 46.2902 38.2794 46.6128 38.2794C46.9354 38.2794 47.0966 38.4403 47.0966 38.762V44.3913ZM38.5483 39.7276C38.8709 39.7276 39.0322 39.4059 39.0322 39.2451V36.1892C39.0322 35.8675 38.8709 35.7066 38.5483 35.7066C38.2257 35.7066 38.0645 35.8675 38.0645 36.1892V39.2451C38.0645 39.4059 38.2257 39.7276 38.5483 39.7276ZM32.4189 41.6567C32.4189 42.1393 32.2576 42.3001 31.935 42.3001C31.7738 42.3001 31.4512 42.1393 31.4512 41.6567V38.44C31.4512 38.1183 31.6125 37.9574 31.935 37.9574C32.2576 37.9574 32.4189 37.9574 32.4189 38.44V41.6567Z" fill="white"/>
</svg>
