<svg width="81" height="93" viewBox="0 0 81 93" fill="none" xmlns="http://www.w3.org/2000/svg">
<path fill-rule="evenodd" clip-rule="evenodd" d="M40.0997 92.5995L0.0996094 69.6397V23.5594L40.0997 0.599609L80.0996 23.5594V69.4791L40.0997 92.5995ZM2.03511 68.5158L40.0997 90.3517L78.1641 68.5158V24.6834L40.0997 2.84743L2.03511 24.6834V68.5158ZM54.4542 71.8881H47.5188L47.5181 71.8875H20.4219V70.4425H20.422V58.5618L19.293 57.4379V36.2442V28.2163L20.7445 26.9319L20.7446 26.9318L23.6478 24.0418H23.7029L24.7789 23.0778H39.4548L39.6155 22.9178H48.9704L50.0994 24.0418H59.9381V33.9964L59.9375 33.997H59.9399V61.613H59.9381V66.2686L54.4542 71.8881ZM48.164 70.4431H53.8091L58.3252 65.9475V62.2546L57.1962 61.1307V34.6386L58.3252 33.5147V25.6473H49.4543L48.3252 24.5234H40.2607L39.1316 25.6473H24.2929L22.0349 27.8952V35.7625L20.9059 36.8864V56.7957L22.0349 57.9196V69.1586H47.1962L48.164 70.4431ZM39.2283 43.7001C39.1914 43.6282 39.1593 43.5508 39.1318 43.4687C38.9705 42.8265 39.2931 42.3448 39.777 42.1843C40.2609 42.0237 40.906 42.3448 41.0673 42.8265C41.0971 42.9451 41.1104 43.0581 41.1092 43.1647L45.5954 46.6772C45.704 46.6509 45.8079 46.6383 45.9065 46.6378L48.9369 42.6156C48.8875 42.0802 49.1897 41.6853 49.6187 41.543C50.2151 41.3946 50.6736 41.6577 50.867 42.0789L53.9694 42.6671L53.8082 43.7911L50.642 43.218C50.5356 43.3329 50.4068 43.4223 50.2639 43.4697C50.1026 43.6302 50.1026 43.6302 49.9413 43.6302C49.8902 43.6302 49.8409 43.6267 49.7933 43.6197L46.9029 47.456C46.9905 48.0308 46.6802 48.4571 46.2307 48.6063C46.0694 48.7669 46.0694 48.7669 45.9081 48.7669C45.4242 48.7669 45.1017 48.4457 44.9404 47.9641C44.9238 47.898 44.9123 47.8337 44.9056 47.7713L40.3277 44.187C40.2826 44.2176 40.2253 44.2491 40.1648 44.2635L36.5552 50.875C36.7044 51.5068 36.3836 51.9799 35.905 52.1387C35.7437 52.2993 35.5824 52.2992 35.5824 52.2992C35.0985 52.2992 34.7759 51.9781 34.6147 51.4965C34.6103 51.4878 34.6062 51.4792 34.6024 51.4706L32.07 50.2781C32.0117 50.3165 31.9496 50.3477 31.8845 50.3702L31.8741 50.3957C31.8707 50.4278 31.8598 50.4524 31.8432 50.4713L30.2548 54.3645L30.2626 54.387C30.4239 54.8687 30.1014 55.5109 29.6175 55.6715C29.4562 55.832 29.4562 55.832 29.2949 55.832L29.2771 55.8319L29.2567 55.8314L29.2394 55.8306L27.3883 58.2401L26.3633 57.4598L28.3059 54.931C28.1996 54.3381 28.5134 53.8971 28.9723 53.7448C29.025 53.7317 29.0767 53.7218 29.1272 53.7149L30.6686 49.9369C30.6371 49.8723 30.6092 49.8036 30.5849 49.7311C30.4236 49.0889 30.7463 48.6072 31.2301 48.4467C31.7061 48.2887 32.3381 48.5969 32.5121 49.0655L35.0254 50.249C35.0935 50.2243 35.1705 50.212 35.2599 50.212C35.3364 50.1739 35.4129 50.1539 35.4873 50.1455L39.2283 43.7001ZM39.9382 43.1476C39.9382 43.1476 39.9383 42.9871 40.0996 42.9871C40.1802 43.0673 40.2206 43.1075 40.2206 43.1476C40.2206 43.1878 40.1802 43.2279 40.0996 43.3082L39.9382 43.1476ZM29.1336 54.7081C29.1336 54.7081 29.1336 54.5476 29.2949 54.5476C29.4562 54.7081 29.4562 54.8687 29.2949 54.8687L29.1336 54.7081ZM35.5824 51.0148C35.4211 51.0148 35.4211 51.1753 35.4211 51.1753L35.5824 51.3359C35.5824 51.3359 35.7436 51.1753 35.5824 51.0148ZM49.7801 42.5063C49.7801 42.5063 49.78 42.3458 49.9413 42.3458C50.1026 42.5063 49.9413 42.6669 49.9413 42.6669L49.7801 42.5063ZM46.0694 47.6429H45.9081H45.7468L45.7917 47.6876C45.7468 47.7351 45.7468 47.8035 45.7468 47.8035L45.8275 47.7232L45.9081 47.8035C45.9889 47.8035 46.0292 47.8035 46.0493 47.7833C46.0694 47.7633 46.0694 47.7231 46.0694 47.643V47.6429ZM45.8275 47.7232L45.7917 47.6876C45.8155 47.6623 45.8521 47.6429 45.9081 47.6429L45.8275 47.7232ZM31.3914 49.41C31.3914 49.41 31.3913 49.2495 31.5526 49.2495C31.7139 49.41 31.7139 49.5706 31.5526 49.5706L31.3914 49.41Z" fill="#0A202C"/>
</svg>
