<svg width="80" height="93" viewBox="0 0 80 93" fill="none" xmlns="http://www.w3.org/2000/svg">
<path fill-rule="evenodd" clip-rule="evenodd" d="M40 92.2003L0 69.2002V23.2002L40 0.200195L80 23.2002V69.2002L40 92.2003ZM1.93549 68.0744L40 89.9485L78.0646 68.0744V24.3261L40 2.45195L1.93549 24.3261V68.0744ZM18.0625 48.452V42.8226H37.5182C39.7961 36.1782 46.111 31.4021 53.5468 31.4021C62.9017 31.4021 70.4823 38.9615 70.4823 48.2902C70.321 57.6189 62.7404 65.1783 53.5468 65.1783C52.3932 65.1783 51.2667 65.0634 50.1779 64.8443L18.0625 64.6968V53.2772H12.5796C10.6442 53.2772 9.03125 52.1513 9.03125 50.8646C9.03125 49.5779 10.6442 48.452 12.5796 48.452H18.0625ZM44.7917 62.7502C39.8882 59.7921 36.6113 54.4235 36.6113 48.2902C36.6113 47.1338 36.7278 46.0045 36.9497 44.9135H20.3206V62.6058L44.7917 62.7502ZM18.0625 49.8995H12.5796C11.7732 49.8995 11.128 50.3821 11.128 50.8646C11.128 51.3471 11.7732 51.8296 12.5796 51.8296H18.0625V49.8995ZM23.3873 39.7657C23.0648 39.7657 22.7422 39.444 22.7422 39.1224C22.7422 37.514 23.5486 36.7098 24.1938 36.0664C24.839 35.4231 25.3228 34.9405 25.3228 33.8147C25.3228 32.6888 24.839 32.2063 24.1938 31.5629C23.5486 30.9196 22.7422 30.1154 22.7422 28.507C22.7422 26.8986 23.5486 26.0944 24.1938 25.451C24.839 24.8077 25.3228 24.3251 25.3228 23.1993C25.3228 22.8776 25.6454 22.5559 25.968 22.5559C26.2906 22.5559 26.6132 22.8776 26.6132 23.1993C26.6132 24.8077 25.8067 25.6119 25.1615 26.2552C24.5164 26.8986 24.0325 27.3811 24.0325 28.507C24.0325 29.6328 24.5164 30.1154 25.1615 30.7587C25.8067 31.4021 26.6132 32.2063 26.6132 33.8147C26.6132 35.4231 25.8067 36.2273 25.1615 36.8706C24.5164 37.514 24.0325 37.9965 24.0325 39.1224C24.0325 39.444 23.7099 39.7657 23.3873 39.7657ZM28.3867 39.1224C28.3867 39.444 28.7093 39.7657 29.0319 39.7657C29.3545 39.7657 29.5158 39.444 29.677 39.1224C29.677 37.9965 30.1609 37.514 30.8061 36.8706C31.4512 36.2273 32.2577 35.4231 32.2577 33.8147C32.2577 32.2063 31.4512 31.4021 30.8061 30.7587C30.1609 30.1154 29.677 29.6328 29.677 28.507C29.677 27.3811 30.1609 26.8986 30.8061 26.2552C31.4512 25.6119 32.2577 24.8077 32.2577 23.1993C32.2577 22.8776 31.9351 22.5559 31.6125 22.5559C31.2899 22.5559 30.9674 22.8776 30.9674 23.1993C30.9674 24.3251 30.4835 24.8077 29.8383 25.451C29.1932 26.0944 28.3867 26.8986 28.3867 28.507C28.3867 30.1154 29.1932 30.9196 29.8383 31.5629C30.4835 32.2063 30.9674 32.6888 30.9674 33.8147C30.9674 34.9405 30.4835 35.4231 29.8383 36.0664C29.1932 36.7098 28.3867 37.514 28.3867 39.1224ZM34.8366 39.7657C34.514 39.7657 34.1914 39.444 34.1914 39.1224C34.1914 37.514 34.9979 36.7098 35.643 36.0664C36.2882 35.4231 36.772 34.9405 36.772 33.8147C36.772 32.6888 36.2882 32.2063 35.643 31.5629C34.9979 30.9196 34.1914 30.1154 34.1914 28.507C34.1914 26.8986 34.9979 26.0944 35.643 25.451C36.2882 24.8077 36.772 24.3251 36.772 23.1993C36.772 22.8776 37.0946 22.5559 37.4172 22.5559C37.7398 22.5559 38.0624 22.8776 38.0624 23.1993C38.0624 24.8077 37.2559 25.6119 36.6108 26.2552C35.9656 26.8986 35.4817 27.3811 35.4817 28.507C35.4817 29.6328 35.9656 30.1154 36.6108 30.7587C37.2559 31.4021 38.0624 32.2063 38.0624 33.8147C38.0624 35.4231 37.2559 36.2273 36.6108 36.8706C35.9656 37.514 35.4817 37.9965 35.4817 39.1224C35.3204 39.444 35.1591 39.7657 34.8366 39.7657ZM37.9016 48.2902C37.9016 39.6049 44.9984 32.6888 53.5468 32.6888C62.0952 32.6888 69.192 39.6049 69.192 48.2902C69.192 56.9755 62.0952 63.8916 53.5468 63.8916C44.8371 63.8916 37.9016 56.9755 37.9016 48.2902ZM53.5479 62.2845C45.806 62.2845 39.5156 56.0117 39.5156 48.2915C39.5156 40.5712 45.806 34.2984 53.5479 34.2984C61.2898 34.2984 67.5802 40.5712 67.5802 48.2915C67.5802 56.0117 61.2898 62.2845 53.5479 62.2845ZM53.5479 35.1026C46.2898 35.1026 40.3221 41.0537 40.3221 48.2915C40.3221 55.5292 46.2898 61.4803 53.5479 61.4803C60.806 61.4803 66.7737 55.5292 66.7737 48.2915C66.7737 41.0537 60.806 35.1026 53.5479 35.1026ZM53.7106 52.9555C52.9041 52.9555 52.0977 52.3121 52.0977 51.3471V46.0394C52.0977 45.2352 52.7428 44.431 53.7106 44.431C54.517 44.431 55.3235 45.0744 55.3235 46.0394V51.3471C55.1622 52.3121 54.517 52.9555 53.7106 52.9555ZM53.7106 45.5569C53.388 45.5569 53.2267 45.7177 53.2267 46.0394V51.3471C53.2267 51.6688 53.388 51.8296 53.7106 51.8296C54.0331 51.8296 54.1944 51.6688 54.1944 51.3471V46.0394C54.1944 45.8786 53.8718 45.5569 53.7106 45.5569ZM46.7734 48.6125C46.7734 52.4726 49.838 55.5286 53.7089 55.5286C57.4186 55.5286 60.6444 52.4726 60.6444 48.6125C60.6444 44.7524 57.5799 41.6964 53.7089 41.6964C49.838 41.6964 46.7734 44.7524 46.7734 48.6125ZM48.0638 48.6125C48.0638 45.5566 50.6444 42.9831 53.7089 42.9831C56.7734 42.9831 59.3541 45.5566 59.3541 48.6125C59.3541 51.6685 56.7734 54.2419 53.7089 54.2419C50.6444 54.2419 48.0638 51.6685 48.0638 48.6125Z" fill="#0A202C"/>
</svg>
