<svg width="80" height="92" viewBox="0 0 80 92" fill="none" xmlns="http://www.w3.org/2000/svg">
<path fill-rule="evenodd" clip-rule="evenodd" d="M0 69L40 92L80 69V23L40 0L0 23V69ZM40 89.9091L1.93548 68.035V24.1259L40 2.25175L78.0645 24.1259V68.035L40 89.9091ZM51.6149 43.8284C51.7359 43.8686 51.8569 43.9088 51.9375 43.9088C51.9686 43.9088 52.0056 43.9028 52.044 43.8966C52.2051 43.8707 52.3903 43.8409 52.2601 44.2305L56.6149 39.8878C56.6149 39.8074 56.6552 39.6867 56.6956 39.5661L56.6956 39.5661C56.7359 39.4455 56.7762 39.3248 56.7762 39.2444C56.7762 39.1839 56.7762 39.1291 56.7751 39.0789L56.937 38.9231C57.0983 38.7622 57.0983 38.4406 56.937 38.2797C50.6838 32.044 41.5825 30.2837 33.7368 33.0617C30.7939 33.996 28.0056 35.5492 25.5771 37.7278L21.5427 33.7047C32.526 23.6485 49.9213 24.0451 60.4859 34.5801C60.5665 34.5801 60.6875 34.6203 60.8085 34.6605C60.9294 34.7007 61.0504 34.7409 61.1311 34.7409C61.4536 34.7409 61.6149 34.7409 61.7762 34.5801C61.7762 34.4997 61.8165 34.3791 61.8569 34.2584C61.8827 34.181 61.9086 34.1036 61.9238 34.0368C61.9904 34.0172 62.0512 33.984 62.0983 33.9371C62.2596 33.7762 62.2596 33.4545 62.0983 33.2937C58.3721 29.6295 53.9152 27.1411 49.202 25.8283C39.0749 22.8445 27.6623 25.3328 19.6794 33.2934C19.3569 33.6151 19.3569 34.0976 19.6794 34.4193L24.8407 39.5661C24.9214 39.5661 25.0423 39.6063 25.1633 39.6465L25.1633 39.6465C25.2843 39.6867 25.4052 39.727 25.4859 39.727C25.8085 39.727 25.9698 39.727 26.1311 39.5661C34.0343 31.685 46.9375 31.3633 55.1633 38.9228L52.094 41.9835C45.6251 35.8686 35.5384 35.9742 29.1945 42.3004C29.1945 42.3808 29.1542 42.5014 29.1138 42.6221C29.0735 42.7427 29.0332 42.8633 29.0332 42.9437C29.0332 43.1322 29.0886 43.2654 29.1344 43.3758C29.1404 43.3903 29.1463 43.4044 29.1518 43.4182C29.1586 43.439 29.1662 43.4596 29.1748 43.48C29.1868 43.5168 29.1945 43.552 29.1945 43.5871L33.6677 48.0478C33.6807 48.0627 33.6944 48.0773 33.7087 48.0915L33.7116 48.0916C33.9654 48.3439 34.3186 48.3975 34.6147 48.2524H34.8378C38.0636 45.0356 43.5474 45.0356 46.7732 48.2524C47.0958 48.5741 47.5797 48.5741 47.9023 48.2524C47.9023 48.172 47.9426 48.0514 47.9829 47.9308L47.9829 47.9307C48.0232 47.8101 48.0636 47.6894 48.0636 47.609C48.0636 47.5096 48.0636 47.4255 48.0588 47.3521C48.063 47.3282 48.0655 47.3061 48.0655 47.2864C48.0655 46.9647 48.0655 46.8039 47.9042 46.643C44.1945 42.9437 38.2268 42.7829 34.1945 46.1605L31.1416 43.1161C36.8332 37.966 45.7054 38.1766 51.2923 43.7479C51.373 43.7479 51.494 43.7881 51.6149 43.8284ZM52.4205 69.8042C50.3237 69.8042 48.7108 68.3566 48.5495 66.4266H30.9689C30.6463 68.3566 29.0334 69.8042 27.0979 69.8042C25.1624 69.8042 23.3882 68.3566 23.2269 66.4266H20.8076C20.485 66.4266 20.1624 66.2657 20.0011 65.9441C19.8398 65.6224 19.8398 65.3007 19.8398 64.979C19.8398 64.8182 21.614 59.6713 25.1624 58.3846C28.0656 57.2587 29.6786 56.1329 31.1302 55.007C33.2269 53.3986 35.3237 51.951 40.0011 51.6294C42.0979 51.4685 44.3559 51.4685 46.7752 51.4685H46.7753C49.5173 51.4685 52.2592 52.5944 54.1947 54.5245L59.8398 59.993C60.0011 60.1538 60.1624 60.4755 60.1624 60.6364V65.3007C60.1624 65.7832 59.6786 66.2657 59.1947 66.2657H56.614C56.1302 68.1958 54.356 69.8042 52.4205 69.8042ZM30.0011 64.3357H49.5173C49.8398 64.3357 50.1624 64.4965 50.3237 64.6573C50.485 64.8182 50.6463 65.1399 50.485 65.4615V65.7832C50.485 66.9091 51.4527 67.7133 52.4205 67.7133C53.5495 67.7133 54.356 66.7483 54.356 65.7832V65.4615C54.356 65.1399 54.356 64.8182 54.5173 64.6573C54.6785 64.4965 55.0011 64.3357 55.3237 64.3357H57.9044V61.1189L52.5818 55.972C50.9689 54.3636 48.7108 53.5594 46.4527 53.3986H46.4526C44.0333 53.3986 41.7753 53.3986 39.8398 53.5594C35.8076 53.8811 34.1947 55.007 32.0979 56.6154L31.8877 56.7623C30.3292 57.8522 28.5783 59.0767 25.6463 60.1539C24.0334 60.7972 22.7431 62.7273 22.0979 64.1748H24.1947C24.5173 64.1748 24.8398 64.3357 25.0011 64.4965C25.1624 64.6573 25.3237 64.979 25.1624 65.3007V65.6224C25.1624 66.7483 26.1302 67.5525 27.0979 67.5525C28.0656 67.5525 29.0334 66.5874 29.0334 65.6224V65.3007C29.0334 64.979 29.0334 64.6573 29.1947 64.4965C29.2615 64.4965 29.356 64.4689 29.4667 64.4366C29.6232 64.3909 29.8122 64.3357 30.0011 64.3357ZM40.8051 62.5667C38.8696 62.5667 37.418 61.1192 37.418 59.1891C37.418 57.2591 38.8696 55.8115 40.8051 55.8115C42.7405 55.8115 44.1922 57.2591 44.1922 59.1891C44.1922 61.1192 42.5793 62.5667 40.8051 62.5667ZM40.8051 57.4199C39.8373 57.4199 39.0309 58.2241 39.0309 59.1891C39.0309 60.1542 39.8373 60.9584 40.8051 60.9584C41.7728 60.9584 42.5793 60.1542 42.5793 59.1891C42.5793 58.2241 41.7728 57.4199 40.8051 57.4199Z" fill="white"/>
</svg>
