<svg width="81" height="92" viewBox="0 0 81 92" fill="none" xmlns="http://www.w3.org/2000/svg">
<path fill-rule="evenodd" clip-rule="evenodd" d="M40.5999 92.0001L0.599609 69.0001V23L40.5999 0L80.6001 23V69.0001L40.5999 92.0001ZM2.53511 68.035L40.5999 89.9092L78.6646 68.035V24.1259L40.5999 2.25175L2.53511 24.1259V68.035ZM44.4696 26.3783C45.8949 26.3783 47.0503 25.2262 47.0503 23.8049C47.0503 22.3836 45.8949 21.2315 44.4696 21.2315C43.0444 21.2315 41.889 22.3836 41.889 23.8049C41.889 25.2262 43.0444 26.3783 44.4696 26.3783ZM36.5675 49.6987C35.4405 49.8111 34.471 50.4732 33.9891 51.4106V41.9793C33.9891 41.6576 34.1504 41.1751 34.3117 41.0143C34.473 40.8534 34.7956 40.6926 35.2795 40.6926C35.9246 40.6926 36.5698 40.8534 36.5698 41.9793V49.6986L36.5675 49.6987ZM35.4408 55.4898L35.471 55.4898C35.754 55.5924 36.0657 55.6497 36.4062 55.6497H40.1159L44.4708 60.4749C45.0635 61.0659 45.7922 61.5212 46.6571 61.5914L44.7669 63.8532H34.8327L30.278 57.9017V55.0763C30.4995 55.1358 30.7201 55.1681 30.9246 55.1681H31.0859C31.8923 55.1681 32.5375 54.6856 33.0214 54.2031C33.102 54.2835 33.1423 54.3639 33.1827 54.4444C33.223 54.5248 33.2633 54.6052 33.344 54.6856C33.8278 55.1681 34.473 55.4898 35.2795 55.4898H35.4408ZM33.8244 64.7147L28.9877 58.3842L28.9408 54.3152C28.4944 53.8593 28.3439 53.5433 28.3439 53.0772V44.5527C28.3439 43.9094 28.5052 43.4269 28.9891 42.9443C29.3117 42.4618 29.9569 42.1402 30.9246 42.1402C31.7311 42.1402 32.2149 42.301 32.6988 42.6227V41.9793C32.6988 41.1751 32.8601 40.5318 33.344 40.0492C33.6666 39.7276 34.3117 39.4059 35.2795 39.4059C36.2472 39.4059 36.8924 39.7276 37.3763 40.2101V39.4059C37.3763 38.6017 37.5375 37.9583 38.0214 37.4758C38.0919 37.429 38.1624 37.3787 38.2348 37.327L38.235 37.3269C38.6601 37.0237 39.1537 36.6716 40.1182 36.6716C41.086 36.6716 41.5698 36.8325 42.0537 37.315V35.4661C36.6454 34.4628 32.5373 29.7449 32.5373 23.965C32.5373 17.3706 37.8599 12.0629 44.4729 12.0629C51.0858 12.0629 56.4085 17.3706 56.2472 23.965C56.2472 29.6872 52.2208 34.5171 46.8925 35.5951V44.7266L49.6844 54.7496C50.0532 55.1046 50.2773 55.3281 50.2773 55.3281C50.8701 55.9931 50.9182 56.8617 50.6719 57.7157L50.9233 58.3842L45.4374 64.7665V66.9081H46.731V76.5584H32.5373V66.9081H33.8244V64.7147ZM35.1148 66.9081H44.147V65.1399H35.1148V66.9081ZM46.8925 34.6008C51.7406 33.3957 55.4407 29.0493 55.4407 23.965C55.4407 17.8531 50.4407 13.0279 44.4729 13.0279C38.3438 13.0279 33.5051 18.0139 33.5051 23.965C33.5051 29.1055 37.1361 33.3409 42.0537 34.4792V31.2252C39.0564 30.2506 36.7288 27.3253 36.7288 23.9648C36.7288 19.6221 40.2772 16.2445 44.4708 16.2445C48.6643 16.2445 52.0514 19.6221 51.8902 23.9648C51.8902 27.2146 49.8494 30.0574 46.8925 31.1226V34.6008ZM37.6965 23.9648C37.6965 26.8409 39.5538 29.1472 42.0583 30.0791C42.1373 28.7089 43.2304 27.6646 44.4731 27.6646C45.6772 27.6646 46.7408 28.645 46.8776 29.9523C49.2202 28.9493 50.9224 26.7182 50.9224 23.9648C50.9224 20.2655 48.0192 17.3704 44.3095 17.3704C40.5998 17.3704 37.6965 20.4263 37.6965 23.9648ZM45.7599 45.5183L47.8083 53.0082C46.7517 52.0656 45.5522 51.0675 44.6321 50.5029C44.6321 50.5029 44.4708 50.342 44.3095 50.342C43.8588 49.8926 43.2682 49.5827 42.5376 49.5423V45.5183H45.7599ZM43.1827 44.0754C44.1946 44.0836 44.9189 44.1024 45.4408 44.1318V30.3989C45.4408 29.7555 44.9569 29.1122 44.3118 29.1122C43.6666 29.1122 43.1827 29.7555 43.1827 30.3989V44.0754ZM41.2473 39.4059V49.5691L38.5053 49.645V39.245C38.5053 38.9234 38.5053 38.4408 38.8279 38.28C39.1505 37.9583 39.473 37.9583 39.9569 37.9583C40.9247 37.9583 41.2473 38.4408 41.2473 39.4059ZM31.0859 53.8814C31.8923 53.8814 32.3762 53.2381 32.3762 53.0772V44.5527C32.3762 43.7485 32.0536 43.4269 31.0859 43.4269C30.602 43.4269 30.1181 43.5877 29.9569 43.7485C29.7956 43.9094 29.6343 44.0702 29.6343 44.3919V53.0772C29.6343 53.3989 30.2794 53.8814 31.0859 53.8814ZM45.5999 59.8316C45.9224 60.1532 46.4063 60.4749 46.8902 60.4749C47.3741 60.4749 48.0192 60.3141 48.3418 59.9924C49.3096 59.0274 50.2773 57.419 49.6321 56.7756C49.6321 56.7756 46.245 53.2372 44.1482 52.1113C44.1206 52.1113 44.0929 52.1066 44.0653 52.0987L41.5302 55.638L45.5999 59.8316ZM40.2372 54.8455L42.8496 51.3721C42.7075 51.3288 42.5516 51.3071 42.374 51.3071L36.5675 51.4679C35.5998 51.4679 34.9546 52.2721 34.9546 53.2372C34.9546 53.7197 35.1159 54.0414 35.4385 54.363C35.7611 54.6847 36.0837 54.8455 36.4062 54.8455H40.2372ZM33.8276 75.2717H45.4406V68.1948H33.8276V75.2717Z" fill="white"/>
</svg>
