<svg width="81" height="92" viewBox="0 0 81 92" fill="none" xmlns="http://www.w3.org/2000/svg">
<path fill-rule="evenodd" clip-rule="evenodd" d="M40.9004 92.0001L0.900391 69.0001V23L40.9004 0L80.9004 23V69.0001L40.9004 92.0001ZM2.8359 68.035L40.9004 89.9092L78.9649 68.035V24.1259L40.9004 2.25175L2.8359 24.1259V68.035ZM34.45 41.3349H31.8657V43.2658C32.027 44.2308 31.2206 45.035 30.0915 45.035H28.9632V59.8325C28.9632 61.9234 30.7375 63.6926 32.8342 63.6926H35.7374C37.8342 63.6926 39.6084 61.9234 39.6084 59.8325V34.9024C39.6084 30.8814 42.8342 27.6646 46.8665 27.6646H49.2858C53.3181 27.6646 56.5439 30.8814 56.5439 34.9024V36.618C58.5066 37.2929 59.9336 39.1616 59.9336 41.3352V55.6499C59.9336 57.8231 58.5073 59.6914 56.5453 60.3667V71.8943H53.1582V60.3071C51.2811 59.5864 49.9336 57.7621 49.9336 55.6499V41.3352C49.9336 39.2236 51.2804 37.3997 53.1568 36.6786V34.9024C53.1568 32.8115 51.3826 31.0422 49.2858 31.0422H46.8665C44.7697 31.0422 42.9955 32.8115 42.9955 34.9024V59.8325C42.9955 63.8534 39.7697 67.0702 35.7374 67.0702H32.8342C28.802 67.0702 25.5762 63.8534 25.5762 59.8325V45.035H24.1238C23.156 45.035 22.3496 44.2308 22.3496 43.2658V41.3349H19.9339C18.8049 41.3349 17.6758 40.3699 17.6758 39.0831V30.7195H21.2227V28.4684V25.0908V24.9301H33.1581V25.0908V28.4684V30.7195H36.5468V39.0831C36.5468 40.3699 35.5791 41.3349 34.45 41.3349ZM55.2536 34.9024V36.3595C55.1477 36.3527 55.041 36.3492 54.9336 36.3492C54.7696 36.3492 54.6073 36.3573 54.4471 36.373V34.9024C54.4471 32.0073 52.1891 29.7555 49.2858 29.7555H46.8665C43.9632 29.7555 41.7052 32.0073 41.7052 34.9024V59.8325C41.7052 63.0492 39.1245 65.7835 35.7374 65.7835H32.8342C29.6084 65.7835 26.8665 63.2101 26.8665 59.8325V45.0352H27.6729V59.8325C27.6729 62.7276 29.931 64.9793 32.8342 64.9793H35.7374C38.6407 64.9793 40.8988 62.7276 40.8988 59.8325V34.9024C40.8988 31.6856 43.4794 28.9513 46.8665 28.9513H49.2858C52.5116 28.9513 55.2536 31.5247 55.2536 34.9024ZM54.9336 60.636C55.0415 60.636 55.1487 60.6325 55.255 60.6256V70.6076H54.4486V60.6123C54.6083 60.628 54.7701 60.636 54.9336 60.636ZM32.0291 27.1817V26.2168H22.513V27.1817H32.0291ZM22.513 28.4684H32.0291V30.7195H22.513V28.4684ZM30.5754 41.3349H23.6399V43.2658C23.6399 43.5874 23.8012 43.7483 24.1238 43.7483H30.0915C30.4141 43.7483 30.5754 43.5874 30.5754 43.2658V41.3349ZM19.2887 32.3279V39.0831C19.2887 39.4048 19.6113 39.7265 19.9339 39.7265H34.45C34.7726 39.7265 35.0952 39.4048 35.0952 39.0831V32.3279H19.2887ZM54.9336 38.1185C53.1594 38.1185 51.7078 39.566 51.7078 41.3352V55.6499C51.7078 57.4192 53.1594 58.8667 54.9336 58.8667C56.7078 58.8667 58.1594 57.4192 58.1594 55.6499V41.3352C58.1594 39.566 56.7078 38.1185 54.9336 38.1185ZM56.5461 41.9786C56.5461 42.8669 55.824 43.587 54.9332 43.587C54.0424 43.587 53.3203 42.8669 53.3203 41.9786C53.3203 41.0903 54.0424 40.3702 54.9332 40.3702C55.824 40.3702 56.5461 41.0903 56.5461 41.9786ZM54.9332 56.6158C55.824 56.6158 56.5461 55.8957 56.5461 55.0075C56.5461 54.1192 55.824 53.3991 54.9332 53.3991C54.0424 53.3991 53.3203 54.1192 53.3203 55.0075C53.3203 55.8957 54.0424 56.6158 54.9332 56.6158ZM56.5461 48.4117C56.5461 49.3 55.824 50.0201 54.9332 50.0201C54.0424 50.0201 53.3203 49.3 53.3203 48.4117C53.3203 47.5234 54.0424 46.8033 54.9332 46.8033C55.824 46.8033 56.5461 47.5234 56.5461 48.4117Z" fill="white"/>
</svg>
