<svg width="81" height="92" viewBox="0 0 81 92" fill="none" xmlns="http://www.w3.org/2000/svg">
<path fill-rule="evenodd" clip-rule="evenodd" d="M40.6995 92.0001L0.699219 69.0001V23L40.6995 0L80.6998 23V69.0001L40.6995 92.0001ZM2.63471 68.035L40.6995 89.9092L78.7643 68.035V24.1259L40.6995 2.25175L2.63471 24.1259V68.035ZM54.2196 29.4331C53.9992 27.7497 52.6338 26.5388 50.8636 26.5388V33.2941C52.6344 33.2941 54.0002 32.0824 54.2198 30.3981H63.2817V29.4331H54.2196ZM25.5704 29.4331C25.7907 27.7497 27.1562 26.5388 28.9263 26.5388V33.2941C27.1556 33.2941 25.7898 32.0824 25.5702 30.3981H16.6681V29.4331H25.5704ZM31.0212 68.1964L30.5373 69.1615H51.5052L51.0213 68.1964H31.0212ZM31.0212 73.0208L30.5373 72.0557H51.5052L51.0213 73.0208H31.0212ZM30.3772 70.4474V71.0908H51.8289V70.4474V69.9649H30.3772V70.4474ZM47.4748 66.2663C48.6038 66.2663 49.4103 66.588 50.2167 67.2313H31.6682C32.4746 66.588 33.4424 66.2663 34.4102 66.2663H37.28C37.3606 65.9722 37.4798 65.6977 37.6376 65.4617C38.6053 64.175 41.0247 64.0141 43.444 63.8533H43.4441C46.5086 63.6924 48.6054 63.3708 48.6054 62.084C48.6054 61.7624 48.4441 61.6015 48.2828 61.4407C47.3151 60.4757 43.7667 60.6365 41.0247 60.7973C40.8367 60.8058 40.6524 60.8144 40.4717 60.8227C37.2407 60.972 35.1669 61.0679 34.2504 60.154C33.9279 59.8323 33.7666 59.5106 33.7666 59.0281V58.8673C34.0862 57.1141 35.8312 56.9402 37.4323 56.7807L37.4763 56.7763C37.7426 56.7763 37.9601 56.7276 38.1557 56.6838C38.3153 56.648 38.4603 56.6155 38.6053 56.6155C39.0892 56.4547 39.2505 56.133 39.2505 55.9722L39.0892 55.8113C39.0841 55.8063 39.0766 55.7989 39.0666 55.7892C38.7591 55.4889 36.186 52.9764 36.186 49.8603C36.186 49.619 36.2263 49.418 36.2666 49.2169C36.3069 49.0159 36.3472 48.8148 36.3472 48.5735C36.1859 48.091 36.0247 47.4477 36.0247 46.9652V44.2309H30.0568V36.0278H16.6681V35.0628H30.0568V22.8393H49.5731V35.0628H63.1185V36.0278H49.5731V44.3917H43.6053V47.126C43.6053 47.7693 43.4441 48.2519 43.2828 48.7344C43.4441 49.2169 43.4441 49.5386 43.4441 50.0211C43.4441 52.5945 41.8312 54.6854 41.0247 55.4896C41.0732 55.5622 41.129 55.6347 41.1861 55.7089C41.5085 56.1282 41.8712 56.5998 41.186 57.4197C40.3795 57.9022 39.2505 58.0631 38.1214 58.2239C36.8311 58.3847 35.8633 58.5456 35.7021 59.0281C36.3472 59.6715 39.2505 59.5106 41.5086 59.3498C44.8957 59.1889 48.4441 59.0281 49.8957 60.3148C50.2183 60.7973 50.5409 61.2799 50.057 61.9232C50.057 64.4874 47.0782 64.7883 44.1802 65.0812C43.9879 65.1006 43.796 65.12 43.6053 65.14C43.5411 65.1453 43.4765 65.1507 43.4116 65.156C41.5217 65.3122 39.3903 65.4884 38.7666 66.2659C38.7665 66.266 38.7664 66.2662 38.7664 66.2663H47.4748ZM31.9905 73.8261C32.6356 74.3087 33.6034 74.7912 34.5711 74.7912H47.6357C48.6035 74.7912 49.5712 74.4695 50.2164 73.8261H31.9905ZM32.3149 41.9791C32.3149 42.14 32.3149 42.14 32.4762 42.14H47.9602C48.1215 42.14 48.1215 42.14 48.1215 41.9791V24.6085C48.1215 24.4477 48.1215 24.4477 47.9602 24.4477H32.4762C32.3149 24.4477 32.3149 24.4477 32.3149 24.6085V41.9791Z" fill="white"/>
</svg>
