<svg width="80" height="93" viewBox="0 0 80 93" fill="none" xmlns="http://www.w3.org/2000/svg">
<path fill-rule="evenodd" clip-rule="evenodd" d="M40 92.9003L0 69.9405V23.8602L40 0.900391L80 23.8602V69.7799L40 92.9003ZM1.93548 68.8166L40 90.6525L78.0645 68.8166V24.9841L40 3.14821L1.93548 24.9841V68.8166ZM58.0634 72.3488H22.0957V22.5758H58.0634V72.3488ZM24.3538 70.101H55.9667V24.8236H24.3538V70.101ZM25.6465 63.3576H54.5174V26.5897H25.6465V63.3576ZM53.3884 62.2337H26.7755V27.5531H53.3884V62.2337ZM40.1615 69.1377C38.8712 69.1377 37.7422 68.0138 37.7422 66.7293C37.7422 65.4448 38.8712 64.3209 40.1615 64.3209C41.4519 64.3209 42.5809 65.4448 42.5809 66.7293C42.5809 68.1743 41.4519 69.1377 40.1615 69.1377ZM40.1615 65.6054C39.5164 65.6054 38.8712 66.2476 38.8712 66.8899C38.8712 67.5321 39.5164 68.1743 40.1615 68.1743C40.8067 68.1743 41.4519 67.5321 41.4519 66.8899C41.4519 66.0871 40.8067 65.6054 40.1615 65.6054ZM45.9681 38.7918C46.7745 42.9664 42.9035 44.0903 42.9035 44.0903C42.9035 44.0903 47.2584 45.2142 46.7745 49.7098C46.4519 52.5999 43.71 54.0449 40.9681 54.366V56.2927H38.3874V54.5266C37.9035 54.5266 37.581 54.5266 37.2584 54.366V56.4533H34.6777V33.4934H37.2584V35.2596H38.3874V33.4934H40.9681V35.4201C43.0648 35.7412 45.4842 36.544 45.9681 38.7918ZM43.71 40.2369C43.71 37.5074 41.1293 37.3468 41.1293 37.3468H37.4197L37.581 43.2875H41.4519C41.4519 43.2875 43.5487 42.9664 43.71 40.2369ZM37.4197 52.2787H40.9681C40.9681 52.2787 44.5164 52.1182 44.5164 48.907C44.3552 45.5353 41.4519 45.2142 41.4519 45.2142H37.4197V52.2787Z" fill="white"/>
</svg>
