<svg width="81" height="92" viewBox="0 0 81 92" fill="none" xmlns="http://www.w3.org/2000/svg">
<path fill-rule="evenodd" clip-rule="evenodd" d="M40.0999 92.0001L0.0996094 69.0001V23L40.0999 0L80.1002 23V69.0001L40.0999 92.0001ZM2.0351 68.035L40.0999 89.9092L78.1647 68.035V24.1259L40.0999 2.25175L2.0351 24.1259V68.035ZM39.2954 69.8033L15.1017 59.5095L25.9082 54.8452L39.4567 60.4746L54.2955 54.8452L65.102 59.5095L39.2954 69.8033ZM19.134 59.3487L39.2954 68.034L60.9085 59.3487L54.1342 56.4536L39.2954 62.083L25.7469 56.4536L19.134 59.3487ZM14.9396 36.028L39.2946 45.6783L65.1012 35.3846L40.7462 24.9301L14.9396 36.028ZM39.4559 43.9091L36.266 42.6367L57.1385 33.5306L61.0689 35.2238L39.4559 43.9091ZM55.5965 32.8663L34.6651 41.9982L30.6705 40.4048L51.3436 31.0342L55.5965 32.8663ZM49.822 30.3788L29.0919 39.7751L24.4219 37.9124L45.7303 28.6161L49.822 30.3788ZM19.2944 35.8671L22.821 37.2738L44.1883 27.9518L40.9075 26.5385L19.2944 35.8671ZM39.1307 57.4195L39.292 57.5804L64.7761 47.4475L54.2921 42.944L39.292 48.4125L25.9048 42.944L15.5821 48.0909L39.1307 57.4195ZM39.292 56.1328L26.7702 51.1576L30.1008 49.3784L34.7782 52.1127L39.4557 49.7001L44.1331 52.1127L48.8106 49.3784L52.0239 51.0358L39.292 56.1328ZM29.9395 48.0917L25.3746 50.6032L22.1964 49.3404L20.4233 48.5742L20.3433 48.6041L18.6467 47.93L25.9048 44.3916L37.8838 49.1409L34.6169 50.8259L29.9395 48.0917ZM43.9719 50.8259L40.7541 49.1662L54.2921 44.2307L61.389 47.2867L53.168 50.5778L48.6493 48.0917L43.9719 50.8259ZM26.7133 60.9588C26.8746 61.1196 27.0359 61.1196 27.1972 61.1196C27.5256 61.1196 27.8541 61.0455 28.0817 60.7966L29.8129 61.4872C29.8207 61.934 30.1184 62.3342 30.5844 62.5666C30.7457 62.7274 30.907 62.7274 31.0683 62.7274C31.5522 62.7274 32.036 62.4057 32.1973 61.9232C32.5199 61.2798 32.1973 60.6365 31.5522 60.3148C31.0127 60.0458 30.4733 60.2267 30.1224 60.6693L28.4424 59.9513C28.5147 59.4394 28.2037 58.9676 27.681 58.707C27.0359 58.3853 26.3907 58.707 26.0681 59.3504C25.7456 59.9937 26.0681 60.6371 26.7133 60.9588ZM26.8746 59.8329C26.8746 59.672 27.0359 59.672 27.1972 59.672C27.5197 59.672 27.5198 59.8329 27.5198 60.1546C27.3585 60.3154 27.1972 60.3154 27.0359 60.3154C26.8746 60.1546 26.8746 59.9937 26.8746 59.8329ZM31.0683 61.119C30.907 61.119 30.7457 61.119 30.7457 61.2798V61.2799C30.7457 61.4407 30.7457 61.6015 30.907 61.7624C31.0683 61.7624 31.2296 61.7624 31.3909 61.6015C31.3909 61.4407 31.3909 61.2798 31.0683 61.119ZM37.3582 64.0036C37.3559 63.5269 37.1946 63.2087 36.8743 63.0491C36.5518 62.7274 36.2292 62.7274 35.9066 62.7274C35.2615 62.8882 34.7776 63.5316 34.7776 64.1749C34.7776 64.8183 35.4227 65.3008 36.0679 65.3008C36.3774 65.2391 36.6394 65.1063 36.8448 64.9388L39.293 65.944L41.9249 64.9234C42.1989 65.1598 42.5201 65.3015 42.8413 65.3015C43.0026 65.3015 43.1638 65.3015 43.1638 65.1407C43.4864 65.1407 43.6477 64.819 43.809 64.4973C43.9703 64.1756 43.9703 63.854 43.809 63.5323C43.809 63.2106 43.4864 63.0498 43.1638 62.8889C42.8413 62.7281 42.5187 62.7281 42.1961 62.8889C41.8735 62.8889 41.7122 63.2106 41.5509 63.5323C41.4419 63.7498 41.4066 63.9674 41.445 64.1849L39.4543 64.979L37.3582 64.0036ZM48.4869 62.567C48.6482 62.7278 48.8095 62.7278 48.9708 62.7278C49.132 62.7278 49.2933 62.7278 49.4546 62.4061C49.7772 62.4061 49.9385 62.0845 50.0998 61.7628C50.1471 61.6684 50.1806 61.574 50.2001 61.4796L51.9883 60.6475C52.2825 60.9394 52.6439 61.1189 53.0054 61.1189C53.1667 61.1189 53.328 61.1189 53.328 60.9581C53.6505 60.9581 53.8118 60.6364 53.9731 60.3148L53.9731 60.3147C54.1344 59.993 54.1344 59.6714 53.9731 59.3497C53.9731 59.028 53.6506 58.8672 53.328 58.7063C53.0054 58.5455 52.6828 58.5455 52.3602 58.7063C52.0376 58.7063 51.8764 59.028 51.7151 59.3497C51.6319 59.5155 51.5917 59.6813 51.5942 59.8471L49.9778 60.4919C49.8546 60.3538 49.6547 60.2541 49.4547 60.1544L49.4546 60.1544C49.132 59.9936 48.8095 59.9936 48.4869 60.1544C47.8417 60.4761 47.5191 61.2803 47.8417 61.9236C47.8417 62.2453 48.1643 62.4062 48.4869 62.567ZM48.6482 61.2803C48.6482 61.2803 48.8095 61.1194 48.9708 61.1194C49.2933 61.1194 49.2934 61.1194 49.2934 61.2803V61.602C49.2934 61.602 49.2933 61.7628 49.1321 61.7628H48.8095C48.8095 61.7628 48.6482 61.7628 48.6482 61.602V61.2803ZM42.8413 63.6931C42.68 63.6931 42.5187 63.854 42.5187 63.854V64.1756C42.5187 64.3365 42.8413 64.4973 43.0025 64.3365C43.1638 64.3365 43.1638 64.1756 43.1638 64.1756V63.854C43.1638 63.854 43.0026 63.6931 42.8413 63.6931ZM35.7453 63.8533C35.7453 63.6924 35.9066 63.5316 36.0679 63.5316L36.2292 63.6924C36.3905 63.6924 36.3905 63.6924 36.3905 63.8533C36.3905 64.0141 36.2292 64.1749 36.0679 64.1749C35.9066 64.1749 35.7453 64.0141 35.7453 63.8533ZM53.0054 59.5105C52.8441 59.5105 52.6828 59.6713 52.6828 59.6713V59.993C52.6828 60.1539 53.0054 60.3147 53.1667 60.1539C53.328 60.1539 53.4893 59.8322 53.328 59.6713C53.328 59.5105 53.1667 59.5105 53.0054 59.5105Z" fill="#1CA89D"/>
</svg>
