<svg width="80" height="92" viewBox="0 0 80 92" fill="none" xmlns="http://www.w3.org/2000/svg">
<path fill-rule="evenodd" clip-rule="evenodd" d="M0 69L40 92L80 69V23L40 0L0 23V69ZM40 89.9091L1.93548 68.035V24.1259L40 2.25175L78.0645 24.1259V68.035L40 89.9091ZM40.3248 38.9237L32.7441 34.581V25.8957L40.3248 21.5531L47.9054 25.8957V34.581L40.3248 38.9237ZM34.6796 33.4552L39.3555 36.1196V30.1004L34.6796 27.8749V33.4552ZM45.9699 33.4552L41.1297 36.2133V30.1664L45.9699 27.8092V33.4552ZM35.639 26.3141L40.3248 23.644L44.9531 26.2813L40.3214 28.4692L35.639 26.3141ZM56.7763 49.6987H58.7118V38.9225L49.8408 33.9364L48.873 35.5448L56.7763 40.0483V49.6987ZM31.4512 62.5671L39.5157 67.2314L47.9028 62.5671L46.935 60.9587L39.5157 65.1405L32.4189 60.9587L31.4512 62.5671ZM21.9355 50.8258H23.871V40.0496L30.9678 36.0286L30.0001 34.4202L21.9355 38.9237V50.8258ZM15.3223 64.4965L22.9029 68.8392L30.4836 64.4965V55.8112L22.9029 51.4685L15.3223 55.8112V64.4965ZM21.9355 66.197L17.2577 63.5315V57.8859L21.9355 60.164V66.197ZM23.7097 66.2885L28.5481 63.5315V57.8871L23.7097 60.2435V66.2885ZM22.9029 53.7203L18.2198 56.3888L22.9042 58.5448L27.5872 56.3895L22.9029 53.7203ZM57.7408 68.8392L50.1602 64.4965V55.8112L57.7408 51.4685L65.3214 55.8112V64.4965L57.7408 68.8392ZM51.9343 63.5315L56.7734 66.2889V60.1742L51.9343 57.8711V63.5315ZM63.2247 63.5315L58.5476 66.1966V60.244L63.2247 57.9663V63.5315ZM52.969 56.3475L57.5795 53.7203L62.283 56.4005L57.7433 58.5448L52.969 56.3475Z" fill="white"/>
</svg>
