<svg width="81" height="93" viewBox="0 0 81 93" fill="none" xmlns="http://www.w3.org/2000/svg">
<path fill-rule="evenodd" clip-rule="evenodd" d="M40.3008 92.4004L0.300781 69.4004V23.4004L40.3008 0.400391L80.3008 23.4004V69.4004L40.3008 92.4004ZM2.23626 68.2745L40.3008 90.1486L78.3653 68.2745V24.5263L40.3008 2.4913L2.23626 24.5263V68.2745ZM67.5584 39.805L61.5906 36.4274V29.6722L48.6874 21.9519L41.9132 25.9729V37.0708L47.881 40.7701V62.0009C47.3971 62.3225 47.0745 62.805 47.0745 63.4484C47.0745 64.4134 47.881 65.0568 48.6874 65.0568C49.6551 65.0568 50.3003 64.2526 50.3003 63.4484C50.3003 62.805 49.9777 62.3225 49.4939 62.0009V47.3645L53.5261 49.6162V58.9449C53.0422 59.2666 52.7197 59.7491 52.7197 60.3925C52.7197 61.3575 53.5261 62.0009 54.3326 62.0009C55.3003 62.0009 55.9455 61.1967 55.9455 60.3925C55.9455 59.7491 55.6229 59.2666 55.139 58.9449V48.6512L49.4939 45.5953V39.805L43.5261 36.1057V26.7771L48.8487 23.7211L60.3003 30.4764V35.4624L50.9455 30.1547C50.9455 29.833 50.9455 29.5113 50.7842 29.3505C50.3003 28.5463 49.3326 28.2246 48.5261 28.7071C47.7197 29.1897 47.3971 30.1547 47.881 30.9589C48.3648 31.7631 49.3326 32.0848 50.139 31.6022L66.2681 40.7701V52.833L61.5906 55.889V43.1827L56.5906 40.2876C56.5906 39.9659 56.5906 39.805 56.4293 39.4834C55.9455 38.6792 54.9777 38.3575 54.1713 38.84C53.3648 39.3225 53.0422 40.2876 53.5261 41.0918C54.01 41.896 54.9777 42.2176 55.7842 41.7351H55.9455L60.139 44.1477V63.2876L48.8487 70.5253L43.8487 66.9869V45.1127C44.6551 44.6302 44.9777 43.6652 44.4938 42.861C44.01 42.0568 43.0422 41.7351 42.2358 42.2176C41.4293 42.7001 41.1068 43.6652 41.5906 44.4694C41.7519 44.7911 41.9132 44.9519 42.2358 45.1127V67.6302L48.8487 72.1337L61.7519 63.9309V57.4974L68.0423 53.4764V39.805H67.5584ZM38.6854 26.4554V48.9729C38.7342 49.0216 38.7978 49.0703 38.8673 49.1234C39.0272 49.2459 39.2181 49.392 39.3305 49.6162C39.8144 50.4204 39.4918 51.3855 38.6854 51.868C37.8789 52.3505 36.9112 52.0288 36.4273 51.2246C35.9434 50.4204 36.266 49.4554 37.0725 48.9729V27.2596L32.0725 23.7211L20.7821 30.9589V50.0988L24.8144 52.5113H24.9757C25.7821 52.0288 26.7499 52.3505 27.2338 53.1547C27.7176 53.9589 27.395 54.9239 26.5886 55.4064C25.7821 55.889 24.8144 55.5673 24.3305 54.7631C24.1692 54.4414 24.1692 54.2806 24.1692 53.9589L19.1692 51.0638V38.3575L14.1692 41.0918V53.3155L30.2983 62.4834C31.1047 62.0009 32.0725 62.3225 32.5563 63.1267C33.0402 63.9309 32.7176 64.896 31.9112 65.3785C31.1047 65.861 30.137 65.5393 29.6531 64.7351C29.4918 64.5743 29.4918 64.2526 29.4918 63.9309L20.137 58.6232V63.6092L31.5886 70.3645L36.9112 67.3085V57.9799L30.9434 54.2806V48.4904L25.2983 45.4344V35.1407C24.8144 34.819 24.4918 34.3365 24.4918 33.6932C24.4918 32.889 25.137 32.0848 26.1047 32.0848C26.9112 32.0848 27.7176 32.7281 27.7176 33.6932C27.7176 34.3365 27.3951 34.819 26.9112 35.1407V44.6302L30.9434 46.882V32.2456C30.4596 31.9239 30.137 31.4414 30.137 30.798C30.137 29.9939 30.7821 29.1897 31.7499 29.1897C32.5563 29.1897 33.3628 29.833 33.3628 30.798C33.3628 31.4414 33.0402 31.9239 32.5563 32.2456V53.4764L38.5241 57.1757V68.2736L31.7499 72.2946L18.8467 64.5743V57.819L12.8789 54.4414V40.6092L19.1692 36.5883V30.1547L32.0725 21.9519L38.6854 26.4554Z" fill="white"/>
</svg>
