<svg width="81" height="92" viewBox="0 0 81 92" fill="none" xmlns="http://www.w3.org/2000/svg">
<path fill-rule="evenodd" clip-rule="evenodd" d="M40.5996 92L0.599609 69V23L40.5996 0L80.5996 23V69L40.5996 92ZM2.53509 68.035L40.5996 89.9091L78.6642 68.035V24.1259L40.5996 2.25175L2.53509 24.1259V68.035ZM28.3422 64.0143C24.6325 64.0143 24.1486 63.5318 24.1486 62.7276C23.5401 58.7831 24.3666 54.9817 26.6281 51.3234C24.9255 51.0032 23.5767 50.6206 22.6968 50.1818L22.2129 49.8601V46.6434L22.3742 46.3217C22.6418 46.1883 23.0203 46.0549 23.4178 45.9214L18.8247 36.1885C18.6634 35.706 18.6634 35.0626 18.986 34.7409C19.1473 34.4193 19.4699 34.2584 19.9537 34.2584H20.7602C21.2441 34.2584 21.8892 34.5801 22.2118 35.0626L28.9478 44.7002C31.9068 44.3162 35.3431 44.0706 39.1489 44.0706H39.6328H40.1166C44.2526 44.0706 48.0975 44.3607 51.0988 44.8032L58.0187 34.9024C58.3413 34.4199 58.8252 34.0982 59.4703 34.0982H60.2768C60.5994 34.0982 60.9219 34.2591 61.2445 34.5807C61.5671 35.0633 61.5671 35.5458 61.4058 36.0283L56.7306 46.081C56.972 46.1612 57.2136 46.2414 57.5355 46.3217L58.0194 46.6434V49.8601L57.5355 50.1818C56.7519 50.5725 55.5816 50.9336 54.1195 51.247C56.6372 54.9779 57.5075 58.8582 56.7303 62.8878C56.7303 63.5312 56.4078 64.0137 52.5368 64.0137C52.0529 64.0137 51.5691 63.692 51.2465 63.3703C50.9239 62.8878 50.7626 62.4053 50.9239 61.9228C51.7135 59.403 50.9569 55.9581 48.8053 52.041C47.8318 52.1387 46.8104 52.22 45.7526 52.2829L42.7423 55.2847C43.1236 55.8323 43.3426 56.5091 43.3426 57.2587C43.3426 59.1888 41.7297 60.6364 39.9555 60.6364C38.02 60.6364 36.5684 59.1888 36.5684 57.2587C36.5684 56.4603 36.8168 55.7444 37.2451 55.1795L34.3967 52.2155C33.5685 52.1621 32.7652 52.1004 31.9917 52.0306C29.903 55.8755 29.1756 59.1143 29.9551 61.6017C30.1164 62.0842 29.9551 62.5667 29.6325 63.0493C29.3099 63.6926 28.8261 64.0143 28.3422 64.0143ZM55.7302 47.9025C55.3134 48.3239 54.7175 48.6304 53.9864 48.7346H53.3413C52.2123 48.7346 51.0832 48.2521 50.5994 47.4479C50.4568 47.1636 50.3773 46.8793 50.3607 46.595C47.8182 46.2904 44.4113 46.0006 40.2779 46.0006H39.9553H39.4715C35.7148 46.0006 32.4758 46.2588 29.8705 46.5438C29.8888 46.8986 29.809 47.2533 29.6312 47.6081C28.986 48.2514 27.857 48.734 26.5666 48.734H26.2441C25.3886 48.6121 24.7183 48.3055 24.3034 47.7443C24.2784 47.7528 24.2537 47.761 24.229 47.7692C24.1081 47.8094 23.9871 47.8497 23.8258 47.9301V48.7343C25.2728 49.2496 28.0443 49.831 31.8858 50.1821H33.0196L32.9692 50.2727C34.8613 50.4164 36.9836 50.5035 39.3097 50.5035H39.7935H40.2774C48.0194 50.5035 53.5032 49.6993 55.7613 48.7343V47.9301C55.7515 47.9203 55.7411 47.9111 55.7302 47.9025ZM26.5527 61.9886H26.5527C26.9494 62.0332 27.4039 62.0842 27.8583 62.0842C27.2131 59.35 27.697 55.9723 29.6325 52.273H28.1809C26.2454 55.4898 25.4389 58.7066 25.7615 61.9234C25.9727 61.9234 26.2453 61.954 26.5526 61.9886L26.5527 61.9886ZM53.0207 62.0836C53.6658 59.3493 53.182 55.9717 51.2465 52.2724H52.6981C54.7949 55.3284 55.6013 58.5451 55.1174 61.9228C54.6336 62.0836 53.8272 62.0836 53.0207 62.0836H53.0207ZM37.973 54.4817L36.2463 52.9164H43.5044L41.936 54.4804C41.3868 54.0998 40.7077 53.8811 39.9555 53.8811C39.2024 53.8811 38.5226 54.1003 37.973 54.4817ZM38.5039 57.2587C38.5039 56.4545 39.149 55.8112 39.9555 55.8112C40.7619 55.8112 41.4071 56.4545 41.4071 57.2587C41.4071 58.0629 40.7619 58.7063 39.9555 58.7063C39.149 58.7063 38.5039 58.0629 38.5039 57.2587ZM33.0214 33.1335H21.8907V33.2934C21.8907 33.6151 21.8907 33.7759 21.7294 33.9368C21.6488 33.9368 21.5681 33.977 21.4875 34.0172C21.4068 34.0574 21.3262 34.0976 21.2455 34.0976H19.4713C19.3101 34.0976 19.1488 34.0976 18.9875 33.9368C18.8262 33.7759 18.8262 33.4542 18.8262 33.2934V32.9947L17.2145 33.4539L7.53711 32.4889V30.7197H19.2038C19.4294 30.0441 19.773 29.4333 20.2778 29.4333C20.3035 29.4333 20.3289 29.4348 20.3539 29.4379C20.3817 29.4348 20.4101 29.4333 20.4391 29.4333C21.0341 29.4333 21.4462 30.163 21.6754 30.8746L23.344 30.3992L33.0214 31.3643V33.1335ZM21.0843 32.4892H19.6326L19.4713 33.2934H21.0843V32.4892ZM20.7617 31.685H19.74C19.8726 31.1042 20.0965 30.522 20.2269 30.3073C20.3975 30.4945 20.6318 31.0376 20.7617 31.685ZM22.0537 32.3293H32.215V32.1685L23.5053 31.2034L22.0537 31.6859V32.3293ZM58.3438 33.1335H47.0527V31.3643L56.7302 30.3992L58.6505 30.9464C58.8727 30.1874 59.2345 29.4333 59.7954 29.4333C59.8211 29.4333 59.8465 29.4348 59.8715 29.4379C59.8993 29.4348 59.9277 29.4333 59.9567 29.4333C60.5085 29.4333 60.903 30.0609 61.1402 30.7197H72.537V32.4889L62.8596 33.4539L61.4083 33.0404V33.2934C61.4083 33.6151 61.4083 33.7759 61.247 33.9368C61.1663 33.9368 61.0857 33.977 61.005 34.0172C60.9244 34.0574 60.8438 34.0976 60.7631 34.0976H58.9889C58.8276 34.0976 58.6663 34.0976 58.5051 33.9368C58.3438 33.7759 58.3438 33.4542 58.3438 33.2934V33.1335ZM61.4083 32.1673V32.0067L61.408 31.9798V31.5238H71.5693V31.6847L62.8596 32.6497L61.4083 32.1673ZM59.2576 31.685C59.3902 31.1042 59.6141 30.522 59.7444 30.3073C59.9151 30.4945 60.1494 31.0376 60.2793 31.685H59.2576ZM59.1502 32.4892L58.9889 33.2934H60.6018V32.8106L60.6016 32.8106L60.6018 32.8071V32.4892H59.1502ZM58.0205 32.3293H47.8592V32.1685L56.5689 31.2034L58.0205 31.6859V32.3293ZM8.34356 31.6847L17.0533 32.6497L18.5049 32.1672V31.5238H8.34356V31.6847ZM19.7924 35.3843C19.7924 35.3843 19.7925 35.5451 19.9537 35.706L25.115 46.8039C25.4376 47.4472 25.9215 47.6081 26.4054 47.6081C27.2118 47.6081 28.0183 47.2864 28.3408 46.8039C28.5021 46.643 28.5021 46.4822 28.3408 46.1605L20.9215 35.5451C20.7602 35.3843 20.5989 35.2235 20.4376 35.2235H19.7924V35.3843ZM51.7284 46.8045C51.5671 46.6437 51.5671 46.4828 51.7284 46.1612L58.9865 35.7066C59.1477 35.5458 59.309 35.3849 59.4703 35.3849H60.1155V35.7066L54.9542 46.8045C54.6316 47.4479 54.1477 47.6087 53.6639 47.6087C52.8574 47.6087 52.051 47.287 51.7284 46.8045Z" fill="white"/>
</svg>
