<svg width="80" height="93" viewBox="0 0 80 93" fill="none" xmlns="http://www.w3.org/2000/svg">
<path fill-rule="evenodd" clip-rule="evenodd" d="M39.8387 92.5L0 69.5V23.5L40 0.5L80 23.5V69.5L39.8387 92.5ZM1.77416 68.3741L39.8387 90.2483L77.9032 68.3741V24.6259L39.8387 2.59091L1.77416 24.465V68.3741ZM69.0328 55.5076C68.2263 54.8643 67.4199 54.2209 66.7748 53.5775C64.5167 51.4866 62.0973 49.3957 57.2586 49.3957C52.5712 49.3957 50.3055 51.3579 47.969 53.3814L47.7424 53.5775L47.5089 53.7774C45.3368 55.6386 43.2372 57.4377 39.0328 57.4377C36.2909 57.4377 33.8715 55.6685 31.4521 53.8992C26.4521 50.1999 20.807 46.1789 10.4844 56.3118V59.5286C20.6457 49.0741 25.807 52.7733 30.6457 56.4727C33.2263 58.4027 35.807 60.172 39.0328 60.172C43.7201 60.172 45.9857 58.2098 48.3222 56.1863L48.5489 55.9901L48.7822 55.7904C49.1245 55.497 49.4651 55.2053 49.8123 54.9218C49.1884 56.3585 49.0397 58.1022 49.6763 59.6894C49.7172 59.7913 49.76 59.8919 49.8048 59.9911L40.7591 66.5653C40.38 66.4161 39.9727 66.3198 39.5478 66.2861L35.7323 64.8313L35.8061 64.6736L28.8707 63.5477L28.3867 64.8344L34.2881 66.9469L33.2133 69.3049L27.7417 66.1221L27.2578 67.4088L32.1794 71.573L32.0977 71.7524L37.4202 74.165L37.4335 74.1359C37.8251 74.3049 38.2534 74.4217 38.7077 74.4864H39.0303C39.9981 74.4864 40.9658 74.1647 41.7723 73.3605C42.5787 72.7172 43.0625 71.7521 43.2238 70.6263C43.2775 70.2514 43.2731 69.8856 43.2181 69.5352L52.549 62.9927C52.7147 63.0786 52.8861 63.1571 53.0635 63.2278C53.8699 63.7103 54.6763 63.8712 55.6441 63.8712C56.2892 63.8712 57.0957 63.7103 57.9022 63.3887C61.128 62.1019 62.9022 58.4026 61.6118 55.1859C61.1352 53.9977 60.3286 53.007 59.3381 52.2949C62.2217 52.78 63.954 54.2643 65.735 55.7904L65.9683 55.9901C66.2401 56.2225 66.5025 56.4548 66.7624 56.6848L66.7631 56.6854L66.7641 56.6864L66.7663 56.6883L66.7665 56.6885L66.7668 56.6887L66.767 56.6889L66.7673 56.6892L66.7675 56.6894L66.7678 56.6896C67.5854 57.4136 68.3778 58.1151 69.3554 58.7244C69.2776 58.1816 69.2373 57.6387 69.1984 57.1139V57.1138C69.1566 56.5502 69.1163 56.0073 69.0328 55.5076ZM41.1845 67.8434L42.3343 69.6073C42.4182 69.9341 42.4492 70.2771 42.4174 70.6263C42.2561 72.3955 40.6432 73.843 38.869 73.6822C38.4852 73.6474 38.1166 73.5449 37.7761 73.3877L38.4629 71.8873C38.543 71.9038 38.6254 71.9126 38.7095 71.9126C39.5159 71.9126 40.3224 71.2692 40.3224 70.465C40.3224 69.9617 40.0696 69.5213 39.6827 69.2229L40.5111 67.4133C40.752 67.5307 40.978 67.6757 41.1845 67.8434ZM37.2277 73.0708L37.8845 71.6067C37.505 71.2997 37.2578 70.8019 37.2578 70.3042C37.2578 69.5 38.0643 68.8566 38.8707 68.8566C38.9462 68.8717 39.0202 68.891 39.0925 68.9142L39.8396 67.2489L39.4447 67.0974L39.4069 67.0931C39.3889 67.0912 39.3709 67.0894 39.3529 67.0878H39.0303C37.2561 67.0878 35.8045 68.3745 35.8045 70.1437C35.6978 71.3139 36.2966 72.4136 37.2277 73.0708ZM37.8262 66.4767L35.646 65.6405L32.9041 71.4307L35.7418 72.7368C35.214 71.9651 34.8561 70.974 34.9981 69.9829C35.1594 68.857 35.6432 67.892 36.4496 67.2486C36.8439 66.9341 37.3154 66.658 37.8262 66.4767ZM42.9782 68.6935L51.6115 62.7454L49.8373 60.9761L41.6115 66.9272L41.7071 67.0906C42.2675 67.5062 42.7107 68.058 42.9782 68.6935ZM53.8699 52.6124C53.9261 52.5914 53.9824 52.5716 54.039 52.5529C54.2583 52.4897 54.4847 52.4328 54.7189 52.3827C57.0875 51.9729 59.6195 53.3726 60.4828 55.6684C61.4505 58.2418 60.1602 61.2977 57.4182 62.2628C56.1279 62.7453 54.8376 62.7453 53.5473 62.1019C52.257 61.4586 51.2892 60.4935 50.8054 59.2068C50.3215 57.9201 50.3215 56.6334 50.9666 55.3467C51.6118 54.06 52.5796 53.0949 53.8699 52.6124ZM66.7748 44.0874C67.4199 44.7308 68.065 45.2133 68.7102 45.6958V48.7517C67.7424 48.1084 66.7748 47.3042 65.9683 46.5L65.735 46.3002C63.5628 44.439 61.4631 42.6399 57.2586 42.6399C53.0541 42.6399 50.9544 44.439 48.7822 46.3002L48.5489 46.5L48.3222 46.6962C45.9857 48.7197 43.7201 50.6818 39.0328 50.6818C35.807 50.6818 33.2263 48.9126 30.6457 46.9825C25.807 43.2832 20.6457 39.5839 10.4844 50.0385V46.8217C14.3924 42.9855 17.63 41.1779 20.416 40.6136C22.3015 34.3599 26.1798 30.2256 30.6463 29.6113H31.4528H49.6786V29.7721C53.8682 30.4149 57.4139 34.2684 59.3506 40.0497C62.8465 40.5565 64.8681 42.3219 66.7748 44.0874ZM57.3685 39.906L57.4149 39.9063C55.6004 34.8667 52.3023 31.5315 48.5495 31.2197H48.227H31.1302C27.2392 31.3749 23.6487 34.9746 21.8077 40.4292C25.686 40.1912 28.669 42.35 31.4521 44.4091C33.8715 46.1783 36.2909 47.9476 39.0328 47.9476C43.2372 47.9476 45.3368 46.1485 47.5089 44.2873L47.7424 44.0874L47.969 43.8913C50.3055 41.8678 52.5712 39.9056 57.2586 39.9056L57.3081 39.9057L57.3685 39.906ZM34.998 39.2619C34.998 41.8354 37.0948 43.7654 39.6754 43.7654C42.2561 43.7654 44.3529 41.8354 44.3529 39.2619C44.3529 36.6885 42.2561 34.7584 39.6754 34.7584C37.0948 34.7584 34.998 36.8493 34.998 39.2619ZM36.611 39.4228C36.611 37.8144 37.9012 36.5277 39.6754 36.5277C41.2883 36.5277 42.74 37.8144 42.74 39.4228C42.74 41.0312 41.2883 42.3179 39.6754 42.3179C38.0625 42.3179 36.611 41.0312 36.611 39.4228ZM32.419 70.9472L28.0643 67.4088L32.903 69.8214L32.419 70.9472ZM29.1932 64.5127L34.3545 66.282L34.8383 65.1561L29.1932 64.5127ZM52.4199 57.2759C52.4199 59.0451 53.8715 60.4927 55.6457 60.4927C57.4199 60.4927 58.8715 59.0451 58.8715 57.2759C58.8715 55.5067 57.4199 54.0591 55.6457 54.0591C53.8715 54.0591 52.4199 55.5067 52.4199 57.2759ZM53.2264 57.4367C53.2264 56.15 54.3554 55.0242 55.6457 55.0242C56.9361 55.0242 58.0651 56.15 58.0651 57.4367C58.0651 58.7235 56.9361 59.8493 55.6457 59.8493C54.3554 59.8493 53.2264 58.7235 53.2264 57.4367Z" fill="#0A202C"/>
</svg>
