<svg width="81" height="92" viewBox="0 0 81 92" fill="none" xmlns="http://www.w3.org/2000/svg">
<path fill-rule="evenodd" clip-rule="evenodd" d="M0.0996094 69.0001L40.0996 92.0001L80.0997 69.0001V23L40.0996 0L0.0996094 23V69.0001ZM40.0996 89.9092L2.03506 68.035V24.1259L40.0996 2.25175L78.1642 24.1259V68.035L40.0996 89.9092ZM31.875 63.693C31.875 65.9447 36.5524 66.5881 39.4557 66.5881C42.3589 66.5881 47.1976 65.9447 47.0363 63.693V63.0487H62.0363C63.1653 63.0487 64.1331 62.0837 63.9718 60.9578V33.7759C63.9718 32.8109 63.1653 31.8459 62.0363 31.8459H16.875C15.9072 31.8459 14.9395 32.6501 14.9395 33.7759V61.1186C14.9395 62.0837 15.7459 63.0487 16.875 63.0487H31.875V63.693ZM39.4557 64.9797C35.746 64.9797 33.6492 64.0147 33.4879 63.693H33.3267V63.3713H45.4234V63.693C45.2621 64.1755 43.3266 64.9797 39.4557 64.9797ZM16.875 33.7759L16.7137 60.9578C16.7137 60.9578 16.7137 61.1186 16.875 61.1186H62.0363C62.0363 61.1186 62.1976 61.1186 62.1976 60.9578V33.7759C62.1976 33.7759 62.1976 33.6151 62.0363 33.6151H16.875V33.7759ZM28.3262 47.447C28.3262 53.0763 32.8423 57.7407 38.6487 57.7407C44.2939 57.7407 48.9713 53.0763 48.9713 47.447C48.9713 41.8176 44.4552 37.1532 38.6487 37.1532C33.0036 37.1532 28.3262 41.8176 28.3262 47.447ZM29.1326 47.447C29.1326 42.1393 33.4875 37.9574 38.6487 37.9574C43.81 37.9574 48.1649 42.1393 48.1649 47.447C48.1649 52.7547 43.81 56.9365 38.6487 56.9365C33.3262 56.9365 29.1326 52.7547 29.1326 47.447ZM29.9391 47.447C29.9391 52.2721 33.81 56.1323 38.6487 56.1323C43.3262 56.1323 47.3584 52.1113 47.3584 47.447C47.3584 42.6218 43.4875 38.7616 38.6487 38.7616C33.81 38.7616 29.9391 42.6218 29.9391 47.447ZM38.6497 40.5321C34.94 40.5321 31.8754 43.5881 31.8754 47.2874C31.8754 50.9867 34.94 54.0426 38.6497 54.0426C42.3593 54.0426 45.4239 50.9867 45.4239 47.2874C45.4239 43.5881 42.3593 40.5321 38.6497 40.5321ZM43.3248 47.1253L35.7441 41.9784V52.2721L43.3248 47.1253ZM40.9054 47.1253L37.1957 49.6987V44.5519L40.9054 47.1253Z" fill="#0A202C"/>
</svg>
