<svg width="80" height="92" viewBox="0 0 80 92" fill="none" xmlns="http://www.w3.org/2000/svg">
<path fill-rule="evenodd" clip-rule="evenodd" d="M0 69L40 92L80 69V23L40 0L0 23V69ZM40 89.9091L1.93549 68.035V24.1259L40 2.25175L78.0646 24.1259V68.035L40 89.9091ZM64.6768 46.3217C64.6768 32.6503 53.5477 21.7133 39.9993 21.7133C26.4509 21.7133 15.3219 32.8112 15.3219 46.3217C15.3219 59.8322 26.2896 70.9301 39.9993 70.9301C53.709 70.9301 64.6768 59.8322 64.6768 46.3217ZM13.709 46.3217C13.709 31.8462 25.4832 20.1049 39.9993 20.1049C54.5155 20.1049 66.2897 31.8462 66.2897 46.3217C66.2897 60.7972 54.5155 72.5385 39.9993 72.5385C25.4832 72.5385 13.709 60.7972 13.709 46.3217ZM39.9999 29.1113C49.516 29.1113 57.258 36.8315 57.258 46.321C57.258 55.8106 49.516 63.5308 39.9999 63.5308C30.4837 63.5308 22.7418 55.8106 22.7418 46.321C22.7418 36.8315 30.4837 29.1113 39.9999 29.1113ZM39.9999 27.5029C29.516 27.5029 21.1289 35.8665 21.1289 46.321C21.1289 56.7756 29.516 65.1392 39.9999 65.1392C50.4838 65.1392 58.8709 56.7756 58.8709 46.321C58.8709 35.8665 50.4838 27.5029 39.9999 27.5029ZM40.0001 66.7483C39.1936 66.7483 38.7098 67.3916 38.7098 68.035C38.7098 68.6783 39.3549 69.3217 40.0001 69.3217C40.8065 69.3217 41.2904 68.6783 41.2904 68.035C41.2904 67.2308 40.6452 66.7483 40.0001 66.7483ZM30.6452 65.9441C30.3226 66.5874 30.6452 67.2308 31.2904 67.5524C31.2904 67.5524 31.4517 67.5524 31.7743 67.7133C32.2581 67.7133 32.742 67.3916 32.9033 66.9091C33.2259 66.2657 32.9033 65.6224 32.2581 65.3007C31.613 64.979 30.9678 65.3007 30.6452 65.9441ZM47.9033 65.3007C47.2581 65.6224 46.9356 66.2657 47.2581 66.9091C47.4194 67.3916 47.9033 67.5524 48.3872 67.5524H48.871C49.5162 67.2308 49.8388 66.5874 49.5162 65.9441C49.1936 65.3007 48.5485 64.979 47.9033 65.3007ZM23.7097 60.7972C23.2259 61.2797 23.2259 62.0839 23.7097 62.5664C24.0323 62.7273 24.3549 62.8881 24.6775 62.8881C25.0001 62.8881 25.1614 62.8881 25.4839 62.5664C25.9678 62.0839 25.9678 61.2797 25.4839 60.7972C25.0001 60.3147 24.1936 60.3147 23.7097 60.7972ZM54.5162 60.7972C54.0323 61.2797 54.0323 62.0839 54.5162 62.5664C54.6775 62.7273 55.0001 62.8881 55.484 62.8881C55.8065 62.8881 56.1291 62.7273 56.2904 62.5664C56.7743 62.0839 56.7743 61.2797 56.2904 60.7972C55.8065 60.3147 55.0001 60.3147 54.5162 60.7972ZM19.3549 53.5594C18.7097 53.8811 18.3872 54.5245 18.7097 55.1678C19.0323 55.6503 19.3549 55.972 19.8388 55.972C19.9194 55.972 20.0001 55.9318 20.0807 55.8916C20.1614 55.8514 20.242 55.8112 20.3226 55.8112C20.9678 55.4895 21.2904 54.8462 20.9678 54.2028C20.6452 53.5594 20.0001 53.2378 19.3549 53.5594ZM59.0323 54.2028C58.7098 54.8462 59.0323 55.4895 59.6775 55.8112C59.8388 55.8112 60.0001 55.8112 60.1614 55.972C60.6452 55.972 61.1291 55.6503 61.2904 55.1678C61.613 54.5245 61.2904 53.8811 60.6452 53.5594C60.0001 53.2378 59.3549 53.5594 59.0323 54.2028ZM18.2259 45.035C17.4194 45.035 16.9355 45.6783 16.9355 46.3217C16.9355 47.1259 17.5807 47.6084 18.2259 47.6084C19.0323 47.6084 19.5162 46.965 19.5162 46.3217C19.5162 45.5175 18.871 45.035 18.2259 45.035ZM61.7743 45.035C60.9678 45.035 60.484 45.5175 60.484 46.3217C60.484 46.965 61.1291 47.6084 61.7743 47.6084C62.5807 47.6084 63.0646 46.965 63.0646 46.3217C63.0646 45.5175 62.4194 45.035 61.7743 45.035ZM18.7097 37.6364C18.3872 38.2797 18.7097 38.9231 19.3549 39.2448C19.5162 39.2448 19.6775 39.2448 19.8388 39.4056C20.3226 39.4056 20.8065 39.0839 20.9678 38.6014C21.2904 37.958 20.9678 37.3147 20.3226 36.993C19.6775 36.6713 19.0323 36.993 18.7097 37.6364ZM59.5162 36.8322C58.8711 37.1538 58.5485 37.7972 58.871 38.4406C59.0323 38.9231 59.5162 39.2448 60.0001 39.2448C60.0807 39.2448 60.1614 39.2045 60.242 39.1643C60.3227 39.1241 60.4033 39.0839 60.484 39.0839C61.1291 38.7622 61.4517 38.1189 61.1291 37.4755C60.8065 36.8322 60.1614 36.5105 59.5162 36.8322ZM23.7097 30.0769C23.2259 30.5594 23.2259 31.3636 23.7097 31.8462C23.871 32.1678 24.1936 32.3287 24.6775 32.1678C24.9136 32.1678 25.0633 32.0816 25.2532 31.9723L25.2532 31.9723L25.2533 31.9723C25.3228 31.9323 25.3976 31.8892 25.4839 31.8462C25.9678 31.3636 25.9678 30.5594 25.4839 30.0769C25.0001 29.5944 24.1936 29.5944 23.7097 30.0769ZM54.5162 30.0769C54.0323 30.5594 54.0323 31.3636 54.5162 31.8462C54.6775 32.007 55.0001 32.1678 55.484 32.1678C55.8065 32.1678 55.9678 32.1678 56.2904 31.8462C56.7743 31.3636 56.7743 30.5594 56.2904 30.0769C55.8065 29.5944 55.0001 29.5944 54.5162 30.0769ZM31.1291 25.2517C30.4839 25.5734 30.1614 26.2168 30.4839 26.8601C30.6452 27.1818 31.1291 27.5035 31.613 27.6643C31.6936 27.6643 31.7743 27.6241 31.8549 27.5839C31.9356 27.5437 32.0162 27.5035 32.0968 27.5035C32.742 27.1818 33.0646 26.5385 32.742 25.8951C32.4194 25.2517 31.7743 24.9301 31.1291 25.2517ZM47.0969 25.7343C46.7743 26.3776 47.0969 27.021 47.742 27.3427C47.9033 27.5035 48.0646 27.5035 48.2259 27.5035C48.7098 27.5035 49.1936 27.1818 49.3549 26.6993C49.6775 26.0559 49.3549 25.4126 48.7098 25.0909C48.0646 24.7692 47.4194 25.0909 47.0969 25.7343ZM40.0001 23.3217C39.1936 23.3217 38.7098 23.965 38.7098 24.6084C38.7098 25.2517 39.1936 25.8951 40.0001 25.8951C40.8065 25.8951 41.2904 25.2517 41.2904 24.6084C41.2904 23.8042 40.6452 23.3217 40.0001 23.3217ZM42.7413 59.5099C43.0638 59.349 43.0638 58.8665 42.7413 58.5448L39.838 55.4889L36.7735 58.5448C36.4509 58.7057 36.4509 59.1882 36.7735 59.5099C36.9348 59.8315 37.4187 59.8315 37.7412 59.5099L39.6767 57.419L41.7735 59.5099C41.9348 59.6707 42.0961 59.6707 42.2574 59.6707C42.4187 59.6707 42.58 59.6707 42.7413 59.5099ZM42.7413 33.9364L39.6767 36.9924L36.6122 33.9364C36.2896 33.7756 36.2896 33.2931 36.6122 32.9714C36.7735 32.6497 37.2574 32.6497 37.58 32.9714L39.6767 35.0623L41.7735 32.9714C41.9348 32.6497 42.4187 32.6497 42.7413 32.9714C43.0638 33.1322 43.0638 33.6148 42.7413 33.9364ZM26.4509 42.9434C26.6122 42.6217 27.0961 42.6217 27.4187 42.9434L30.4832 45.9994L27.4187 49.0553C27.2574 49.2162 27.0961 49.2162 26.9348 49.2162C26.7735 49.2162 26.6122 49.2162 26.4509 49.0553C26.1283 48.8945 26.1283 48.412 26.4509 48.0903L28.5477 45.9994L26.4509 43.9085C26.1283 43.7476 26.1283 43.2651 26.4509 42.9434ZM53.2251 43.9085L51.1284 45.9994L53.2251 48.0903C53.5477 48.2511 53.5477 48.7336 53.2251 49.0553C53.0638 49.2162 52.9025 49.2162 52.7413 49.2162C52.58 49.2162 52.4187 49.2162 52.2574 49.0553L49.1929 45.9994L52.2574 42.9434C52.4187 42.6217 52.9025 42.6217 53.2251 42.9434C53.5477 43.1043 53.5477 43.5868 53.2251 43.9085ZM50.8058 53.5588C51.1284 53.5588 51.4509 53.2371 51.4509 52.9155C51.4509 52.4329 51.1284 52.1113 50.6445 51.9504H46.7735L45.4832 50.6637V41.335L46.7735 40.0483H50.1606C50.4832 40.0483 50.8058 39.7266 50.8058 39.405C50.8058 39.0833 50.4832 38.7616 50.1606 38.7616H47.7413L49.9993 36.5099C50.3219 36.349 50.3219 35.8665 49.9993 35.5448C49.838 35.2231 49.3542 35.2231 49.0316 35.5448L46.7735 37.7966V35.384C46.7735 35.0623 46.4509 34.7406 46.1283 34.7406C45.8058 34.7406 45.4832 35.0623 45.4832 35.384V39.2441L44.1929 40.5308H34.838L33.5477 39.2441V35.384C33.5477 35.0623 33.2251 34.7406 32.9025 34.7406C32.58 34.7406 32.2574 35.0623 32.2574 35.384V37.7966L29.9993 35.5448C29.838 35.2231 29.3541 35.2231 29.0316 35.5448C28.709 35.7057 28.709 36.1882 29.0316 36.5099L31.2896 38.9225H28.8703C28.5477 38.9225 28.2251 39.2441 28.2251 39.5658C28.2251 39.8875 28.5477 40.2092 28.8703 40.2092H32.7412L34.5154 41.8176V51.1462L33.2251 52.4329H29.3541C29.0316 52.4329 28.709 52.7546 28.709 53.0763C28.709 53.398 29.0316 53.7197 29.3541 53.7197H31.7735L29.5154 55.9714C29.1929 56.1322 29.1929 56.6148 29.5154 56.9364C29.6767 57.0973 29.838 57.0973 29.9993 57.0973C30.1606 57.0973 30.3219 57.0973 30.4832 56.9364L32.7412 54.6847V57.0973C32.7412 57.4189 33.0638 57.7406 33.3864 57.7406C33.709 57.7406 34.0316 57.4189 34.0316 57.0973V53.2371L35.3219 51.9504H44.6767L45.9671 53.2371V57.0973C45.9671 57.4189 46.2896 57.7406 46.6122 57.7406C46.9348 57.7406 47.2574 57.4189 47.2574 57.0973V54.6847L49.6767 56.7756C49.838 56.9364 49.9993 56.9364 50.1606 56.9364C50.3219 56.9364 50.4832 56.9364 50.6445 56.7756C50.9671 56.6148 50.9671 56.1322 50.6445 55.8106L48.3864 53.5588H50.8058ZM44.0316 50.5029H43.0638H35.4832V41.9784H44.0316V50.5029ZM45.8058 46.1602L49.838 42.1392C50.1606 41.8176 50.6445 41.8176 50.8058 42.1392C51.1284 42.3001 51.1284 42.7826 50.8058 43.1043L47.7413 46.1602L50.8058 49.2162C51.1284 49.377 51.1284 49.8595 50.8058 50.1812C50.6445 50.342 50.4832 50.342 50.3219 50.342C50.1606 50.342 49.9993 50.342 49.838 50.1812L45.8058 46.1602ZM43.709 36.1882L39.6767 40.2092L35.6445 36.1882C35.3219 36.0273 35.3219 35.5448 35.6445 35.2231C35.8058 34.9015 36.2896 34.9015 36.6122 35.2231L39.6767 38.2791L42.7413 35.2231C42.9025 34.9015 43.3864 34.9015 43.709 35.2231C44.0316 35.384 44.0316 35.8665 43.709 36.1882ZM28.5477 50.1812C28.2251 50.0204 28.2251 49.5378 28.5477 49.2162L31.6122 46.1602L28.5477 43.1043C28.2251 42.9434 28.2251 42.4609 28.5477 42.1392C28.709 41.8176 29.1929 41.8176 29.5154 42.1392L33.5477 46.1602L29.5154 50.1812C29.3541 50.342 29.1929 50.342 29.0316 50.342C28.8703 50.342 28.709 50.342 28.5477 50.1812ZM35.6445 56.2931L39.6767 52.2721L43.709 56.2931C44.0316 56.4539 44.0316 56.9364 43.709 57.2581C43.5477 57.4189 43.3864 57.419 43.2251 57.419C43.0638 57.419 42.9025 57.4189 42.7413 57.2581L39.6767 54.2022L36.6122 57.2581C36.4509 57.5798 35.9671 57.5798 35.6445 57.2581C35.3219 57.0973 35.3219 56.6148 35.6445 56.2931Z" fill="white"/>
</svg>
