<svg width="81" height="93" viewBox="0 0 81 93" fill="none" xmlns="http://www.w3.org/2000/svg">
<path fill-rule="evenodd" clip-rule="evenodd" d="M0.5 69.2998L40.5 92.2998L80.5 69.2998V23.2998L40.5 0.299805L0.5 23.2998V69.2998ZM40.5 90.0481L2.43548 68.1739V24.4257L40.5 2.55155L78.5645 24.4257V68.1739L40.5 90.0481ZM53.3916 28.4512C53.6549 28.5414 53.8992 28.6077 54.21 28.6077C54.3713 28.6077 54.5326 28.6077 54.6939 28.4469C55.339 28.4469 55.8229 27.9644 56.1455 27.4819C56.4681 26.9994 56.6294 26.356 56.4681 25.7126C56.4681 25.0693 55.9842 24.5868 55.5003 24.2651C54.3713 23.6217 52.9197 23.9434 52.2745 25.0693C51.9519 25.5518 51.7907 26.1952 51.9519 26.8385C51.9519 27.3089 52.2106 27.6933 52.5388 27.9917L51.4289 29.7801L45.6631 26.1959L45.1792 27C43.5172 29.6772 43.8819 33.0617 45.7913 35.3915C42.9654 34.7619 40.0094 35.9 38.2408 38.4195L36.287 41.5418L33.7191 39.9561L38.0796 32.9505L26.1442 25.5519L14.5312 44.2092L26.4667 51.6078L30.9559 44.3955L33.5131 45.9747L26.6858 56.8854L25.1772 55.9511L19.6934 61.2588L38.0805 72.6784L40.4998 65.4406L39.1122 64.5812L45.9259 53.6052L48.4012 55.1338L43.8887 62.3837L55.8242 69.7823L67.437 51.125L55.5016 43.7264L51.0705 50.8454L48.5901 49.3135L50.6602 45.979C52.1796 43.3273 51.8104 40.1801 49.9426 37.9379C50.4516 38.0479 50.9605 38.0979 51.4695 38.0979C51.7114 38.0979 51.9936 38.0577 52.2759 38.0175L52.276 38.0175C52.5582 37.9773 52.8405 37.9371 53.0824 37.9371C55.0179 37.4546 56.6308 36.3287 57.5985 34.7203L58.0824 33.9161L52.2501 30.2906L53.3916 28.4512ZM34.0255 45.156L35.7747 42.3606L33.2088 40.776L31.4662 43.5756L34.0255 45.156ZM29.7906 42.5408L31.5419 39.7467L22.8642 34.3879L21.113 37.1821L29.7906 42.5408ZM18.3241 41.6318L17.1119 43.5659L25.8216 48.8735L27.0017 46.9906L18.3241 41.6318ZM27.5146 46.1722L18.837 40.8135L20.6 38.0004L29.2777 43.3592L27.5146 46.1722ZM48.9116 54.3139L46.4353 52.7847L48.0808 50.134L50.5602 51.6652L48.9116 54.3139ZM46.6306 61.7404L47.8502 59.7945L56.5271 65.1544L55.3403 67.0481L46.6306 61.7404ZM57.04 64.3361L48.3631 58.9761L50.11 56.189L58.7876 61.5477L57.04 64.3361ZM50.6229 55.3706L59.3005 60.7294L60.957 58.0864L52.2796 52.7272L50.6229 55.3706ZM32.0548 38.9283L33.8053 36.1354L25.1276 30.7766L23.3771 33.5695L32.0548 38.9283ZM63.2411 54.4422L61.4699 57.2681L52.7925 51.9089L54.5634 49.0834L63.2411 54.4422ZM54.21 24.9084C53.7261 24.9084 53.2423 25.0693 53.081 25.5518C52.9197 25.8735 52.7584 26.1952 52.9197 26.6777C53.081 26.9994 53.2423 27.321 53.5648 27.4819C53.8874 27.6427 54.21 27.8036 54.6939 27.6427C55.0165 27.4819 55.339 27.321 55.5003 26.9994C55.9842 26.356 55.6616 25.5518 55.0165 25.0693C54.6939 24.9084 54.5326 24.9084 54.21 24.9084ZM48.5663 35.3637C46.4695 33.9161 45.5018 31.1819 46.4695 28.7693L55.3405 34.3987C54.6953 35.2028 53.7276 35.6854 52.5986 36.007C51.3082 36.3287 49.8566 36.1679 48.5663 35.3637ZM38.0795 66.2447L28.9521 60.5708L25.3385 58.3637L22.7579 60.9371L37.1127 69.7833L38.2417 66.2448L38.1241 66.1729L38.0795 66.2447ZM39.6924 39.3846L28.2554 57.8575L32.4124 60.4319L39.0588 49.7218L39.8817 50.2296L33.2355 60.9394L37.4344 63.5104L48.886 45.0139C50.3376 42.4405 49.3698 39.3846 46.9505 37.937C44.5311 36.4895 41.3053 37.1328 39.6924 39.3846ZM25.6405 29.9582L26.7893 28.1253L35.499 33.433L34.3182 35.317L25.6405 29.9582ZM63.754 53.6238L55.0763 48.265L56.308 46.2998L65.0177 51.6075L63.754 53.6238Z" fill="white"/>
</svg>
