<svg width="81" height="93" viewBox="0 0 81 93" fill="none" xmlns="http://www.w3.org/2000/svg">
<path fill-rule="evenodd" clip-rule="evenodd" d="M0.800781 69.1397L40.8008 92.0995L80.8008 68.9791V23.0594L40.8008 0.0996094L0.800781 23.0594V69.1397ZM40.8008 89.8517L2.73626 68.0158V24.1834L40.8008 2.34743L78.8653 24.1834V68.0158L40.8008 89.8517ZM42.7355 23.3806H36.929C36.1225 23.3806 35.6387 24.0228 35.6387 24.665V24.8256C35.6387 25.4678 36.1225 26.1101 36.929 26.1101H42.7355C43.3806 26.1101 44.0258 25.6284 44.0258 24.8256V24.665C44.0258 24.0228 43.5419 23.3806 42.7355 23.3806ZM36.929 67.5341H42.7355C43.5419 67.5341 44.0258 68.1763 44.0258 68.8186V68.9791C44.0258 69.7819 43.3806 70.2636 42.7355 70.2636H36.929C36.1225 70.2636 35.6387 69.6214 35.6387 68.9791V68.8186C35.6387 68.1763 36.1225 67.5341 36.929 67.5341ZM29.5103 73.154H51.2845C53.8651 73.154 55.8006 71.0667 55.8006 68.6583V24.1837C55.8006 21.7753 53.7038 19.688 51.2845 19.688H29.5103C27.0909 19.688 24.9941 21.7753 24.9941 24.1837V68.6583C24.9941 71.0667 27.0909 73.154 29.5103 73.154ZM26.607 24.1837C26.607 22.5781 27.8974 21.2936 29.5103 21.2936H51.2845C52.8974 21.2936 54.1877 22.5781 54.1877 24.1837V27.556H26.607V24.1837ZM26.607 66.09H54.1877V68.6583C54.1877 70.2639 52.8974 71.5484 51.2845 71.5484H29.5103C27.8974 71.5484 26.607 70.2639 26.607 68.6583V66.09ZM27.4134 64.9661H53.7037V28.8405H27.4134V64.9661ZM31.1211 52.6025L40.7985 57.4192V46.3402L40.7988 46.3403V57.4192L50.6375 52.6025V41.6773L50.9609 41.524L40.9609 36.5467L31.2023 41.4038L31.1211 41.3634V41.4443L30.9609 41.524L31.1211 41.6024V52.6025ZM39.5082 55.332L32.2501 51.7997V43.4507L39.5082 46.983V55.332ZM42.0892 46.983V55.332L49.3472 51.7997V43.4507L42.0892 46.983ZM40.7996 44.8957L33.7029 41.524L40.7996 37.9917L47.8964 41.524L40.7996 44.8957Z" fill="white"/>
</svg>
