<svg width="81" height="93" viewBox="0 0 81 93" fill="none" xmlns="http://www.w3.org/2000/svg">
<path fill-rule="evenodd" clip-rule="evenodd" d="M40.5 92.4004L0.5 69.4405V23.3603L40.5 0.400391L80.5 23.3603V69.28L40.5 92.4004ZM2.43548 68.3166L40.5 90.1526L78.5645 68.3166V24.4842L40.5 2.64821L2.43548 24.4842V68.3166ZM34.5316 59.1649C36.3058 60.1283 38.4026 60.6099 40.4994 60.6099C42.2736 60.6099 44.0477 60.2888 45.9832 59.6466H46.1445C49.0478 58.5227 51.3058 56.2749 52.7574 53.5454C54.209 50.6553 54.5316 47.6047 53.8865 44.3935C53.08 41.0218 51.1445 38.1318 48.2413 36.2051C48.097 36.1093 47.967 36.0135 47.8429 35.922L47.8428 35.922L47.8428 35.922L47.8428 35.9219L47.8427 35.9219L47.8427 35.9219L47.8426 35.9218C47.5505 35.7066 47.2904 35.5149 46.951 35.4023C43.4026 33.6361 39.209 33.4756 35.6607 34.9206H35.4994C32.5961 36.2051 30.3381 38.2923 28.8865 41.0218L28.7252 41.1824C27.2736 43.9119 26.951 47.123 27.5961 50.1736C28.4026 53.8665 30.9832 57.2382 34.3703 59.0044L34.5316 59.1649ZM42.2736 57.7199L42.2736 57.7198C42.4752 57.5593 42.6768 57.3988 42.9187 57.2382L42.9187 57.2382C43.08 57.3988 43.2413 57.5593 43.4026 57.8804C43.2919 57.908 43.186 57.9355 43.0831 57.9623C42.5867 58.0914 42.1629 58.2016 41.6284 58.2016C41.8703 58.041 42.0719 57.8805 42.2735 57.7199L42.2736 57.7199ZM40.1768 56.1143C38.8865 56.9171 37.5961 57.2382 36.6284 57.2382L38.5639 53.7059C39.5316 54.1876 40.338 54.8298 41.1444 55.472L41.1445 55.4721C40.9832 55.5524 40.8219 55.6728 40.6606 55.7932L40.6606 55.7932C40.4993 55.9136 40.3381 56.034 40.1768 56.1143ZM33.4026 52.582V51.4581C34.3703 51.6187 35.3381 51.9398 36.4671 52.4215L34.5316 56.1143C33.8865 55.3115 33.4026 54.027 33.4026 52.582ZM30.9832 52.582C30.6606 52.1003 30.3381 51.4581 30.1768 50.9764H30.9832V52.582ZM50.8219 43.4302H50.0155V41.8246C50.3381 42.3063 50.6606 42.9485 50.8219 43.4302ZM47.5961 42.9485C46.6284 42.788 45.4994 42.4668 44.5316 41.9852L46.4671 38.2923C47.1123 39.0951 47.5961 40.3796 47.5961 41.8246V42.9485ZM39.6931 39.0952L39.6929 39.0951C40.0155 38.774 40.3381 38.6134 40.6606 38.4529C41.951 37.6501 43.2413 37.329 44.209 37.329L42.2735 41.0218C41.3059 40.3796 40.4995 39.7374 39.6931 39.0952ZM37.6768 37.0078C37.5961 36.8874 37.5155 36.767 37.4348 36.6867C37.6768 36.6065 37.9187 36.5663 38.1606 36.5262C38.4026 36.486 38.6445 36.4459 38.8865 36.3656H39.209C38.9671 36.5262 38.7655 36.6867 38.5639 36.8473C38.3623 37.0078 38.1606 37.1684 37.9187 37.329C37.8381 37.2487 37.7574 37.1283 37.6768 37.0078ZM45.0513 55.9538C44.9259 55.7932 44.8004 55.6326 44.6929 55.4721C45.6606 54.5087 46.4671 53.3848 47.1123 52.1003L49.5316 53.3848C48.5639 54.8298 47.2736 56.1143 45.6606 56.9171C45.5531 56.596 45.3022 56.2749 45.0513 55.9538L45.0513 55.9538ZM42.9187 53.7059C41.951 52.9031 40.8219 52.1003 39.6929 51.4581L40.8219 48.8892L44.8542 50.9764C44.3703 51.9398 43.7252 52.9031 42.9187 53.7059ZM50.6607 51.137L48.2413 49.8525C48.8865 48.5681 49.3703 47.2836 49.5316 45.9991H51.3058C51.4671 47.7653 51.3058 49.5314 50.6607 51.137ZM37.4348 50.3342C36.3058 49.8525 35.0155 49.3708 33.7252 49.0497C33.8473 48.1985 34.1545 47.3473 34.4365 46.5658C34.5269 46.3155 34.6146 46.0723 34.6929 45.8386L38.7252 47.9258L37.4348 50.3342ZM46.1445 48.7286L42.1123 46.6414L43.4026 44.233C44.6929 44.7147 45.9832 45.1963 47.2736 45.5174C46.951 46.6414 46.6284 47.6047 46.1445 48.7286ZM31.3058 48.5681H30.0155C29.8542 48.5681 29.6929 48.5681 29.5316 48.4075C29.3703 46.6414 29.5316 44.8752 30.1768 43.2696L32.5961 44.5541C32.4726 44.9231 32.349 45.2815 32.2282 45.6322L32.2281 45.6323L32.2281 45.6324L32.2281 45.6325C31.8756 46.6552 31.546 47.6116 31.3058 48.5681ZM40.0155 45.678L35.9832 43.5907C36.4671 42.4668 37.2736 41.664 38.08 41.0218C39.0478 41.8246 40.1768 42.6274 41.3058 43.2696L40.0155 45.678ZM33.7252 42.4668L31.3058 41.1824C32.2736 39.7373 33.5639 38.4529 35.1768 37.6501C35.2843 37.9712 35.5352 38.2923 35.7861 38.6134L35.7862 38.6135C35.9116 38.7741 36.037 38.9346 36.1445 39.0951C35.3381 40.0585 34.5316 41.1824 33.7252 42.4668ZM54.0479 55.4716L53.4028 64.4629C52.435 65.2657 51.6286 65.9079 51.6286 65.9079C50.9834 66.5502 50.0157 68.3163 50.8221 69.1191C51.4673 69.9219 53.4028 69.2797 54.0479 68.6374L55.6608 67.0318H65.177L66.306 65.9079L58.564 63.9812L59.3705 63.1784C60.0911 62.4611 60.7111 61.7938 61.2586 61.2046C61.6914 60.7388 62.0789 60.3217 62.435 59.9673H65.6608L66.6286 58.8434L63.7253 57.5589L62.7576 54.3477L61.6286 55.3111L61.1447 58.3617C60.4995 58.7898 59.7827 59.3607 58.9463 60.0268L58.9457 60.0272C58.5277 60.3601 58.0799 60.7167 57.5963 61.0912C57.435 61.1715 57.2737 61.2919 57.1125 61.4123L57.1124 61.4123L57.1124 61.4123C56.9511 61.5327 56.7898 61.6531 56.6286 61.7334L55.1769 53.866L54.0479 55.4716ZM55.6599 30.2632C60.4986 34.7589 63.4018 40.6995 63.7244 47.2824H65.3373C65.0147 40.2178 61.9502 33.7955 56.7889 29.1393C51.6276 24.4831 44.8535 22.0747 37.918 22.3959V24.0014C44.5309 23.6803 50.8212 25.9281 55.6599 30.2632ZM60.5004 44.8741C59.5326 39.4152 56.4681 34.4378 52.1133 31.2267L53.081 29.9422C57.7585 33.4745 61.1455 38.7729 62.1133 44.553L60.5004 44.8741ZM17.9199 51.458C19.5328 57.0775 23.4038 62.0548 28.4038 65.1055L29.3715 63.6604C24.5328 60.9309 20.9844 56.2747 19.5328 50.9763L17.9199 51.458ZM40.663 71.3672C35.0179 71.3672 29.3727 69.6011 24.8566 66.0688C19.2114 61.8943 15.6631 55.6325 14.6953 48.7285L16.3082 48.5679C17.1147 54.9903 20.5018 60.7704 25.8243 64.7843C30.9856 68.7983 37.5985 70.4039 44.0501 69.6011L44.2114 71.2067C43.5448 71.2067 42.9212 71.2495 42.3185 71.2909L42.3183 71.291C41.7544 71.3297 41.2087 71.3672 40.663 71.3672ZM21.9508 30.2642C27.7573 25.2869 31.7895 26.2502 32.1121 26.4108C32.1121 26.4108 32.2734 26.5714 32.1121 27.053C32.1121 28.4981 31.3056 31.5487 27.596 35.2415L27.5959 35.2416C26.9508 35.8838 26.3056 36.526 25.6605 37.0077L25.0153 39.7371L22.596 41.8244L21.4669 38.9344C20.4992 39.0949 20.0153 38.9344 19.6927 38.7738L18.5637 39.7371L17.596 38.6132L18.5637 37.6499C18.2411 37.1682 18.2411 36.6866 18.2411 36.0443V36.0443L15.3379 34.9204L17.4347 32.512L20.3379 31.8698C21.1444 30.9064 21.9508 30.2642 21.9508 30.2642ZM23.8863 32.0303C23.8863 32.9937 24.6927 33.6359 25.4992 33.6359C26.3056 33.6359 27.1121 32.8331 27.1121 32.0303C27.1121 31.067 26.4669 30.4248 25.4992 30.4248C24.5314 30.4248 23.8863 31.2275 23.8863 32.0303Z" fill="white"/>
</svg>
