<svg width="80" height="93" viewBox="0 0 80 93" fill="none" xmlns="http://www.w3.org/2000/svg">
<path fill-rule="evenodd" clip-rule="evenodd" d="M40 92.7997L0 69.8399V23.9202L40 0.799805L80 23.7596V69.6793L40 92.7997ZM1.93549 68.716L40 90.5519L78.0646 68.716V24.8836L40 3.04762L1.93549 24.8836V68.716ZM61.1312 64.0604C57.5247 64.0604 53.2183 61.4125 50.69 58.194C49.8607 58.7572 48.8488 59.0831 47.7433 59.0831C45.1718 59.0831 43.1064 57.3196 42.6681 54.9083H36.5276C36.0892 57.3196 34.0238 59.0831 31.4523 59.0831C30.5547 59.0831 29.7188 58.8682 28.9922 58.486C25.7485 62.4157 19.6407 64.7766 16.1312 63.2576C12.4215 61.652 12.5828 56.1931 16.615 47.2018C16.615 46.8807 16.4538 46.0779 16.2925 45.5962C16.218 45.1512 16.109 44.7404 16.0134 44.3797C15.902 43.9596 15.8086 43.6075 15.8086 43.3484C15.8086 37.4077 20.6473 32.7515 26.4538 32.7515C28.8731 32.7515 31.1312 33.5543 33.0667 34.9994H46.4538C48.3893 33.5543 50.6473 32.7515 53.0667 32.7515C59.0344 32.7515 63.7118 37.5683 63.7118 43.3484C63.7118 43.9906 63.5506 44.7934 63.228 45.5962C63.0667 46.0779 62.9054 46.8807 62.9054 47.2018C63.8731 49.289 65.3248 52.9819 65.6473 56.5142C66.1312 61.1704 64.5183 62.9365 62.9054 63.5787C62.7441 63.8999 61.9377 64.0604 61.1312 64.0604ZM62.5828 61.8126C59.9432 62.8946 54.7626 60.4054 52.0772 56.7803C52.6025 55.9736 52.9046 55.0024 52.9046 53.9452C52.9046 51.0552 50.6466 48.8074 47.7433 48.8074C45.0592 48.8074 42.9265 50.7288 42.6199 53.3027H36.5757C36.2692 50.7288 34.1365 48.8074 31.4523 48.8074C28.5491 48.8074 26.291 51.0552 26.291 53.9452C26.291 55.2129 26.7254 56.3569 27.4582 57.242C24.7194 60.475 19.5305 62.7061 16.9376 61.4915C14.5183 60.3676 15.0021 55.3903 18.3892 47.844C18.5505 47.3623 18.3892 46.5596 18.0667 45.1145C17.9054 44.3117 17.7441 43.5089 17.7441 43.1878C17.7441 38.2105 21.7763 34.3571 26.6151 34.3571C28.7118 34.3571 30.6473 35.1599 32.2602 36.4444L32.5828 36.6049H47.2602L47.5828 36.4444C49.1957 35.1599 51.1312 34.3571 53.228 34.3571C58.228 34.3571 62.0989 38.3711 62.0989 43.1878C62.0989 43.6695 61.9377 44.4723 61.7764 45.1145C61.2925 46.5596 61.1312 47.3623 61.4538 47.844C62.9054 51.0552 63.8731 54.2664 64.1957 56.6747C64.5183 59.5648 63.8731 61.1704 62.5828 61.8126ZM31.4523 49.9313C29.3555 49.9313 27.5813 51.6974 27.5813 53.7847C27.5813 55.8719 29.3555 57.6381 31.4523 57.6381C33.5491 57.6381 35.3233 55.8719 35.3233 53.7847C35.3233 51.6974 33.7104 49.9313 31.4523 49.9313ZM28.5469 53.9443C28.5469 55.5499 29.8372 56.8344 31.4501 56.8344C33.063 56.8344 34.3533 55.5499 34.3533 53.9443C34.3533 52.3387 33.063 51.0542 31.4501 51.0542C29.8372 51.0542 28.5469 52.3387 28.5469 53.9443ZM29.5146 53.9443C29.5146 52.8204 30.3211 52.0176 31.4501 52.0176C32.5791 52.0176 33.5469 52.8204 33.3856 53.9443C33.3856 55.0682 32.5791 55.871 31.4501 55.871C30.3211 55.871 29.5146 55.0682 29.5146 53.9443ZM47.7433 49.9313C45.6465 49.9313 43.8724 51.6974 43.8724 53.7847C43.8724 55.8719 45.6465 57.6381 47.7433 57.6381C49.8401 57.6381 51.6143 55.8719 51.6143 53.7847C51.6143 51.6974 49.8401 49.9313 47.7433 49.9313ZM44.8398 53.9443C44.8398 55.5499 46.1302 56.8344 47.7431 56.8344C49.356 56.8344 50.6463 55.5499 50.6463 53.9443C50.6463 52.3387 49.356 51.0542 47.7431 51.0542C46.1302 51.0542 44.8398 52.3387 44.8398 53.9443ZM45.8076 53.9443C45.8076 52.8204 46.614 52.0176 47.7431 52.0176C48.8721 52.0176 49.6786 52.8204 49.6786 53.9443C49.6786 55.0682 48.8721 55.871 47.7431 55.871C46.614 55.871 45.8076 55.0682 45.8076 53.9443ZM28.2257 41.2614H26.4515V39.4953C26.4515 39.0136 26.1289 38.6925 25.645 38.6925H24.516C24.0321 38.6925 23.7096 39.0136 23.7096 39.4953V41.2614H21.9354C21.4515 41.2614 21.1289 41.5826 21.1289 42.0642V43.1881C21.1289 43.6698 21.4515 43.9909 21.9354 43.9909H23.7096V45.7571C23.7096 46.2388 24.0321 46.5599 24.516 46.5599H25.645C26.1289 46.5599 26.4515 46.2388 26.4515 45.7571V43.9909H28.2257C28.7096 43.9909 29.0321 43.6698 29.0321 43.1881V42.0642C29.0321 41.7431 28.7096 41.2614 28.2257 41.2614ZM54.1946 40.6186C54.8398 40.6186 55.4849 40.1369 55.4849 39.3341C55.4849 38.5313 54.8398 38.0497 54.1946 38.0497C53.5495 38.0497 52.9043 38.5313 52.9043 39.3341C52.9043 39.9764 53.3882 40.6186 54.1946 40.6186ZM55.4849 46.2391C55.4849 47.0419 54.8398 47.5235 54.1946 47.5235C53.3882 47.5235 52.9043 46.8813 52.9043 46.2391C52.9043 45.4363 53.5495 44.9546 54.1946 44.9546C54.8398 44.794 55.4849 45.4363 55.4849 46.2391ZM56.291 42.8667C56.291 43.5089 56.7749 44.1512 57.5813 44.1512C58.3878 44.1512 58.8717 43.5089 58.8717 42.8667C58.8717 42.2245 58.3878 41.5822 57.5813 41.5822C56.9362 41.5822 56.291 42.0639 56.291 42.8667ZM50.6438 44.1512C49.8374 44.1512 49.3535 43.5089 49.3535 42.8667C49.3535 42.0639 49.9987 41.5822 50.6438 41.5822C51.4503 41.5822 51.9342 42.2245 51.9342 42.8667C52.0955 43.5089 51.4503 44.1512 50.6438 44.1512ZM35.6456 45.2754H44.0327C45.1617 45.2754 46.1295 44.3121 46.1295 43.1881C46.1295 42.0642 45.1617 41.1009 44.0327 41.1009H35.6456C34.5166 41.1009 33.5488 42.0642 33.5488 43.1881C33.5488 44.3121 34.5166 45.2754 35.6456 45.2754ZM34.5166 43.3487C34.5166 42.7065 35.0004 42.2248 35.6456 42.2248H44.0327C44.6779 42.2248 45.1617 42.7065 45.1617 43.3487C45.1617 43.9909 44.6779 44.4726 44.0327 44.4726H35.6456C35.0004 44.4726 34.5166 43.9909 34.5166 43.3487Z" fill="white"/>
</svg>
