<svg width="81" height="92" viewBox="0 0 81 92" fill="none" xmlns="http://www.w3.org/2000/svg">
<path fill-rule="evenodd" clip-rule="evenodd" d="M40.6992 92.0001L0.699219 69.0001V23L40.6992 0L80.6992 23V69.0001L40.6992 92.0001ZM2.63467 68.035L40.6992 89.9092L78.7638 68.035V24.1259L40.6992 2.25175L2.63467 24.1259V68.035ZM35.0558 33.9367L29.8945 31.0416L30.2171 28.7899L34.572 29.7549L35.5397 28.9507L34.8945 27.9857L30.5397 27.5032L31.0236 25.4123L36.83 24.2864L40.1001 28.3237L53.0005 28.5711C53.0392 28.5366 53.0783 28.5024 53.1178 28.4687C54.2468 27.5036 55.6984 27.182 57.15 27.3428C58.6017 27.5036 59.892 28.3078 60.8597 29.4337C61.8274 30.5596 62.1501 32.0071 61.9888 33.4547C61.8374 34.8135 61.1174 36.0306 60.0958 36.973L57.1389 51.8503C57.3546 52.5499 57.4525 53.2873 57.4324 54.0373C59.917 51.9411 61.5061 49.5386 61.5061 49.5386C61.8286 49.0561 62.4738 48.8953 62.9577 49.2169C63.4415 49.5386 63.6028 50.182 63.2803 50.6645C63.2803 50.9197 59.9286 56.1378 54.8372 58.2816L54.7334 58.3851C54.6536 58.3851 54.5837 58.3949 54.5212 58.4097C53.2842 58.8924 51.9492 59.189 50.5383 59.189C46.1835 59.189 42.1512 56.2939 38.6028 50.6645C35.377 45.3568 31.8287 42.6225 28.119 42.6225H27.9577C23.1287 42.6225 19.362 47.2124 18.2727 48.5397L18.2727 48.5398C18.0886 48.7641 17.981 48.8952 17.9576 48.8952C17.6351 49.3778 16.9899 49.5386 16.506 49.2169C16.0222 48.8953 15.8609 48.2519 16.1834 47.7694C16.3447 47.4477 21.1835 40.3708 28.119 40.5316C32.4738 40.5316 36.6673 43.5876 40.377 49.5386C41.5745 51.4869 42.8212 53.0668 44.1076 54.2688C44.0666 53.645 44.1176 53.026 44.2495 52.434C44.5501 50.7852 45.5512 49.4157 46.861 48.4559L52.4175 36.5428C52.0346 36.1198 51.7189 35.6364 51.4824 35.1102L38.6016 31.685L38.6246 31.5642L35.0558 33.9367ZM39.8474 30.7513L51.0718 33.7648C50.983 33.2508 50.9633 32.7145 51.021 32.168C51.1276 31.2112 51.5161 30.3247 52.0933 29.5549L40.1018 29.2735L39.8946 30.7199L39.8474 30.7513ZM31.0236 30.5591L35.0558 32.8109L38.7655 30.5591L38.9268 29.2724L36.1849 25.8948L31.6687 26.699V27.0206L35.3784 27.3423L36.83 29.5941L34.7332 31.2025L31.1849 30.3983L31.0236 30.5591ZM56.5048 38.2799H55.8597C54.8217 38.1709 53.8947 37.7852 53.1352 37.2039L48.3284 47.6364C49.5148 47.1644 50.8338 47.048 52.1527 47.2872C53.9269 47.6088 55.3786 48.7347 56.3463 50.1823L56.3676 50.2143L58.8149 37.7405C58.0675 38.0691 57.251 38.2799 56.5048 38.2799ZM56.5048 29.4337C55.6984 29.4337 55.0533 29.7554 54.4082 30.077L54.4081 30.0771C53.7629 30.5596 53.2791 31.3638 53.1178 32.3288C52.9565 34.098 54.2468 35.8673 56.021 36.0281C56.9887 36.189 57.7952 35.8673 58.4403 35.3848C59.0855 34.9022 59.5694 34.098 59.7307 33.133C59.8919 32.168 59.5694 31.3638 59.0855 30.7204C58.6016 30.0771 57.7952 29.5945 56.8274 29.4337H56.5048ZM50.377 57.0981C52.3544 57.0981 54.2143 56.3112 55.8267 55.2452C55.9473 55.0782 56.0237 54.937 56.0237 54.8466C56.3463 53.3991 56.0237 51.9515 55.2172 50.6648C54.4108 49.3781 53.1205 48.5739 51.6688 48.2522C50.2172 47.9305 48.7656 48.2522 47.4753 49.0564C46.185 49.8606 45.3786 51.1473 45.056 52.5949C44.8404 53.4546 44.9129 54.3144 45.1772 55.1742C46.8563 56.45 48.5964 57.0981 50.377 57.0981ZM38.6028 62.7275C42.1512 68.3569 46.1835 71.252 50.5383 71.252C57.9577 71.252 63.2803 63.0492 63.2803 62.7275C63.6028 62.245 63.4415 61.6017 62.9577 61.28C62.4738 60.9583 61.8286 61.1192 61.5061 61.6017C61.5061 61.6017 56.5061 69.1611 50.377 69.1611C46.8286 69.1611 43.4415 66.5877 40.377 61.6017C36.6673 55.6506 32.4738 52.5947 28.119 52.5947H27.9577C21.1835 52.5947 16.3447 59.5108 16.1834 59.8324C15.8609 60.315 16.0222 60.9583 16.506 61.28C16.9899 61.6017 17.6351 61.4408 17.9576 60.9583C17.981 60.9583 18.0886 60.8272 18.2727 60.6029L18.2727 60.6028C19.362 59.2755 23.1287 54.6856 27.9577 54.6856H28.119C31.8287 54.6856 35.377 57.4198 38.6028 62.7275Z" fill="white"/>
</svg>
