<svg width="75" height="72" viewBox="0 0 75 72" fill="none" xmlns="http://www.w3.org/2000/svg">
<path fill-rule="evenodd" clip-rule="evenodd" d="M27.0521 68.6488C26.9456 68.7698 26.8049 68.8528 26.6288 68.8924C26.3768 68.9489 26.1669 68.9389 25.9622 68.8764C25.8805 68.8547 25.7991 68.8216 25.7179 68.777L25.5622 68.6919L7.82773 48.1039C7.73341 47.988 7.66889 47.8654 7.62429 47.7554C7.57602 47.6292 7.55038 47.515 7.53328 47.4388L9.88424 13.1326L9.80984 13.0294C9.66061 12.783 9.60021 12.4252 9.66568 12.1592C9.69246 12.0503 9.74187 11.9535 9.8112 11.8694C9.93604 11.7157 10.1351 11.6139 10.406 11.5531L48.4075 3.02116C48.6865 2.95851 49.1315 3.00142 49.3664 3.38855L67.1009 23.9766C67.3013 24.2229 67.333 24.3643 67.3636 24.5003C67.3721 24.5384 67.3779 24.577 67.3865 24.6151L67.4231 24.7783L65.1357 59.3672C65.1196 59.5365 65.077 59.6889 65.0093 59.8183C64.8991 60.0373 64.7204 60.1917 64.4603 60.2501L27.0521 68.6488ZM11.6705 15.1194L27.587 33.5793L27.6187 33.7207L27.0054 42.7757L9.63277 46.6761L11.6705 15.1194ZM26.9585 43.5174L9.93263 47.34L25.4988 65.3929L26.9585 43.5174ZM64.6473 24.0876L49.0427 6.06614L47.5917 27.9168L64.6473 24.0876ZM46.8765 28.0774L48.3237 5.23359L12.5382 13.268L28.8645 32.1214L46.8765 28.0774ZM28.9721 42.3341L29.5231 33.8758L46.7603 30.0058L46.2499 38.455L28.9721 42.3341ZM47.4646 29.8477L46.8927 38.4535L46.9244 38.5949L63.3819 57.6016L65.3302 25.8365L47.4646 29.8477ZM63.094 58.5117L46.3249 39.1693L28.9252 43.0759L27.4006 66.5254L63.094 58.5117Z" fill="#2F586F"/>
</svg>
