<svg width="85" height="136" viewBox="0 0 85 136" fill="none" xmlns="http://www.w3.org/2000/svg">
<path d="M84.5596 33.5149L62.3627 6.70298L125.782 51.6835L84.5596 33.5149ZM83.1503 83.9637L132.477 58.3865L81.3886 131.943L83.1503 83.9637ZM52.6736 99.4864L77.1606 132.119L5.98964 81.847L52.6736 99.4864ZM55.8446 3.52789L54.2591 49.214L4.40414 76.3787L55.8446 3.52789ZM84.7357 40.9235L84.9119 35.9844L133.358 57.1518L83.1503 83.0817L84.7357 40.9235ZM2.99482 79.5538L54.2591 51.6835L52.6736 98.6044L3.69948 80.2594L2.99482 79.5538ZM54.9637 48.8612L56.5492 3.1751L82.2694 34.0441L54.9637 48.8612ZM80.8601 85.022L79.0984 133.53L78.9223 133.354L53.3782 99.31L80.8601 85.022ZM53.2021 98.6044L54.7876 51.3307L82.6218 36.1608L81.2124 76.0259L80.8601 84.3165L53.2021 98.6044ZM136 57.1518C136 56.9754 136 56.9754 136 56.9754V56.799V56.6226C136 56.6226 136 56.6226 136 56.4462C136 56.4462 136 56.4462 136 56.2698C136 56.2698 136 56.2698 135.824 56.0934L56.9016 0.176394C56.9016 0.176394 56.7254 0.176394 56.7254 0H56.5492H56.3731H56.1969H56.0207C56.0207 0 55.8446 0 55.8446 0.176394C55.8446 0.176394 55.8446 0.176394 55.8446 0.352789L0 78.8483V79.0246V79.201V79.3774V79.5538C0 79.5538 0 79.7302 0.176166 79.7302C0.176166 79.7302 0.352332 79.7302 0.352332 79.9066L79.4508 136C79.4508 136 79.4508 136 79.6269 136C79.6269 136 79.6269 136 79.8031 136H79.9793H80.1554C80.1554 136 80.1554 136 80.3316 136H80.5078C80.5078 136 80.6839 136 80.6839 135.824L80.8601 135.647L136 57.1518C135.824 57.3281 135.824 57.3281 136 57.1518C135.824 57.3281 135.824 57.1518 136 57.1518C135.824 57.1518 135.824 57.1518 136 57.1518Z" fill="#2F586F"/>
</svg>
