<svg width="82" height="126" viewBox="0 0 82 126" fill="none" xmlns="http://www.w3.org/2000/svg">
<path d="M6.44913 77.0068C10.5453 65.7449 18.1182 52.4778 27.9256 39.9019C49.3991 12.0389 71.2942 -0.6999 78.6172 4.64656L82.2651 11.3208C82.4666 15.2856 81.4594 20.5197 79.1733 26.5905C75.0191 38.0397 67.4462 51.3069 57.3947 64.0126C47.5293 76.776 36.5101 87.3338 26.7088 93.9551C21.2907 97.6192 16.5808 99.6538 12.8934 100.362L5.81771 98.1725C2.4874 95.0883 2.58492 87.5188 6.44913 77.0068ZM118.777 76.6355C120.221 77.9038 120.41 81.2486 119.018 85.7475C118.902 86.1224 118.844 86.3099 118.728 86.6848C116.803 92.2508 113.167 98.7257 108.17 104.985C97.7007 118.383 86.7821 124.658 83.522 122.007C80.2619 119.355 83.6591 107.055 94.1288 93.6573C104.598 80.2594 115.517 73.9837 118.777 76.6355ZM14.7554 100.938C18.3146 99.9848 22.6521 97.835 27.4658 94.8055C37.5113 88.0544 48.3443 77.4389 58.4539 64.5457C68.3192 51.7824 76.1363 38.3854 80.2905 26.9361C82.1585 21.5575 83.2359 16.756 83.4068 12.9063L116.924 73.3921C110.258 73.1782 100.005 81.9191 92.1843 92.0288C87.1295 98.4754 82.7738 105.96 80.8021 112.333C79.7582 115.707 79.4469 118.692 79.9842 120.912L14.7554 100.938ZM82.3377 124.516C88.4611 128.464 101.098 118.612 110.243 106.858C115.17 100.167 119.049 93.562 121.091 87.6211C123.133 81.6802 123.106 77.153 120.718 74.9767L80.7448 3.04542C80.6166 2.80036 80.6166 2.80036 80.4304 2.74276C75.8546 -0.932197 67.5611 0.815303 57.0272 7.82614C46.9816 14.5773 35.9044 25.3225 25.7949 38.2157C15.6854 51.1089 8.05447 64.5635 3.8423 76.2003C3.49434 77.325 3.20437 78.2623 2.91441 79.1996C-0.333205 89.697 0.18588 97.2518 4.4472 100.624C4.6334 100.682 4.81961 100.739 4.81961 100.739L82.3377 124.516Z" fill="#2F586F"/>
</svg>
