<svg width="73" height="139" viewBox="0 0 73 139" fill="none" xmlns="http://www.w3.org/2000/svg">
<path d="M69.4296 55.2818L52.3707 112.95V76.1617L69.4296 55.2818ZM52.3707 74.9685V53.4921L70.223 52.8956V53.0944L52.3707 74.9685ZM18.8482 113.149L26.3858 107.78L45.0315 118.319L46.2216 118.916L18.8482 113.149ZM16.2695 115.137L45.8249 121.501L-14.0793 136.216L16.2695 115.137ZM-46.4118 95.8484L-22.8071 131.841L-65.8509 88.4907L-46.4118 95.8484ZM-53.156 85.309L-48.3953 92.4678L-66.446 85.9056L-53.156 85.309ZM-52.5609 64.0315L-53.3543 84.5136L-68.4295 85.1102H-68.6279L-52.5609 64.0315ZM-52.3625 59.6567L-67.6361 79.3434L-50.7757 24.8569L-52.3625 59.6567ZM-20.6252 25.2546L-28.7579 30.0272L-45.42 19.8856L-20.6252 25.2546ZM-19.6334 24.6581L-46.4118 18.8913L15.0793 4.17597L-19.6334 24.6581ZM18.8482 7.35765L6.54993 30.226L-16.2613 25.2546L20.8317 3.38054L18.8482 7.35765ZM44.238 42.3562L7.54173 30.4249L22.2202 2.78398L44.238 42.3562ZM47.6101 43.3505L28.3694 8.55079L68.8345 50.3104L47.6101 43.3505ZM51.7757 51.1059L48.2052 44.5436L67.2476 50.7082L51.7757 51.1059ZM26.5841 106.587L20.6334 83.1216L49.7921 55.2818V77.9514L26.5841 106.587ZM-9.5171 109.371L-18.4432 136.017L-19.8317 134.625L-45.0233 96.2461L-9.5171 109.371ZM-51.9658 85.5079L-12.4925 96.8426L-9.91382 106.785L-47.2052 93.0644L-51.9658 85.5079ZM-23.0055 57.2704L-52.5609 83.917L-51.5691 62.8383L-29.1546 34.0043L-23.0055 57.2704ZM-1.18604 37.3848L-25.5841 31.0215L-17.0547 26.0501L6.15322 31.0215L-1.18604 37.3848ZM9.72367 40.1688L7.34337 31.2203L44.6348 43.3505L48.6019 50.3104L9.72367 40.1688ZM10.3187 42.9528L48.6019 53.0944L20.0383 80.3376L10.3187 42.9528ZM-0.194252 37.5837L6.54993 31.4192L8.73188 39.97L-0.194252 37.5837ZM-21.0219 55.2818L-26.9726 33.01L-3.36799 39.1745L-21.0219 55.2818ZM-0.194252 99.4278L-10.1122 96.6438L-21.0219 56.2761L-2.57455 39.5722L9.12859 42.7539L19.0465 81.1331L-0.194252 99.4278ZM2.58276 100.223L19.8399 83.7182L25.7907 106.785L2.58276 100.223ZM1.98769 100.82L25.5923 107.581L17.8564 112.95L-5.35158 107.979L1.98769 100.82ZM-0.789322 100.024L-7.33516 106.189L-9.71546 97.4392L-0.789322 100.024ZM-52.1642 84.5136L-22.8071 58.0658L-12.6908 95.8484L-52.1642 84.5136ZM-13.0875 127.466L-7.33516 109.967L14.881 114.74L-16.0629 136.614L-13.0875 127.466ZM-45.42 22.6695L-30.5431 31.618L-51.3707 58.4635L-49.7839 21.6752L-49.3871 20.2833L-45.42 22.6695ZM48.9986 119.711L27.1792 107.382L49.9904 79.3434V120.109L48.9986 119.711ZM73 51.7024V51.5036V51.3047C73 51.3047 73 51.1059 72.8017 51.1059L23.6088 0.198856C23.6088 0.198856 23.6088 0.198856 23.4104 0C23.4104 0 23.4104 0 23.212 0C23.212 0 23.212 0 23.0137 0C23.0137 0 23.0137 0 22.8153 0C22.8153 0 22.8153 0 22.617 0C22.617 0 22.617 0 22.4186 0C22.4186 0 22.4186 0 22.2202 0L-50.3789 17.3004C-50.3789 17.3004 -50.3789 17.3004 -50.5773 17.3004C-50.5773 17.3004 -50.7757 17.3004 -50.7757 17.4993C-50.7757 17.4993 -50.974 17.4993 -50.974 17.6981L-51.1724 17.897V18.0958L-72 85.1102C-72 85.1102 -72 85.1102 -72 85.309C-72 85.309 -72 85.309 -72 85.5079C-72 85.5079 -72 85.5079 -72 85.7067C-72 85.7067 -72 85.7067 -72 85.9056C-72 85.9056 -72 85.9056 -72 86.1044L-19.2367 139C-19.2367 139 -19.2367 139 -19.0383 139C-19.0383 139 -19.0383 139 -18.8399 139H-18.6416H-18.4432H-18.2449L50.9822 122.097C50.9822 122.097 50.9822 122.097 51.1806 122.097L71.8098 52.299C73 51.9013 73 51.9013 73 51.7024Z" fill="#2F586F"/>
</svg>
