<svg width="145" height="139" viewBox="0 0 145 139" fill="none" xmlns="http://www.w3.org/2000/svg">
<path d="M141.43 55.2818L124.371 112.95V76.1617L141.43 55.2818ZM124.371 74.9685V53.4921L142.223 52.8956V53.0944L124.371 74.9685ZM90.8482 113.149L98.3858 107.78L117.031 118.319L118.222 118.916L90.8482 113.149ZM88.2695 115.137L117.825 121.501L57.9207 136.216L88.2695 115.137ZM25.5882 95.8484L49.1929 131.841L6.14911 88.4907L25.5882 95.8484ZM18.844 85.309L23.6047 92.4678L5.55404 85.9056L18.844 85.309ZM19.4391 64.0315L18.6457 84.5136L3.57045 85.1102H3.37209L19.4391 64.0315ZM19.6375 59.6567L4.36389 79.3434L21.2243 24.8569L19.6375 59.6567ZM51.3748 25.2546L43.2421 30.0272L26.58 19.8856L51.3748 25.2546ZM52.3666 24.6581L25.5882 18.8913L87.0793 4.17597L52.3666 24.6581ZM90.8482 7.35765L78.5499 30.226L55.7387 25.2546L92.8317 3.38054L90.8482 7.35765ZM116.238 42.3562L79.5417 30.4249L94.2202 2.78398L116.238 42.3562ZM119.61 43.3505L100.369 8.55079L140.834 50.3104L119.61 43.3505ZM123.776 51.1059L120.205 44.5436L139.248 50.7082L123.776 51.1059ZM98.5841 106.587L92.6334 83.1216L121.792 55.2818V77.9514L98.5841 106.587ZM62.4829 109.371L53.5568 136.017L52.1683 134.625L26.9767 96.2461L62.4829 109.371ZM20.0342 85.5079L59.5075 96.8426L62.0862 106.785L24.7948 93.0644L20.0342 85.5079ZM48.9945 57.2704L19.4391 83.917L20.4309 62.8383L42.8454 34.0043L48.9945 57.2704ZM70.814 37.3848L46.4159 31.0215L54.9453 26.0501L78.1532 31.0215L70.814 37.3848ZM81.7237 40.1688L79.3434 31.2203L116.635 43.3505L120.602 50.3104L81.7237 40.1688ZM82.3187 42.9528L120.602 53.0944L92.0383 80.3376L82.3187 42.9528ZM71.8057 37.5837L78.5499 31.4192L80.7319 39.97L71.8057 37.5837ZM50.9781 55.2818L45.0274 33.01L68.632 39.1745L50.9781 55.2818ZM71.8057 99.4278L61.8878 96.6438L50.9781 56.2761L69.4254 39.5722L81.1286 42.7539L91.0465 81.1331L71.8057 99.4278ZM74.5828 100.223L91.8399 83.7182L97.7907 106.785L74.5828 100.223ZM73.9877 100.82L97.5923 107.581L89.8564 112.95L66.6484 107.979L73.9877 100.82ZM71.2107 100.024L64.6648 106.189L62.2845 97.4392L71.2107 100.024ZM19.8358 84.5136L49.1929 58.0658L59.3092 95.8484L19.8358 84.5136ZM58.9125 127.466L64.6648 109.967L86.881 114.74L55.9371 136.614L58.9125 127.466ZM26.58 22.6695L41.4569 31.618L20.6293 58.4635L22.2161 21.6752L22.6129 20.2833L26.58 22.6695ZM120.999 119.711L99.1792 107.382L121.99 79.3434V120.109L120.999 119.711ZM145 51.7024V51.5036V51.3047C145 51.3047 145 51.1059 144.802 51.1059L95.6088 0.198856C95.6088 0.198856 95.6088 0.198856 95.4104 0C95.4104 0 95.4104 0 95.212 0C95.212 0 95.212 0 95.0137 0C95.0137 0 95.0137 0 94.8153 0C94.8153 0 94.8153 0 94.617 0C94.617 0 94.617 0 94.4186 0C94.4186 0 94.4186 0 94.2202 0L21.6211 17.3004C21.6211 17.3004 21.6211 17.3004 21.4227 17.3004C21.4227 17.3004 21.2243 17.3004 21.2243 17.4993C21.2243 17.4993 21.026 17.4993 21.026 17.6981L20.8276 17.897V18.0958L0 85.1102C0 85.1102 0 85.1102 0 85.309C0 85.309 0 85.309 0 85.5079C0 85.5079 0 85.5079 0 85.7067C0 85.7067 0 85.7067 0 85.9056C0 85.9056 0 85.9056 0 86.1044L52.7633 139C52.7633 139 52.7633 139 52.9617 139C52.9617 139 52.9617 139 53.1601 139H53.3584H53.5568H53.7551L122.982 122.097C122.982 122.097 122.982 122.097 123.181 122.097L143.81 52.299C145 51.9013 145 51.9013 145 51.7024Z" fill="#2F586F"/>
</svg>
