<svg width="105" height="274" fill="none" xmlns="http://www.w3.org/2000/svg"><path fill-rule="evenodd" clip-rule="evenodd" d="M-86.754 224.305l-46.241-93.574 57.888-86.4 104.129 7.173 46.24 93.574-57.887 86.4-104.13-7.173zm-41.186-93.251l44.02 89.021 99.073 6.851 55.055-82.171L26.39 55.432l-99.276-6.549-55.054 82.171zm158.607 28.79l-6.966-13.86 8.5-12.688-14.537-30.75-17.793-.979-13.966 20.845 6.562 14.464-26.718 39.877c-1.314-.005-2.528.495-3.337 1.703-1.215 1.813-.508 4.037 1.007 5.052 1.82 1.219 4.044.521 5.056-.99.81-1.208.81-2.521.306-3.734l18.419-27.491 4.745 9.307-11.74 17.522c-1.314-.005-2.527.495-3.337 1.703-1.214 1.813-.508 4.037 1.008 5.053 1.819 1.218 4.043.52 5.056-.99.81-1.209.81-2.521.305-3.735l12.954-19.334-6.765-12.849 7.287-10.876-6.562-14.463 11.74-17.522 13.85.963 13.023 27.11-6.274 9.365-10.904-21.751c.405-.604.81-1.208.708-1.713.103-2.12-1.311-3.943-3.434-4.052-2.123-.11-3.944 1.297-4.046 3.417-.103 2.12 1.311 3.942 3.434 4.052l18.78 37.531-15.18 22.658-12.638-.151 15.99-23.866-5.755-11.734c.405-.604.607-.906.709-1.714.102-2.12-1.312-3.943-3.435-4.052-2.123-.109-3.944 1.297-4.046 3.417-.103 2.12 1.311 3.943 3.434 4.052l.304.203 4.846 9.813-24.086 35.95-30.33-.624-4.945-12.943 27.527-41.086c2.123.11 3.944-1.297 4.046-3.417.103-2.119-1.312-3.942-3.435-4.052-2.123-.109-3.943 1.297-4.046 3.417-.102.808 0 1.313.403 2.021l-28.337 42.294 6.763 16.787 34.576.842 8.096-12.084 16.883.369 17.205-25.678-.91-.609zm-37.47-61.435l-28.337 42.293c.03.153.089.325.152.512.147.432.322.946.251 1.509-.103 2.12-1.923 3.526-4.046 3.417-2.123-.109-3.538-1.932-3.435-4.052.103-2.12 1.923-3.526 4.046-3.417l27.325-40.783-4.945-12.943-30.33-.624-24.086 35.95 4.543 9.609.303.203c2.123.11 3.537 1.933 3.435 4.052-.103 2.12-1.924 3.527-4.047 3.417-2.123-.109-3.537-1.932-3.434-4.052.101-.807.304-1.109.709-1.713l-5.755-11.735 15.99-23.866-12.84-1.16-15.382 22.959 18.78 37.531c2.122.11 3.537 1.933 3.434 4.053-.103 2.119-1.923 3.526-4.046 3.416-2.123-.109-3.537-1.932-3.435-4.052-.1-.505.304-1.109.709-1.713l-10.904-21.75-6.275 9.365 13.024 27.109 13.85.963 11.74-17.521-6.562-14.464 7.286-10.876-6.765-12.849 12.954-19.334c-.505-1.214-.504-2.526.306-3.734 1.012-1.511 3.237-2.209 5.056-.99 1.515 1.015 2.222 3.24 1.007 5.052-.81 1.208-2.023 1.708-3.337 1.703l-11.942 17.824 4.745 9.307 18.42-27.49c-.506-1.214-.505-2.527.305-3.735 1.012-1.51 3.237-2.209 5.056-.99 1.515 1.016 2.222 3.24 1.007 5.052-.81 1.209-2.023 1.709-3.337 1.704l-26.718 39.877 6.562 14.463-13.966 20.845-17.793-.978-14.538-30.751 8.501-12.688-6.966-13.859 17.407-25.98 16.883.368 8.096-12.084 34.576.843 6.763 16.787z" fill="#F58935"/></svg>