<svg width="67" height="69" fill="none" xmlns="http://www.w3.org/2000/svg"><path d="M3.334 41.876c2.225-6.115 6.337-13.32 11.663-20.149C26.657 6.597 38.547-.321 42.524 2.582l1.981 3.624c.11 2.154-.437 4.996-1.679 8.292C40.57 20.716 36.458 27.92 31 34.82c-5.358 6.93-11.341 12.664-16.664 16.26-2.942 1.99-5.5 3.094-7.502 3.479l-3.842-1.19c-1.809-1.674-1.756-5.784.342-11.493zm60.998-.201c.784.688.887 2.505.131 4.948l-.157.509c-1.046 3.022-3.02 6.538-5.733 9.937-5.686 7.276-11.615 10.684-13.385 9.244-1.77-1.44.074-8.12 5.76-15.395 5.685-7.276 11.614-10.683 13.384-9.243zM7.845 54.87c1.933-.517 4.288-1.684 6.902-3.33 5.455-3.666 11.338-9.43 16.828-16.432 5.357-6.93 9.602-14.206 11.858-20.423 1.014-2.92 1.6-5.528 1.692-7.619l18.201 32.846c-3.62-.116-9.188 4.63-13.434 10.12-2.745 3.501-5.11 7.566-6.181 11.027-.567 1.832-.736 3.453-.444 4.658L7.845 54.871zm36.7 12.804c3.325 2.144 10.187-3.206 15.153-9.588 2.675-3.634 4.782-7.22 5.89-10.447 1.11-3.226 1.095-5.684-.201-6.866L43.679 1.713c-.07-.133-.07-.133-.17-.165C41.024-.447 36.52.502 30.8 4.308c-5.455 3.667-11.47 9.502-16.96 16.503C8.35 27.813 4.206 35.12 1.919 41.438l-.504 1.629c-1.764 5.7-1.482 9.803.832 11.634l.203.063 42.094 12.911z" fill="#2F586F"/></svg>