<svg width="137" height="292" fill="none" xmlns="http://www.w3.org/2000/svg"><path fill-rule="evenodd" clip-rule="evenodd" d="M83.599 242.894l112.246-.425 56.234-97.145-56.013-96.72-112.246.425-56.234 97.144L83.6 242.894zm109.7-4.822l-106.8.432-53.466-92.324 53.529-92.417 106.799-.432 53.466 92.324-53.528 92.417zm-63.579-90.983c.536.142 1.071.283 1.751-.11a7.21 7.21 0 00.148-.088c-.435 4.139 1.797 8.251 5.449 10.183l-16.587 14.787c-.679.393-.823.928-.967 1.463l-3.982 39.337c.248 1.211.836 2.226 1.907 2.509l5.891 1.556c.535.141 1.071.283 1.75-.111.679-.393.823-.928.967-1.463l15.442-56.36c.059-.22.081-.437.073-.648 2.034.07 3.885-.293 5.605-1.289 2.003-1.16 3.767-3.489 4.51-6.108.027.435.187.904.479 1.409l13.829 16.83c.391.676.927.817 1.462.959l39.409 3.822c.535.142.875-.055 1.215-.252.339-.197 1.019-.59 1.646-1.857l1.582-5.883c.288-1.07-.496-2.423-1.567-2.706l-55.159-14.571c-1.071-.283-2.09.307-2.573 1.039a2.071 2.071 0 00-.082.133c.74-4.463-1.692-9.012-5.731-10.942a1.051 1.051 0 00-.056-.111l-.022-.04-.034-.058 17.064-14.398c.679-.393.823-.928.967-1.463l3.981-39.337c-.248-1.211-.835-2.226-1.906-2.508l-5.891-1.557c-1.071-.283-2.43.504-2.718 1.574l-14.958 55.629c-.126.471-.084.93.066 1.338-4.492-.328-8.909 2.437-10.499 6.701a3.903 3.903 0 00-.383-.87l-13.829-16.83c-.391-.676-.927-.818-1.462-.959l-39.409-3.822c-1.215.252-2.234.842-2.521 1.912l-1.582 5.883c-.288 1.07.495 2.423 1.566 2.706l55.159 14.571zm-5.471-6.315l-46.055-12.166.575-2.14 36.587 3.65 8.893 10.656zm37.032-56.673l-12.369 46.001 10.714-8.914 3.797-36.52-2.142-.567zm-14.999 119.78c8.752-.552 17.204-3.189 24.677-7.517 6.454-3.737 11.785-8.631 16.189-14.342l.483-.732-3.121-2.257-.484.732c-9.291 12.154-23.269 19.346-38.148 20.286l-.875.055.404 3.83.875-.055zm58.903-34.566l-36.587-3.649-8.893-10.656 46.055 12.166-.575 2.139zm-84.989 42l2.142.566 12.513-46.536-10.857 9.449-3.798 36.521zm18.942-68.325c-1.359.786-2.182 1.715-2.614 3.319-.863 3.21.9 6.253 3.917 6.764 3.213.849 6.27-.922 6.794-3.934.863-3.21-.9-6.253-3.917-6.764-1.607-.424-3.161.024-4.18.615zm-25.426 27.37l-.391-.676c-3.421-4.341-5.484-9.469-6.671-14.652l-.052-.873 3.644-.756.052.873c.992 4.845 3.002 9.1 5.692 12.961l.392.677-2.666 2.446zm26.102-54.404l-.875.055c-5.591.529-10.738 2.606-15.298 5.698l-.679.394-2.298-3.185.679-.394c5.239-3.485 11.261-5.618 17.192-6.343l.875-.055.404 3.83zm37.764 32.321l-4.037.079-.052-.873c.172-5.97-1.943-11.971-4.88-17.044l-.392-.676 3.397-1.967.391.676c3.669 5.553 5.836 12.427 5.717 19.27l-.144.535zm-17.683 30.563c-5.095 2.95-11.313 4.745-17.1 4.935l-.875.055-.064-4.027.875-.055c5.787-.19 11.326-1.591 16.225-4.88l.679-.394 1.959 3.382-.68.394-1.019.59zm-51.689 14.128l-.731-.48c-3.317-2.595-6.49-5.725-9.52-9.389l-.392-.677 3.201-2.305.392.676.608.691h.001c2.464 2.8 5.101 5.797 7.984 7.881l.731.48-2.274 3.123zm-14.118-15.759l-.391-.676c-5.68-9.808-8.446-20.85-7.712-32.114l-.052-.873 3.697.117.248 1.211c-.787 10.391 1.588 20.757 7.215 29.692l.392.676-3.397 1.967zm103.502-23.364l-3.892-.456-.052-.873c.511-6.166.147-12.278-1.432-18.138l-.052-.873 3.984-.952.052.873c1.775 6.198 2.191 13.182 1.68 19.349l-.288 1.07zM99.12 120.1L96 117.844l.483-.732c2.901-4.39 6.194-8.103 10.218-11.337l.679-.393 2.638 2.988-.679.394c-3.685 3.037-6.638 6.553-9.199 10.746l-1.02.59zm45.815-24.272l-.875.055c-4.572-.062-8.948.214-13.272 1.363l-.875.056-.743-3.634.875-.055c4.859-1.008 9.575-1.481 14.147-1.42l.875-.055-.132 3.69zm48.547 27.432l-3.593 1.629-.392-.676c-3.577-6.96-8.709-13.472-14.951-17.986l-.732-.479 2.274-3.123.731.479c6.635 5.19 12.302 11.843 16.271 19.48l.392.676z" fill="#5B8CC9"/></svg>