<svg width="78" height="88" fill="none" xmlns="http://www.w3.org/2000/svg"><path d="M12.566 60.753l11.657-10.58 11.554 7.244L50.26 83.1l-4.228-2.44-33.466-19.906zm25.42-4.693c-.13-.12-.13-.12 0 0l17.536-24.783L73.654 5.588l-20.63 77.634L37.985 56.06zm-15.692-7.178L11.12 58.938 7.203 47.825 3.425 37.082l18.87 11.8zm1.82-1.716L3.703 34.434l65.942-28.66-45.532 41.392zm13.092 8.177l-11.043-7.017 45.05-40.868-6.684 9.346-27.322 38.54zm16.846 31.972s.12-.13 0 0l.12-.13.12-.132.122-.13L77.04 2.167l-.009-.25-.009-.25s-.13-.12-.009-.251l-.13-.12-.13-.12-.13-.119-.13-.12-.129-.119-.13-.12-.13-.119-.13-.12s-.12.132-.25.012L.774 33.19l-.12.13-.121.132-.121.13-.12.132-.121.13.009.252s.13.119.009.25L9.69 61.012l.13.12.13.119.13.12 42.822 25.37.13.12s.13.12.25-.012l.25-.011s.121-.131.25-.012c.149.62.149.62.27.49z" fill="#2F586F"/></svg>