<svg width="166" height="118" fill="none" xmlns="http://www.w3.org/2000/svg"><path d="M109.138 6.98l-.991 2.894L96.266 42.68l-2.697 2.062-78.886 61.287L109.138 6.98zm-10.04 35.35l13.978-39.003 24.413 9.43L99.097 42.33zM96.8 45.475l16.331 32.812L7.909 115.054l-.932.179 17.83-13.849 71.994-55.91zm24.878 48.18l35.608 10.378L21.57 114.757l100.11-21.103zm-8.031-14.694l6.262 12.52L14.397 113.62l99.251-34.657zm23.461 16.57l-14.518-4.177-6.592-13.23 46.36-16.22.706 41.022-25.956-7.396zm1.233-82.357l23.838 47.798-46.545 16.256-16.883-33.673 39.59-30.381zM.782 117.192c.037.186-.15.222-.15.222l.036.186.036.187.186-.036.186-.036.187-.035 163.341-11.764.186-.035.187-.036s.186-.036.15-.222l.151-.222s-.036-.187.151-.222l-.036-.187-.496-43.96-.107-.56-24.461-49.032c-.072-.372-.294-.523-.702-.638L112.727.495l-.186.036-.187.036-.186.035-.186.036-.187.036s-.186.035-.15.222L1.306 116.899c-.408-.115-.372.071-.523.293.15-.222.15-.222 0 0 .15-.222.15-.222 0 0 .15-.222.15-.222 0 0 .15-.222-.036-.186 0 0z" fill="#2F586F"/></svg>