<svg width="132" height="111" fill="none" xmlns="http://www.w3.org/2000/svg"><path d="M107.346 62.48l21.23-9.534-21.23 42.391V62.48zM2.396 51.244l41.946-17.025 18.662 8.683-15.58 32.176-31.16 13.28L2.398 51.243zm126.693-1.022l-22.941 10.215L64.716 41.2l2.397-5.107 37.836-15.152.343.17 23.797 29.112zM27.735 3.575l4.794 9.193 10.273 19.579L3.424 48.179 27.735 3.575zm76.358 16.854L67.284 35.241 62.319 2.554l41.774 17.875zM61.463 2.213l5.136 33.538-2.397 5.108-18.661-8.683L29.619 2.213h31.844zM17.292 88.698L47.595 75.93l13.868 32.176-44.171-19.408zm45.54 20.089l-.342-.17-14.21-33.198 15.58-32.177 41.26 19.238v36.773l-42.288 9.534zM132 50.903v-.51s0-.17-.171-.17l-24.825-30.815c-.171-.17-.343-.34-.514-.34L61.977.17c0-.17-.172-.17-.343-.17H27.393c-.171 0-.171 0-.171.17l-.171.17-.172.17L0 50.223v.681L14.381 89.38c.171.34.343.51.685.68l47.254 20.77c.171 0 .342.17.514.17h.342l43.486-9.704h.514v-.17L132 51.584v-.68z" fill="#2F586F"/></svg>