<svg width="193" height="206" fill="none" xmlns="http://www.w3.org/2000/svg"><path d="M161.869 106.426l-3.042.331-34.747 3.163-3.011-1.567-88.972-45.422 129.772 43.495zm-36.271 5.91l41.249-3.894 1.821 26.108-43.07-22.214zm-3.822-.745l-22.781 28.712L21.05 60.628l-.558-.768L40.6 70.128l81.177 41.463zm-33.07 42.972l5.715 36.648L27.117 72.872l61.59 81.691zm9.897-13.507l-8.679 10.984-64.821-86.146 73.5 75.162zm-5.046 28.276l-2.38-14.919 9.182-11.582 34.361 35.094-36.845 18.048-4.318-26.641zm75.096-33.833l-33.165 41.869-34.472-35.248 23.326-29.577 44.311 22.956zM16.09 55.082c-.154.112-.265-.042-.265-.042l-.154.111-.153.112.11.153.112.154.112.154L95.82 198.635l.112.154.11.154s.112.153.266.042l.265.042s.154-.111.265.042l.154-.111 39.595-19.105.461-.334 34.017-42.957c.308-.223.35-.488.281-.906l-2.083-28.732-.111-.153-.112-.154-.111-.154-.112-.153-.111-.154s-.111-.153-.265-.042L16.578 55.432c-.07-.419-.223-.308-.488-.35.265.042.265.042 0 0 .265.042.265.042 0 0 .265.042.265.042 0 0 .265.042.153-.111 0 0z" fill="#2F586F"/></svg>