<svg width="193" height="206" fill="none" xmlns="http://www.w3.org/2000/svg"><path d="M30.791 106.426l3.042.331 34.747 3.163 3.011-1.567 88.972-45.422-129.772 43.495zm36.271 5.91l-41.25-3.894-1.82 26.108 43.07-22.214zm3.822-.745l22.781 28.712 77.946-79.675.557-.768-20.106 10.268-81.178 41.463zm33.069 42.972l-5.714 36.648 67.304-118.339-61.59 81.691zm-9.896-13.507l8.679 10.984 64.821-86.146-73.5 75.162zm5.046 28.276l2.38-14.919-9.182-11.582-34.36 35.094 36.844 18.048 4.318-26.641zm-75.096-33.833l33.165 41.869 34.472-35.248-23.326-29.577-44.31 22.956zM176.57 55.082c.154.112.265-.042.265-.042l.154.111.154.112-.112.153-.111.154-.112.154L96.84 198.635l-.111.154-.112.154s-.111.153-.265.042l-.265.042s-.154-.111-.265.042l-.154-.111-39.595-19.105-.46-.334-34.018-42.957c-.308-.223-.35-.488-.28-.906l2.082-28.732.112-.153.11-.154.112-.154.112-.153.111-.154s.112-.153.265-.042l151.863-50.682c.07-.419.223-.308.488-.35-.265.042-.265.042 0 0-.265.042-.265.042 0 0-.265.042-.265.042 0 0-.265.042-.153-.111 0 0z" fill="#2F586F"/></svg>