<svg width="104" height="206" fill="none" xmlns="http://www.w3.org/2000/svg"><path d="M72.867 106.426l-3.042.331-34.747 3.163-3.011-1.567-88.972-45.422 129.772 43.495zm-36.27 5.91l41.248-3.894 1.821 26.108-43.07-22.214zm-3.823-.745l-22.78 28.712-77.946-79.675-.557-.768 20.106 10.268 81.177 41.463zM-.295 154.563l5.714 36.648-67.304-118.339 61.59 81.691zm9.896-13.507L.922 152.04l-64.821-86.146 73.5 75.162zm-5.046 28.276l-2.38-14.919 9.182-11.582 34.36 35.094-36.844 18.048-4.318-26.641zm75.096-33.833l-33.165 41.869-34.472-35.248 23.326-29.577 44.311 22.956zM-72.912 55.082c-.154.112-.265-.042-.265-.042l-.154.111-.153.112.111.153.111.154.112.154L6.818 198.635l.112.154.111.154s.111.153.265.042l.265.042s.154-.111.265.042l.154-.111 39.595-19.105.46-.334 34.019-42.957c.307-.223.349-.488.28-.906l-2.083-28.732-.111-.153-.112-.154-.111-.154-.112-.153-.111-.154s-.111-.153-.265-.042L-72.424 55.432c-.07-.419-.223-.308-.488-.35.265.042.265.042 0 0 .265.042.265.042 0 0 .265.042.265.042 0 0 .265.042.154-.111 0 0z" fill="#2F586F"/></svg>