<svg width="112" height="118" fill="none" xmlns="http://www.w3.org/2000/svg"><path d="M21.566 82.753l11.657-10.58 11.554 7.244L59.26 105.1l-4.228-2.439-33.466-19.907zm25.42-4.693c-.13-.12-.13-.12 0 0l17.536-24.783 18.132-25.689-20.63 77.634L46.985 78.06zm-15.692-7.178L20.12 80.938l-3.917-11.113-3.778-10.743 18.87 11.8zm1.82-1.716l-20.41-12.732 65.942-28.66-45.532 41.392zm13.093 8.177l-11.044-7.017 45.05-40.868-6.684 9.346-27.322 38.54zm16.845 31.973s.12-.132 0 0l.12-.132.12-.131.122-.131L86.04 24.168l-.009-.25-.009-.25s-.13-.12-.009-.251l-.13-.12-.13-.12-.13-.119-.13-.12-.129-.119-.13-.12-.13-.119-.13-.12s-.12.132-.25.012L9.774 55.19l-.12.13-.121.132-.121.13-.12.132-.121.13.009.252s.13.119.009.25l9.501 26.666.13.12.13.119.13.12 42.822 25.37.13.12s.13.119.25-.012l.25-.011s.121-.131.25-.012c.149.621.149.621.27.49z" fill="#2F586F"/></svg>