<svg width="85" height="146" fill="none" xmlns="http://www.w3.org/2000/svg"><path d="M9.45 90.007c4.095-11.262 11.668-24.53 21.476-37.105C52.399 25.039 74.294 12.3 81.617 17.647l3.648 6.674c.202 3.965-.806 9.199-3.092 15.27C78.02 51.04 70.446 64.306 60.395 77.012c-9.866 12.763-20.885 23.321-30.686 29.942-5.418 3.664-10.128 5.699-13.816 6.407l-7.075-2.189c-3.33-3.085-3.233-10.654.631-21.166zm112.327-.372c1.444 1.269 1.633 4.614.241 9.112l-.29.938c-1.925 5.566-5.561 12.041-10.558 18.3-10.469 13.398-21.388 19.673-24.648 17.022-3.26-2.652.137-14.952 10.607-28.35 10.469-13.398 21.388-19.673 24.648-17.022zM17.755 113.938c3.56-.953 7.897-3.103 12.71-6.133 10.046-6.751 20.88-17.366 30.989-30.26 9.865-12.763 17.682-26.16 21.836-37.609 1.868-5.379 2.946-10.18 3.117-14.03l33.517 60.486c-6.666-.214-16.919 8.527-24.74 18.637-5.055 6.446-9.41 13.931-11.382 20.304-1.044 3.374-1.355 6.359-.818 8.579l-65.229-19.974zm67.583 23.578c6.123 3.948 18.76-5.904 27.905-17.658 4.927-6.691 8.806-13.296 10.848-19.237 2.042-5.94 2.015-10.468-.373-12.644L83.745 16.045c-.128-.245-.128-.245-.315-.302-4.575-3.675-12.869-1.928-23.403 5.083-10.045 6.751-21.123 17.496-31.232 30.39C18.685 64.109 11.055 77.564 6.842 89.2l-.928 3c-3.247 10.497-2.728 18.052 1.533 21.424l.373.115 77.518 23.777z" fill="#2F586F"/></svg>