<svg width="142" height="200" fill="none" xmlns="http://www.w3.org/2000/svg"><path d="M203.854 79.542l-24.589 82.976v-52.933l24.589-30.043zm-24.589 28.326v-30.9l25.732-.86v.287l-25.732 31.473zm-48.318 54.936l10.864-7.725 26.876 15.164 1.715.859-39.455-8.298zm-3.717 2.861l42.6 9.156-86.344 21.173 43.744-30.329zm-90.348-27.754L70.906 189.7 8.863 127.325l28.02 10.586zm-9.72-15.164l6.861 10.3-26.018-9.442 19.156-.858zm.857-30.615l-1.143 29.47-21.73.859H4.86l23.16-30.33zm.286-6.295L6.29 114.163l24.302-78.398-2.287 50.072zm45.746-49.5l-11.723 6.868-24.016-14.593 35.739 7.726zm1.43-.858l-38.599-8.297 88.632-21.173-50.034 29.47zm55.466-24.892L113.22 43.49l-32.88-7.153 53.466-31.474-2.859 5.723zm36.596 50.357L114.65 43.777l21.157-39.771 31.736 56.938zm4.861 1.43l-27.734-50.07 58.326 60.085-30.592-10.014zm6.004 11.16l-5.147-9.442 27.448 8.87-22.301.572zm-36.311 79.828l-8.577-33.763 42.029-40.057v32.618l-33.452 41.202zm-52.035 4.006l-12.866 38.34-2.002-2.003-36.31-55.221 51.178 18.884zm-61.185-34.335l56.896 16.309 3.717 14.306-53.751-19.742-6.862-10.873zm41.743-40.63l-42.6 38.341 1.429-30.33 32.307-41.487 8.864 33.476zm31.45-28.612l-35.167-9.156 12.294-7.153 33.451 7.153-10.578 9.156zm15.725 4.006l-3.431-12.876 53.751 17.454 5.718 10.014-56.038-14.592zm.858 4.006l55.18 14.592-41.171 39.199-14.009-53.791zm-15.154-7.726l9.721-8.87 3.145 12.304-12.866-3.434zm-30.02 25.465L64.9 47.496l34.024 8.87-25.446 23.176zm30.02 63.52l-14.295-4.006-15.725-58.083 26.589-24.035 16.869 4.578 14.296 55.222-27.734 26.324zm4.003 1.144l24.874-23.748 8.577 33.19-33.451-9.442zm-.858.858l34.024 9.729-11.151 7.725-33.451-7.153 10.578-10.301zm-4.002-1.144l-9.435 8.87-3.431-12.59 12.866 3.72zm-74.051-22.318l42.315-38.054 14.581 54.363-56.896-16.309zm56.324 61.803l8.292-25.179 32.021 6.867-44.602 31.474 4.29-13.162zM38.312 32.618l21.443 12.876-30.02 38.626 2.287-52.933.572-2.003 5.718 3.434zm136.093 139.628l-31.45-17.74 32.879-40.343v58.655l-1.429-.572zM209 74.392v-.572s0-.286-.286-.286L137.808.286 137.523 0h-1.716L31.164 24.893h-.286s-.286 0-.286.286c0 0-.286 0-.286.286l-.286.286v.286L0 122.461v1.43L76.052 200h1.429l99.783-24.32h.286l29.735-100.43c1.715-.572 1.715-.572 1.715-.858z" fill="#2F586F"/></svg>