<svg width="72" height="208" fill="none" xmlns="http://www.w3.org/2000/svg"><path fill-rule="evenodd" clip-rule="evenodd" d="M-111.163 207.412c-.414.43-1.061.588-1.707.588-.88 0-1.467-.584-1.761-1.461l-20.247-68.093c-.294-.585 0-1.169.293-1.461l26.41-49.097c.204-.406.69-.811 1.262-.924l49.019-27.029L49.109.22a1.877 1.877 0 011.76 0c.587.292.88.585 1.174 1.17l19.955 68.969a.423.423 0 00-.123.209c.044.115.076.23.097.345.015.02.026.03.026.03 0 .042-.002.085-.005.13.005.052.007.103.007.155 0 .293 0 .585-.293.877l-26.41 49.097-.881.877-155.579 85.334zm22.879-50.773l-23.759 44.167-18.434-62.652.515-.963 30.987-17.054 10.69 36.502zm-19.306 44.345l22.144-41.28c.345.031.69-.04 1.036-.212l119.07-66.45 7.51 25.63-.102.191-149.658 82.121zm150.66-83.986l-7.287-24.583 22.534-12.576 6.64-3.644-21.888 40.803zm-9.684-28.304L22.938 53.04-95.03 117.966l10.32 35.814L33.386 88.694zM67.287 70L48.563 6.886 24.17 52.232l-.228.227L34.499 88.08 67.287 70zm-99.444-19.959l78.76-43.375-24.196 44.981a.26.26 0 01.184.062l-117.976 65.024-7.806-27.087 71.034-39.605zm-74.55 43.692l-22.192 41.472 29.565-16.295-7.373-25.177z" fill="#2F586F"/></svg>