<svg width="40" height="40" fill="none" xmlns="http://www.w3.org/2000/svg"><path d="M7.46 10.277l.324-.16c-1.083-1.27-1.137-1.854-.92-2.065.65-.848 2.6-1.749 5.417-1.749 1.57 0 3.25.318 4.767.848 2.492.9 4.117 1.536 5.146 2.013 1.03.424 1.68.689 2.33.848.487.106.975.159 1.408.159.271 0 .488 0 .704-.053-.108-.265-.27-.583-.379-.848a14.86 14.86 0 00-.704-1.271c-.163 0-.38-.053-.542-.106-.433-.106-.975-.318-1.95-.69-1.083-.423-2.709-1.112-5.255-2.012-1.842-.742-3.738-1.113-5.58-1.113-3.196 0-5.904 1.007-7.15 2.596-1.138 1.484-.325 3.179.704 4.503.542-.318 1.083-.636 1.68-.9zM29.776 7.47c.054.105.108.211.108.264.596-.53 1.3-1.006 1.788-1.006.108 0 .162 0 .27.106 1.464 1.112 2.601 5.403.922 10.224a161.728 161.728 0 01-2.005 5.192c-.433 1.06-.704 1.696-.812 2.331a7.363 7.363 0 00-.109 2.12c.271-.106.542-.265.867-.424.433-.212.867-.477 1.3-.689 0-.159.055-.37.109-.583.108-.424.325-1.006.704-1.96a135.49 135.49 0 002.004-5.245c1.95-5.563.705-10.914-1.625-12.662-.487-.37-1.03-.53-1.625-.53-1.03 0-2.005.583-2.871 1.219.433.477.704 1.06.975 1.642zm2.764 22.354l-.325.16c1.084 1.27 1.138 1.853.921 2.065-.65.848-2.6 1.749-5.417 1.749-1.571 0-3.25-.318-4.767-.848-2.492-.9-4.117-1.536-5.147-2.013-1.029-.424-1.679-.689-2.329-.848a6.279 6.279 0 00-1.354-.159c-.271 0-.542.053-.759.053.109.265.271.53.38.848.216.424.433.848.704 1.271.162 0 .379.053.542.106.433.106.975.318 1.95.689 1.083.424 2.708 1.113 5.254 2.013 1.788.636 3.684.954 5.526.954 2.763 0 5.905-1.007 7.15-2.596 1.138-1.484.326-3.179-.703-4.503-.488.476-1.03.794-1.626 1.06zm-22.32 2.809l-.163-.318c-.65.53-1.3 1.06-1.68 1.06-.053 0-.162 0-.324-.16-1.463-1.112-2.6-5.403-.921-10.224.92-2.49 1.57-4.133 2.004-5.192.434-1.06.705-1.695.813-2.331a7.365 7.365 0 00.108-2.12c-.27.107-.542.265-.867.425-.433.211-.866.476-1.3.688 0 .16-.054.371-.108.53-.108.424-.325 1.007-.704 1.96-.434 1.06-1.138 2.702-2.005 5.245C3.123 27.76 4.37 33.11 6.7 34.858a2.594 2.594 0 001.679.583c1.03 0 1.896-.583 2.763-1.325-.38-.37-.65-.9-.921-1.483z" fill="#00B8EC"/><path d="M4.205 21.987c.054-.106.108-.211.108-.317-1.625-.106-2.059-.265-2.113-.795-.27-1.801 1.95-5.616 6.555-7.841 2.438-1.166 4.009-1.801 5.038-2.225 1.03-.424 1.68-.689 2.221-1.06.759-.477 1.246-.953 1.571-1.43-.27-.106-.596-.212-.92-.318a10.882 10.882 0 00-1.41-.424c-.107.106-.27.212-.487.371-.379.265-.92.477-1.842.848-1.083.423-2.708 1.112-5.146 2.278C2.525 13.617-.346 18.279.033 21.193c.271 2.066 2.005 2.49 3.63 2.649a23.92 23.92 0 01.542-1.855zM18.02 4.238c.108.053.216.053.324.106.108-1.642.488-2.066.813-2.119h.27c2.113 0 5.635 2.543 7.585 6.622 1.137 2.438 1.787 4.027 2.275 5.086.433 1.06.704 1.696 1.084 2.226.487.741.975 1.218 1.408 1.536.108-.265.217-.583.325-.9.163-.478.325-.954.433-1.431a1.848 1.848 0 01-.325-.477c-.27-.37-.487-.954-.866-1.854-.434-1.06-1.138-2.702-2.276-5.14C26.578 2.756 22.245 0 19.428 0c-.217 0-.38 0-.542.053-1.896.212-2.492 2.013-2.655 3.656.596.105 1.192.317 1.788.53zm21.938 14.675c-.27-1.855-2.004-2.49-3.63-2.65a23.917 23.917 0 01-.541 1.855c-.054.106-.054.212-.108.318 1.625.106 2.058.477 2.112.794.217 1.802-1.95 5.67-6.555 7.841-2.437 1.166-4.008 1.802-5.038 2.226-1.029.423-1.679.688-2.22 1.059-.76.477-1.247.954-1.572 1.43.271.106.596.212.921.318.434.16.921.318 1.409.424.108-.106.27-.212.487-.37.38-.266.921-.478 1.896-.848 1.084-.424 2.709-1.113 5.147-2.278 5.2-2.543 8.126-7.206 7.692-10.12zM21.975 35.867c-.108-.053-.216-.053-.325-.106-.108 1.642-.487 2.066-.812 2.119h-.271c-2.113 0-5.634-2.543-7.584-6.622-1.138-2.437-1.788-4.027-2.276-5.086-.433-1.06-.704-1.696-1.083-2.226-.488-.741-.975-1.218-1.409-1.536-.108.265-.216.583-.325.9-.162.478-.325.954-.433 1.431.108.106.217.265.325.424.27.37.488.954.867 1.854.433 1.06 1.137 2.702 2.275 5.14 2.438 5.085 6.718 7.84 9.535 7.84.216 0 .379 0 .541-.053 1.842-.265 2.492-2.013 2.655-3.655-.488-.053-1.084-.212-1.68-.424z" fill="#00B8EC"/></svg>