<svg width="160" height="40" fill="none" xmlns="http://www.w3.org/2000/svg"><path d="M7.291 10.25l.317-.158c-1.056-1.268-1.11-1.85-.898-2.06.634-.846 2.536-1.744 5.284-1.744 1.533 0 3.17.317 4.65.845 2.43.898 4.016 1.532 5.02 2.008 1.004.423 1.638.687 2.272.845.476.106.951.159 1.374.159.264 0 .475 0 .687-.053-.106-.264-.264-.581-.37-.845a14.912 14.912 0 00-.687-1.268c-.159 0-.37-.053-.528-.106-.423-.106-.951-.317-1.903-.687-1.056-.423-2.642-1.11-5.125-2.008-1.797-.74-3.646-1.11-5.443-1.11-3.117 0-5.76 1.004-6.975 2.59-1.11 1.479-.317 3.17.687 4.49.529-.316 1.057-.633 1.638-.897zm21.769-2.8c.053.106.106.211.106.264.581-.528 1.268-1.004 1.744-1.004.106 0 .158 0 .264.106 1.427 1.11 2.536 5.39.898 10.198a166.075 166.075 0 01-1.955 5.178c-.422 1.057-.687 1.691-.792 2.325a7.512 7.512 0 00-.106 2.114c.264-.106.528-.264.845-.423.423-.211.846-.475 1.269-.687 0-.158.053-.37.105-.58.106-.424.317-1.005.687-1.956a137.334 137.334 0 001.955-5.231c1.903-5.548.687-10.885-1.585-12.629a2.494 2.494 0 00-1.585-.528c-1.004 0-1.955.58-2.8 1.215.422.476.686 1.057.95 1.638zm2.696 22.3l-.317.158c1.057 1.268 1.11 1.85.898 2.06-.634.846-2.536 1.744-5.284 1.744-1.532 0-3.17-.317-4.65-.845-2.43-.898-4.015-1.533-5.02-2.008-1.003-.423-1.637-.687-2.271-.846a5.99 5.99 0 00-1.322-.158c-.264 0-.528.053-.74.053.106.264.265.528.37.845.212.423.423.846.688 1.268.158 0 .37.053.528.106.423.106.951.317 1.902.687 1.057.423 2.642 1.11 5.126 2.008 1.743.634 3.593.951 5.39.951 2.694 0 5.759-1.004 6.974-2.59 1.11-1.479.317-3.17-.687-4.49-.475.475-1.004.792-1.585 1.056zm-21.771 2.8l-.158-.318c-.634.529-1.268 1.057-1.638 1.057-.053 0-.159 0-.317-.159-1.427-1.11-2.536-5.39-.898-10.198a165.944 165.944 0 011.955-5.178c.422-1.057.687-1.69.792-2.325a7.51 7.51 0 00.106-2.114c-.264.106-.528.265-.846.423-.422.212-.845.476-1.268.687 0 .159-.053.37-.105.528-.106.423-.317 1.004-.687 1.956-.423 1.056-1.11 2.694-1.955 5.23-1.903 5.549-.687 10.886 1.585 12.63a2.494 2.494 0 001.638.58c1.004 0 1.85-.58 2.695-1.32-.37-.37-.634-.899-.899-1.48z" fill="#009FE3"/><path d="M4.12 21.93c.054-.107.106-.212.106-.318-1.585-.106-2.007-.264-2.06-.792C1.9 19.023 4.068 15.219 8.559 13c2.378-1.163 3.91-1.797 4.915-2.22 1.003-.423 1.637-.687 2.166-1.057.74-.475 1.215-.951 1.532-1.427-.264-.105-.581-.211-.898-.317a10.438 10.438 0 00-1.374-.422c-.106.105-.264.211-.475.37-.37.264-.899.475-1.797.845-1.057.423-2.642 1.11-5.02 2.272C2.483 13.58-.318 18.23.052 21.137c.264 2.06 1.955 2.483 3.54 2.642.159-.634.317-1.216.529-1.85zM17.595 4.227c.106.053.212.053.317.106.106-1.638.476-2.06.793-2.114h.264c2.06 0 5.495 2.537 7.398 6.605 1.11 2.431 1.743 4.016 2.219 5.073.423 1.057.687 1.69 1.057 2.22.475.739.951 1.215 1.374 1.532.105-.265.211-.582.317-.899.158-.475.317-.95.422-1.426a1.843 1.843 0 01-.317-.476c-.264-.37-.475-.951-.845-1.85-.423-1.056-1.11-2.694-2.22-5.125C25.945 2.748 21.718 0 18.97 0c-.211 0-.37 0-.528.053-1.85.211-2.43 2.008-2.59 3.646.582.105 1.163.317 1.744.528zm21.4 14.637c-.264-1.85-1.955-2.484-3.54-2.642a24.253 24.253 0 01-.529 1.85c-.052.105-.052.21-.105.316 1.585.106 2.008.476 2.06.793.212 1.796-1.902 5.654-6.393 7.82-2.378 1.163-3.91 1.797-4.914 2.22-1.004.422-1.638.686-2.167 1.056-.74.476-1.215.951-1.532 1.427.264.105.581.211.898.317.423.158.899.317 1.374.423.106-.106.264-.212.476-.37.37-.264.898-.476 1.85-.846 1.056-.422 2.641-1.11 5.019-2.272 5.073-2.536 7.926-7.186 7.503-10.092zM21.452 35.773c-.106-.053-.211-.053-.317-.106-.106 1.638-.475 2.061-.793 2.114h-.264c-2.06 0-5.495-2.536-7.397-6.605-1.11-2.43-1.744-4.016-2.22-5.073-.422-1.057-.687-1.69-1.056-2.22-.476-.739-.951-1.214-1.374-1.531-.106.264-.212.58-.317.898a14.46 14.46 0 00-.423 1.427c.106.105.211.264.317.422.264.37.476.951.846 1.85.422 1.056 1.11 2.694 2.219 5.125 2.378 5.073 6.552 7.82 9.3 7.82.211 0 .37 0 .528-.052 1.797-.264 2.43-2.008 2.59-3.646-.476-.053-1.058-.212-1.639-.423z" fill="#009FE3"/><path d="M50.25 29.485c.37.476.74.898 1.11 1.374.37.475.74.951 1.057 1.427.053.052.053.105.053.158 0 .053 0 .106-.053.212-.053.052-.106.105-.212.105-.105 0-.158-.053-.264-.105-.37-.476-.687-1.005-1.057-1.48-.37-.476-.74-.951-1.11-1.374h-1.003v2.695c0 .106-.053.159-.106.211-.053.053-.106.106-.211.106a.4.4 0 01-.212-.106c-.052-.052-.105-.105-.105-.211v-5.971a.4.4 0 01.105-.211c.053-.053.106-.106.212-.106.105 0 .158.053.211.106.053.052.106.105.106.211v2.695h.95l2.167-2.854.106-.105c.053 0 .106-.053.159-.053.105 0 .158.053.21.106.054.052.054.105.054.211 0 .053 0 .106-.053.159l-2.114 2.8zm1.32-9.881c-2.959 0-3.963-2.166-3.963-4.333v-3.329c0-2.166.952-4.333 3.963-4.333 2.96 0 3.91 2.167 3.91 4.333v3.33c0 2.166-.95 4.332-3.91 4.332zm2.484-7.715c0-1.69-.581-3.011-2.484-3.011-1.902 0-2.536 1.32-2.536 3.011v3.33c0 1.69.581 3.011 2.536 3.011 1.903 0 2.484-1.32 2.484-3.012V11.89zm8.824-.58a.7.7 0 01.687.687v6.922c0 .37-.265.687-.687.687a.666.666 0 01-.687-.687v-6.341h-3.012v1.532c0 1.638-.159 3.33-.74 4.492-.37.74-.687 1.004-1.11 1.004a.7.7 0 01-.686-.687c0-.476.475-.634.74-1.48.37-.898.37-2.166.37-3.54v-1.902c0-.37.316-.635.686-.635h4.439v-.052zm4.439 7.556c0 .423-.264.74-.687.74-.422 0-.687-.317-.687-.74v-6.922a.7.7 0 01.687-.687c.423 0 .687.317.687.687v4.597l3.593-4.069v-.528a.7.7 0 01.687-.687.7.7 0 01.687.687v6.922c0 .423-.264.74-.687.74-.37 0-.687-.317-.687-.74v-4.597l-3.593 4.016v.58zm14.478.105a.61.61 0 01-.634.635c-.317 0-.634-.317-.634-.634v-4.598l-1.743 3.858c-.106.211-.318.37-.529.37a.55.55 0 01-.528-.37l-1.744-3.805v4.597a.61.61 0 01-.634.634.643.643 0 01-.634-.634V11.89c0-.317.317-.634.634-.634.211 0 .475.105.528.37l2.378 5.02 2.378-5.02c.106-.212.317-.37.528-.37a.61.61 0 01.634.634v7.08zm7.555-7.661a.7.7 0 01.687.687v6.922a.7.7 0 01-.687.687.7.7 0 01-.687-.687v-6.341h-3.117v6.34a.7.7 0 01-.687.688.7.7 0 01-.687-.687v-6.975a.7.7 0 01.687-.687h4.491v.053zm4.493 7.556c0 .423-.265.74-.687.74-.423 0-.687-.317-.687-.74v-6.922a.7.7 0 01.687-.687c.422 0 .687.317.687.687v4.597l3.593-4.069v-.528a.7.7 0 01.687-.687.7.7 0 01.687.687v6.922c0 .423-.265.74-.687.74-.37 0-.687-.317-.687-.74v-4.597l-3.593 4.016v.58zm12.999.687c-.264 0-.634-.159-.792-.317-.159-.106-.265-.317-.317-.476-.582.687-1.533.846-2.22.846-1.955 0-2.747-1.057-2.747-2.378v-.106c0-1.321.898-2.325 2.906-2.325h1.796v-.423c0-1.268-.317-1.955-1.638-1.955-.739 0-1.215.159-1.585.423-.106.053-.211.106-.317.106a.586.586 0 01-.581-.582c0-.211.106-.37.317-.528.634-.423 1.427-.528 2.325-.528 2.219 0 2.906 1.11 2.906 3.223v2.906c0 .634.159.846.423 1.004a.556.556 0 01.264.476c-.053.422-.37.634-.74.634zm-1.426-3.752h-1.638c-1.321 0-1.691.634-1.691 1.268v.106c0 .687.37 1.268 1.638 1.268 1.056 0 1.691-.581 1.691-1.69V15.8zm4.172 2.378c.529-1.004.635-2.378.635-4.069v-2.166c0-.37.317-.634.634-.634h4.174c.37 0 .687.264.687.634v6.235h.793c.317 0 .581.264.581.581v2.642a.61.61 0 01-.634.634.61.61 0 01-.634-.634v-1.955h-6.236v1.955a.61.61 0 01-.634.634.61.61 0 01-.634-.634V18.76c0-.423.265-.581.529-.581h.739zm4.703 0v-5.654h-2.747v1.532c0 1.48-.106 3.065-.582 4.069h3.329v.053zm9.829 1.374c-.265 0-.634-.159-.793-.317-.159-.106-.264-.317-.317-.476-.581.687-1.532.846-2.219.846-1.955 0-2.748-1.057-2.748-2.378v-.106c0-1.321.898-2.325 2.906-2.325h1.797v-.423c0-1.268-.317-1.955-1.638-1.955-.74 0-1.216.159-1.586.423-.105.053-.211.106-.317.106a.586.586 0 01-.581-.582c0-.211.106-.37.317-.528.634-.423 1.427-.528 2.325-.528 2.22 0 2.906 1.11 2.906 3.223v2.906c0 .634.159.846.423 1.004a.554.554 0 01.264.476c-.052.422-.317.634-.739.634zm-1.374-3.752h-1.638c-1.321 0-1.691.634-1.691 1.268v.106c0 .687.37 1.268 1.638 1.268 1.057 0 1.691-.581 1.691-1.69V15.8zm14.32-7.504c0-.422.317-.74.74-.74.369 0 .687.318.687.74v10.568c0 .423-.318.74-.687.74a.756.756 0 01-.74-.74V14.32h-5.178v4.544c0 .423-.318.74-.687.74-.37 0-.687-.317-.687-.74V8.296c0-.422.317-.74.687-.74.369 0 .687.318.687.74v4.756h5.178V8.296zm8.296.793v9.775c0 .423-.317.74-.687.74-.37 0-.687-.317-.687-.74V9.09h-2.959a.666.666 0 01-.687-.687c0-.423.317-.687.687-.687h7.344a.7.7 0 01.687.687.7.7 0 01-.687.687h-3.011zm6.869 9.775c0 .423-.317.74-.687.74-.37 0-.687-.317-.687-.74V8.296c0-.37.317-.74.687-.74.37 0 .687.318.687.74v7.556l5.39-6.552V8.296c0-.37.317-.74.687-.74.37 0 .687.318.687.74v10.568c0 .423-.317.74-.687.74-.37 0-.687-.317-.687-.74v-7.556l-5.39 6.552v1.004zM58.017 30.806c0 .264-.053.528-.106.74a1.955 1.955 0 01-.264.58c-.105.16-.264.318-.475.37a1.462 1.462 0 01-.687.16c-.159 0-.317-.054-.529-.106-.211-.053-.37-.159-.58-.265v1.638c0 .106 0 .159-.054.212-.053.053-.105.053-.211.053-.053 0-.159 0-.211-.053-.053-.053-.106-.106-.106-.212v-4.65c0-.158 0-.317-.053-.37-.053-.052-.106-.105-.211-.158-.106-.053-.159-.106-.159-.211 0-.106 0-.159.053-.159.053-.053.106-.053.211-.053.053 0 .106 0 .212.053.053.053.158.053.211.106.053.053.106.158.159.211.158-.158.37-.211.58-.317.212-.053.37-.105.582-.105.581 0 .951.158 1.215.422.264.317.37.74.37 1.268v.846h.053zm-.528-.846c0-.37-.106-.687-.264-.898-.16-.211-.423-.317-.846-.317-.158 0-.317.053-.475.106-.16.053-.37.158-.529.317v2.536c.159.159.37.317.529.37.21.053.37.106.475.106.37 0 .634-.106.793-.37.158-.211.264-.581.264-1.004v-.846h.053zm5.072 2.062c-.105.37-.264.687-.37.951a7.72 7.72 0 01-.475.687c-.159.159-.37.317-.581.423a1.462 1.462 0 01-.687.159c-.106 0-.159-.053-.212-.106-.052-.053-.052-.106-.052-.159 0-.052 0-.105.052-.158.053-.053.106-.106.212-.106.158 0 .264 0 .37-.053l.317-.158c.105-.053.211-.159.317-.317.105-.106.211-.265.317-.476-.317-.74-.581-1.48-.846-2.166-.264-.687-.475-1.321-.687-1.902v-.106c0-.106.053-.159.106-.212.053-.052.106-.052.212-.052.052 0 .105 0 .158.052.053.053.106.053.106.159.158.528.37 1.057.58 1.638.212.581.424 1.215.688 1.85l1.215-3.54c0-.054.053-.107.106-.16.053 0 .106-.052.158-.052.053 0 .159 0 .212.053.053.052.105.105.105.211v.106l-1.32 3.434zm5.97.422c0 .106-.052.158-.105.211-.053.053-.106.106-.212.106-.105 0-.158-.053-.21-.106-.054-.053-.107-.105-.107-.211v-1.691h-.528c-.264.317-.475.581-.74.898-.211.317-.475.634-.687.951l-.105.106c-.053 0-.106.053-.106.053-.106 0-.158-.053-.211-.106-.053-.053-.053-.105-.053-.211 0-.053 0-.106.053-.159.211-.317.422-.634.687-.898.21-.317.475-.581.74-.898l-1.374-1.744c0-.053 0-.053-.053-.106v-.105c0-.053 0-.106.053-.159.052-.053.105-.105.21-.105.106 0 .16.052.212.105l1.427 1.85h.528v-1.691c0-.106.053-.159.106-.212.053-.052.106-.052.211-.052.053 0 .159 0 .212.052.052.053.105.106.105.212v1.69h.529l1.426-1.849c.053-.053.106-.105.212-.105.105 0 .158.052.211.105.053.053.053.106.053.159v.105s0 .053-.053.106l-1.427 1.744c.265.317.476.581.74.898.212.317.476.581.687.898.053.053.053.106.053.159 0 .053 0 .106-.053.211-.053.053-.106.106-.211.106-.053 0-.106 0-.106-.053-.053 0-.053-.053-.106-.106-.21-.317-.475-.634-.686-.95-.212-.318-.476-.582-.74-.899h-.529v1.69h-.053zm4.651.001v-3.858c0-.105.052-.158.105-.21.053-.054.106-.054.212-.054.105 0 .158 0 .211.053.053.053.053.106.053.211v1.691h.528l1.427-1.85c.053-.105.106-.105.211-.105.106 0 .159.053.212.106.052.053.052.106.052.158 0 .053 0 .106-.052.159l-1.374 1.797c.264.264.475.58.74.898.211.317.475.581.686.898 0 0 0 .053.053.053v.106c0 .053 0 .105-.052.158-.053.053-.106.106-.212.106s-.158-.053-.211-.106c-.212-.317-.476-.634-.687-.951-.212-.317-.476-.581-.74-.898h-.528v1.69c0 .106 0 .16-.053.212-.053.053-.106.053-.212.053-.052 0-.158 0-.21-.053-.106-.106-.16-.211-.16-.264zm8.454-1.532c0 .264-.053.475-.106.686a1.26 1.26 0 01-.317.582 1.9 1.9 0 01-.528.37c-.212.105-.476.158-.793.158-.317 0-.581-.053-.792-.158a1.898 1.898 0 01-.529-.37c-.158-.159-.211-.37-.317-.581-.053-.212-.106-.423-.106-.687v-.899c0-.264.053-.475.106-.687a1.26 1.26 0 01.317-.58c.159-.16.317-.265.529-.37.21-.106.475-.16.792-.16.317 0 .581.054.793.16a1.9 1.9 0 01.528.37c.159.158.212.37.317.58.053.212.106.423.106.687v.899zm-.528-.846c0-.211 0-.37-.053-.528a.851.851 0 00-.212-.37c-.211-.212-.475-.317-.845-.317s-.687.105-.898.317c-.159.211-.265.528-.265.898v.846c0 .37.106.686.265.898.21.211.475.317.898.317.37 0 .687-.106.845-.317.106-.106.159-.264.212-.37.052-.159.052-.317.052-.528v-.846zm3.382 2.588c-.105 0-.158 0-.21-.053-.053-.053-.053-.105-.053-.211v-3.752c0-.053 0-.158.052-.211.053-.053.106-.053.212-.053h1.215c.423 0 .74.106.951.317.212.211.317.476.317.793v.105c0 .159-.053.317-.105.476-.053.158-.212.264-.37.37.264.105.422.211.528.422.106.159.159.37.159.529v.158c0 .317-.106.634-.317.846-.212.211-.582.317-1.057.317H84.49v-.053zm.265-3.857v1.426h.793c.317 0 .528-.052.686-.158.159-.106.212-.264.212-.476v-.158c0-.212-.053-.37-.159-.476-.105-.105-.317-.158-.634-.158h-.898zm0 1.902v1.48h1.057c.158 0 .317 0 .422-.053.106-.053.212-.053.265-.159.053-.053.105-.106.105-.211 0-.106.053-.159.053-.264v-.159c0-.211-.053-.37-.211-.476-.159-.105-.37-.158-.687-.158h-1.004zm8.19.213c0 .264-.053.475-.106.686a1.26 1.26 0 01-.317.582 1.9 1.9 0 01-.529.37c-.211.105-.475.158-.792.158-.317 0-.581-.053-.793-.158a1.898 1.898 0 01-.528-.37c-.159-.159-.212-.37-.317-.581-.053-.212-.106-.423-.106-.687v-.899c0-.264.053-.475.106-.687.052-.21.158-.422.317-.58a1.85 1.85 0 01.528-.37c.212-.106.476-.16.793-.16.317 0 .581.054.792.16a1.9 1.9 0 01.529.37c.158.158.211.37.317.58.053.212.106.423.106.687v.899zm-.529-.846c0-.211 0-.37-.053-.528a.851.851 0 00-.211-.37c-.212-.212-.476-.317-.846-.317s-.686.105-.898.317c-.158.211-.264.528-.264.898v.846c0 .37.106.686.264.898.212.211.476.317.898.317.37 0 .687-.106.846-.317.106-.106.158-.264.211-.37.053-.159.053-.317.053-.528v-.846zm5.864-1.48c0 .052 0 .158-.052.158-.053.053-.106.053-.158.053h-1.956v3.593c0 .106-.052.159-.105.211-.053.053-.106.053-.212.053-.105 0-.158 0-.211-.053-.053-.052-.053-.105-.053-.21v-3.858c0-.053 0-.159.053-.212.053-.052.106-.052.211-.052h2.22c.053 0 .105 0 .158.052.106.106.106.159.106.265zm5.391 2.326c0 .264-.053.475-.106.686a1.248 1.248 0 01-.317.582 1.894 1.894 0 01-.528.37c-.211.105-.476.158-.793.158-.317 0-.581-.053-.792-.158a1.9 1.9 0 01-.529-.37c-.158-.159-.211-.37-.317-.581a2.67 2.67 0 01-.105-.687v-.899c0-.264.052-.475.105-.687.053-.21.159-.422.317-.58a1.9 1.9 0 01.529-.37c.211-.106.475-.16.792-.16.317 0 .582.054.793.16.211.105.37.21.528.37.159.158.212.37.317.58.053.212.106.423.106.687v.899zm-.528-.846c0-.211 0-.37-.053-.528a.851.851 0 00-.212-.37c-.211-.212-.475-.317-.845-.317s-.687.105-.898.317c-.159.211-.264.528-.264.898v.846c0 .37.105.686.264.898.211.211.475.317.898.317.37 0 .687-.106.845-.317.106-.106.159-.264.212-.37.053-.159.053-.317.053-.528v-.846zm15.693 2.588c-.105 0-.158 0-.211-.053-.053-.053-.053-.105-.053-.211v-3.752c0-.053 0-.158.053-.211.053-.053.106-.053.211-.053h1.216c.423 0 .74.106.951.317.211.211.317.476.317.793v.105c0 .159-.053.317-.106.476-.053.158-.211.264-.37.37.265.105.423.211.529.422.105.159.158.37.158.529v.158c0 .317-.105.634-.317.846-.211.211-.581.317-1.057.317h-1.321v-.053zm.265-3.857v1.426h.792c.317 0 .529-.052.687-.158.159-.106.212-.264.212-.476v-.158c0-.212-.053-.37-.159-.476-.106-.105-.317-.158-.634-.158h-.898zm0 1.902v1.48h1.056c.159 0 .318 0 .423-.053.106-.053.212-.053.264-.159.053-.053.106-.106.106-.211 0-.106.053-.159.053-.264v-.159c0-.211-.053-.37-.211-.476-.159-.105-.37-.158-.687-.158h-1.004zm5.231 1.744v-3.857c0-.053 0-.159.053-.212.053-.053.106-.105.211-.105a.4.4 0 01.212.105c.052.053.105.106.105.212v2.8l2.22-2.483v-.317a.4.4 0 01.105-.212c.053-.053.106-.105.212-.105.105 0 .158.052.211.105.053.053.053.106.053.212v3.857c0 .053 0 .158-.053.211-.053.053-.106.106-.211.106a.402.402 0 01-.212-.106c-.053-.053-.105-.105-.105-.211v-2.8l-2.22 2.483v.317a.406.406 0 01-.105.211c-.053.053-.106.106-.212.106-.105 0-.158-.053-.211-.106 0-.053-.053-.158-.053-.211zm8.825 0c0 .106-.053.158-.106.211-.053.053-.106.106-.212.106-.105 0-.158-.053-.211-.106-.053-.053-.106-.105-.106-.211v-1.691h-.528c-.264.317-.476.581-.74.898-.211.317-.475.634-.687.951l-.105.106c-.053 0-.106.053-.106.053-.106 0-.159-.053-.211-.106-.053-.053-.053-.105-.053-.211 0-.053 0-.106.053-.159.211-.317.422-.634.687-.898.211-.317.475-.581.739-.898l-1.374-1.744c0-.053 0-.053-.052-.106v-.105c0-.053 0-.106.052-.159.053-.053.106-.105.212-.105s.158.052.211.105l1.427 1.85h.528v-1.691c0-.106.053-.159.106-.212.053-.052.106-.052.211-.052.053 0 .159 0 .212.052.053.053.105.106.105.212v1.69h.529l1.426-1.849c.053-.053.106-.105.212-.105s.158.052.211.105c.053.053.053.106.053.159v.105s0 .053-.053.106l-1.427 1.744c.265.317.476.581.74.898.212.317.476.581.687.898.053.053.053.106.053.159 0 .053 0 .106-.053.211-.053.053-.105.106-.211.106-.053 0-.106 0-.106-.053-.053 0-.053-.053-.106-.106-.211-.317-.475-.634-.686-.95-.212-.318-.476-.582-.74-.899h-.529v1.69h-.052zm8.084-2.007c0 .053 0 .158-.053.158-.053.053-.106.053-.158.053h-2.537v.264c0 .37.106.687.264.951.159.212.476.37.846.37.264 0 .475 0 .634-.052.158-.053.317-.106.476-.212.052-.053.105-.053.211 0 .053 0 .106.053.158.106.053.053.053.106 0 .158 0 .053-.052.106-.105.159-.37.211-.846.317-1.374.317-.317 0-.529-.053-.74-.159a1.894 1.894 0 01-.528-.37 1.924 1.924 0 01-.264-.58 3.083 3.083 0 01-.106-.688v-.792c0-.264.053-.476.106-.687a1.91 1.91 0 01.264-.581.967.967 0 01.528-.37c.211-.106.476-.159.74-.159.317 0 .581.053.793.159.211.105.369.211.528.37.106.158.211.37.264.58.053.212.106.424.106.688v.317h-.053zm-.581-.423c0-.37-.106-.687-.264-.898-.159-.212-.423-.37-.846-.37-.37 0-.687.106-.845.37-.159.211-.265.528-.265.898v.159h2.22v-.159zm6.393 2.431c0 .105-.053.158-.105.211-.053.053-.106.106-.212.106a.4.4 0 01-.211-.106c-.053-.053-.053-.105-.053-.211v-1.797h-1.955v1.797c0 .105-.053.158-.106.211-.053.053-.105.106-.211.106a.402.402 0 01-.212-.106c-.052-.053-.105-.105-.105-.211v-3.858c0-.052.053-.158.105-.21.053-.054.106-.054.212-.054s.158 0 .211.053c.053.053.106.106.106.211v1.586h1.955v-1.586c0-.052 0-.158.053-.21.053-.054.106-.054.211-.054.106 0 .159 0 .212.053.052.053.105.106.105.211v3.858zm3.011-.001v-3.857c0-.053 0-.159.053-.212.053-.053.106-.105.212-.105a.4.4 0 01.211.105c.053.053.106.106.106.212v2.8l2.219-2.483v-.317a.4.4 0 01.106-.212c.052-.053.105-.105.211-.105s.159.052.211.105c.053.053.053.106.053.212v3.857c0 .053 0 .158-.053.211-.052.053-.105.106-.211.106a.396.396 0 01-.211-.106c-.053-.053-.106-.105-.106-.211v-2.8l-2.219 2.483v.317a.4.4 0 01-.106.211c-.053.053-.106.106-.211.106-.106 0-.159-.053-.212-.106-.053-.053-.053-.158-.053-.211zm8.983.001c0 .105-.053.158-.106.211-.053.053-.105.053-.211.053-.053 0-.159 0-.211-.053-.053-.053-.053-.105-.053-.211V30.86h-.846c-.158.264-.37.58-.528.845-.159.317-.317.581-.423.846-.053.052-.053.105-.106.105-.052 0-.105.053-.158.053-.053 0-.106 0-.211-.053-.053-.053-.106-.105-.106-.158v-.106c0-.053.053-.053.053-.106a4.86 4.86 0 01.422-.687c.159-.264.265-.475.423-.74a1.035 1.035 0 01-.687-.422c-.158-.212-.211-.423-.211-.687v-.264c0-.159 0-.265.053-.423.053-.159.158-.264.264-.37a1.15 1.15 0 01.423-.264 1.97 1.97 0 01.634-.106h1.162c.106 0 .159 0 .212.053.052.053.105.106.105.211v3.858h.106zm-.581-2.061v-1.585h-.846c-.158 0-.317 0-.422.053a1.125 1.125 0 00-.265.158c-.053.053-.105.159-.158.211 0 .053-.053.159-.053.212v.264c0 .053 0 .159.053.211 0 .053.053.159.158.212.053.053.159.105.265.158.105.053.264.053.422.053h.846v.053zm-43.646-2.061c.053 0 .158 0 .211.053.053.053.053.106.053.211v3.54h.476c.052 0 .158 0 .211.054.053.052.106.105.106.21v1.11c0 .106-.053.16-.106.212-.053.053-.106.053-.211.053-.106 0-.159 0-.212-.053-.053-.053-.053-.106-.053-.211v-.899h-3.54v.899c0 .105 0 .158-.053.21-.053.054-.105.054-.211.054-.053 0-.159 0-.211-.053-.053-.053-.106-.106-.106-.211v-1.11a.4.4 0 01.106-.211c.052-.053.105-.053.211-.053.264 0 .475-.106.581-.265.106-.158.159-.475.159-.845v-2.43c0-.053 0-.16.052-.212.053-.053.106-.053.212-.053h2.325zm-.317 3.805v-3.276h-1.744v2.166c0 .317-.053.581-.106.74a1.116 1.116 0 01-.211.37h2.061z" fill="#fff"/></svg>