<svg width="126" height="24" fill="none" xmlns="http://www.w3.org/2000/svg"><path d="M4.473 6.166l.195-.095c-.65-.763-.682-1.112-.552-1.24.39-.508 1.56-1.049 3.25-1.049.943 0 1.95.191 2.86.509 1.496.54 2.471.922 3.089 1.208.617.254 1.007.413 1.397.509.293.063.585.095.845.095.163 0 .293 0 .423-.032-.065-.159-.163-.35-.228-.509a8.923 8.923 0 00-.422-.762c-.098 0-.228-.032-.325-.064-.26-.064-.585-.19-1.17-.413-.65-.255-1.626-.668-3.153-1.208a8.98 8.98 0 00-3.348-.668c-1.918 0-3.543.604-4.29 1.558-.683.89-.196 1.907.422 2.702.325-.19.65-.382 1.007-.54zm13.393-1.684a.53.53 0 01.065.16c.357-.319.78-.605 1.072-.605.066 0 .098 0 .163.064.878.667 1.56 3.242.553 6.135a98.625 98.625 0 01-1.203 3.115c-.26.636-.423 1.017-.488 1.399a4.417 4.417 0 00-.065 1.271c.163-.063.325-.159.52-.254.26-.127.52-.286.78-.413 0-.096.033-.223.065-.35.066-.254.195-.604.423-1.176.26-.636.65-1.621 1.203-3.147 1.17-3.338.422-6.548-.975-7.597a1.557 1.557 0 00-.976-.318c-.617 0-1.202.35-1.722.73.26.287.422.637.585.986zm1.657 13.413l-.195.096c.65.763.682 1.113.552 1.24-.39.508-1.56 1.049-3.25 1.049-.943 0-1.95-.191-2.86-.509-1.496-.54-2.471-.922-3.089-1.208-.617-.254-1.007-.413-1.397-.508a3.764 3.764 0 00-.813-.096c-.162 0-.325.032-.455.032.065.159.163.318.228.509.13.254.26.508.422.762.098 0 .228.032.325.064.26.064.585.19 1.17.413.65.255 1.626.668 3.153 1.208a9.964 9.964 0 003.316.572c1.657 0 3.543-.604 4.29-1.557.683-.89.195-1.907-.422-2.702a3.207 3.207 0 01-.975.635zM6.131 19.58l-.097-.19c-.39.318-.78.636-1.008.636-.033 0-.098 0-.195-.096-.878-.667-1.56-3.242-.553-6.135.553-1.494.943-2.48 1.203-3.115.26-.636.423-1.017.488-1.399a4.42 4.42 0 00.065-1.271c-.163.063-.325.159-.52.254-.26.127-.52.286-.78.413 0 .096-.033.223-.066.318-.065.254-.195.604-.422 1.176-.26.636-.683 1.622-1.203 3.147-1.17 3.338-.422 6.549.975 7.598.325.254.65.35 1.008.35.618 0 1.138-.35 1.658-.795-.228-.223-.39-.54-.553-.89z" fill="#00B8EC"/><path d="M2.523 13.193c.032-.063.065-.127.065-.19-.975-.064-1.235-.16-1.268-.477-.162-1.081 1.17-3.37 3.933-4.705 1.463-.7 2.405-1.08 3.023-1.335.618-.254 1.008-.413 1.333-.636.455-.286.747-.572.942-.858a10.715 10.715 0 00-.552-.19 6.525 6.525 0 00-.845-.255c-.065.063-.163.127-.293.222-.227.16-.552.286-1.105.509-.65.254-1.625.668-3.088 1.367C1.515 8.17-.208 10.968.02 12.716c.163 1.24 1.203 1.494 2.178 1.59.097-.382.195-.731.325-1.113zm8.287-10.65c.066.032.13.032.196.064.065-.986.293-1.24.487-1.272h.163c1.268 0 3.38 1.526 4.55 3.974.683 1.462 1.073 2.415 1.366 3.051.26.636.422 1.017.65 1.335.292.445.585.731.845.922.065-.159.13-.35.195-.54a8.62 8.62 0 00.26-.859 1.108 1.108 0 01-.195-.286c-.163-.222-.293-.572-.52-1.112a70.142 70.142 0 00-1.365-3.084C15.947 1.653 13.346 0 11.656 0c-.13 0-.228 0-.325.032-1.138.127-1.495 1.208-1.593 2.193.358.064.715.19 1.073.318zm13.163 8.805c-.163-1.112-1.203-1.494-2.178-1.59-.098.382-.195.732-.325 1.113-.033.064-.033.127-.065.191.975.064 1.235.286 1.268.477.13 1.08-1.17 3.401-3.933 4.705-1.463.699-2.406 1.08-3.023 1.335-.618.254-1.008.413-1.333.635-.455.286-.748.573-.943.859.163.063.358.127.553.19.26.096.553.191.845.255.065-.064.163-.128.293-.223.227-.159.552-.286 1.137-.509.65-.254 1.626-.667 3.088-1.366 3.12-1.526 4.876-4.324 4.616-6.072zM13.184 21.52c-.065-.031-.13-.031-.195-.063-.065.985-.292 1.24-.487 1.271h-.163c-1.268 0-3.38-1.526-4.55-3.973-.683-1.462-1.073-2.416-1.366-3.052-.26-.635-.422-1.017-.65-1.335a3.498 3.498 0 00-.845-.922c-.065.16-.13.35-.195.54-.097.287-.195.573-.26.859.065.063.13.159.195.254.163.223.293.572.52 1.113.26.636.683 1.621 1.365 3.083C8.016 22.347 10.583 24 12.274 24c.13 0 .228 0 .325-.032 1.105-.159 1.495-1.208 1.593-2.193a4.703 4.703 0 01-1.008-.255z" fill="#00B8EC"/><path d="M36.886 15.986c-2.452 0-3.284-1.796-3.284-3.592V9.635c0-1.795.788-3.591 3.284-3.591 2.453 0 3.241 1.796 3.241 3.591v2.76c0 1.795-.788 3.59-3.24 3.59zm2.059-6.395c0-1.401-.482-2.496-2.059-2.496-1.576 0-2.102 1.095-2.102 2.496v2.76c0 1.401.482 2.496 2.102 2.496 1.577 0 2.059-1.095 2.059-2.496V9.59zm7.313-.481a.58.58 0 01.57.569v5.737c0 .307-.22.57-.57.57a.552.552 0 01-.57-.57v-5.255h-2.496v1.27c0 1.357-.131 2.759-.613 3.722-.307.613-.57.832-.92.832a.58.58 0 01-.57-.569c0-.394.395-.526.614-1.226.307-.745.307-1.796.307-2.935V9.68c0-.307.262-.526.569-.526h3.679V9.11zm3.678 6.263c0 .35-.22.613-.57.613s-.57-.263-.57-.613V9.636a.58.58 0 01.57-.57c.35 0 .57.263.57.57v3.81l2.978-3.372v-.438a.58.58 0 01.57-.57.58.58 0 01.568.57v5.737c0 .35-.218.613-.569.613-.306 0-.57-.263-.57-.613v-3.81l-2.977 3.328v.482zm12 .087a.506.506 0 01-.526.526c-.263 0-.525-.263-.525-.525v-3.81l-1.446 3.197c-.087.175-.263.306-.438.306a.456.456 0 01-.438-.306l-1.445-3.154v3.81a.506.506 0 01-.526.526.533.533 0 01-.525-.526V9.593c0-.263.263-.526.526-.526.175 0 .394.088.437.307l1.971 4.16 1.971-4.16c.088-.175.263-.307.438-.307.307 0 .526.22.526.526v5.869zm6.266-6.35a.58.58 0 01.57.57v5.737a.58.58 0 01-.57.57.58.58 0 01-.57-.57V10.16h-2.584v5.256a.58.58 0 01-.569.57.58.58 0 01-.57-.57v-5.78a.58.58 0 01.57-.57h3.723v.044zm3.721 6.263c0 .35-.219.613-.569.613s-.57-.263-.57-.613V9.636a.58.58 0 01.57-.57c.35 0 .57.263.57.57v3.81l2.977-3.372v-.438a.58.58 0 01.57-.57.58.58 0 01.57.57v5.737c0 .35-.22.613-.57.613-.307 0-.57-.263-.57-.613v-3.81l-2.978 3.328v.482zm10.773.57c-.219 0-.525-.132-.657-.263-.131-.088-.219-.263-.263-.394-.481.569-1.27.7-1.839.7-1.62 0-2.277-.876-2.277-1.97v-.088c0-1.095.744-1.927 2.409-1.927h1.489v-.35c0-1.052-.263-1.62-1.358-1.62-.613 0-1.008.13-1.314.35a.623.623 0 01-.263.087.486.486 0 01-.482-.482c0-.175.088-.306.263-.438.526-.35 1.183-.438 1.927-.438 1.84 0 2.409.92 2.409 2.672v2.409c0 .525.131.7.35.832a.46.46 0 01.22.394c-.044.35-.307.526-.614.526zm-1.182-3.11h-1.358c-1.095 0-1.401.526-1.401 1.051v.088c0 .57.306 1.05 1.357 1.05.876 0 1.402-.48 1.402-1.4v-.789zm3.463 1.97c.438-.832.525-1.97.525-3.372V9.635c0-.307.263-.526.526-.526h3.46c.306 0 .57.22.57.526v5.168h.656c.263 0 .482.219.482.482v2.19a.506.506 0 01-.526.525.506.506 0 01-.525-.526v-1.62h-5.168v1.62a.506.506 0 01-.526.526.506.506 0 01-.525-.526v-2.19c0-.35.219-.481.438-.481h.613zm3.898 0v-4.686h-2.278v1.27c0 1.226-.087 2.54-.481 3.372h2.759v.044zm8.142 1.139c-.219 0-.525-.132-.657-.263-.131-.088-.219-.263-.263-.394-.481.569-1.27.7-1.84.7-1.62 0-2.276-.875-2.276-1.97v-.088c0-1.095.744-1.927 2.408-1.927h1.49v-.35c0-1.052-.263-1.62-1.358-1.62-.614 0-1.008.13-1.314.35a.623.623 0 01-.263.087.486.486 0 01-.482-.482c0-.175.088-.306.263-.438.526-.35 1.183-.438 1.927-.438 1.84 0 2.409.92 2.409 2.672v2.409c0 .525.131.7.35.832a.46.46 0 01.22.394c-.045.35-.264.526-.614.526zm-1.139-3.11h-1.357c-1.095 0-1.402.526-1.402 1.051v.088c0 .57.307 1.05 1.358 1.05.876 0 1.401-.48 1.401-1.4v-.789zm11.865-6.219c0-.35.263-.613.613-.613.306 0 .569.263.569.613v8.76c0 .35-.263.613-.569.613a.626.626 0 01-.613-.614v-3.766h-4.292v3.766c0 .35-.263.614-.57.614-.306 0-.569-.263-.569-.614V6.613c0-.35.263-.613.569-.613.307 0 .57.263.57.613v3.942h4.292V6.613zm6.882.657v8.102c0 .35-.262.613-.569.613-.306 0-.569-.263-.569-.613V7.27h-2.453a.552.552 0 01-.569-.57c0-.35.263-.57.569-.57h6.088a.58.58 0 01.569.57.58.58 0 01-.569.57h-2.497zm5.696 8.102c0 .35-.262.614-.569.614-.307 0-.569-.263-.569-.614V6.613c0-.306.262-.613.569-.613.307 0 .569.263.569.613v6.263l4.468-5.43v-.833c0-.306.262-.613.569-.613.306 0 .569.263.569.613v8.76c0 .35-.263.613-.569.613-.307 0-.569-.263-.569-.614V9.11l-4.468 5.43v.832z" fill="#fff"/></svg>