<svg width="40" height="40" fill="none" xmlns="http://www.w3.org/2000/svg"><circle cx="20" cy="20" r="20" fill="#102E3F"/><path fill-rule="evenodd" clip-rule="evenodd" d="M16 11a5 5 0 00-5 5v8a5 5 0 005 5h8a5 5 0 005-5v-8a5 5 0 00-5-5h-8zm10 4.304c0 .652-.522 1.044-1.044 1.044s-1.043-.522-1.043-1.044c0-.652.521-1.043 1.043-1.043.522 0 1.044.391 1.044 1.043zm-6 7.826c-1.696 0-3-1.304-3-3 0-1.695 1.304-3 3-3 1.695 0 3 1.305 3 3 0 1.696-1.305 3-3 3zm0-7.696a4.676 4.676 0 00-4.696 4.696 4.676 4.676 0 004.695 4.696 4.676 4.676 0 004.696-4.696 4.676 4.676 0 00-4.696-4.696z" fill="#fff"/></svg>