<svg width="80" height="150" fill="none" xmlns="http://www.w3.org/2000/svg"><path d="M64.445 7.84l.061 3.06.08 34.89-1.827 2.862L9.652 133.26 64.445 7.841zm2.682 36.652L66.893 3.06l26.167.493-25.933 40.939zm-1.08 3.741l26.587 25.23-86.252 70.599-.814.487 12.005-19.12 48.474-77.196zM105.93 84.97l37.009-2.453-123.823 56.584 86.814-54.13zM93.349 73.92l10.174 9.616-91.537 56.955L93.349 73.92zm27.719 7.525l-15.07 1.053-10.726-10.17 37.994-31.125 14.721 38.296-26.919 1.946zM94.003 3.652l38.776 36.736L94.622 71.61l-27.4-25.849L94.003 3.652zM.42 148.512c.097.163-.065.261-.065.261l.097.163.097.162.163-.097.163-.097.163-.098 149.419-67.027.163-.097.163-.097s.163-.098.065-.26l.066-.26s-.098-.164.065-.261l-.097-.163-15.531-41.129-.292-.488-39.783-37.68c-.195-.327-.455-.392-.878-.36L65.595.52l-.163.097-.163.097-.163.098-.163.097-.162.098s-.163.097-.066.26L.811 148.057c-.423.032-.326.195-.391.455.065-.26.065-.26 0 0 .065-.26.065-.26 0 0 .065-.26.065-.26 0 0 .065-.26-.097-.163 0 0z" fill="#2F586F"/></svg>