<svg width="40" height="40" fill="none" xmlns="http://www.w3.org/2000/svg"><circle cx="20" cy="20" r="20" fill="#102E3F"/><g clip-path="url(#clip0)" fill="#fff"><path d="M20.014 19.762c2.454 0 4.454-1.967 4.454-4.38 0-2.414-2-4.382-4.454-4.382-2.453 0-4.48 1.968-4.48 4.381 0 2.414 2 4.381 4.48 4.381zm0-6.191c1.014 0 1.84.813 1.84 1.81 0 .997-.826 1.81-1.84 1.81-1.013 0-1.84-.813-1.84-1.81-.026-.997.8-1.81 1.84-1.81zm1.787 9.786a8.503 8.503 0 002.587-1.05c.613-.367.8-1.18.4-1.784-.373-.603-1.2-.787-1.814-.393a5.742 5.742 0 01-6 0 1.341 1.341 0 00-1.813.393c-.346.604-.16 1.39.454 1.758.8.498 1.68.84 2.586 1.05l-2.48 2.44a1.268 1.268 0 000 1.81c.267.262.587.367.933.367.347 0 .667-.131.934-.368l2.453-2.413 2.453 2.413a1.319 1.319 0 001.84 0 1.268 1.268 0 000-1.81l-2.533-2.413z"/></g><defs><clipPath id="clip0"><path fill="#fff" transform="translate(15 11)" d="M0 0h10v17H0z"/></clipPath></defs></svg>