<svg width="40" height="40" fill="none" xmlns="http://www.w3.org/2000/svg"><circle cx="20" cy="20" r="20" fill="#102E3F"/><path d="M26.113 16.057A6.602 6.602 0 0028 15.545a6.364 6.364 0 01-1.642 1.694c.011.139.011.277.011.427 0 4.337-3.304 9.334-9.338 9.334A9.312 9.312 0 0112 25.53a6.4 6.4 0 00.789.042 6.547 6.547 0 004.072-1.406 3.296 3.296 0 01-3.06-2.28c.203.042.405.053.619.053.298 0 .586-.043.863-.118a3.27 3.27 0 01-2.633-3.207v-.043c.448.245.949.395 1.493.405a3.258 3.258 0 01-1.46-2.728c0-.596.16-1.161.447-1.651a9.345 9.345 0 006.758 3.43A3.284 3.284 0 0123.086 14a3.3 3.3 0 012.398 1.035 6.386 6.386 0 002.079-.8 3.291 3.291 0 01-1.45 1.823z" fill="#fff"/></svg>