<svg width="40" height="40" fill="none" xmlns="http://www.w3.org/2000/svg"><circle cx="20" cy="20" r="20" fill="#102E3F"/><path d="M29.091 25.957l-2.67.033s-.572.11-1.336-.396c-1.005-.66-1.94-2.376-2.683-2.156-.742.231-.719 1.771-.719 1.771s0 .33-.16.506c-.182.198-.547.242-.547.242h-1.187s-2.637.154-4.965-2.178c-2.534-2.54-4.771-7.589-4.771-7.589s-.126-.33.011-.495c.16-.176.582-.187.582-.187l2.854-.022s.274.044.456.176c.171.121.263.33.263.33s.456 1.122 1.073 2.145c1.198 1.99 1.746 2.42 2.157 2.21.593-.307.41-2.815.41-2.815s.012-.902-.296-1.309c-.24-.319-.685-.407-.89-.429-.16-.022.102-.385.445-.539.513-.242 1.427-.264 2.5-.253.833.011 1.072.055 1.403.132.982.231.65 1.111.65 3.234 0 .682-.125 1.639.389 1.958.217.132.753.022 2.089-2.167.639-1.034 1.107-2.266 1.107-2.266s.103-.22.262-.308c.16-.099.389-.066.389-.066l3.013-.022s.901-.11 1.05.286c.148.418-.342 1.375-1.564 2.959-2.02 2.595-2.237 2.354-.57 3.85 1.597 1.43 1.928 2.133 1.986 2.21.662 1.067-.731 1.155-.731 1.155z" fill="#fff"/></svg>