<svg width="40" height="40" viewBox="0 0 40 40" fill="none" xmlns="http://www.w3.org/2000/svg">
<path d="M7.45929 10.2766C7.56763 10.2237 7.67598 10.1707 7.78432 10.1177C6.70087 8.84622 6.6467 8.26345 6.86339 8.05154C7.51346 7.20388 9.46368 6.30324 12.2807 6.30324C13.8517 6.30324 15.531 6.62111 17.0478 7.1509C19.5398 8.05154 21.165 8.68728 22.1942 9.16409C23.2235 9.58792 23.8736 9.85282 24.5237 10.0118C25.0112 10.1177 25.4988 10.1707 25.9322 10.1707C26.203 10.1707 26.4197 10.1707 26.6364 10.1177C26.5281 9.85282 26.3655 9.53495 26.2572 9.27005C26.0405 8.84622 25.8238 8.42239 25.5529 7.99856C25.3904 7.99856 25.1737 7.94558 25.0112 7.8926C24.5778 7.78664 24.0361 7.57473 23.061 7.20388C21.9776 6.78005 20.3524 6.09132 17.8063 5.19068C15.9644 4.44898 14.0683 4.07812 12.2265 4.07812C9.0303 4.07812 6.32166 5.08472 5.07569 6.67409C3.93807 8.1575 4.75066 9.85282 5.77994 11.1773C6.32166 10.8594 6.86339 10.5415 7.45929 10.2766Z" fill="#00B8EC"/>
<path d="M29.7759 7.46926C29.8301 7.57521 29.8842 7.68117 29.8842 7.73415C30.4801 7.20436 31.1844 6.72755 31.6719 6.72755C31.7803 6.72755 31.8344 6.72755 31.9428 6.83351C33.4055 7.94607 34.5431 12.2374 32.8637 17.0584C31.9428 19.5484 31.2927 21.1908 30.8593 22.2504C30.426 23.3099 30.1551 23.9457 30.0468 24.5814C29.8842 25.4291 29.8842 26.1178 29.9384 26.7006C30.2093 26.5946 30.4801 26.4357 30.8052 26.2767C31.2385 26.0648 31.6719 25.7999 32.1053 25.588C32.1053 25.4291 32.1595 25.2172 32.2137 25.0053C32.322 24.5814 32.5387 23.9987 32.9179 23.045C33.3513 21.9855 34.0014 20.3431 34.9223 17.8001C36.8725 12.2374 35.6265 6.88649 33.2971 5.13819C32.8096 4.76733 32.2678 4.6084 31.6719 4.6084C30.6426 4.6084 29.6675 5.19117 28.8008 5.82691C29.2342 6.30372 29.505 6.88649 29.7759 7.46926Z" fill="#00B8EC"/>
<path d="M32.5404 29.8242C32.432 29.8772 32.3237 29.9302 32.2154 29.9832C33.2988 31.2547 33.353 31.8374 33.1363 32.0493C32.4862 32.897 30.536 33.7976 27.719 33.7976C26.148 33.7976 24.4687 33.4798 22.9518 32.95C20.4599 32.0493 18.8347 31.4136 17.8054 30.9368C16.7762 30.513 16.1261 30.2481 15.476 30.0891C14.9885 29.9832 14.5551 29.9302 14.1217 29.9302C13.8508 29.9302 13.58 29.9832 13.3633 29.9832C13.4716 30.2481 13.6341 30.513 13.7425 30.8308C13.9592 31.2547 14.1759 31.6785 14.4467 32.1023C14.6093 32.1023 14.8259 32.1553 14.9885 32.2083C15.4218 32.3142 15.9636 32.5261 16.9387 32.897C18.0221 33.3208 19.6473 34.0096 22.1934 34.9102C23.9811 35.5459 25.8772 35.8638 27.719 35.8638C30.4818 35.8638 33.6238 34.8572 34.8698 33.2678C36.0074 31.7844 35.1949 30.0891 34.1656 28.7646C33.678 29.2415 33.1363 29.5593 32.5404 29.8242Z" fill="#00B8EC"/>
<path d="M10.2197 32.6329C10.1656 32.527 10.1114 32.421 10.0572 32.3151C9.40714 32.8448 8.75707 33.3746 8.37786 33.3746C8.32369 33.3746 8.21534 33.3746 8.05282 33.2157C6.59016 32.1031 5.45254 27.8119 7.13189 22.9908C8.05282 20.5008 8.7029 18.8584 9.13628 17.7989C9.56966 16.7393 9.84052 16.1035 9.94887 15.4678C10.1114 14.6201 10.1114 13.9314 10.0572 13.3486C9.78635 13.4546 9.51549 13.6135 9.19045 13.7725C8.75707 13.9844 8.32369 14.2493 7.89031 14.4612C7.89031 14.6201 7.83613 14.832 7.78196 14.991C7.67362 15.4148 7.45693 15.9976 7.07772 16.9512C6.64434 18.0108 5.94009 19.6531 5.07333 22.1961C3.12312 27.7589 4.36909 33.1097 6.69851 34.858C7.24023 35.2819 7.78196 35.4408 8.37786 35.4408C9.40714 35.4408 10.2739 34.858 11.1407 34.1163C10.7615 33.7455 10.4906 33.2157 10.2197 32.6329Z" fill="#00B8EC"/>
<path d="M4.20465 21.9874C4.25882 21.8814 4.31299 21.7755 4.31299 21.6695C2.68781 21.5636 2.25443 21.4046 2.20026 20.8748C1.9294 19.0736 4.15048 15.2591 8.75515 13.034C11.1929 11.8684 12.7639 11.2327 13.7932 10.8089C14.8225 10.385 15.4726 10.1201 16.0143 9.74928C16.7727 9.27247 17.2603 8.79566 17.5853 8.31885C17.3144 8.21289 16.9894 8.10694 16.6644 8.00098C16.231 7.84204 15.7434 7.68311 15.2559 7.57715C15.1475 7.68311 14.985 7.78906 14.7683 7.948C14.3891 8.21289 13.8474 8.42481 12.9264 8.79566C11.843 9.21949 10.2178 9.90822 7.78004 11.0738C2.5253 13.6167 -0.345854 18.2789 0.0333548 21.1927C0.304218 23.2589 2.03774 23.6827 3.66292 23.8417C3.82544 23.2059 3.98796 22.6231 4.20465 21.9874Z" fill="#00B8EC"/>
<path d="M18.0191 4.23831C18.1275 4.29129 18.2358 4.29129 18.3442 4.34427C18.4525 2.70192 18.8317 2.27809 19.1568 2.22511C19.2651 2.22511 19.3193 2.22511 19.4276 2.22511C21.5404 2.22511 25.0616 4.7681 27.0118 8.84747C28.1494 11.2845 28.7995 12.8739 29.2871 13.9334C29.7204 14.993 29.9913 15.6288 30.3705 16.1585C30.8581 16.9003 31.3456 17.3771 31.779 17.6949C31.8873 17.43 31.9957 17.1122 32.104 16.7943C32.2665 16.3175 32.4291 15.8407 32.5374 15.3639C32.4291 15.2579 32.3207 15.099 32.2124 14.8871C31.9415 14.5162 31.7248 13.9334 31.3456 13.0328C30.9122 11.9732 30.208 10.3309 29.0704 7.89385C26.5784 2.7549 22.2446 0 19.4276 0C19.2109 0 19.0484 0 18.8859 0.0529789C16.9899 0.264894 16.394 2.06618 16.2314 3.70852C16.8273 3.81448 17.4232 4.02639 18.0191 4.23831Z" fill="#00B8EC"/>
<path d="M39.9582 18.9126C39.6873 17.0584 37.9538 16.4226 36.3286 16.2637C36.1661 16.8994 36.0036 17.4822 35.7869 18.1179C35.7327 18.2239 35.7327 18.3298 35.6785 18.4358C37.3037 18.5418 37.7371 18.9126 37.7913 19.2305C38.008 21.0318 35.8411 24.8992 31.2364 27.0714C28.7986 28.2369 27.2276 28.8726 26.1983 29.2965C25.1691 29.7203 24.519 29.9852 23.9773 30.356C23.2188 30.8329 22.7313 31.3097 22.4062 31.7865C22.6771 31.8924 23.0021 31.9984 23.3272 32.1043C23.7606 32.2633 24.2481 32.4222 24.7357 32.5282C24.844 32.4222 25.0065 32.3163 25.2232 32.1573C25.6024 31.8924 26.1442 31.6805 27.1193 31.3097C28.2027 30.8858 29.8279 30.1971 32.2657 29.0316C37.4662 26.4886 40.3916 21.8265 39.9582 18.9126Z" fill="#00B8EC"/>
<path d="M21.9753 35.8668C21.867 35.8138 21.7586 35.8138 21.6503 35.7608C21.5419 37.4032 21.1627 37.827 20.8377 37.88C20.7293 37.88 20.6752 37.88 20.5668 37.88C18.4541 37.88 14.9329 35.337 12.9826 31.2576C11.845 28.8206 11.1949 27.2312 10.7074 26.1717C10.274 25.1121 10.0031 24.4763 9.62394 23.9465C9.13638 23.2048 8.64883 22.728 8.21545 22.4102C8.1071 22.6751 7.99876 22.9929 7.89041 23.3108C7.72789 23.7876 7.56538 24.2644 7.45703 24.7412C7.56538 24.8472 7.67372 25.0061 7.78207 25.1651C8.05293 25.5359 8.26962 26.1187 8.64883 27.0193C9.08221 28.0789 9.78645 29.7212 10.9241 32.1583C13.3618 37.2442 17.6415 39.9991 20.4585 39.9991C20.6752 39.9991 20.8377 39.9991 21.0002 39.9462C22.8421 39.6813 23.4921 37.933 23.6546 36.2906C23.1671 36.2376 22.5712 36.0787 21.9753 35.8668Z" fill="#00B8EC"/>
</svg>
