<svg width="126" height="24" viewBox="0 0 126 24" fill="none" xmlns="http://www.w3.org/2000/svg">
<path d="M4.47345 6.16644C4.53846 6.13465 4.60347 6.10286 4.66848 6.07108C4.0184 5.30817 3.98589 4.9585 4.11591 4.83135C4.50596 4.32275 5.6761 3.78235 7.36632 3.78235C8.30894 3.78235 9.31656 3.97308 10.2267 4.29096C11.7219 4.83135 12.697 5.2128 13.3146 5.49889C13.9321 5.7532 14.3222 5.91214 14.7122 6.0075C15.0048 6.07108 15.2973 6.10286 15.5574 6.10286C15.7199 6.10286 15.8499 6.10286 15.9799 6.07108C15.9149 5.91214 15.8174 5.72141 15.7524 5.56247C15.6224 5.30817 15.4923 5.05387 15.3298 4.79956C15.2323 4.79956 15.1023 4.76778 15.0048 4.73599C14.7447 4.67241 14.4197 4.54526 13.8346 4.32275C13.1846 4.06844 12.2094 3.6552 10.6817 3.11481C9.5766 2.66978 8.43895 2.44727 7.33381 2.44727C5.41607 2.44727 3.79087 3.05123 3.04327 4.00487C2.36069 4.89493 2.84825 5.91214 3.46583 6.70683C3.79087 6.51611 4.11591 6.32538 4.47345 6.16644Z" fill="#00B8EC"/>
<path d="M17.8658 4.48217C17.8983 4.54574 17.9308 4.60932 17.9308 4.64111C18.2884 4.32323 18.7109 4.03714 19.0035 4.03714C19.0685 4.03714 19.101 4.03714 19.166 4.10071C20.0436 4.76826 20.7262 7.34307 19.7186 10.2358C19.166 11.7298 18.7759 12.7152 18.5159 13.351C18.2559 13.9867 18.0934 14.3682 18.0284 14.7496C17.9308 15.2582 17.9308 15.6715 17.9633 16.0211C18.1259 15.9576 18.2884 15.8622 18.4834 15.7668C18.7434 15.6397 19.0035 15.4807 19.2635 15.3536C19.2635 15.2582 19.296 15.1311 19.3285 15.0039C19.3935 14.7496 19.5235 14.4 19.7511 13.8278C20.0111 13.192 20.4012 12.2066 20.9537 10.6808C22.1239 7.34307 21.3763 4.1325 19.9786 3.0835C19.6861 2.86099 19.361 2.76562 19.0035 2.76562C18.3859 2.76562 17.8008 3.11529 17.2808 3.49674C17.5408 3.78284 17.7033 4.1325 17.8658 4.48217Z" fill="#00B8EC"/>
<path d="M19.5226 17.8955C19.4576 17.9273 19.3925 17.9591 19.3275 17.9909C19.9776 18.7538 20.0101 19.1035 19.8801 19.2306C19.4901 19.7392 18.3199 20.2796 16.6297 20.2796C15.6871 20.2796 14.6795 20.0889 13.7693 19.771C12.2742 19.2306 11.299 18.8492 10.6814 18.5631C10.0639 18.3088 9.67382 18.1498 9.28377 18.0545C8.99124 17.9909 8.7312 17.9591 8.47117 17.9591C8.30865 17.9591 8.14613 17.9909 8.01611 17.9909C8.08112 18.1498 8.17863 18.3088 8.24364 18.4995C8.37366 18.7538 8.50367 19.0081 8.6662 19.2624C8.76371 19.2624 8.89372 19.2942 8.99124 19.326C9.25127 19.3895 9.57631 19.5167 10.1614 19.7392C10.8115 19.9935 11.7866 20.4068 13.3143 20.9472C14.3869 21.3286 15.5246 21.5193 16.6297 21.5193C18.2874 21.5193 20.1726 20.9154 20.9202 19.9617C21.6028 19.0717 21.1153 18.0545 20.4977 17.2598C20.2051 17.5459 19.8801 17.7366 19.5226 17.8955Z" fill="#00B8EC"/>
<path d="M6.13111 19.5805C6.09861 19.517 6.06611 19.4534 6.0336 19.3898C5.64355 19.7077 5.2535 20.0256 5.02598 20.0256C4.99347 20.0256 4.92846 20.0256 4.83095 19.9302C3.95334 19.2626 3.27075 16.6878 4.27838 13.7951C4.83095 12.3011 5.221 11.3157 5.48103 10.6799C5.74107 10.0442 5.90359 9.66273 5.96859 9.28128C6.06611 8.77267 6.06611 8.35943 6.0336 8.00977C5.87108 8.07334 5.70856 8.1687 5.51354 8.26407C5.2535 8.39122 4.99347 8.55016 4.73344 8.67731C4.73344 8.77267 4.70093 8.89982 4.66843 8.99519C4.60342 9.24949 4.47341 9.59916 4.24588 10.1713C3.98584 10.8071 3.56329 11.7925 3.04323 13.3183C1.87308 16.656 2.62067 19.8666 4.01835 20.9156C4.34339 21.1699 4.66843 21.2653 5.02598 21.2653C5.64355 21.2653 6.16362 20.9156 6.68368 20.4706C6.45616 20.2481 6.29363 19.9302 6.13111 19.5805Z" fill="#00B8EC"/>
<path d="M2.52283 13.1932C2.55533 13.1296 2.58784 13.066 2.58784 13.0024C1.61271 12.9389 1.35268 12.8435 1.32018 12.5256C1.15766 11.4448 2.49032 9.15611 5.25317 7.82102C6.71586 7.12169 7.65848 6.74023 8.27605 6.48593C8.89363 6.23163 9.28368 6.07269 9.60872 5.85018C10.0638 5.56408 10.3563 5.27799 10.5513 4.9919C10.3888 4.92833 10.1938 4.86475 9.99877 4.80118C9.73874 4.70581 9.4462 4.61045 9.15366 4.54688C9.08866 4.61045 8.99114 4.67403 8.86113 4.76939C8.6336 4.92833 8.30856 5.05548 7.75599 5.27799C7.10591 5.5323 6.13078 5.94554 4.6681 6.64487C1.5152 8.17069 -0.207515 10.968 0.0200132 12.7163C0.182534 13.9561 1.22266 14.2104 2.19779 14.3057C2.2953 13.9243 2.39281 13.5746 2.52283 13.1932Z" fill="#00B8EC"/>
<path d="M10.8109 2.54303C10.8759 2.57481 10.9409 2.57481 11.0059 2.6066C11.0709 1.62118 11.2985 1.36688 11.4935 1.33509C11.5585 1.33509 11.591 1.33509 11.656 1.33509C12.9237 1.33509 15.0364 2.8609 16.2066 5.30857C16.8892 6.7708 17.2792 7.72444 17.5718 8.36019C17.8318 8.99595 17.9943 9.37741 18.2219 9.69528C18.5144 10.1403 18.8069 10.4264 19.067 10.6171C19.132 10.4582 19.197 10.2675 19.262 10.0767C19.3595 9.79065 19.457 9.50456 19.522 9.21847C19.457 9.15489 19.392 9.05953 19.327 8.93238C19.1645 8.70986 19.0345 8.3602 18.8069 7.8198C18.5469 7.18405 18.1243 6.19862 17.4418 4.73638C15.9466 1.65297 13.3462 0 11.656 0C11.526 0 11.4285 0 11.331 0.0317878C10.1933 0.158939 9.83579 1.23972 9.73828 2.22515C10.0958 2.28872 10.4534 2.41587 10.8109 2.54303Z" fill="#00B8EC"/>
<path d="M23.9727 11.3482C23.8102 10.2356 22.7701 9.85415 21.795 9.75879C21.6974 10.1402 21.5999 10.4899 21.4699 10.8714C21.4374 10.9349 21.4374 10.9985 21.4049 11.0621C22.38 11.1257 22.6401 11.3482 22.6726 11.5389C22.8026 12.6197 21.5024 14.9402 18.7396 16.2435C17.2769 16.9428 16.3343 17.3243 15.7167 17.5786C15.0991 17.8329 14.7091 17.9918 14.384 18.2143C13.929 18.5004 13.6364 18.7865 13.4414 19.0726C13.6039 19.1362 13.799 19.1998 13.994 19.2633C14.254 19.3587 14.5465 19.4541 14.8391 19.5176C14.9041 19.4541 15.0016 19.3905 15.1316 19.2951C15.3591 19.1362 15.6842 19.009 16.2693 18.7865C16.9193 18.5322 17.8945 18.119 19.3572 17.4197C22.4775 15.8938 24.2328 13.0965 23.9727 11.3482Z" fill="#00B8EC"/>
<path d="M13.1842 21.5204C13.1192 21.4886 13.0542 21.4886 12.9892 21.4568C12.9242 22.4422 12.6967 22.6965 12.5017 22.7283C12.4366 22.7283 12.4041 22.7283 12.3391 22.7283C11.0715 22.7283 8.95871 21.2025 7.78856 18.7549C7.10598 17.2926 6.71593 16.339 6.42339 15.7032C6.16336 15.0675 6.00084 14.686 5.77331 14.3681C5.48077 13.9231 5.18823 13.637 4.9282 13.4463C4.86319 13.6052 4.79819 13.796 4.73318 13.9867C4.63567 14.2728 4.53815 14.5589 4.47314 14.845C4.53815 14.9085 4.60316 15.0039 4.66817 15.0993C4.83069 15.3218 4.96071 15.6714 5.18823 16.2118C5.44827 16.8476 5.87082 17.833 6.55341 19.2952C8.01609 22.3469 10.5839 23.9998 12.2741 23.9998C12.4041 23.9998 12.5017 23.9998 12.5992 23.9681C13.7043 23.8091 14.0944 22.7601 14.1919 21.7747C13.8993 21.7429 13.5418 21.6475 13.1842 21.5204Z" fill="#00B8EC"/>
<path d="M36.8863 15.9857C34.4337 15.9857 33.6016 14.1901 33.6016 12.3944V9.63525C33.6016 7.8396 34.3899 6.04395 36.8863 6.04395C39.3389 6.04395 40.1272 7.8396 40.1272 9.63525V12.3944C40.1272 14.1901 39.3389 15.9857 36.8863 15.9857ZM38.9447 9.59145C38.9447 8.18997 38.463 7.09506 36.8863 7.09506C35.3096 7.09506 34.7841 8.18997 34.7841 9.59145V12.3506C34.7841 13.7521 35.2658 14.847 36.8863 14.847C38.463 14.847 38.9447 13.7521 38.9447 12.3506V9.59145Z" fill="white"/>
<path d="M46.2578 9.10938C46.5644 9.10938 46.8272 9.37215 46.8272 9.67873V15.416C46.8272 15.7226 46.6082 15.9854 46.2578 15.9854C45.9074 15.9854 45.6885 15.7226 45.6885 15.416V10.1605H43.1921V11.4306C43.1921 12.7883 43.0607 14.1898 42.5789 15.1533C42.2723 15.7664 42.0096 15.9854 41.6592 15.9854C41.3526 15.9854 41.0898 15.7226 41.0898 15.416C41.0898 15.0219 41.484 14.8905 41.703 14.1898C42.0096 13.4452 42.0096 12.3941 42.0096 11.2554V9.67873C42.0096 9.37215 42.2723 9.15317 42.5789 9.15317H46.2578V9.10938Z" fill="white"/>
<path d="M49.9356 15.3731C49.9356 15.7235 49.7166 15.9862 49.3662 15.9862C49.0159 15.9862 48.7969 15.7235 48.7969 15.3731V9.63576C48.7969 9.32918 49.0597 9.06641 49.3662 9.06641C49.7166 9.06641 49.9356 9.32918 49.9356 9.63576V13.446L52.9137 10.0737V9.63576C52.9137 9.32918 53.1765 9.06641 53.4831 9.06641C53.7897 9.06641 54.0524 9.32918 54.0524 9.63576V15.3731C54.0524 15.7235 53.8335 15.9862 53.4831 15.9862C53.1765 15.9862 52.9137 15.7235 52.9137 15.3731V11.5628L49.9356 14.8913V15.3731Z" fill="white"/>
<path d="M61.9356 15.4607C61.9356 15.7673 61.7166 15.9862 61.4101 15.9862C61.1473 15.9862 60.8845 15.7235 60.8845 15.4607V11.6504L59.4392 14.8475C59.3516 15.0227 59.1764 15.1541 59.0013 15.1541C58.8261 15.1541 58.6509 15.0665 58.5633 14.8475L57.118 11.6942V15.5045C57.118 15.811 56.899 16.03 56.5925 16.03C56.2859 16.03 56.0669 15.7673 56.0669 15.5045V9.59196C56.0669 9.32918 56.3297 9.06641 56.5925 9.06641C56.7676 9.06641 56.9866 9.154 57.0304 9.37298L59.0013 13.5336L60.9721 9.37298C61.0597 9.1978 61.2349 9.06641 61.4101 9.06641C61.7166 9.06641 61.9356 9.28539 61.9356 9.59196V15.4607Z" fill="white"/>
<path d="M68.2017 9.1102C68.5083 9.1102 68.7711 9.37298 68.7711 9.67956V15.4169C68.7711 15.7235 68.5083 15.9862 68.2017 15.9862C67.8951 15.9862 67.6324 15.7235 67.6324 15.4169V10.1613H65.0484V15.4169C65.0484 15.7235 64.7856 15.9862 64.479 15.9862C64.1724 15.9862 63.9097 15.7235 63.9097 15.4169V9.63576C63.9097 9.32918 64.1724 9.06641 64.479 9.06641H68.2017V9.1102Z" fill="white"/>
<path d="M71.9234 15.3731C71.9234 15.7235 71.7044 15.9862 71.354 15.9862C71.0037 15.9862 70.7847 15.7235 70.7847 15.3731V9.63576C70.7847 9.32918 71.0474 9.06641 71.354 9.06641C71.7044 9.06641 71.9234 9.32918 71.9234 9.63576V13.446L74.9015 10.0737V9.63576C74.9015 9.32918 75.1643 9.06641 75.4709 9.06641C75.7775 9.06641 76.0402 9.32918 76.0402 9.63576V15.3731C76.0402 15.7235 75.8213 15.9862 75.4709 15.9862C75.1643 15.9862 74.9015 15.7235 74.9015 15.3731V11.5628L71.9234 14.8913V15.3731Z" fill="white"/>
<path d="M82.6962 15.9426C82.4773 15.9426 82.1707 15.8112 82.0393 15.6798C81.9079 15.5922 81.8203 15.417 81.7765 15.2856C81.2948 15.855 80.5064 15.9864 79.9371 15.9864C78.3166 15.9864 77.6597 15.1105 77.6597 14.0155V13.928C77.6597 12.833 78.4042 12.0009 80.0685 12.0009H81.5575V11.6505C81.5575 10.5994 81.2948 10.0301 80.1999 10.0301C79.5867 10.0301 79.1925 10.1615 78.886 10.3804C78.7984 10.4242 78.7108 10.468 78.6232 10.468C78.3604 10.468 78.1414 10.2491 78.1414 9.98628C78.1414 9.81109 78.229 9.6797 78.4042 9.54832C78.9298 9.19794 79.5867 9.11035 80.3312 9.11035C82.1707 9.11035 82.74 10.0301 82.74 11.7819V14.1907C82.74 14.7163 82.8714 14.8915 83.0904 15.0229C83.2218 15.1105 83.3094 15.2418 83.3094 15.417C83.2656 15.7674 83.0028 15.9426 82.6962 15.9426ZM81.5137 12.833H80.1561C79.0612 12.833 78.7546 13.3586 78.7546 13.8842V13.9717C78.7546 14.5411 79.0612 15.0229 80.1123 15.0229C80.9882 15.0229 81.5137 14.5411 81.5137 13.6214V12.833Z" fill="white"/>
<path d="M84.9769 14.8029C85.4149 13.9708 85.5025 12.8321 85.5025 11.4306V9.63493C85.5025 9.32836 85.7652 9.10938 86.028 9.10938H89.4879C89.7945 9.10938 90.0573 9.32836 90.0573 9.63493V14.8029H90.7142C90.977 14.8029 91.196 15.0219 91.196 15.2847V17.4745C91.196 17.7811 90.977 18 90.6704 18C90.3638 18 90.1449 17.7811 90.1449 17.4745V15.854H84.9769V17.4745C84.9769 17.7811 84.7579 18 84.4513 18C84.1448 18 83.9258 17.7811 83.9258 17.4745V15.2847C83.9258 14.9343 84.1448 14.8029 84.3637 14.8029H84.9769ZM88.8748 14.8029V10.1167H86.5974V11.3868C86.5974 12.6131 86.5098 13.927 86.1156 14.7591H88.8748V14.8029Z" fill="white"/>
<path d="M97.017 15.9416C96.7981 15.9416 96.4915 15.8102 96.3601 15.6788C96.2287 15.5912 96.1411 15.416 96.0973 15.2847C95.6156 15.854 94.8272 15.9854 94.2579 15.9854C92.6374 15.9854 91.9805 15.1095 91.9805 14.0146V13.927C91.9805 12.8321 92.725 11.9999 94.3893 11.9999H95.8783V11.6496C95.8783 10.5985 95.6156 10.0291 94.5207 10.0291C93.9075 10.0291 93.5133 10.1605 93.2068 10.3795C93.1192 10.4233 93.0316 10.4671 92.944 10.4671C92.6812 10.4671 92.4622 10.2481 92.4622 9.9853C92.4622 9.81012 92.5498 9.67873 92.725 9.54734C93.2506 9.19697 93.9075 9.10938 94.652 9.10938C96.4915 9.10938 97.0608 10.0291 97.0608 11.781V14.1898C97.0608 14.7153 97.1922 14.8905 97.4112 15.0219C97.5426 15.1095 97.6302 15.2409 97.6302 15.416C97.5864 15.7664 97.3674 15.9416 97.017 15.9416ZM95.8783 12.8321H94.5207C93.4257 12.8321 93.1192 13.3576 93.1192 13.8832V13.9708C93.1192 14.5401 93.4258 15.0219 94.4769 15.0219C95.3528 15.0219 95.8783 14.5401 95.8783 13.6204V12.8321Z" fill="white"/>
<path d="M107.743 6.61315C107.743 6.26278 108.006 6 108.356 6C108.662 6 108.925 6.26278 108.925 6.61315V15.3724C108.925 15.7228 108.662 15.9856 108.356 15.9856C108.049 15.9856 107.743 15.7228 107.743 15.3724V11.6059H103.451V15.3724C103.451 15.7228 103.188 15.9856 102.881 15.9856C102.575 15.9856 102.312 15.7228 102.312 15.3724V6.61315C102.312 6.26278 102.575 6 102.881 6C103.188 6 103.451 6.26278 103.451 6.61315V10.5548H107.743V6.61315Z" fill="white"/>
<path d="M114.625 7.26957V15.3719C114.625 15.7223 114.363 15.985 114.056 15.985C113.75 15.985 113.487 15.7223 113.487 15.3719V7.26957H111.034C110.728 7.26957 110.465 7.05058 110.465 6.70021C110.465 6.34984 110.728 6.13086 111.034 6.13086H117.122C117.428 6.13086 117.691 6.39364 117.691 6.70021C117.691 7.00679 117.428 7.26957 117.122 7.26957H114.625Z" fill="white"/>
<path d="M120.321 15.3724C120.321 15.7228 120.059 15.9856 119.752 15.9856C119.445 15.9856 119.183 15.7228 119.183 15.3724V6.61315C119.183 6.30657 119.445 6 119.752 6C120.059 6 120.321 6.26278 120.321 6.61315V12.876L124.789 7.44528V6.61315C124.789 6.30657 125.051 6 125.358 6C125.664 6 125.927 6.26278 125.927 6.61315V15.3724C125.927 15.7228 125.664 15.9856 125.358 15.9856C125.051 15.9856 124.789 15.7228 124.789 15.3724V9.10954L120.321 14.5403V15.3724Z" fill="white"/>
</svg>
