<svg width="160" height="40" viewBox="0 0 160 40" fill="none" xmlns="http://www.w3.org/2000/svg">
<path d="M7.29137 10.2507C7.39705 10.1978 7.50273 10.145 7.60841 10.0921C6.55161 8.82397 6.49877 8.24273 6.71013 8.03137C7.34421 7.18593 9.24646 6.28765 11.9941 6.28765C13.5265 6.28765 15.1646 6.60469 16.6441 7.13309C19.0747 8.03137 20.6599 8.66545 21.6639 9.14101C22.6679 9.56374 23.3019 9.82794 23.936 9.98646C24.4116 10.0921 24.8871 10.145 25.3099 10.145C25.5741 10.145 25.7854 10.145 25.9968 10.0921C25.8911 9.82794 25.7326 9.5109 25.6269 9.24669C25.4156 8.82397 25.2042 8.40125 24.94 7.97853C24.7815 7.97853 24.5701 7.92569 24.4116 7.87285C23.9889 7.76717 23.4605 7.55581 22.5093 7.18593C21.4525 6.76321 19.8673 6.07629 17.3838 5.178C15.5873 4.43824 13.7379 4.06836 11.9413 4.06836C8.82374 4.06836 6.18173 5.07232 4.96641 6.65753C3.85676 8.13705 4.64937 9.82794 5.65333 11.1489C6.18173 10.8319 6.71013 10.5149 7.29137 10.2507Z" fill="#009FE3"/>
<path d="M29.0605 7.45005C29.1133 7.55573 29.1662 7.66141 29.1662 7.71425C29.7474 7.18585 30.4343 6.71029 30.9099 6.71029C31.0156 6.71029 31.0684 6.71029 31.1741 6.81597C32.6008 7.92561 33.7104 12.2057 32.0724 17.0141C31.1741 19.4976 30.54 21.1356 30.1173 22.1925C29.6946 23.2493 29.4304 23.8833 29.3247 24.5174C29.1662 25.3629 29.1662 26.0498 29.219 26.631C29.4832 26.5253 29.7474 26.3668 30.0645 26.2083C30.4872 25.9969 30.9099 25.7327 31.3326 25.5214C31.3326 25.3629 31.3855 25.1515 31.4383 24.9401C31.544 24.5174 31.7553 23.9362 32.1252 22.9851C32.5479 21.9282 33.182 20.2902 34.0803 17.7539C35.9826 12.2057 34.7672 6.86881 32.4951 5.12508C32.0195 4.7552 31.4911 4.59668 30.9099 4.59668C29.9059 4.59668 28.9548 5.17792 28.1094 5.812C28.5321 6.28756 28.7963 6.86881 29.0605 7.45005Z" fill="#009FE3"/>
<path d="M31.7562 29.7492C31.6505 29.802 31.5448 29.8549 31.4392 29.9077C32.496 31.1759 32.5488 31.7571 32.3374 31.9685C31.7034 32.8139 29.8011 33.7122 27.0534 33.7122C25.5211 33.7122 23.883 33.3952 22.4035 32.8668C19.9728 31.9685 18.3876 31.3344 17.3837 30.8588C16.3797 30.4361 15.7456 30.1719 15.1115 30.0134C14.636 29.9077 14.2133 29.8549 13.7905 29.8549C13.5263 29.8549 13.2621 29.9077 13.0508 29.9077C13.1565 30.1719 13.315 30.4361 13.4207 30.7532C13.632 31.1759 13.8434 31.5986 14.1076 32.0213C14.2661 32.0213 14.4775 32.0742 14.636 32.127C15.0587 32.2327 15.5871 32.444 16.5382 32.8139C17.595 33.2366 19.1802 33.9236 21.6637 34.8218C23.4075 35.4559 25.2569 35.773 27.0534 35.773C29.7483 35.773 32.813 34.769 34.0283 33.1838C35.138 31.7043 34.3454 30.0134 33.3414 28.6924C32.8658 29.1679 32.3374 29.485 31.7562 29.7492Z" fill="#009FE3"/>
<path d="M9.98545 32.5492C9.93261 32.4436 9.87977 32.3379 9.82693 32.2322C9.19285 32.7606 8.55877 33.289 8.18889 33.289C8.13605 33.289 8.03036 33.289 7.87184 33.1305C6.44516 32.0208 5.33552 27.7408 6.97356 22.9323C7.87184 20.4489 8.50593 18.8108 8.92865 17.754C9.35137 16.6972 9.61557 16.0631 9.72125 15.429C9.87977 14.5836 9.87977 13.8967 9.82693 13.3154C9.56273 13.4211 9.29853 13.5796 8.98149 13.7382C8.55877 13.9495 8.13605 14.2137 7.71332 14.4251C7.71332 14.5836 7.66048 14.795 7.60764 14.9535C7.50196 15.3762 7.2906 15.9574 6.92072 16.9086C6.498 17.9654 5.81108 19.6034 4.96564 22.1397C3.06339 27.688 4.27871 33.0248 6.55084 34.7685C7.07924 35.1913 7.60764 35.3498 8.18889 35.3498C9.19285 35.3498 10.0383 34.7685 10.8837 34.0288C10.5139 33.6589 10.2497 33.1305 9.98545 32.5492Z" fill="#009FE3"/>
<path d="M4.12076 21.9292C4.1736 21.8235 4.22644 21.7178 4.22644 21.6121C2.64123 21.5064 2.21851 21.3479 2.16567 20.8195C1.90147 19.023 4.06792 15.2185 8.55933 12.9992C10.9371 11.8367 12.4695 11.2026 13.4735 10.7799C14.4774 10.3572 15.1115 10.093 15.6399 9.72309C16.3797 9.24753 16.8552 8.77196 17.1723 8.2964C16.9081 8.19072 16.591 8.08504 16.274 7.97936C15.8513 7.82084 15.3757 7.66232 14.9002 7.55664C14.7945 7.66232 14.6359 7.768 14.4246 7.92652C14.0547 8.19072 13.5263 8.40208 12.628 8.77196C11.5712 9.19469 9.98602 9.88161 7.60821 11.0441C2.48271 13.5804 -0.317815 18.2304 0.0520657 21.1366C0.316266 23.1973 2.00715 23.62 3.59236 23.7786C3.75088 23.1445 3.9094 22.5632 4.12076 21.9292Z" fill="#009FE3"/>
<path d="M17.5953 4.22721C17.701 4.28005 17.8066 4.28005 17.9123 4.33289C18.018 2.69485 18.3879 2.27213 18.7049 2.21929C18.8106 2.21929 18.8635 2.21929 18.9691 2.21929C21.0299 2.21929 24.4645 4.75562 26.3668 8.82431C27.4764 11.255 28.1105 12.8402 28.586 13.897C29.0088 14.9538 29.273 15.5878 29.6428 16.1162C30.1184 16.856 30.594 17.3316 31.0167 17.6486C31.1224 17.3844 31.2281 17.0674 31.3337 16.7503C31.4923 16.2748 31.6508 15.7992 31.7565 15.3236C31.6508 15.218 31.5451 15.0594 31.4394 14.8481C31.1752 14.4782 30.9639 13.897 30.594 12.9987C30.1712 11.9419 29.4843 10.3038 28.3747 7.87318C25.944 2.74769 21.7168 0 18.9691 0C18.7578 0 18.5993 0 18.4407 0.0528402C16.5913 0.264201 16.0101 2.06077 15.8516 3.69881C16.4328 3.80449 17.014 4.01585 17.5953 4.22721Z" fill="#009FE3"/>
<path d="M38.9952 18.8637C38.731 17.0143 37.0401 16.3802 35.4549 16.2217C35.2964 16.8558 35.1379 17.437 34.9265 18.0711C34.8737 18.1768 34.8737 18.2824 34.8208 18.3881C36.406 18.4938 36.8288 18.8637 36.8816 19.1807C37.093 20.9773 34.9794 24.8346 30.4879 27.0011C28.1101 28.1636 26.5778 28.7976 25.5738 29.2204C24.5698 29.6431 23.9358 29.9073 23.4074 30.2772C22.6676 30.7527 22.192 31.2283 21.875 31.7038C22.1392 31.8095 22.4562 31.9152 22.7733 32.0209C23.196 32.1794 23.6716 32.3379 24.1471 32.4436C24.2528 32.3379 24.4113 32.2322 24.6227 32.0737C24.9926 31.8095 25.521 31.5982 26.4721 31.2283C27.5289 30.8056 29.1141 30.1186 31.4919 28.9562C36.5646 26.4198 39.4179 21.7699 38.9952 18.8637Z" fill="#009FE3"/>
<path d="M21.4522 35.773C21.3465 35.7201 21.2408 35.7201 21.1351 35.6673C21.0295 37.3053 20.6596 37.7281 20.3425 37.7809C20.2369 37.7809 20.184 37.7809 20.0783 37.7809C18.0176 37.7809 14.583 35.2446 12.6807 31.1759C11.5711 28.7452 10.937 27.16 10.4614 26.1032C10.0387 25.0464 9.7745 24.4123 9.40462 23.8839C8.92906 23.1442 8.4535 22.6686 8.03078 22.3516C7.9251 22.6158 7.81942 22.9328 7.71374 23.2498C7.55522 23.7254 7.3967 24.201 7.29102 24.6765C7.3967 24.7822 7.50238 24.9407 7.60806 25.0993C7.87226 25.4691 8.08362 26.0504 8.4535 26.9487C8.87622 28.0055 9.56314 29.6435 10.6728 32.0742C13.0506 37.1468 17.225 39.8945 19.9727 39.8945C20.184 39.8945 20.3425 39.8945 20.5011 39.8417C22.2976 39.5775 22.9317 37.8337 23.0902 36.1957C22.6147 36.1428 22.0334 35.9843 21.4522 35.773Z" fill="#009FE3"/>
<path d="M50.2503 29.4851C50.6202 29.9606 50.9901 30.3834 51.36 30.8589C51.7299 31.3345 52.0997 31.81 52.4168 32.2856C52.4696 32.3384 52.4696 32.3913 52.4696 32.4441C52.4696 32.497 52.4696 32.5498 52.4168 32.6555C52.3639 32.7083 52.3111 32.7612 52.2054 32.7612C52.0997 32.7612 52.0469 32.7083 51.9412 32.6555C51.5713 32.1799 51.2543 31.6515 50.8844 31.176C50.5145 30.7004 50.1446 30.2248 49.7748 29.8021H48.7708V32.497C48.7708 32.6026 48.718 32.6555 48.6651 32.7083C48.6123 32.7612 48.5594 32.814 48.4538 32.814C48.4009 32.814 48.2952 32.7612 48.2424 32.7083C48.1896 32.6555 48.1367 32.6026 48.1367 32.497V26.526C48.1367 26.4732 48.1896 26.3675 48.2424 26.3147C48.2952 26.2618 48.3481 26.209 48.4538 26.209C48.5594 26.209 48.6123 26.2618 48.6651 26.3147C48.718 26.3675 48.7708 26.4203 48.7708 26.526V29.2209H49.7219L51.8884 26.3675C51.9412 26.3147 51.9412 26.3147 51.9941 26.2618C52.0469 26.2618 52.0997 26.209 52.1526 26.209C52.2583 26.209 52.3111 26.2618 52.3639 26.3147C52.4168 26.3675 52.4168 26.4203 52.4168 26.526C52.4168 26.5789 52.4168 26.6317 52.3639 26.6845L50.2503 29.4851Z" fill="white"/>
<path d="M51.5704 19.6041C48.6114 19.6041 47.6074 17.4376 47.6074 15.2712V11.9423C47.6074 9.77582 48.5585 7.60938 51.5704 7.60938C54.5295 7.60938 55.4806 9.77582 55.4806 11.9423V15.2712C55.4806 17.4376 54.5295 19.6041 51.5704 19.6041ZM54.0539 11.8894C54.0539 10.1985 53.4727 8.87754 51.5704 8.87754C49.6682 8.87754 49.0341 10.1985 49.0341 11.8894V15.2184C49.0341 16.9092 49.6153 18.2302 51.5704 18.2302C53.4727 18.2302 54.0539 16.9092 54.0539 15.2184V11.8894Z" fill="white"/>
<path d="M62.8777 11.3086C63.2476 11.3086 63.5646 11.6256 63.5646 11.9955V18.9176C63.5646 19.2875 63.3004 19.6045 62.8777 19.6045C62.455 19.6045 62.1908 19.2875 62.1908 18.9176V12.5768H59.1789V14.1091C59.1789 15.7472 59.0204 17.4381 58.4391 18.6005C58.0693 19.3403 57.7522 19.6045 57.3295 19.6045C56.9596 19.6045 56.6426 19.2875 56.6426 18.9176C56.6426 18.442 57.1181 18.2835 57.3823 17.4381C57.7522 16.5398 57.7522 15.2716 57.7522 13.8978V11.9955C57.7522 11.6256 58.0693 11.3614 58.4391 11.3614H62.8777V11.3086Z" fill="white"/>
<path d="M67.3172 18.8648C67.3172 19.2876 67.053 19.6046 66.6303 19.6046C66.2076 19.6046 65.9434 19.2876 65.9434 18.8648V11.9428C65.9434 11.5729 66.2604 11.2559 66.6303 11.2559C67.053 11.2559 67.3172 11.5729 67.3172 11.9428V16.5399L70.9103 12.4712V11.9428C70.9103 11.5729 71.2274 11.2559 71.5973 11.2559C71.9671 11.2559 72.2842 11.5729 72.2842 11.9428V18.8648C72.2842 19.2876 72.02 19.6046 71.5973 19.6046C71.2274 19.6046 70.9103 19.2876 70.9103 18.8648V14.2677L67.3172 18.2836V18.8648Z" fill="white"/>
<path d="M81.7954 18.9705C81.7954 19.3404 81.5312 19.6046 81.1614 19.6046C80.8443 19.6046 80.5273 19.2876 80.5273 18.9705V14.3734L78.7835 18.2308C78.6779 18.4421 78.4665 18.6006 78.2551 18.6006C78.0438 18.6006 77.8324 18.495 77.7267 18.2308L75.983 14.4263V19.0234C75.983 19.3932 75.7188 19.6574 75.3489 19.6574C74.9791 19.6574 74.7148 19.3404 74.7148 19.0234V11.8899C74.7148 11.5729 75.0319 11.2559 75.3489 11.2559C75.5603 11.2559 75.8245 11.3615 75.8773 11.6257L78.2551 16.6456L80.633 11.6257C80.7386 11.4144 80.95 11.2559 81.1614 11.2559C81.5312 11.2559 81.7954 11.5201 81.7954 11.8899V18.9705Z" fill="white"/>
<path d="M89.3502 11.3087C89.7201 11.3087 90.0371 11.6257 90.0371 11.9956V18.9177C90.0371 19.2876 89.7201 19.6046 89.3502 19.6046C88.9803 19.6046 88.6633 19.2876 88.6633 18.9177V12.5769H85.5457V18.9177C85.5457 19.2876 85.2287 19.6046 84.8588 19.6046C84.4889 19.6046 84.1719 19.2876 84.1719 18.9177V11.9428C84.1719 11.5729 84.4889 11.2559 84.8588 11.2559H89.3502V11.3087Z" fill="white"/>
<path d="M93.8426 18.8648C93.8426 19.2876 93.5784 19.6046 93.1557 19.6046C92.733 19.6046 92.4688 19.2876 92.4688 18.8648V11.9428C92.4688 11.5729 92.7858 11.2559 93.1557 11.2559C93.5784 11.2559 93.8426 11.5729 93.8426 11.9428V16.5399L97.4357 12.4712V11.9428C97.4357 11.5729 97.7528 11.2559 98.1227 11.2559C98.4925 11.2559 98.8096 11.5729 98.8096 11.9428V18.8648C98.8096 19.2876 98.5454 19.6046 98.1227 19.6046C97.7528 19.6046 97.4357 19.2876 97.4357 18.8648V14.2677L93.8426 18.2836V18.8648Z" fill="white"/>
<path d="M106.842 19.5517C106.578 19.5517 106.208 19.3931 106.05 19.2346C105.891 19.1289 105.785 18.9176 105.733 18.7591C105.151 19.446 104.2 19.6045 103.513 19.6045C101.558 19.6045 100.766 18.5477 100.766 17.2267V17.121C100.766 15.8 101.664 14.796 103.672 14.796H105.468V14.3733C105.468 13.1052 105.151 12.4182 103.83 12.4182C103.091 12.4182 102.615 12.5768 102.245 12.841C102.139 12.8938 102.034 12.9466 101.928 12.9466C101.611 12.9466 101.347 12.6824 101.347 12.3654C101.347 12.154 101.453 11.9955 101.664 11.837C102.298 11.4143 103.091 11.3086 103.989 11.3086C106.208 11.3086 106.895 12.4182 106.895 14.5318V17.4381C106.895 18.0721 107.054 18.2835 107.318 18.442C107.476 18.5477 107.582 18.7062 107.582 18.9176C107.529 19.3403 107.212 19.5517 106.842 19.5517ZM105.416 15.8H103.778C102.457 15.8 102.087 16.4341 102.087 17.0682V17.1739C102.087 17.8608 102.457 18.442 103.725 18.442C104.781 18.442 105.416 17.8608 105.416 16.7511V15.8Z" fill="white"/>
<path d="M109.588 18.1778C110.117 17.1739 110.223 15.8 110.223 14.1091V11.9427C110.223 11.5728 110.54 11.3086 110.857 11.3086H115.031C115.401 11.3086 115.718 11.5728 115.718 11.9427V18.1778H116.511C116.828 18.1778 117.092 18.442 117.092 18.7591V21.4011C117.092 21.7709 116.828 22.0351 116.458 22.0351C116.088 22.0351 115.824 21.7709 115.824 21.4011V19.446H109.588V21.4011C109.588 21.7709 109.324 22.0351 108.954 22.0351C108.585 22.0351 108.32 21.7709 108.32 21.4011V18.7591C108.32 18.3363 108.585 18.1778 108.849 18.1778H109.588ZM114.291 18.1778V12.5239H111.544V14.0563C111.544 15.5358 111.438 17.121 110.962 18.125H114.291V18.1778Z" fill="white"/>
<path d="M124.12 19.5517C123.855 19.5517 123.486 19.3931 123.327 19.2346C123.168 19.1289 123.063 18.9176 123.01 18.7591C122.429 19.446 121.478 19.6045 120.791 19.6045C118.836 19.6045 118.043 18.5477 118.043 17.2267V17.121C118.043 15.8 118.941 14.796 120.949 14.796H122.746V14.3733C122.746 13.1052 122.429 12.4182 121.108 12.4182C120.368 12.4182 119.892 12.5768 119.522 12.841C119.417 12.8938 119.311 12.9466 119.205 12.9466C118.888 12.9466 118.624 12.6824 118.624 12.3654C118.624 12.154 118.73 11.9955 118.941 11.837C119.575 11.4143 120.368 11.3086 121.266 11.3086C123.486 11.3086 124.172 12.4182 124.172 14.5318V17.4381C124.172 18.0721 124.331 18.2835 124.595 18.442C124.754 18.5477 124.859 18.7062 124.859 18.9176C124.807 19.3403 124.542 19.5517 124.12 19.5517ZM122.746 15.8H121.108C119.787 15.8 119.417 16.4341 119.417 17.0682V17.1739C119.417 17.8608 119.787 18.442 121.055 18.442C122.112 18.442 122.746 17.8608 122.746 16.7511V15.8Z" fill="white"/>
<path d="M137.066 8.2964C137.066 7.87368 137.383 7.55664 137.806 7.55664C138.175 7.55664 138.493 7.87368 138.493 8.2964V18.8644C138.493 19.2872 138.175 19.6042 137.806 19.6042C137.436 19.6042 137.066 19.2872 137.066 18.8644V14.3202H131.888V18.8644C131.888 19.2872 131.57 19.6042 131.201 19.6042C130.831 19.6042 130.514 19.2872 130.514 18.8644V8.2964C130.514 7.87368 130.831 7.55664 131.201 7.55664C131.57 7.55664 131.888 7.87368 131.888 8.2964V13.052H137.066V8.2964Z" fill="white"/>
<path d="M145.362 9.08869V18.8641C145.362 19.2868 145.045 19.6039 144.675 19.6039C144.305 19.6039 143.988 19.2868 143.988 18.8641V9.08869H141.029C140.659 9.08869 140.342 8.82449 140.342 8.40177C140.342 7.97904 140.659 7.71484 141.029 7.71484H148.373C148.743 7.71484 149.06 8.03188 149.06 8.40177C149.06 8.77165 148.743 9.08869 148.373 9.08869H145.362Z" fill="white"/>
<path d="M152.231 18.8644C152.231 19.2872 151.914 19.6042 151.544 19.6042C151.174 19.6042 150.857 19.2872 150.857 18.8644V8.2964C150.857 7.92652 151.174 7.55664 151.544 7.55664C151.914 7.55664 152.231 7.87368 152.231 8.2964V15.8525L157.621 9.30037V8.2964C157.621 7.92652 157.938 7.55664 158.308 7.55664C158.678 7.55664 158.995 7.87368 158.995 8.2964V18.8644C158.995 19.2872 158.678 19.6042 158.308 19.6042C157.938 19.6042 157.621 19.2872 157.621 18.8644V11.3083L152.231 17.8605V18.8644Z" fill="white"/>
<path d="M58.0171 30.8059C58.0171 31.0701 57.9642 31.3343 57.9114 31.5456C57.8585 31.757 57.7529 31.9683 57.6472 32.1269C57.5415 32.2854 57.383 32.4439 57.1716 32.4967C56.9603 32.6024 56.7489 32.6553 56.4847 32.6553C56.3262 32.6553 56.1677 32.6024 55.9563 32.5496C55.7449 32.4967 55.5864 32.3911 55.3751 32.2854V33.9234C55.3751 34.0291 55.3751 34.0819 55.3222 34.1348C55.2694 34.1876 55.2165 34.1876 55.1109 34.1876C55.058 34.1876 54.9523 34.1876 54.8995 34.1348C54.8467 34.0819 54.7938 34.0291 54.7938 33.9234V29.2735C54.7938 29.115 54.7938 28.9565 54.741 28.9036C54.6881 28.8508 54.6353 28.7979 54.5296 28.7451C54.4239 28.6923 54.3711 28.6394 54.3711 28.5337C54.3711 28.4281 54.3711 28.3752 54.4239 28.3752C54.4768 28.3224 54.5296 28.3224 54.6353 28.3224C54.6881 28.3224 54.741 28.3224 54.8467 28.3752C54.8995 28.4281 55.0052 28.4281 55.058 28.4809C55.1109 28.5337 55.1637 28.6394 55.2165 28.6923C55.3751 28.5337 55.5864 28.4809 55.7978 28.3752C56.0091 28.3224 56.1677 28.2695 56.379 28.2695C56.9603 28.2695 57.3301 28.4281 57.5943 28.6923C57.8585 29.0093 57.9642 29.432 57.9642 29.9604V30.8059H58.0171ZM57.4887 29.9604C57.4887 29.5905 57.383 29.2735 57.2245 29.0621C57.0659 28.8508 56.8017 28.7451 56.379 28.7451C56.2205 28.7451 56.062 28.7979 55.9035 28.8508C55.7449 28.9036 55.5336 29.0093 55.3751 29.1678V31.7041C55.5336 31.8627 55.7449 32.0212 55.9035 32.074C56.1148 32.1269 56.2733 32.1797 56.379 32.1797C56.7489 32.1797 57.0131 32.074 57.1716 31.8098C57.3301 31.5985 57.4358 31.2286 57.4358 30.8059V29.9604H57.4887Z" fill="white"/>
<path d="M62.5614 32.0223C62.4557 32.3921 62.2972 32.7092 62.1915 32.9734C62.033 33.2376 61.8745 33.449 61.716 33.6603C61.5574 33.8188 61.3461 33.9774 61.1347 34.083C60.9234 34.1887 60.712 34.2416 60.4478 34.2416C60.3421 34.2416 60.2893 34.1887 60.2364 34.1359C60.1836 34.083 60.1836 34.0302 60.1836 33.9774C60.1836 33.9245 60.1836 33.8717 60.2364 33.8188C60.2893 33.766 60.3421 33.7132 60.4478 33.7132C60.6063 33.7132 60.712 33.7132 60.8177 33.6603C60.9234 33.6075 61.029 33.5546 61.1347 33.5018C61.2404 33.449 61.3461 33.3433 61.4518 33.1847C61.5574 33.0791 61.6631 32.9205 61.7688 32.7092C61.4518 31.9694 61.1876 31.2297 60.9234 30.5427C60.6592 29.8558 60.4478 29.2217 60.2364 28.6405C60.2364 28.5877 60.2364 28.5877 60.2364 28.5348C60.2364 28.4291 60.2893 28.3763 60.3421 28.3235C60.395 28.2706 60.4478 28.2706 60.5535 28.2706C60.6063 28.2706 60.6592 28.2706 60.712 28.3235C60.7648 28.3763 60.8177 28.3763 60.8177 28.482C60.9762 29.0104 61.1876 29.5388 61.3989 30.12C61.6103 30.7013 61.8216 31.3353 62.0858 31.9694L63.3012 28.4291C63.3012 28.3763 63.354 28.3235 63.4068 28.2706C63.4597 28.2706 63.5125 28.2178 63.5654 28.2178C63.6182 28.2178 63.7239 28.2178 63.7767 28.2706C63.8296 28.3235 63.8824 28.3763 63.8824 28.482C63.8824 28.482 63.8824 28.5348 63.8824 28.5877L62.5614 32.0223Z" fill="white"/>
<path d="M68.5315 32.4439C68.5315 32.5496 68.4787 32.6024 68.4258 32.6553C68.373 32.7081 68.3202 32.7609 68.2145 32.7609C68.1088 32.7609 68.056 32.7081 68.0031 32.6553C67.9503 32.6024 67.8974 32.5496 67.8974 32.4439V30.753H67.369C67.1048 31.0701 66.8935 31.3343 66.6293 31.6513C66.4179 31.9683 66.1537 32.2854 65.9424 32.6024C65.8895 32.6553 65.8895 32.6553 65.8367 32.7081C65.7838 32.7081 65.731 32.7609 65.731 32.7609C65.6253 32.7609 65.5725 32.7081 65.5196 32.6553C65.4668 32.6024 65.4668 32.5496 65.4668 32.4439C65.4668 32.3911 65.4668 32.3382 65.5196 32.2854C65.731 31.9683 65.9424 31.6513 66.2066 31.3871C66.4179 31.0701 66.6821 30.8059 66.9463 30.4888L65.5725 28.7451C65.5725 28.6923 65.5725 28.6923 65.5196 28.6394C65.5196 28.6394 65.5196 28.5866 65.5196 28.5337C65.5196 28.4809 65.5196 28.4281 65.5725 28.3752C65.6253 28.3224 65.6782 28.2695 65.7838 28.2695C65.8895 28.2695 65.9424 28.3224 65.9952 28.3752L67.4219 30.2246H67.9503V28.5337C67.9503 28.4281 68.0031 28.3752 68.056 28.3224C68.1088 28.2695 68.1616 28.2695 68.2673 28.2695C68.3202 28.2695 68.4258 28.2695 68.4787 28.3224C68.5315 28.3752 68.5844 28.4281 68.5844 28.5337V30.2246H69.1128L70.5394 28.3752C70.5923 28.3224 70.6451 28.2695 70.7508 28.2695C70.8565 28.2695 70.9093 28.3224 70.9622 28.3752C71.015 28.4281 71.015 28.4809 71.015 28.5337C71.015 28.5866 71.015 28.5866 71.015 28.6394C71.015 28.6394 71.015 28.6923 70.9622 28.7451L69.5355 30.4888C69.7997 30.8059 70.011 31.0701 70.2752 31.3871C70.4866 31.7041 70.7508 31.9683 70.9622 32.2854C71.015 32.3382 71.015 32.3911 71.015 32.4439C71.015 32.4967 71.015 32.5496 70.9622 32.6553C70.9093 32.7081 70.8565 32.7609 70.7508 32.7609C70.698 32.7609 70.6451 32.7609 70.6451 32.7081C70.5923 32.7081 70.5923 32.6553 70.5394 32.6024C70.3281 32.2854 70.0639 31.9683 69.8525 31.6513C69.6412 31.3343 69.377 31.0701 69.1128 30.753H68.5844V32.4439H68.5315Z" fill="white"/>
<path d="M73.1816 32.4448V28.5874C73.1816 28.4818 73.2345 28.4289 73.2873 28.3761C73.3402 28.3232 73.393 28.3232 73.4987 28.3232C73.6044 28.3232 73.6572 28.3232 73.71 28.3761C73.7629 28.4289 73.7629 28.4818 73.7629 28.5874V30.2783H74.2913L75.718 28.4289C75.7708 28.3232 75.8237 28.3232 75.9293 28.3232C76.035 28.3232 76.0879 28.3761 76.1407 28.4289C76.1935 28.4818 76.1935 28.5346 76.1935 28.5874C76.1935 28.6403 76.1935 28.6931 76.1407 28.746L74.7668 30.5425C75.031 30.8067 75.2424 31.1238 75.5066 31.4408C75.718 31.7579 75.9822 32.0221 76.1935 32.3391C76.1935 32.3391 76.1935 32.3919 76.2464 32.3919C76.2464 32.4448 76.2464 32.4448 76.2464 32.4976C76.2464 32.5505 76.2464 32.6033 76.1935 32.6561C76.1407 32.709 76.0879 32.7618 75.9822 32.7618C75.8765 32.7618 75.8236 32.709 75.7708 32.6561C75.5594 32.3391 75.2953 32.0221 75.0839 31.705C74.8725 31.388 74.6083 31.1238 74.3441 30.8067H73.8157V32.4976C73.8157 32.6033 73.8157 32.6561 73.7629 32.709C73.71 32.7618 73.6572 32.7618 73.5515 32.7618C73.4987 32.7618 73.393 32.7618 73.3402 32.709C73.2345 32.6033 73.1816 32.4976 73.1816 32.4448Z" fill="white"/>
<path d="M81.6359 30.9126C81.6359 31.1768 81.5831 31.3882 81.5302 31.5995C81.4774 31.8109 81.3717 32.0223 81.2132 32.1808C81.0547 32.3393 80.8961 32.445 80.6848 32.5507C80.4734 32.6563 80.2092 32.7092 79.8922 32.7092C79.5751 32.7092 79.3109 32.6563 79.0996 32.5507C78.8882 32.445 78.7297 32.3393 78.5712 32.1808C78.4126 32.0223 78.3598 31.8109 78.2541 31.5995C78.2013 31.3882 78.1484 31.1768 78.1484 30.9126V30.0143C78.1484 29.7501 78.2013 29.5388 78.2541 29.3274C78.307 29.1161 78.4126 28.9047 78.5712 28.7462C78.7297 28.5877 78.8882 28.482 79.0996 28.3763C79.3109 28.2706 79.5751 28.2178 79.8922 28.2178C80.2092 28.2178 80.4734 28.2706 80.6848 28.3763C80.8961 28.482 81.0547 28.5877 81.2132 28.7462C81.3717 28.9047 81.4245 29.1161 81.5302 29.3274C81.5831 29.5388 81.6359 29.7501 81.6359 30.0143V30.9126ZM81.1075 30.0672C81.1075 29.8558 81.1075 29.6973 81.0546 29.5388C81.0018 29.3803 80.949 29.2746 80.8433 29.1689C80.6319 28.9575 80.3677 28.8519 79.9978 28.8519C79.628 28.8519 79.3109 28.9575 79.0996 29.1689C78.941 29.3803 78.8354 29.6973 78.8354 30.0672V30.9126C78.8354 31.2825 78.941 31.5995 79.0996 31.8109C79.3109 32.0223 79.5751 32.1279 79.9978 32.1279C80.3677 32.1279 80.6848 32.0223 80.8433 31.8109C80.949 31.7052 81.0018 31.5467 81.0546 31.441C81.1075 31.2825 81.1075 31.124 81.1075 30.9126V30.0672Z" fill="white"/>
<path d="M84.4908 32.6551C84.3851 32.6551 84.3322 32.6551 84.2794 32.6022C84.2266 32.5494 84.2266 32.4965 84.2266 32.3909V28.6392C84.2266 28.5864 84.2266 28.4807 84.2794 28.4278C84.3322 28.375 84.3851 28.375 84.4908 28.375H85.7061C86.1288 28.375 86.4459 28.4807 86.6572 28.692C86.8686 28.9034 86.9743 29.1676 86.9743 29.4846V29.5903C86.9743 29.7488 86.9214 29.9074 86.8686 30.0659C86.8157 30.2244 86.6572 30.3301 86.4987 30.4358C86.7629 30.5414 86.9214 30.6471 87.0271 30.8585C87.1328 31.017 87.1856 31.2284 87.1856 31.3869V31.5454C87.1856 31.8625 87.0799 32.1795 86.8686 32.3909C86.6572 32.6022 86.2873 32.7079 85.8118 32.7079H84.4908V32.6551ZM84.755 28.7977V30.2244H85.5476C85.8646 30.2244 86.076 30.1716 86.2345 30.0659C86.393 29.9602 86.4459 29.8017 86.4459 29.5903V29.4318C86.4459 29.2204 86.393 29.0619 86.2873 28.9562C86.1817 28.8506 85.9703 28.7977 85.6533 28.7977H84.755ZM84.755 30.7V32.1795H85.8118C85.9703 32.1795 86.1288 32.1795 86.2345 32.1267C86.3402 32.0738 86.4459 32.0738 86.4987 31.9681C86.5515 31.9153 86.6044 31.8624 86.6044 31.7568C86.6044 31.6511 86.6572 31.5982 86.6572 31.4926V31.334C86.6572 31.1227 86.6044 30.9642 86.4459 30.8585C86.2873 30.7528 86.076 30.7 85.7589 30.7H84.755Z" fill="white"/>
<path d="M92.9445 30.9126C92.9445 31.1768 92.8916 31.3882 92.8388 31.5995C92.786 31.8109 92.6803 32.0223 92.5218 32.1808C92.3632 32.3393 92.2047 32.445 91.9934 32.5507C91.782 32.6563 91.5178 32.7092 91.2008 32.7092C90.8837 32.7092 90.6195 32.6563 90.4082 32.5507C90.1968 32.445 90.0383 32.3393 89.8798 32.1808C89.7212 32.0223 89.6684 31.8109 89.5627 31.5995C89.5099 31.3882 89.457 31.1768 89.457 30.9126V30.0143C89.457 29.7501 89.5099 29.5388 89.5627 29.3274C89.6155 29.1161 89.7212 28.9047 89.8798 28.7462C90.0383 28.5877 90.1968 28.482 90.4082 28.3763C90.6195 28.2706 90.8837 28.2178 91.2008 28.2178C91.5178 28.2178 91.782 28.2706 91.9934 28.3763C92.2047 28.482 92.3632 28.5877 92.5218 28.7462C92.6803 28.9047 92.7331 29.1161 92.8388 29.3274C92.8916 29.5388 92.9445 29.7501 92.9445 30.0143V30.9126ZM92.4161 30.0672C92.4161 29.8558 92.4161 29.6973 92.3632 29.5388C92.3104 29.3803 92.2576 29.2746 92.1519 29.1689C91.9405 28.9575 91.6763 28.8519 91.3064 28.8519C90.9366 28.8519 90.6195 28.9575 90.4082 29.1689C90.2496 29.3803 90.144 29.6973 90.144 30.0672V30.9126C90.144 31.2825 90.2496 31.5995 90.4082 31.8109C90.6195 32.0223 90.8837 32.1279 91.3064 32.1279C91.6763 32.1279 91.9934 32.0223 92.1519 31.8109C92.2576 31.7052 92.3104 31.5467 92.3632 31.441C92.4161 31.2825 92.4161 31.124 92.4161 30.9126V30.0672Z" fill="white"/>
<path d="M98.2809 28.5866C98.2809 28.6394 98.2809 28.7451 98.228 28.7451C98.1752 28.7979 98.1224 28.7979 98.0695 28.7979H96.1144V32.3911C96.1144 32.4967 96.0616 32.5496 96.0088 32.6024C95.9559 32.6553 95.9031 32.6553 95.7974 32.6553C95.6917 32.6553 95.6389 32.6553 95.586 32.6024C95.5332 32.5496 95.5332 32.4967 95.5332 32.3911V28.5337C95.5332 28.4809 95.5332 28.3752 95.586 28.3224C95.6389 28.2695 95.6917 28.2695 95.7974 28.2695H98.0167C98.0695 28.2695 98.1224 28.2695 98.1752 28.3224C98.2809 28.4281 98.2809 28.4809 98.2809 28.5866Z" fill="white"/>
<path d="M103.671 30.9126C103.671 31.1768 103.618 31.3882 103.565 31.5995C103.513 31.8109 103.407 32.0223 103.248 32.1808C103.09 32.3393 102.931 32.445 102.72 32.5507C102.509 32.6563 102.244 32.7092 101.927 32.7092C101.61 32.7092 101.346 32.6563 101.135 32.5507C100.923 32.445 100.765 32.3393 100.606 32.1808C100.448 32.0223 100.395 31.8109 100.289 31.5995C100.236 31.3882 100.184 31.1768 100.184 30.9126V30.0143C100.184 29.7501 100.236 29.5388 100.289 29.3274C100.342 29.1161 100.448 28.9047 100.606 28.7462C100.765 28.5877 100.923 28.482 101.135 28.3763C101.346 28.2706 101.61 28.2178 101.927 28.2178C102.244 28.2178 102.509 28.2706 102.72 28.3763C102.931 28.482 103.09 28.5877 103.248 28.7462C103.407 28.9047 103.46 29.1161 103.565 29.3274C103.618 29.5388 103.671 29.7501 103.671 30.0143V30.9126ZM103.143 30.0672C103.143 29.8558 103.143 29.6973 103.09 29.5388C103.037 29.3803 102.984 29.2746 102.878 29.1689C102.667 28.9575 102.403 28.8519 102.033 28.8519C101.663 28.8519 101.346 28.9575 101.135 29.1689C100.976 29.3803 100.871 29.6973 100.871 30.0672V30.9126C100.871 31.2825 100.976 31.5995 101.135 31.8109C101.346 32.0223 101.61 32.1279 102.033 32.1279C102.403 32.1279 102.72 32.0223 102.878 31.8109C102.984 31.7052 103.037 31.5467 103.09 31.441C103.143 31.2825 103.143 31.124 103.143 30.9126V30.0672Z" fill="white"/>
<path d="M118.836 32.6551C118.731 32.6551 118.678 32.6551 118.625 32.6022C118.572 32.5494 118.572 32.4965 118.572 32.3909V28.6392C118.572 28.5864 118.572 28.4807 118.625 28.4278C118.678 28.375 118.731 28.375 118.836 28.375H120.052C120.475 28.375 120.792 28.4807 121.003 28.692C121.214 28.9034 121.32 29.1676 121.32 29.4846V29.5903C121.32 29.7488 121.267 29.9074 121.214 30.0659C121.161 30.2244 121.003 30.3301 120.844 30.4358C121.109 30.5414 121.267 30.6471 121.373 30.8585C121.478 31.017 121.531 31.2284 121.531 31.3869V31.5454C121.531 31.8625 121.426 32.1795 121.214 32.3909C121.003 32.6022 120.633 32.7079 120.157 32.7079H118.836V32.6551ZM119.101 28.7977V30.2244H119.893C120.21 30.2244 120.422 30.1716 120.58 30.0659C120.739 29.9602 120.792 29.8017 120.792 29.5903V29.4318C120.792 29.2204 120.739 29.0619 120.633 28.9562C120.527 28.8506 120.316 28.7977 119.999 28.7977H119.101ZM119.101 30.7V32.1795H120.157C120.316 32.1795 120.475 32.1795 120.58 32.1267C120.686 32.0738 120.792 32.0738 120.844 31.9681C120.897 31.9153 120.95 31.8624 120.95 31.7568C120.95 31.6511 121.003 31.5982 121.003 31.4926V31.334C121.003 31.1227 120.95 30.9642 120.792 30.8585C120.633 30.7528 120.422 30.7 120.105 30.7H119.101Z" fill="white"/>
<path d="M124.332 32.4439V28.5866C124.332 28.5337 124.332 28.4281 124.385 28.3752C124.438 28.3224 124.491 28.2695 124.596 28.2695C124.649 28.2695 124.755 28.3224 124.808 28.3752C124.86 28.4281 124.913 28.4809 124.913 28.5866V31.3871L127.133 28.9036V28.5866C127.133 28.5337 127.185 28.4281 127.238 28.3752C127.291 28.3224 127.344 28.2695 127.45 28.2695C127.555 28.2695 127.608 28.3224 127.661 28.3752C127.714 28.4281 127.714 28.4809 127.714 28.5866V32.4439C127.714 32.4967 127.714 32.6024 127.661 32.6553C127.608 32.7081 127.555 32.7609 127.45 32.7609C127.397 32.7609 127.291 32.7081 127.238 32.6553C127.185 32.6024 127.133 32.5496 127.133 32.4439V29.6434L124.913 32.1269V32.4439C124.913 32.4967 124.86 32.6024 124.808 32.6553C124.755 32.7081 124.702 32.7609 124.596 32.7609C124.491 32.7609 124.438 32.7081 124.385 32.6553C124.385 32.6024 124.332 32.4967 124.332 32.4439Z" fill="white"/>
<path d="M133.157 32.4439C133.157 32.5496 133.104 32.6024 133.051 32.6553C132.998 32.7081 132.945 32.7609 132.839 32.7609C132.734 32.7609 132.681 32.7081 132.628 32.6553C132.575 32.6024 132.522 32.5496 132.522 32.4439V30.753H131.994C131.73 31.0701 131.518 31.3343 131.254 31.6513C131.043 31.9683 130.779 32.2854 130.567 32.6024C130.515 32.6553 130.515 32.6553 130.462 32.7081C130.409 32.7081 130.356 32.7609 130.356 32.7609C130.25 32.7609 130.197 32.7081 130.145 32.6553C130.092 32.6024 130.092 32.5496 130.092 32.4439C130.092 32.3911 130.092 32.3382 130.145 32.2854C130.356 31.9683 130.567 31.6513 130.832 31.3871C131.043 31.0701 131.307 30.8059 131.571 30.4888L130.197 28.7451C130.197 28.6923 130.197 28.6923 130.145 28.6394C130.145 28.6394 130.145 28.5866 130.145 28.5337C130.145 28.4809 130.145 28.4281 130.197 28.3752C130.25 28.3224 130.303 28.2695 130.409 28.2695C130.515 28.2695 130.567 28.3224 130.62 28.3752L132.047 30.2246H132.575V28.5337C132.575 28.4281 132.628 28.3752 132.681 28.3224C132.734 28.2695 132.787 28.2695 132.892 28.2695C132.945 28.2695 133.051 28.2695 133.104 28.3224C133.157 28.3752 133.209 28.4281 133.209 28.5337V30.2246H133.738L135.164 28.3752C135.217 28.3224 135.27 28.2695 135.376 28.2695C135.482 28.2695 135.534 28.3224 135.587 28.3752C135.64 28.4281 135.64 28.4809 135.64 28.5337C135.64 28.5866 135.64 28.5866 135.64 28.6394C135.64 28.6394 135.64 28.6923 135.587 28.7451L134.16 30.4888C134.425 30.8059 134.636 31.0701 134.9 31.3871C135.112 31.7041 135.376 31.9683 135.587 32.2854C135.64 32.3382 135.64 32.3911 135.64 32.4439C135.64 32.4967 135.64 32.5496 135.587 32.6553C135.534 32.7081 135.482 32.7609 135.376 32.7609C135.323 32.7609 135.27 32.7609 135.27 32.7081C135.217 32.7081 135.217 32.6553 135.164 32.6024C134.953 32.2854 134.689 31.9683 134.478 31.6513C134.266 31.3343 134.002 31.0701 133.738 30.753H133.209V32.4439H133.157Z" fill="white"/>
<path d="M141.241 30.4368C141.241 30.4897 141.241 30.5954 141.188 30.5954C141.135 30.6482 141.082 30.6482 141.03 30.6482H138.493V30.9124C138.493 31.2823 138.599 31.5993 138.757 31.8635C138.916 32.0749 139.233 32.2334 139.603 32.2334C139.867 32.2334 140.078 32.2334 140.237 32.1806C140.395 32.1277 140.554 32.0749 140.713 31.9692C140.765 31.9164 140.818 31.9164 140.924 31.9692C140.977 31.9692 141.03 32.0221 141.082 32.0749C141.135 32.1277 141.135 32.1806 141.082 32.2334C141.082 32.2863 141.03 32.3391 140.977 32.3919C140.607 32.6033 140.131 32.709 139.603 32.709C139.286 32.709 139.074 32.6561 138.863 32.5505C138.652 32.4448 138.493 32.3391 138.335 32.1806C138.229 32.0221 138.123 31.8107 138.071 31.5993C138.018 31.388 137.965 31.1238 137.965 30.9124V30.1198C137.965 29.8556 138.018 29.6442 138.071 29.4329C138.123 29.2215 138.229 29.0102 138.335 28.8516C138.44 28.6931 138.652 28.5346 138.863 28.4818C139.074 28.3761 139.339 28.3232 139.603 28.3232C139.92 28.3232 140.184 28.3761 140.396 28.4818C140.607 28.5874 140.765 28.6931 140.924 28.8516C141.03 29.0102 141.135 29.2215 141.188 29.4329C141.241 29.6442 141.294 29.8556 141.294 30.1198V30.4368H141.241ZM140.66 30.0141C140.66 29.6442 140.554 29.3272 140.396 29.1158C140.237 28.9045 139.973 28.746 139.55 28.746C139.18 28.746 138.863 28.8516 138.705 29.1158C138.546 29.3272 138.44 29.6442 138.44 30.0141V30.1726H140.66V30.0141Z" fill="white"/>
<path d="M147.053 32.4448C147.053 32.5505 147 32.6033 146.948 32.6561C146.895 32.709 146.842 32.7618 146.736 32.7618C146.683 32.7618 146.578 32.709 146.525 32.6561C146.472 32.6033 146.472 32.5505 146.472 32.4448V30.6482H144.517V32.4448C144.517 32.5505 144.464 32.6033 144.411 32.6561C144.358 32.709 144.306 32.7618 144.2 32.7618C144.147 32.7618 144.041 32.709 143.988 32.6561C143.936 32.6033 143.883 32.5505 143.883 32.4448V28.5874C143.883 28.5346 143.936 28.4289 143.988 28.3761C144.041 28.3232 144.094 28.3232 144.2 28.3232C144.306 28.3232 144.358 28.3232 144.411 28.3761C144.464 28.4289 144.517 28.4818 144.517 28.5874V30.1726H146.472V28.5874C146.472 28.5346 146.472 28.4289 146.525 28.3761C146.578 28.3232 146.631 28.3232 146.736 28.3232C146.842 28.3232 146.895 28.3232 146.948 28.3761C147 28.4289 147.053 28.4818 147.053 28.5874V32.4448Z" fill="white"/>
<path d="M150.064 32.4439V28.5866C150.064 28.5337 150.064 28.4281 150.117 28.3752C150.17 28.3224 150.223 28.2695 150.329 28.2695C150.381 28.2695 150.487 28.3224 150.54 28.3752C150.593 28.4281 150.646 28.4809 150.646 28.5866V31.3871L152.865 28.9036V28.5866C152.865 28.5337 152.918 28.4281 152.971 28.3752C153.023 28.3224 153.076 28.2695 153.182 28.2695C153.288 28.2695 153.341 28.3224 153.393 28.3752C153.446 28.4281 153.446 28.4809 153.446 28.5866V32.4439C153.446 32.4967 153.446 32.6024 153.393 32.6553C153.341 32.7081 153.288 32.7609 153.182 32.7609C153.129 32.7609 153.023 32.7081 152.971 32.6553C152.918 32.6024 152.865 32.5496 152.865 32.4439V29.6434L150.646 32.1269V32.4439C150.646 32.4967 150.593 32.6024 150.54 32.6553C150.487 32.7081 150.434 32.7609 150.329 32.7609C150.223 32.7609 150.17 32.7081 150.117 32.6553C150.064 32.6024 150.064 32.4967 150.064 32.4439Z" fill="white"/>
<path d="M159.047 32.4448C159.047 32.5505 158.994 32.6033 158.941 32.6561C158.888 32.709 158.836 32.709 158.73 32.709C158.677 32.709 158.571 32.709 158.519 32.6561C158.466 32.6033 158.466 32.5505 158.466 32.4448V30.8596H157.62C157.462 31.1238 157.25 31.4408 157.092 31.705C156.933 32.0221 156.775 32.2863 156.669 32.5505C156.616 32.6033 156.616 32.6561 156.563 32.6561C156.511 32.6561 156.458 32.709 156.405 32.709C156.352 32.709 156.299 32.709 156.194 32.6561C156.141 32.6033 156.088 32.5505 156.088 32.4976C156.088 32.4448 156.088 32.3919 156.088 32.3919C156.088 32.3391 156.141 32.3391 156.141 32.2863C156.246 32.0749 156.405 31.8107 156.563 31.5993C156.722 31.3351 156.828 31.1238 156.986 30.8596C156.669 30.8067 156.458 30.6482 156.299 30.4368C156.141 30.2255 156.088 30.0141 156.088 29.7499V29.4857C156.088 29.3272 156.088 29.2215 156.141 29.063C156.194 28.9045 156.299 28.7988 156.405 28.6931C156.511 28.5874 156.669 28.4818 156.828 28.4289C156.986 28.3761 157.198 28.3232 157.462 28.3232H158.624C158.73 28.3232 158.783 28.3232 158.836 28.3761C158.888 28.4289 158.941 28.4818 158.941 28.5874V32.4448H159.047ZM158.466 30.384V28.7988H157.62C157.462 28.7988 157.303 28.7988 157.198 28.8516C157.092 28.9045 156.986 28.9573 156.933 29.0102C156.88 29.063 156.828 29.1687 156.775 29.2215C156.775 29.2744 156.722 29.38 156.722 29.4329V29.6971C156.722 29.7499 156.722 29.8556 156.775 29.9084C156.775 29.9613 156.828 30.067 156.933 30.1198C156.986 30.1726 157.092 30.2255 157.198 30.2783C157.303 30.3312 157.462 30.3312 157.62 30.3312H158.466V30.384Z" fill="white"/>
<path d="M114.82 28.3232C114.873 28.3232 114.978 28.3232 115.031 28.3761C115.084 28.4289 115.084 28.4818 115.084 28.5874V32.1277H115.56C115.612 32.1277 115.718 32.1277 115.771 32.1806C115.824 32.2334 115.877 32.2863 115.877 32.3919V33.5016C115.877 33.6073 115.824 33.6601 115.771 33.7129C115.718 33.7658 115.665 33.7658 115.56 33.7658C115.454 33.7658 115.401 33.7658 115.348 33.7129C115.295 33.6601 115.295 33.6073 115.295 33.5016V32.6033H111.755V33.5016C111.755 33.6073 111.755 33.6601 111.702 33.7129C111.649 33.7658 111.597 33.7658 111.491 33.7658C111.438 33.7658 111.332 33.7658 111.28 33.7129C111.227 33.6601 111.174 33.6073 111.174 33.5016V32.3919C111.174 32.3391 111.227 32.2334 111.28 32.1806C111.332 32.1277 111.385 32.1277 111.491 32.1277C111.755 32.1277 111.966 32.0221 112.072 31.8635C112.178 31.705 112.231 31.388 112.231 31.0181V28.5874C112.231 28.5346 112.231 28.4289 112.283 28.3761C112.336 28.3232 112.389 28.3232 112.495 28.3232H114.82ZM114.503 32.1277V28.8516H112.759V31.0181C112.759 31.3351 112.706 31.5993 112.653 31.7579C112.601 31.9164 112.495 32.0749 112.442 32.1277H114.503Z" fill="white"/>
</svg>
