<svg width="40" height="40" viewBox="0 0 40 40" fill="none" xmlns="http://www.w3.org/2000/svg">
<circle cx="20" cy="20" r="20" fill="#102E3F"/>
<path fill-rule="evenodd" clip-rule="evenodd" d="M16 11C13.2386 11 11 13.2386 11 16V24C11 26.7614 13.2386 29 16 29H24C26.7614 29 29 26.7614 29 24V16C29 13.2386 26.7614 11 24 11H16ZM25.9996 15.3042C25.9996 15.9564 25.4778 16.3477 24.9561 16.3477C24.4343 16.3477 23.9126 15.826 23.9126 15.3042C23.9126 14.652 24.4343 14.2607 24.9561 14.2607C25.4778 14.2607 25.9996 14.652 25.9996 15.3042ZM19.9994 23.1301C18.3037 23.1301 16.9994 21.8258 16.9994 20.1301C16.9994 18.4345 18.3037 17.1301 19.9994 17.1301C21.695 17.1301 22.9994 18.4345 22.9994 20.1301C22.9994 21.8258 21.695 23.1301 19.9994 23.1301ZM19.9994 15.4344C17.3907 15.4344 15.3037 17.5214 15.3037 20.1301C15.3037 22.7388 17.3907 24.8258 19.9994 24.8258C22.6081 24.8258 24.695 22.7388 24.695 20.1301C24.695 17.5214 22.6081 15.4344 19.9994 15.4344Z" fill="white"/>
</svg>
