<svg width="80" height="150" viewBox="0 0 80 150" fill="none" xmlns="http://www.w3.org/2000/svg">
<path d="M64.4453 7.84082L64.506 10.9003L64.5861 45.7902L62.7594 48.6516L9.65248 133.261L64.4453 7.84082ZM67.1266 44.492L66.8931 3.06L93.0597 3.55318L67.1266 44.492ZM66.0472 48.2333L92.634 73.4623L6.38236 144.062L5.568 144.549L17.5725 125.429L66.0472 48.2333ZM105.929 84.9703L142.938 82.5173L19.1151 139.101L105.929 84.9703ZM93.3494 73.919L103.523 83.5348L11.9855 140.49L93.3494 73.919ZM121.068 81.4444L105.998 82.4969L95.2719 72.327L133.266 41.202L147.987 79.4977L121.068 81.4444ZM94.0034 3.65218L132.779 40.3876L94.622 71.61L67.2224 45.7614L94.0034 3.65218ZM0.419973 148.512C0.517378 148.675 0.354509 148.773 0.354509 148.773C0.354509 148.773 0.354509 148.773 0.451915 148.936C0.451915 148.936 0.451914 148.936 0.54932 149.098C0.54932 149.098 0.54932 149.098 0.71219 149.001L0.875059 148.904L1.03793 148.806L150.457 81.7795L150.62 81.6821L150.783 81.5847C150.783 81.5847 150.946 81.4873 150.848 81.3244L150.914 81.0641C150.914 81.0641 150.816 80.9013 150.979 80.8038C150.979 80.8038 150.979 80.8038 150.882 80.641L135.351 39.5125C135.254 39.3497 135.156 39.1868 135.059 39.0239L95.2761 1.3432C95.0812 1.01746 94.821 0.951989 94.3978 0.983931L65.5949 0.519524L65.432 0.61693L65.2691 0.714337L65.1063 0.811741L64.9434 0.909147L64.7805 1.00655C64.7805 1.00655 64.6176 1.10396 64.7151 1.26684L0.811188 148.057C0.388043 148.089 0.485436 148.252 0.419973 148.512C0.485436 148.252 0.485436 148.252 0.419973 148.512C0.485436 148.252 0.485436 148.252 0.419973 148.512C0.485436 148.252 0.485436 148.252 0.419973 148.512C0.485436 148.252 0.322567 148.349 0.419973 148.512Z" fill="#2F586F"/>
</svg>
