<svg width="40" height="40" viewBox="0 0 40 40" fill="none" xmlns="http://www.w3.org/2000/svg">
<circle cx="20" cy="20" r="20" fill="#102E3F"/>
<g clip-path="url(#clip0)">
<path d="M20.0142 19.7623C22.4675 19.7623 24.4675 17.7948 24.4675 15.3812C24.4675 12.9676 22.4675 11 20.0142 11C17.5608 11 15.5342 12.9676 15.5342 15.3812C15.5342 17.7948 17.5342 19.7623 20.0142 19.7623ZM20.0142 13.571C21.0275 13.571 21.8542 14.3843 21.8542 15.3812C21.8542 16.3781 21.0275 17.1914 20.0142 17.1914C19.0008 17.1914 18.1742 16.3781 18.1742 15.3812C18.1475 14.3843 18.9742 13.571 20.0142 13.571Z" fill="white"/>
<path d="M21.8011 23.3567C22.7078 23.1468 23.5878 22.8058 24.3878 22.3073C25.0011 21.94 25.1878 21.1267 24.7878 20.5233C24.4145 19.9199 23.5878 19.7363 22.9745 20.1298C21.1611 21.2579 18.7878 21.2579 16.9745 20.1298C16.3611 19.7625 15.5611 19.9199 15.1611 20.5233C14.8145 21.1267 15.0011 21.9138 15.6145 22.2811C16.4145 22.7795 17.2945 23.1206 18.2011 23.3304L15.7211 25.7703C15.2145 26.2687 15.2145 27.082 15.7211 27.5804C15.9878 27.8428 16.3078 27.9477 16.6545 27.9477C17.0011 27.9477 17.3211 27.8166 17.5878 27.5804L20.0411 25.1669L22.4945 27.5804C23.0011 28.0789 23.8278 28.0789 24.3345 27.5804C24.8411 27.082 24.8411 26.2687 24.3345 25.7703L21.8011 23.3567Z" fill="white"/>
</g>
<defs>
<clipPath id="clip0">
<rect width="10" height="17" fill="white" transform="translate(15 11)"/>
</clipPath>
</defs>
</svg>
