<svg width="24" height="24" viewBox="0 0 24 24" fill="none" xmlns="http://www.w3.org/2000/svg">
<path fill-rule="evenodd" clip-rule="evenodd" d="M20.7072 4.7071C21.0977 4.31657 21.0977 3.68341 20.7072 3.29289C20.3166 2.90237 19.6835 2.90237 19.293 3.2929L12 10.586L4.70711 3.29306C4.31658 2.90254 3.68342 2.90254 3.29289 3.29306C2.90237 3.68359 2.90237 4.31675 3.29289 4.70728L10.5858 12.0002L3.29296 19.2931C2.90244 19.6837 2.90244 20.3168 3.29297 20.7074C3.6835 21.0979 4.31666 21.0979 4.70718 20.7073L12 13.4144L19.2929 20.7073C19.6834 21.0978 20.3166 21.0978 20.7071 20.7073C21.0976 20.3167 21.0976 19.6836 20.7071 19.2931L13.4142 12.0002L20.7072 4.7071Z" fill="white"/>
</svg>
