<svg width="40" height="40" viewBox="0 0 40 40" fill="none" xmlns="http://www.w3.org/2000/svg">
<circle cx="20" cy="20" r="20" fill="#102E3F"/>
<path d="M26.1133 16.0566C26.7741 15.982 27.4137 15.8008 28 15.5451C27.563 16.2057 27.0087 16.7811 26.3584 17.2393C26.3691 17.3779 26.3691 17.5164 26.3691 17.6656C26.3691 22.0025 23.0646 27 17.0313 27C15.1765 27 13.4497 26.4566 12 25.5295C12.2558 25.5615 12.5223 25.5721 12.7888 25.5721C14.3238 25.5721 15.7415 25.05 16.8608 24.1656C15.4324 24.1336 14.2172 23.1852 13.8015 21.8852C14.004 21.9279 14.2065 21.9385 14.4197 21.9385C14.7182 21.9385 15.006 21.8959 15.2831 21.8213C13.7801 21.523 12.6502 20.2016 12.6502 18.6139C12.6502 18.6033 12.6502 18.582 12.6502 18.5713C13.0979 18.8164 13.5989 18.9656 14.1426 18.9762C13.2578 18.3902 12.6822 17.3885 12.6822 16.2484C12.6822 15.6516 12.8421 15.0869 13.1299 14.5967C14.7502 16.5787 17.1699 17.8893 19.8881 18.0279C19.8348 17.7828 19.8028 17.5377 19.8028 17.282C19.8028 15.4705 21.2738 14 23.0859 14C24.024 14 24.8767 14.3943 25.4843 15.0336C26.2305 14.8844 26.934 14.618 27.563 14.2344C27.3178 15.0016 26.7955 15.6516 26.1133 16.0566Z" fill="white"/>
</svg>
