<svg width="40" height="40" viewBox="0 0 40 40" fill="none" xmlns="http://www.w3.org/2000/svg">
<circle cx="20" cy="20" r="20" fill="#102E3F"/>
<path d="M29.091 25.9569L26.4201 25.9899C26.4201 25.9899 25.8494 26.0999 25.0847 25.5939C24.0803 24.934 23.1443 23.2182 22.4024 23.4382C21.6605 23.6692 21.6834 25.209 21.6834 25.209C21.6834 25.209 21.6834 25.539 21.5236 25.7149C21.3409 25.9129 20.9757 25.9569 20.9757 25.9569H19.7887C19.7887 25.9569 17.152 26.1109 14.8236 23.7792C12.2897 21.2385 10.0526 16.1901 10.0526 16.1901C10.0526 16.1901 9.92701 15.8601 10.064 15.6951C10.2238 15.5192 10.6461 15.5082 10.6461 15.5082L13.4996 15.4862C13.4996 15.4862 13.7735 15.5301 13.9561 15.6621C14.1273 15.7831 14.2187 15.9921 14.2187 15.9921C14.2187 15.9921 14.6752 17.114 15.2916 18.1368C16.49 20.1276 17.0379 20.5565 17.4488 20.3476C18.0423 20.0396 17.8597 17.5319 17.8597 17.5319C17.8597 17.5319 17.8711 16.63 17.5629 16.2231C17.3232 15.9041 16.8781 15.8161 16.6726 15.7941C16.5129 15.7721 16.7754 15.4092 17.1178 15.2552C17.6314 15.0132 18.5445 14.9912 19.6174 15.0022C20.4507 15.0132 20.6904 15.0572 21.0214 15.1342C22.003 15.3652 21.6719 16.2451 21.6719 18.3678C21.6719 19.0497 21.5464 20.0066 22.06 20.3256C22.2769 20.4576 22.8133 20.3476 24.1488 18.1588C24.788 17.125 25.2559 15.8931 25.2559 15.8931C25.2559 15.8931 25.3587 15.6731 25.5184 15.5851C25.6782 15.4862 25.9065 15.5192 25.9065 15.5192L28.9198 15.4972C28.9198 15.4972 29.8215 15.3872 29.9699 15.7831C30.1183 16.2011 29.6275 17.158 28.4062 18.7418C26.3859 21.3375 26.169 21.0955 27.8355 22.5913C29.4334 24.0211 29.7644 24.7251 29.8215 24.802C30.4835 25.8689 29.091 25.9569 29.091 25.9569Z" fill="white"/>
</svg>
