<svg width="148" height="274" fill="none" xmlns="http://www.w3.org/2000/svg"><path fill-rule="evenodd" clip-rule="evenodd" d="M31.437 273.225c-.546.567-1.399.775-2.25.775-1.162 0-1.936-.77-2.323-1.925L.16 182.376c-.387-.77 0-1.54.387-1.925l34.831-64.676c.269-.534.91-1.068 1.664-1.217l64.648-35.605L242.81.29c.774-.385 1.548-.385 2.322 0s1.161.77 1.548 1.54l26.317 90.854a.556.556 0 00-.162.275c.058.152.1.303.127.455.021.026.035.04.035.04 0 .055-.002.112-.006.17.006.069.009.137.009.205 0 .385 0 .77-.387 1.155l-34.831 64.676-1.161 1.155-205.184 112.41zm30.174-66.884l-31.334 58.182-24.312-82.532.68-1.268 40.867-22.466 14.099 48.084zm-25.462 58.416l29.205-54.377c.455.04.91-.053 1.366-.28l157.034-87.535 9.906 33.763-.135.251L36.149 264.757zm198.696-110.635l-9.609-32.383 29.718-16.566 8.758-4.8-28.867 53.749zm-12.771-37.285l-13.779-46.966-155.58 85.526 13.611 47.179 155.748-85.739zm44.711-24.625L242.09 9.07l-32.17 59.735-.301.3 13.923 46.923 43.243-23.816zM135.633 65.92L239.506 8.78l-31.911 59.254a.34.34 0 01.242.082l-155.59 85.656-10.296-35.682 93.682-52.171zm-98.32 57.555L8.047 178.106l38.99-21.465-9.724-33.166z" fill="#2F586F"/></svg>