<svg width="56" height="56" viewBox="0 0 56 56" fill="none" xmlns="http://www.w3.org/2000/svg">
<circle cx="28" cy="28" r="28" fill="#00B8EC"/>
<path fill-rule="evenodd" clip-rule="evenodd" d="M18.8284 28L27.8284 19H37V28.1716L28 37.1716L18.8284 28ZM29.4142 38.5858L39 29V18C39 17.4477 38.5523 17 38 17H27L17.4142 26.5858C16.6332 27.3668 16.6332 28.6332 17.4142 29.4142L26.5858 38.5858C27.3668 39.3668 28.6332 39.3668 29.4142 38.5858ZM31.75 26.5C32.9926 26.5 34 25.4926 34 24.25C34 23.0074 32.9926 22 31.75 22C30.5074 22 29.5 23.0074 29.5 24.25C29.5 25.4926 30.5074 26.5 31.75 26.5Z" fill="white"/>
</svg>
