<svg width="16" height="16" viewBox="0 0 16 16" fill="none" xmlns="http://www.w3.org/2000/svg">
<circle cx="8.00098" cy="8" r="8" fill="white"/>
<path fill-rule="evenodd" clip-rule="evenodd" d="M8.00098 6C8.55326 6 9.00098 5.55228 9.00098 5C9.00098 4.44772 8.55326 4 8.00098 4C7.44869 4 7.00098 4.44772 7.00098 5C7.00098 5.55228 7.44869 6 8.00098 6ZM9.00098 8C9.00098 7.44772 8.55326 7 8.00098 7C7.44869 7 7.00098 7.44772 7.00098 8V11C7.00098 11.5523 7.44869 12 8.00098 12C8.55326 12 9.00098 11.5523 9.00098 11L9.00098 8Z" fill="#0A202C"/>
</svg>
