<svg width="70" height="72" viewBox="0 0 70 72" fill="none" xmlns="http://www.w3.org/2000/svg">
<path fill-rule="evenodd" clip-rule="evenodd" d="M1.26989 41.8631C1.11377 41.8227 0.976169 41.7346 0.861384 41.5954C0.697153 41.3961 0.611252 41.2043 0.574654 40.9934C0.557082 40.9107 0.549877 40.8231 0.553041 40.7306L0.558598 40.5533L10.92 15.4331C10.9808 15.2966 11.0611 15.1837 11.1391 15.0943C11.2299 14.9942 11.3203 14.9197 11.3805 14.8701L43.0515 1.47656L43.11 1.36355C43.2625 1.11913 43.5544 0.903695 43.8214 0.841973C43.9306 0.816725 44.0392 0.817108 44.1456 0.840979C44.3391 0.882961 44.5199 1.01462 44.6965 1.22886L69.4688 31.2827C69.6507 31.5034 69.8133 31.9198 69.574 32.3042L59.2126 57.4243C59.0833 57.7144 58.9715 57.8066 58.8639 57.8952C58.8338 57.92 58.802 57.9427 58.7718 57.9675L58.6428 58.0739L26.7481 71.6518C26.5899 71.7139 26.4346 71.7446 26.2886 71.7427C26.0435 71.7433 25.825 71.6535 25.6555 71.4478L1.26989 41.8631ZM42.0854 3.96753L32.8019 26.5045L32.6901 26.5967L24.3339 30.1383L13.009 16.3989L42.0854 3.96753ZM23.6509 30.4314L12.5521 16.9663L3.47349 39.007L23.6509 30.4314ZM58.0056 55.2853L67.0388 33.2245L46.8874 41.7966L58.0056 55.2853ZM46.4212 41.231L67.4569 32.207L44.1291 3.90566L34.6796 26.9861L46.4212 41.231ZM25.6159 31.6937L33.4116 28.3659L44.6481 41.9981L36.879 45.358L25.6159 31.6937ZM45.1073 42.5551L37.1705 45.9309L37.0587 46.023L27.5316 69.2897L56.7535 56.6844L45.1073 42.5551ZM26.5895 69.4438L36.2754 45.7475L24.9329 31.9868L3.32177 41.2153L26.5895 69.4438Z" fill="#2F586F"/>
</svg>
