<svg width="112" height="118" viewBox="0 0 112 118" fill="none" xmlns="http://www.w3.org/2000/svg">
<path d="M109.138 6.98022L108.147 9.87523L96.2657 42.68L93.569 44.7422L14.6828 106.029L109.138 6.98022ZM99.0972 42.3309L113.076 3.32775L137.489 12.7581L99.0972 42.3309ZM96.8011 45.4758L113.132 78.2883L7.90936 115.055L6.97742 115.234L24.8073 101.385L96.8011 45.4758ZM121.679 93.6555L157.287 104.034L21.5713 114.758L121.679 93.6555ZM113.648 78.9624L119.91 91.4823L14.3973 113.62L113.648 78.9624ZM137.109 95.5312L122.591 91.3553L115.999 78.1256L162.359 61.9054L163.065 102.927L137.109 95.5312ZM138.342 13.1745L162.18 60.9735L115.635 77.2294L98.7522 43.5564L138.342 13.1745ZM0.78293 117.193C0.818622 117.379 0.632236 117.415 0.632236 117.415C0.632236 117.415 0.632236 117.415 0.667929 117.601C0.667929 117.601 0.667928 117.601 0.703621 117.788C0.703621 117.788 0.703621 117.788 0.890008 117.752L1.0764 117.716L1.26278 117.681L164.604 105.917L164.79 105.882L164.977 105.846C164.977 105.846 165.163 105.81 165.127 105.624L165.278 105.402C165.278 105.402 165.242 105.215 165.429 105.18C165.429 105.18 165.429 105.18 165.393 104.993L164.897 61.033C164.861 60.8466 164.826 60.6602 164.79 60.4738L140.329 11.4415C140.257 11.0687 140.035 10.918 139.627 10.803L112.727 0.496213L112.541 0.531906L112.354 0.567599L112.168 0.603291L111.982 0.638984L111.795 0.674677C111.795 0.674677 111.609 0.710371 111.645 0.896765L1.30641 116.899C0.897945 116.784 0.933623 116.971 0.78293 117.193C0.933623 116.971 0.933623 116.971 0.78293 117.193C0.933623 116.971 0.933623 116.971 0.78293 117.193C0.933623 116.971 0.933623 116.971 0.78293 117.193C0.933623 116.971 0.747237 117.007 0.78293 117.193Z" fill="#2F586F"/>
</svg>
