<svg width="78" height="88" viewBox="0 0 78 88" fill="none" xmlns="http://www.w3.org/2000/svg">
<path d="M12.5661 60.753L24.2231 50.1727L35.7768 57.4173L50.2602 83.0991L46.0317 80.6599L12.5661 60.753ZM37.9853 56.06C37.8555 55.9405 37.8555 55.9405 37.9853 56.06L55.5223 31.2771L73.6536 5.58828L53.0244 83.2219L37.9853 56.06ZM22.2944 48.8818L11.1201 58.9377L7.20286 47.8249L3.42453 37.0823L22.2944 48.8818ZM24.1135 47.166L3.70437 34.4339L69.6462 5.77418L24.1135 47.166ZM37.2065 55.3431L26.1628 48.3258L71.2129 7.45841L64.5286 16.804L37.2065 55.3431ZM54.0516 87.3155C54.0516 87.3155 54.1723 87.1844 54.0516 87.3155C54.1723 87.1844 54.1723 87.1844 54.1723 87.1844L54.2929 87.0533L54.4136 86.9222L77.0414 2.16828C77.0414 2.16828 77.0414 2.16828 77.0322 1.91772L77.0231 1.66715C77.0231 1.66715 76.8933 1.54768 77.014 1.41659C77.014 1.41659 77.014 1.41659 76.8842 1.29712C76.8842 1.29712 76.8842 1.29712 76.7544 1.17765C76.7544 1.17765 76.7544 1.17765 76.6246 1.05817C76.6246 1.05817 76.6246 1.05817 76.4948 0.9387C76.4948 0.9387 76.4948 0.938703 76.365 0.81923C76.365 0.81923 76.365 0.81923 76.2352 0.699759C76.2352 0.699759 76.2352 0.699757 76.1054 0.580286C76.1054 0.580286 76.1054 0.580286 75.9756 0.460813C75.9756 0.460813 75.855 0.591904 75.7252 0.472431L0.773867 33.1895C0.773867 33.1895 0.773867 33.1895 0.653203 33.3205L0.532534 33.4516L0.411869 33.5827C0.411869 33.5827 0.411869 33.5827 0.291205 33.7138C0.291205 33.7138 0.2912 33.7138 0.170536 33.8449C0.170536 33.8449 0.170536 33.8449 0.179666 34.0955C0.179666 34.0955 0.309461 34.2149 0.188792 34.346L9.69037 61.0119L9.82016 61.1313L9.94996 61.2508L10.0798 61.3703L52.9017 86.7414L53.0315 86.8609C53.0315 86.8609 53.1613 86.9803 53.282 86.8492L53.5324 86.8376C53.5324 86.8376 53.6531 86.7065 53.7829 86.826C53.9309 87.4466 53.9309 87.4466 54.0516 87.3155Z" fill="#2F586F"/>
</svg>
