<svg width="16" height="16" viewBox="0 0 16 16" fill="none" xmlns="http://www.w3.org/2000/svg">
<path fill-rule="evenodd" clip-rule="evenodd" d="M16.0005 15C16.0005 15.5523 15.5528 16 15.0005 16L1.00049 16C0.448203 16 0.000488287 15.5523 0.000488293 15C0.0004883 14.4477 0.448203 14 1.00049 14L6.51355 14L1.82738 9.74006C1.41871 9.36856 1.38858 8.73611 1.76008 8.32744C2.13157 7.91878 2.76402 7.88865 3.17269 8.26014L7.00004 11.7394L7.00004 -2.01468e-06L9.00004 -1.99083e-06L9.00004 11.7397L12.8273 8.26018C13.236 7.88866 13.8684 7.91876 14.24 8.32741C14.6115 8.73606 14.5814 9.36851 14.1727 9.74002L9.48698 14L15.0005 14C15.5528 14 16.0005 14.4477 16.0005 15Z" fill="white"/>
</svg>
