<svg width="25" height="24" viewBox="0 0 25 24" fill="none" xmlns="http://www.w3.org/2000/svg">
<path d="M18.871 21.4315C13.7908 24.5973 7.07767 23.4624 3.38845 19.0421C3.69085 19.1018 4.05372 19.1018 4.4166 19.1018C5.08186 19.1018 5.86809 18.9824 6.71479 18.8032C9.13395 18.2656 11.9765 17.0112 14.698 15.2789C17.4196 13.5466 19.7782 11.5754 21.2902 9.66392C22.1369 8.58871 22.6207 7.63298 22.8627 6.7967C25.5842 11.9338 23.9513 18.2656 18.871 21.4315ZM6.11 2.61535C10.8878 -0.371334 17.0567 0.405203 20.8669 4.16842C18.5082 3.69055 14.1537 5.06443 9.67826 7.87191C5.20282 10.6794 2.17888 13.905 1.63457 16.2346C-0.361235 11.3365 1.39265 5.5423 6.11 2.61535ZM20.6249 9.24578C19.1734 11.0975 16.9357 13.009 14.2747 14.6815C8.58964 18.2058 3.69085 19.1018 2.42079 17.728C2.17888 17.3696 1.99744 17.0112 1.816 16.6528C1.99744 14.5023 5.14234 10.9781 9.79922 8.11085C14.4561 5.24363 19.0525 3.86976 21.1692 4.58656C21.4716 4.88523 21.7136 5.1839 21.9555 5.5423C22.3788 6.31884 21.895 7.63298 20.6249 9.24578ZM22.9836 5.48256C22.9231 5.3631 22.8022 5.24363 22.6812 5.06443C22.6812 5.00469 22.6207 4.94496 22.6207 4.94496C18.7501 -0.192134 11.3112 -1.56601 5.68665 1.95828C0.0621166 5.42283 -1.63129 12.5311 1.69505 18.0266C1.75553 18.0864 1.75553 18.1461 1.816 18.1461C1.87648 18.2656 1.99744 18.385 2.05792 18.5045C4.47708 22.0288 8.46868 24 12.5812 24C14.9399 24 17.2986 23.4027 19.3549 22.0885C25.1004 18.5045 26.7333 11.0378 22.9836 5.48256Z" fill="#2F586F"/>
</svg>
