<svg width="102" height="126" viewBox="0 0 102 126" fill="none" xmlns="http://www.w3.org/2000/svg">
<path d="M6.44913 77.0063C10.5453 65.7445 18.1182 52.4773 27.9256 39.9014C49.3991 12.0384 71.2942 -0.700388 78.6172 4.64607L82.2651 11.3203C82.4666 15.2851 81.4594 20.5192 79.1733 26.59C75.0191 38.0393 67.4462 51.3064 57.3947 64.0122C47.5293 76.7755 36.5101 87.3333 26.7088 93.9546C21.2907 97.6187 16.5808 99.6533 12.8934 100.361L5.81771 98.172C2.4874 95.0878 2.58492 87.5183 6.44913 77.0063ZM118.777 76.635C120.221 77.9033 120.41 81.2482 119.018 85.747C118.902 86.122 118.844 86.3094 118.728 86.6843C116.803 92.2503 113.167 98.7252 108.17 104.984C97.7007 118.382 86.7821 124.658 83.522 122.006C80.2619 119.355 83.6591 107.055 94.1288 93.6569C104.598 80.2589 115.517 73.9833 118.777 76.635ZM14.7554 100.937C18.3146 99.9843 22.6521 97.8345 27.4658 94.805C37.5113 88.0539 48.3443 77.4385 58.4539 64.5453C68.3192 51.7819 76.1363 38.3849 80.2905 26.9356C82.1585 21.557 83.2359 16.7555 83.4068 12.9059L116.924 73.3916C110.258 73.1777 100.005 81.9186 92.1843 92.0283C87.1295 98.4749 82.7738 105.959 80.8021 112.333C79.7582 115.707 79.4469 118.692 79.9842 120.912L14.7554 100.937ZM82.3377 124.515C88.4611 128.464 101.098 118.612 110.243 106.858C115.17 100.166 119.049 93.5615 121.091 87.6206C123.133 81.6797 123.106 77.1525 120.718 74.9763L80.7448 3.04493C80.6166 2.79988 80.6166 2.79987 80.4304 2.74227C75.8546 -0.932686 67.5611 0.814814 57.0272 7.82565C46.9816 14.5768 35.9044 25.3221 25.7949 38.2152C15.6854 51.1084 8.05447 64.5631 3.8423 76.1998C3.49434 77.3245 3.20437 78.2618 2.91441 79.1991C-0.333205 89.6965 0.18588 97.2513 4.4472 100.624C4.6334 100.681 4.81961 100.739 4.81961 100.739L82.3377 124.515Z" fill="#2F586F"/>
</svg>
