<svg width="112" height="139" viewBox="0 0 112 139" fill="none" xmlns="http://www.w3.org/2000/svg">
<path d="M108.43 55.2818L91.3707 112.95V76.1617L108.43 55.2818ZM91.3707 74.9685V53.4921L109.223 52.8956V53.0944L91.3707 74.9685ZM57.8482 113.149L65.3858 107.78L84.0315 118.319L85.2216 118.916L57.8482 113.149ZM55.2695 115.137L84.8249 121.501L24.9207 136.216L55.2695 115.137ZM-7.41176 95.8484L16.1929 131.841L-26.8509 88.4907L-7.41176 95.8484ZM-14.156 85.309L-9.39535 92.4678L-27.446 85.9056L-14.156 85.309ZM-13.5609 64.0315L-14.3543 84.5136L-29.4295 85.1102H-29.6279L-13.5609 64.0315ZM-13.3625 59.6567L-28.6361 79.3434L-11.7757 24.8569L-13.3625 59.6567ZM18.3748 25.2546L10.2421 30.0272L-6.41997 19.8856L18.3748 25.2546ZM19.3666 24.6581L-7.41176 18.8913L54.0793 4.17597L19.3666 24.6581ZM57.8482 7.35765L45.5499 30.226L22.7387 25.2546L59.8317 3.38054L57.8482 7.35765ZM83.238 42.3562L46.5417 30.4249L61.2202 2.78398L83.238 42.3562ZM86.6101 43.3505L67.3694 8.55079L107.834 50.3104L86.6101 43.3505ZM90.7757 51.1059L87.2052 44.5436L106.248 50.7082L90.7757 51.1059ZM65.5841 106.587L59.6334 83.1216L88.7921 55.2818V77.9514L65.5841 106.587ZM29.4829 109.371L20.5568 136.017L19.1683 134.625L-6.02325 96.2461L29.4829 109.371ZM-12.9658 85.5079L26.5075 96.8426L29.0862 106.785L-8.2052 93.0644L-12.9658 85.5079ZM15.9945 57.2704L-13.5609 83.917L-12.5691 62.8383L9.84542 34.0043L15.9945 57.2704ZM37.814 37.3848L13.4159 31.0215L21.9453 26.0501L45.1532 31.0215L37.814 37.3848ZM48.7237 40.1688L46.3434 31.2203L83.6348 43.3505L87.6019 50.3104L48.7237 40.1688ZM49.3187 42.9528L87.6019 53.0944L59.0383 80.3376L49.3187 42.9528ZM38.8057 37.5837L45.5499 31.4192L47.7319 39.97L38.8057 37.5837ZM17.9781 55.2818L12.0274 33.01L35.632 39.1745L17.9781 55.2818ZM38.8057 99.4278L28.8878 96.6438L17.9781 56.2761L36.4254 39.5722L48.1286 42.7539L58.0465 81.1331L38.8057 99.4278ZM41.5828 100.223L58.8399 83.7182L64.7907 106.785L41.5828 100.223ZM40.9877 100.82L64.5923 107.581L56.8564 112.95L33.6484 107.979L40.9877 100.82ZM38.2107 100.024L31.6648 106.189L29.2845 97.4392L38.2107 100.024ZM-13.1642 84.5136L16.1929 58.0658L26.3092 95.8484L-13.1642 84.5136ZM25.9125 127.466L31.6648 109.967L53.881 114.74L22.9371 136.614L25.9125 127.466ZM-6.41997 22.6695L8.45691 31.618L-12.3707 58.4635L-10.7839 21.6752L-10.3871 20.2833L-6.41997 22.6695ZM87.9986 119.711L66.1792 107.382L88.9904 79.3434V120.109L87.9986 119.711ZM112 51.7024V51.5036V51.3047C112 51.3047 112 51.1059 111.802 51.1059L62.6088 0.198856C62.6088 0.198856 62.6088 0.198856 62.4104 0C62.4104 0 62.4104 0 62.212 0C62.212 0 62.212 0 62.0137 0C62.0137 0 62.0137 0 61.8153 0C61.8153 0 61.8153 0 61.617 0C61.617 0 61.617 0 61.4186 0C61.4186 0 61.4186 0 61.2202 0L-11.3789 17.3004C-11.3789 17.3004 -11.3789 17.3004 -11.5773 17.3004C-11.5773 17.3004 -11.7757 17.3004 -11.7757 17.4993C-11.7757 17.4993 -11.974 17.4993 -11.974 17.6981L-12.1724 17.897V18.0958L-33 85.1102C-33 85.1102 -33 85.1102 -33 85.309C-33 85.309 -33 85.309 -33 85.5079C-33 85.5079 -33 85.5079 -33 85.7067C-33 85.7067 -33 85.7067 -33 85.9056C-33 85.9056 -33 85.9056 -33 86.1044L19.7633 139C19.7633 139 19.7633 139 19.9617 139C19.9617 139 19.9617 139 20.1601 139H20.3584H20.5568H20.7551L89.9822 122.097C89.9822 122.097 89.9822 122.097 90.1806 122.097L110.81 52.299C112 51.9013 112 51.9013 112 51.7024Z" fill="#2F586F"/>
</svg>
