<svg width="104" height="144" viewBox="0 0 104 144" fill="none" xmlns="http://www.w3.org/2000/svg">
<path d="M126.138 13.9792L125.147 16.8743L113.266 49.679L110.569 51.7412L31.6828 113.028L126.138 13.9792ZM116.097 49.33L130.076 10.3268L154.489 19.7572L116.097 49.33ZM113.801 52.4748L130.132 85.2873L24.9094 122.054L23.9774 122.233L41.8073 108.384L113.801 52.4748ZM138.679 100.654L174.287 111.033L38.5713 121.757L138.679 100.654ZM130.648 85.9615L136.91 98.4813L31.3973 120.619L130.648 85.9615ZM154.109 102.53L139.591 98.3544L132.999 85.1247L179.359 68.9045L180.065 109.926L154.109 102.53ZM155.342 20.1736L179.18 67.9725L132.635 84.2284L115.752 50.5554L155.342 20.1736ZM17.7829 124.192C17.8186 124.378 17.6322 124.414 17.6322 124.414C17.6322 124.414 17.6322 124.414 17.6679 124.6C17.6679 124.6 17.6679 124.6 17.7036 124.787C17.7036 124.787 17.7036 124.787 17.89 124.751L18.0764 124.715L18.2628 124.68L181.604 112.916L181.79 112.881L181.977 112.845C181.977 112.845 182.163 112.809 182.127 112.623L182.278 112.401C182.278 112.401 182.242 112.214 182.429 112.179C182.429 112.179 182.429 112.179 182.393 111.992L181.897 68.032C181.861 67.8456 181.826 67.6592 181.79 67.4728L157.329 18.4405C157.257 18.0677 157.035 17.917 156.627 17.802L129.727 7.49524L129.541 7.53093L129.354 7.56662L129.168 7.60231L128.982 7.63801L128.795 7.6737C128.795 7.6737 128.609 7.70939 128.645 7.89579L18.3064 123.899C17.8979 123.784 17.9336 123.97 17.7829 124.192C17.9336 123.97 17.9336 123.97 17.7829 124.192C17.9336 123.97 17.9336 123.97 17.7829 124.192C17.9336 123.97 17.9336 123.97 17.7829 124.192C17.9336 123.97 17.7472 124.006 17.7829 124.192Z" fill="#2F586F"/>
</svg>
