<svg width="149" height="25" fill="none" xmlns="http://www.w3.org/2000/svg"><path d="M5.98 18.626H1.238c-.825 0-1.237-.52-1.237-.52.825 1.457 3.197 6.035 3.197 6.035.412.52.825.833 1.443.833 1.34 0 3.403-1.353 3.403-1.353l7.94-4.995H5.981zm.105-16.754L.414 15.4c-.31.937-.104 2.081 1.546 2.081h4.434l3.919-9.47c-1.238-3.12-2.269-5.618-2.269-5.618-.103-.312-.412-1.145-1.03-1.145-.62 0-.826.52-.929.624z" fill="#fff"/><path d="M15.47.936c-.104-.104-.31-.624-1.032-.624H7.323s1.03.104 1.443 1.145c0 0 1.135 2.705 2.166 5.307 2.99 7.076 7.63 18.314 7.63 18.314h6.91c.103-.104-9.9-24.038-10.003-24.142zm29.59 17.586h-2.577l-1.444-3.434h-6.703l-1.443 3.434h-2.578l6.187-14.36h2.268l6.29 14.36zM37.636 7.18l-2.475 5.723h4.847L37.636 7.18zm30.421 11.342h-2.475V6.555h-4.537V4.266h11.653l-.929 2.29h-3.712v11.966zm47.64-11.967h-7.631v3.643h4.847v2.289h-4.847v3.746h7.631v2.29h-10.106V4.265h10.106v2.29zm17.737 11.967h-2.372V4.266h2.372v14.256zM123.326 6.347c-1.443 0-2.681.416-2.681 1.457 0 1.144.722 1.56 3.403 2.393 2.991.937 4.537 1.977 4.537 4.37 0 2.706-2.062 4.267-5.156 4.267-2.165 0-4.124-.729-5.568-1.977l.928-2.29c1.341 1.145 2.991 1.977 4.744 1.977 1.546 0 2.578-.728 2.578-1.873 0-.936-.516-1.56-3.094-2.393-2.99-.936-4.743-1.977-4.743-4.474 0-2.394 2.268-3.85 5.052-3.747 2.784 0 4.434 1.041 4.641 1.25l-.928 2.08c-.516-.416-1.753-1.04-3.713-1.04z" fill="#fff"/><path d="M136.527 11.133l6.29-6.867h-2.99l-6.394 6.867 7.012 7.389h3.094l-7.012-7.388zM80.429 4.058c-4.125 0-7.425 3.226-7.425 7.388 0 4.059 3.3 7.388 7.322 7.388 4.021 0 7.32-3.33 7.32-7.388.104-4.162-3.196-7.388-7.217-7.388zm0 12.487c-2.785 0-4.847-2.29-4.847-5.099 0-2.81 2.062-5.099 4.847-5.099 2.784 0 4.846 2.29 4.846 5.1-.103 2.809-2.165 5.098-4.846 5.098zM95.692 4.266h-5.363v14.256h5.363c4.021 0 7.321-3.122 7.321-7.18 0-4.059-3.3-7.076-7.322-7.076zm0 11.966h-2.888V6.555h2.888c2.784 0 4.846 1.977 4.846 4.787 0 2.81-2.062 4.89-4.846 4.89zM58.26 12.278c0 4.266-2.474 6.556-6.083 6.556-3.61 0-6.084-2.29-6.084-6.556V4.266h2.474v8.22c0 2.498 1.444 3.954 3.61 3.954 2.062 0 3.609-1.456 3.609-3.954v-8.22h2.475v8.012zm90.024 4.475c0-1.04-.825-1.77-1.753-1.77-1.032 0-1.753.833-1.753 1.77 0 1.04.825 1.769 1.753 1.769.928 0 1.753-.728 1.753-1.77zm-.207 0c0 .936-.618 1.56-1.546 1.56a1.526 1.526 0 01-1.547-1.56c0-.937.619-1.561 1.547-1.561.825 0 1.546.624 1.546 1.56z" fill="#fff"/><path d="M147.252 17.69l-.412-.625c-.103-.104-.103-.208-.206-.208.309 0 .515-.208.515-.52 0-.313-.206-.52-.618-.52h-.619v1.872h.309v-.832c.103 0 .206 0 .31.208l.412.624h.309zm-.412-1.353c0 .312-.206.312-.413.312h-.206v-.625h.31c.206 0 .309.105.309.313z" fill="#fff"/></svg>