<svg width="88" height="23" fill="none" xmlns="http://www.w3.org/2000/svg"><path fill-rule="evenodd" clip-rule="evenodd" d="M86.883 21.155l-7.517-10.359 6.905-8.879s.437-.522.437-.61c.525-.609.437-.957 0-.957h-5.42c-.611 0-.698.261-1.223.958-.087.087-.612.783-.612.783l-5.769 7.486h-.087V.785c0-.26-.175-.435-.437-.435h-4.633c-.262 0-.437.174-.437.435v21.066c0 .261.175.435.437.435h4.633c.262 0 .437-.174.437-.435v-9.14h.087l5.594 7.921s.438.61.7.958l.175.174c.437.435.699.522 1.223.522h5.594c.525 0 .612-.26.175-.783l-.262-.348zM31.292.436H22.29c-.262 0-.437.174-.437.435v20.892c0 .261.175.435.437.435h4.545c.175 0 .437-.174.437-.435v-5.136h3.672c6.73 0 10.576-3.395 10.576-8.182 0-4.701-3.671-8.009-10.227-8.009zm-.874 11.839h-3.147v-7.4h3.497c3.846 0 5.157 1.742 5.157 3.657 0 2.263-1.573 3.743-5.507 3.743zM54.63-.086c-5.943 0-11.45 4.44-11.45 11.404 0 6.963 5.507 11.403 11.45 11.403 5.857 0 11.364-4.44 11.364-11.403 0-6.964-5.507-11.404-11.364-11.404zm0 17.497c-3.496 0-5.681-2.699-5.681-6.094 0-3.394 2.185-6.093 5.681-6.093 3.497 0 5.682 2.699 5.682 6.094 0 3.394-2.185 6.093-5.681 6.093zm-35.75 3.743l-7.604-10.359 6.905-8.879s.437-.522.437-.61c.524-.609.437-.957 0-.957h-5.42c-.524 0-.699.348-1.223.958-.088.087-.525.783-.525.783L5.594 9.663h-.087V.784c0-.26-.175-.435-.438-.435H.437C.175.35 0 .523 0 .784V21.85c0 .261.175.435.437.435h4.632c.263 0 .438-.174.438-.435v-9.14h.087l5.594 7.921s.437.61.787.958c0 .087.087.174.087.174.437.435.787.522 1.224.522h5.594c.525 0 .612-.26.262-.783-.087 0-.262-.348-.262-.348z" fill="#00953B"/></svg>