<svg width="109" height="30" fill="none" xmlns="http://www.w3.org/2000/svg"><path d="M69.983 6.641h-.968c-4.997 9.62-3.768 15.752-2.456 19.198l1.387 3.214h7.523L69.983 6.641z" fill="#2F4486"/><path d="M50.234 21.44l-6.27 7.613h8.728l2.402-3.214h9.27c-2.904-8.31-12.352-5.226-14.13-4.4z" fill="#fff"/><path d="M67.422 6.653h-4.47L52.52 18.84c7.075-1.74 11.917-7.291 14.901-12.188z" fill="#C22821"/><path d="M30.907 16.869c-1.36 3.012-.389 6.2 3.311 6.795 3.907.63 7.271-2.318 8.413-4.85 1.154-2.558.741-6.143-3.222-6.78-3.818-.617-7.235 2.036-8.489 4.808l-.013.027zm-7.18 1.215c2.109-7.194 9.565-11.652 16.306-11.652 7.537 0 11.37 5.29 9.577 11.414-1.798 6.124-8.703 11.415-16.305 11.415-7.7 0-11.246-5.5-9.587-11.146l.008-.03z" fill="#fff"/><path d="M82.778 6.635h8.601l-2.892 10.321 11.649-10.321h8.593l-13.783 11.36L103.4 29.06h-9.978l-5.685-9.516-2.772 9.516h-8.599l6.413-22.425z" fill="#2F4486"/><path d="M14.847.395c-.034.045-3.462 4.449-4.044 4.905-1.397 1.098-4.68 1.387-5.468 1.278l-.059-.008-.226.687.078.018c.033.007 3.307.752 4.922 1.7 1.511.886 3.62 3.153 3.903 3.461.158-.178.338-.389.537-.626-.564-.791-1.911-3.63-1.685-5.335.098-.74 2.145-5.955 2.166-6.008L15.154 0l-.307.395z" fill="#C22821"/><path d="M13.955 12.436c-.213.24-.384.421-.476.494-1.354 1.063-4.47 1.367-5.38 1.286-.092.269-.171.509-.23.704.453.106 3.362.807 4.857 1.684 1.615.948 3.913 3.472 3.936 3.497l.054.06.53-.61-.037-.049c-.535-.702-1.96-3.65-1.728-5.398.098-.74 2.144-5.955 2.165-6.007l.184-.468-.307.395c-.025.032-1.818 2.335-3.032 3.786l-.536.626z" fill="#2F4486"/><path d="M7.869 14.92a3.422 3.422 0 00-.114.446c-.226 1.706 1.121 4.544 1.685 5.336-.199.237-.38.448-.537.626-.283-.309-2.392-2.576-3.903-3.462-1.615-.948-4.89-1.692-4.922-1.7L0 16.15l.226-.688.06.009c.786.109 4.07-.18 5.467-1.278.582-.456 4.01-4.86 4.044-4.906l.255-.31-.131.383c-.016.04-1.212 3.089-1.821 4.858l-.231.703z" fill="#C3C4C7"/><path d="M8.905 21.328c-.213.24-.383.421-.476.494C7.031 22.92 3.75 23.21 2.961 23.1l-.06-.008-.225.687.078.018c.033.007 3.307.752 4.922 1.7 1.614.947 3.913 3.47 3.936 3.496l.054.06.53-.61-.037-.049c-.535-.702-1.96-3.65-1.728-5.398.099-.74 2.145-5.955 2.166-6.007l.131-.384-.255.31c-.024.033-1.817 2.335-3.031 3.786l-.537.627z" fill="#fff"/></svg>