<svg width="89" height="56" fill="none" xmlns="http://www.w3.org/2000/svg"><path fill-rule="evenodd" clip-rule="evenodd" d="M44.213 8.44l.246-.065C32.496 12.07 23.02 18.385 22.821 23.03c-.214 4.973 10.284 6.134 23.432 2.601 13.148-3.533 23.976-10.436 24.19-15.409.115-2.585-2.666-4.122-7.191-4.531 5.529.245 8.984 1.848 8.984 4.71 0 5.448-12.555 13.398-28.04 17.765-15.484 4.368-28.04 3.485-28.04-1.963.017-5.447 12.589-13.397 28.057-17.764z" fill="#fff"/><path fill-rule="evenodd" clip-rule="evenodd" d="M22.261 37.099l38.868-37.1-3.522 29.166-6.417-7.328L22.26 37.1z" fill="#ED1941"/><path d="M6.86 49.481c0 1.57-1.135 3.075-3.093 3.075H1.776v3.076H-.001V46.39h3.324c2.418.016 3.537 1.308 3.537 3.091zm-1.777 0c0-.867-.69-1.325-1.547-1.325h-1.76v2.634h1.777c.84.016 1.53-.54 1.53-1.309zM17.77 51.02c0 2.665-2.189 4.841-4.871 4.841-2.682 0-4.87-2.175-4.87-4.842 0-2.666 2.188-4.842 4.87-4.842s4.87 2.176 4.87 4.842zm-1.777 0a3.08 3.08 0 00-3.094-3.076 3.08 3.08 0 00-3.094 3.075 3.08 3.08 0 003.094 3.075 3.081 3.081 0 003.094-3.075zm10.285 2.126l.674 1.603c-.79.72-1.974 1.112-3.01 1.112-2.733 0-4.954-2.175-4.954-4.842 0-2.666 2.221-4.842 4.953-4.842 1.037 0 2.222.393 3.011 1.096l-.674 1.603a3.327 3.327 0 00-2.304-.932c-1.777 0-3.209 1.374-3.209 3.075s1.432 3.075 3.209 3.075c.905 0 1.728-.343 2.304-.948zm10.5 2.503H34.54l-3.522-4.04v4.04h-1.777v-9.242h1.777v3.81l3.291-3.827h2.238l-3.982 4.417 4.213 4.842zM46.88 51.02c0 2.665-2.189 4.841-4.87 4.841-2.683 0-4.872-2.175-4.872-4.842 0-2.666 2.189-4.842 4.871-4.842 2.682 0 4.871 2.176 4.871 4.842zm-1.777 0a3.08 3.08 0 00-3.094-3.076 3.08 3.08 0 00-3.093 3.075 3.081 3.081 0 003.093 3.075 3.08 3.08 0 003.094-3.075zm10.285 2.126l.675 1.603c-.79.72-1.975 1.112-3.012 1.112-2.731 0-4.953-2.175-4.953-4.842 0-2.666 2.222-4.842 4.953-4.842 1.037 0 2.222.393 3.012 1.096l-.675 1.603a3.327 3.327 0 00-2.304-.932c-1.777 0-3.209 1.374-3.209 3.075s1.432 3.075 3.21 3.075c.904 0 1.727-.343 2.303-.948zm13.18 2.502h-1.876l-.773-6.053-2.436 6.053h-.889l-2.435-6.053-.773 6.053H57.51l1.333-9.242h1.777l2.435 5.938 2.436-5.938h1.777l1.3 9.242zm10.695-4.628c0 2.665-2.188 4.841-4.87 4.841-2.683 0-4.871-2.175-4.871-4.842 0-2.666 2.188-4.842 4.87-4.842 2.683 0 4.871 2.176 4.871 4.842zm-1.777 0a3.08 3.08 0 00-3.094-3.076 3.08 3.08 0 00-3.093 3.075 3.081 3.081 0 003.093 3.075 3.08 3.08 0 003.094-3.075zm10.285 2.126l.675 1.603c-.79.72-1.975 1.112-3.011 1.112-2.732 0-4.954-2.175-4.954-4.842 0-2.666 2.222-4.842 4.954-4.842 1.036 0 2.221.393 3.01 1.096l-.674 1.603a3.327 3.327 0 00-2.304-.932c-1.777 0-3.208 1.374-3.208 3.075s1.431 3.075 3.208 3.075c.906 0 1.712-.343 2.304-.948z" fill="#fff"/></svg>