<svg width="110" height="36" fill="none" xmlns="http://www.w3.org/2000/svg"><path d="M33.285 5.947h4.554l3.637 14.466s.395 1.668.558 2.488c.164-.816.558-2.52.558-2.52l3.736-14.434h4.458l3.737 14.434s.394 1.7.558 2.52c.164-.816.558-2.488.558-2.488l3.637-14.466h4.554l-6.324 22.909h-4.654l-4.291-16.624-4.291 16.624h-4.654L33.285 5.947zm37.302 6.676H66.46v16.233h4.127V12.623zm15.359 16.234v-9.36c0-2.127-1.017-3.469-3.31-3.469-2.162 0-3.769 1.864-3.769 4.58v8.248H74.74V12.623h4.127v2.617c1.212-1.864 3.147-3.075 5.504-3.075 3.473 0 5.702 2.258 5.702 5.628v11.06h-4.127v.003zm7.838-22.91h4.127v11.586l4.949-4.91h5.113l-5.931 5.79 6.72 10.44h-4.753l-4.85-7.591-1.244 1.21v6.38h-4.128V5.948h-.003zM65.91 4.272l1.614 1.611-1.613 1.611 1.908 1.903 3.518-3.514-3.518-3.514-1.908 1.903z" fill="#fff"/><path d="M9.754.537L.54 9.74l7.797 7.786-7.797 7.79 9.214 9.203 17.014-16.993L9.754.537z" fill="#FF4F12"/></svg>