<svg width="56" height="56" viewBox="0 0 56 56" fill="none" xmlns="http://www.w3.org/2000/svg">
<circle cx="28" cy="28" r="28" fill="#5181B8"/>
<path d="M41.6365 35.9373L37.6302 35.9853C37.6302 35.9853 36.7742 36.1453 35.6271 35.4094C34.1204 34.4495 32.7165 31.9538 31.6037 32.2738C30.4908 32.6097 30.525 34.8494 30.525 34.8494C30.525 34.8494 30.525 35.3294 30.2854 35.5854C30.0114 35.8733 29.4636 35.9373 29.4636 35.9373H27.683C27.683 35.9373 23.728 36.1613 20.2354 32.7697C16.4345 29.0741 13.0789 21.731 13.0789 21.731C13.0789 21.731 12.8905 21.2511 13.096 21.0111C13.3357 20.7551 13.9691 20.7391 13.9691 20.7391L18.2494 20.7071C18.2494 20.7071 18.6603 20.7711 18.9342 20.9631C19.191 21.1391 19.328 21.443 19.328 21.443C19.328 21.443 20.0128 23.0749 20.9373 24.5627C22.735 27.4583 23.5568 28.0823 24.1732 27.7783C25.0635 27.3303 24.7895 23.6828 24.7895 23.6828C24.7895 23.6828 24.8067 22.3709 24.3444 21.779C23.9849 21.3151 23.3171 21.1871 23.009 21.1551C22.7693 21.1231 23.1631 20.5951 23.6767 20.3712C24.4471 20.0192 25.8168 19.9872 27.4262 20.0032C28.676 20.0192 29.0355 20.0832 29.532 20.1952C31.0044 20.5312 30.5079 21.811 30.5079 24.8986C30.5079 25.8905 30.3196 27.2823 31.09 27.7463C31.4153 27.9383 32.22 27.7783 34.2232 24.5947C35.1819 23.0908 35.8839 21.2991 35.8839 21.2991C35.8839 21.2991 36.038 20.9791 36.2777 20.8511C36.5174 20.7071 36.8598 20.7551 36.8598 20.7551L41.3797 20.7231C41.3797 20.7231 42.7322 20.5632 42.9548 21.1391C43.1774 21.747 42.4412 23.1388 40.6093 25.4426C37.5789 29.2181 37.2536 28.8662 39.7532 31.0419C42.1501 33.1217 42.6466 34.1455 42.7322 34.2575C43.7253 35.8093 41.6365 35.9373 41.6365 35.9373Z" fill="white"/>
</svg>
