<svg width="56" height="56" viewBox="0 0 56 56" fill="none" xmlns="http://www.w3.org/2000/svg">
<circle cx="28" cy="28" r="28" fill="#00B8EC"/>
<path fill-rule="evenodd" clip-rule="evenodd" d="M20.0347 22.2379C20.1498 21.8128 20.5384 21.5 21 21.5H35C35.4616 21.5 35.8502 21.8128 35.9653 22.2379L28 27.5481L20.0347 22.2379ZM20 24.6185V33.5C20 34.0523 20.4477 34.5 21 34.5H35C35.5523 34.5 36 34.0523 36 33.5V28V24.6185L28.5547 29.5821L28 29.9519L27.4453 29.5821L20 24.6185ZM21 19.5C19.3431 19.5 18 20.8431 18 22.5V23.125V33.5C18 35.1569 19.3431 36.5 21 36.5H35C36.6569 36.5 38 35.1569 38 33.5V28V22.5C38 20.8431 36.6569 19.5 35 19.5H21Z" fill="white"/>
</svg>
