<svg width="22" height="21" viewBox="0 0 22 21" fill="none" xmlns="http://www.w3.org/2000/svg">
<path fill-rule="evenodd" clip-rule="evenodd" d="M13.3562 8.13684L12.8813 7.19239L11.0001 3.45145L9.1189 7.19239L8.64396 8.13684L7.59606 8.27636L3.47776 8.82469L6.42321 11.5531L7.2316 12.3019L7.03052 13.3853L6.29428 17.352L10.0837 15.3986L11.0002 14.9261L11.9166 15.3986L15.7054 17.352L14.9696 13.385L14.7687 12.3018L15.577 11.5531L18.5224 8.82469L14.4041 8.27636L13.3562 8.13684ZM7.3321 6.29386L1.10695 7.12269C0.268138 7.23438 -0.0614281 8.27252 0.559375 8.84757L5.0641 13.0203L3.95548 18.9934C3.80376 19.8108 4.65788 20.4457 5.39689 20.0647L11.0001 17.1763L16.6025 20.0647C17.3415 20.4457 18.1956 19.811 18.044 18.9935L16.9361 13.0203L21.4408 8.84757C22.0616 8.27252 21.7321 7.23438 20.8932 7.12269L14.6681 6.29386L11.8935 0.776322C11.5242 0.042007 10.476 0.0420071 10.1067 0.776323L7.3321 6.29386Z" fill="white"/>
</svg>
