<svg width="61" height="67" viewBox="0 0 61 67" fill="none" xmlns="http://www.w3.org/2000/svg">
<path fill-rule="evenodd" clip-rule="evenodd" d="M20.0512 66.6488C19.9446 66.7698 19.8039 66.8528 19.6278 66.8924C19.3759 66.9489 19.1659 66.9389 18.9612 66.8764C18.8795 66.8547 18.7981 66.8216 18.7169 66.777L18.5613 66.6919L0.826754 46.1039C0.732434 45.988 0.667913 45.8654 0.623309 45.7554C0.575042 45.6292 0.549401 45.515 0.532307 45.4388L2.88326 11.1326L2.80886 11.0294C2.65963 10.783 2.59923 10.4252 2.6647 10.1592C2.69149 10.0503 2.74089 9.95354 2.81022 9.86943C2.93506 9.71572 3.13415 9.61389 3.40505 9.55307L41.4065 1.02116C41.6855 0.958513 42.1305 1.00142 42.3654 1.38855L60.0999 21.9766C60.3003 22.2229 60.3321 22.3643 60.3626 22.5003C60.3711 22.5384 60.377 22.577 60.3855 22.6151L60.4221 22.7783L58.1347 57.3672C58.1186 57.5365 58.076 57.6889 58.0083 57.8183C57.8981 58.0373 57.7194 58.1917 57.4593 58.2501L20.0512 66.6488ZM4.66957 13.1194L20.586 31.5793L20.6178 31.7207L20.0044 40.7757L2.63179 44.6761L4.66957 13.1194ZM19.9575 41.5174L2.93166 45.34L18.4978 63.3929L19.9575 41.5174ZM57.6464 22.0876L42.0417 4.06614L40.5907 25.9168L57.6464 22.0876ZM39.8755 26.0774L41.3227 3.23359L5.53722 11.268L21.8636 30.1214L39.8755 26.0774ZM21.9711 40.3341L22.5221 31.8758L39.7593 28.0058L39.2489 36.455L21.9711 40.3341ZM40.4636 27.8477L39.8917 36.4535L39.9234 36.5949L56.381 55.6016L58.3293 23.8365L40.4636 27.8477ZM56.093 56.5117L39.324 37.1693L21.9242 41.0759L20.3996 64.5254L56.093 56.5117Z" fill="#2F586F"/>
</svg>
