<svg width="108" height="208" viewBox="0 0 108 208" fill="none" xmlns="http://www.w3.org/2000/svg">
<path fill-rule="evenodd" clip-rule="evenodd" d="M-75.1631 207.412C-75.5772 207.842 -76.2235 208 -76.8699 208C-77.7502 208 -78.3371 207.416 -78.6306 206.539L-98.8785 138.446C-99.1719 137.861 -98.8785 137.277 -98.585 136.985L-72.1747 87.8878C-71.9712 87.4824 -71.4853 87.077 -70.9129 86.9641L-21.8944 59.9353L85.1087 0.219184C85.6956 -0.0730519 86.2824 -0.0730519 86.8693 0.219184C87.4562 0.511421 87.7497 0.803688 88.0431 1.38816L107.998 70.3577C107.926 70.4287 107.89 70.4998 107.875 70.5666C107.919 70.6818 107.951 70.797 107.972 70.9121C107.987 70.9315 107.998 70.9422 107.998 70.9422C107.998 70.984 107.996 71.0273 107.993 71.0718C107.998 71.1237 108 71.1755 108 71.2274C108 71.5196 108 71.8119 107.707 72.1041L81.2963 121.201L80.4159 122.078L-75.1631 207.412ZM-52.2843 156.639L-76.0427 200.806L-94.4767 138.154L-93.9617 137.191L-62.9745 120.137L-52.2843 156.639ZM-71.59 200.984L-49.4459 159.704C-49.1006 159.735 -48.7553 159.664 -48.4101 159.492L70.6599 93.0417L78.1708 118.672L78.0683 118.863L-71.59 200.984ZM79.0691 116.998L71.7835 92.4147L94.3171 79.8391L100.957 76.1955L79.0691 116.998ZM69.3858 88.6937L58.9377 53.0408L-59.0295 117.966L-48.7086 153.78L69.3858 88.6937ZM103.287 70.0004L84.5629 6.88555L60.1702 52.2317L59.9419 52.4591L70.4988 88.08L103.287 70.0004ZM3.84261 50.0413L82.6034 6.66627L58.4072 51.6472C58.4891 51.6472 58.5481 51.67 58.5907 51.7091L-59.3848 116.733L-67.1907 89.6458L3.84261 50.0413ZM-70.7075 93.7326L-92.8988 135.205L-63.3339 118.91L-70.7075 93.7326Z" fill="#2F586F"/>
</svg>
