<svg width="88" height="124" viewBox="0 0 88 124" fill="none" xmlns="http://www.w3.org/2000/svg">
<path d="M-8.39077 83.3368L8.90086 68.7437L25.1208 79.7481L44.5936 117.387L38.6464 113.664L-8.39077 83.3368ZM28.3633 77.9128C28.183 77.7345 28.183 77.7345 28.3633 77.9128L54.8366 43.2244L82.2103 7.26548L48.5576 117.706L28.3633 77.9128ZM6.1975 66.7895L-10.3737 80.6544L-15.4245 64.4897L-20.295 48.8637L6.1975 66.7895ZM8.89929 64.4193L-19.7559 45.0743L76.4447 7.3249L8.89929 64.4193ZM27.2818 76.8429L11.7828 66.1914L78.6077 9.82522L68.5226 22.9026L27.2818 76.8429ZM49.821 123.639C49.821 123.639 50.0011 123.457 49.821 123.639C50.0011 123.457 50.0011 123.457 50.0011 123.457L50.1812 123.275L50.3613 123.093L87.2536 2.52867C87.2536 2.52867 87.2536 2.52867 87.2534 2.1683L87.2533 1.80793C87.2533 1.80793 87.073 1.6296 87.2532 1.44756C87.2532 1.44756 87.2532 1.44756 87.0729 1.26923C87.0729 1.26923 87.0729 1.26923 86.8927 1.0909C86.8927 1.0909 86.8927 1.0909 86.7124 0.91257C86.7124 0.91257 86.7124 0.91257 86.5322 0.734242C86.5322 0.734242 86.5322 0.734244 86.352 0.555915C86.352 0.555915 86.352 0.555915 86.1717 0.377586C86.1717 0.377586 86.1717 0.377586 85.9915 0.199257C85.9915 0.199257 85.9915 0.199257 85.8112 0.0209284C85.8112 0.0209284 85.6311 0.202968 85.4509 0.0246417L-23.9006 43.1349C-23.9006 43.1349 -23.9006 43.1349 -24.0807 43.317L-24.2609 43.499L-24.441 43.6811C-24.441 43.6811 -24.441 43.681 -24.6211 43.8631C-24.6211 43.8631 -24.6211 43.8631 -24.8012 44.0451C-24.8012 44.0451 -24.8012 44.0451 -24.8011 44.4055C-24.8011 44.4055 -24.6208 44.5838 -24.8009 44.7659L-12.5348 83.5597L-12.3545 83.738L-12.1743 83.9163L-11.994 84.0947L48.1991 122.755L48.3793 122.933C48.3793 122.933 48.5596 123.112 48.7397 122.93L49.1 122.926C49.1 122.926 49.2801 122.744 49.4604 122.922C49.6409 123.821 49.6409 123.821 49.821 123.639Z" fill="#2F586F"/>
</svg>
