<svg width="68" height="109" viewBox="0 0 68 109" fill="none" xmlns="http://www.w3.org/2000/svg">
<path d="M5.3996 53.2647L26.1864 44.3278L38.5074 59.5717L46.1991 101.245L41.5907 95.9547L5.3996 53.2647ZM42.1433 58.7582C42.0227 58.5352 42.0227 58.5352 42.1433 58.7582L77.5565 33.2625L114.2 6.81284L49.899 102.703L42.1433 58.7582ZM24.1678 41.6722L4.28197 50.1218L4.14779 33.1869L4.02962 16.8198L24.1678 41.6722ZM27.4419 40.1896L5.64697 13.3507L108.667 5.1938L27.4419 40.1896ZM41.4196 57.4201L29.6858 42.7234L110.009 8.21489L96.5585 17.7962L41.4196 57.4201ZM49.3833 108.747C49.3833 108.747 49.6086 108.626 49.3833 108.747C49.6086 108.626 49.6086 108.626 49.6086 108.626L49.8338 108.504L50.0591 108.382L120.403 3.74646C120.403 3.74646 120.403 3.74646 120.507 3.40161L120.612 3.05676C120.612 3.05676 120.491 2.83374 120.717 2.71191C120.717 2.71191 120.717 2.71191 120.596 2.48889C120.596 2.48889 120.596 2.48889 120.475 2.26587C120.475 2.26587 120.475 2.26587 120.355 2.04285C120.355 2.04285 120.355 2.04285 120.234 1.81983C120.234 1.81983 120.234 1.81983 120.114 1.59681C120.114 1.59681 120.114 1.59681 119.993 1.37379C119.993 1.37379 119.993 1.37379 119.872 1.15077C119.872 1.15077 119.872 1.15077 119.752 0.927751C119.752 0.927751 119.526 1.04958 119.406 0.82656L2.24487 10.2903C2.24487 10.2903 2.24487 10.2903 2.01962 10.4122L1.79436 10.534L1.56912 10.6558C1.56912 10.6558 1.56912 10.6558 1.34387 10.7777C1.34387 10.7777 1.34387 10.7777 1.11862 10.8995C1.11862 10.8995 1.11863 10.8995 1.014 11.2443C1.014 11.2443 1.13462 11.4674 0.909375 11.5892L1.36976 52.2734L1.49038 52.4964L1.61101 52.7195L1.73163 52.9425L48.0884 107.43L48.2091 107.653C48.2091 107.653 48.3297 107.876 48.5549 107.754L48.9008 107.855C48.9008 107.855 49.1261 107.733 49.2467 107.956C49.1581 108.869 49.1581 108.869 49.3833 108.747Z" fill="#2F586F"/>
</svg>
