<svg width="156" height="200" viewBox="0 0 156 200" fill="none" xmlns="http://www.w3.org/2000/svg">
<path d="M203.854 79.5422L179.265 162.518V109.585L203.854 79.5422ZM179.265 107.868V76.9671L204.997 76.1087V76.3948L179.265 107.868ZM130.947 162.804L141.811 155.079L168.687 170.243L170.402 171.102L130.947 162.804ZM127.23 165.665L169.83 174.821L83.4856 195.994L127.23 165.665ZM36.8824 137.911L70.9056 189.7L8.8632 127.325L36.8824 137.911ZM27.1614 122.747L34.0233 133.047L8.00547 123.605L27.1614 122.747ZM28.0192 92.1316L26.8755 121.602L5.14637 122.461H4.86047L28.0192 92.1316ZM28.3051 85.8369L6.29001 114.163L30.5923 35.7654L28.3051 85.8369ZM74.0506 36.3376L62.3283 43.2046L38.3119 28.6123L74.0506 36.3376ZM75.4802 35.4793L36.8824 27.1817L125.514 6.00858L75.4802 35.4793ZM130.947 10.5866L113.22 43.4907L80.3406 36.3376L133.806 4.86409L130.947 10.5866ZM167.543 60.9442L114.65 43.7768L135.807 4.00572L167.543 60.9442ZM172.404 62.3748L144.67 12.3033L202.996 72.3891L172.404 62.3748ZM178.408 73.5336L173.261 64.0916L200.709 72.9614L178.408 73.5336ZM142.097 153.362L133.52 119.599L175.549 79.5422V112.16L142.097 153.362ZM90.0616 157.368L77.1956 195.708L75.1943 193.705L38.8837 138.484L90.0616 157.368ZM28.8769 123.033L85.7729 139.342L89.4897 153.648L35.7387 133.906L28.8769 123.033ZM70.6197 82.4034L28.0192 120.744L29.4487 90.4149L61.7565 48.927L70.6197 82.4034ZM102.07 53.7911L66.9029 44.6352L79.197 37.4821L112.648 44.6352L102.07 53.7911ZM117.795 57.7969L114.364 44.9213L168.115 62.3748L173.833 72.3891L117.795 57.7969ZM118.653 61.8026L173.833 76.3948L132.662 115.594L118.653 61.8026ZM103.499 54.0773L113.22 45.2074L116.365 57.5107L103.499 54.0773ZM73.4788 79.5422L64.9015 47.4964L98.9248 56.3662L73.4788 79.5422ZM103.499 143.062L89.2038 139.056L73.4788 80.9728L100.068 56.9385L116.937 61.5165L131.233 116.738L103.499 143.062ZM107.502 144.206L132.376 120.458L140.953 153.648L107.502 144.206ZM106.644 145.064L140.668 154.793L129.517 162.518L96.0657 155.365L106.644 145.064ZM102.642 143.92L93.2066 152.79L89.7757 140.2L102.642 143.92ZM28.591 121.602L70.9056 83.5479L85.487 137.911L28.591 121.602ZM84.9152 183.405L93.2066 158.226L125.228 165.093L80.6265 196.567L84.9152 183.405ZM38.3119 32.618L59.7551 45.4936L29.7346 84.1202L32.0219 31.1874L32.5937 29.1845L38.3119 32.618ZM174.405 172.246L142.955 154.506L175.834 114.163V172.818L174.405 172.246ZM209 74.392V74.1059V73.8197C209 73.8197 209 73.5336 208.714 73.5336L137.808 0.286123C137.808 0.286123 137.808 0.286123 137.523 0C137.523 0 137.523 0 137.237 0C137.237 0 137.237 0 136.951 0C136.951 0 136.951 0 136.665 0C136.665 0 136.665 0 136.379 0C136.379 0 136.379 0 136.093 0C136.093 0 136.093 0 135.807 0L31.1642 24.8927C31.1642 24.8927 31.1642 24.8927 30.8783 24.8927C30.8783 24.8927 30.5923 24.8927 30.5923 25.1788C30.5923 25.1788 30.3064 25.1788 30.3064 25.4649L30.0205 25.7511V26.0372L0 122.461C0 122.461 0 122.461 0 122.747C0 122.747 0 122.747 0 123.033C0 123.033 0 123.033 0 123.319C0 123.319 0 123.319 0 123.605C0 123.605 0 123.605 0 123.891L76.052 200C76.052 200 76.052 200 76.3379 200C76.3379 200 76.3379 200 76.6238 200H76.9097H77.1956H77.4815L177.264 175.68C177.264 175.68 177.264 175.68 177.55 175.68L207.285 75.2504C209 74.6781 209 74.6781 209 74.392Z" fill="#2F586F"/>
</svg>
