<svg width="69" height="126" viewBox="0 0 69 126" fill="none" xmlns="http://www.w3.org/2000/svg">
<path d="M6.44913 77.0058C10.5453 65.744 18.1182 52.4768 27.9256 39.9009C49.3991 12.0379 71.2942 -0.700877 78.6172 4.64559L82.2651 11.3198C82.4666 15.2847 81.4594 20.5187 79.1733 26.5895C75.0191 38.0388 67.4462 51.3059 57.3947 64.0117C47.5293 76.775 36.5101 87.3328 26.7088 93.9541C21.2907 97.6182 16.5808 99.6528 12.8934 100.361L5.81771 98.1715C2.4874 95.0873 2.58492 87.5178 6.44913 77.0058ZM118.777 76.6345C120.221 77.9028 120.41 81.2477 119.018 85.7466C118.902 86.1215 118.844 86.3089 118.728 86.6838C116.803 92.2498 113.167 98.7248 108.17 104.984C97.7007 118.382 86.7821 124.658 83.522 122.006C80.2619 119.354 83.6591 107.054 94.1288 93.6564C104.598 80.2584 115.517 73.9828 118.777 76.6345ZM14.7554 100.937C18.3146 99.9838 22.6521 97.834 27.4658 94.8045C37.5113 88.0534 48.3443 77.438 58.4539 64.5448C68.3192 51.7814 76.1363 38.3844 80.2905 26.9351C82.1585 21.5566 83.2359 16.755 83.4068 12.9054L116.924 73.3911C110.258 73.1772 100.005 81.9181 92.1843 92.0278C87.1295 98.4744 82.7738 105.959 80.8021 112.332C79.7582 115.706 79.4469 118.691 79.9842 120.911L14.7554 100.937ZM82.3377 124.515C88.4611 128.463 101.098 118.611 110.243 106.857C115.17 100.166 119.049 93.5611 121.091 87.6202C123.133 81.6792 123.106 77.152 120.718 74.9758L80.7448 3.04445C80.6166 2.79939 80.6166 2.79939 80.4304 2.74178C75.8546 -0.933174 67.5611 0.814326 57.0272 7.82516C46.9816 14.5763 35.9044 25.3216 25.7949 38.2148C15.6854 51.108 8.05447 64.5626 3.8423 76.1993C3.49434 77.324 3.20437 78.2613 2.91441 79.1986C-0.333205 89.696 0.18588 97.2508 4.4472 100.623C4.6334 100.681 4.81961 100.738 4.81961 100.738L82.3377 124.515Z" fill="#2F586F"/>
</svg>
