<svg width="47" height="47" viewBox="0 0 47 47" fill="none" xmlns="http://www.w3.org/2000/svg">
<path fill-rule="evenodd" clip-rule="evenodd" d="M1.09679 27.1374C0.994113 27.1108 0.903613 27.0529 0.828119 26.9613C0.720105 26.8303 0.663608 26.7041 0.639538 26.5654C0.62798 26.511 0.623242 26.4534 0.625322 26.3925L0.628978 26.2759L7.44366 9.75445C7.48367 9.66468 7.53646 9.5904 7.58774 9.53157C7.6475 9.46575 7.7069 9.41678 7.74651 9.38414L28.5765 0.575227L28.615 0.500901C28.7153 0.340149 28.9073 0.198455 29.0828 0.157859C29.1547 0.141255 29.2261 0.141506 29.2961 0.157207C29.4234 0.184817 29.5422 0.271407 29.6584 0.412314L45.9511 20.1787C46.0707 20.3238 46.1777 20.5977 46.0203 20.8505L39.2056 37.372C39.1206 37.5628 39.047 37.6234 38.9763 37.6817C38.9565 37.698 38.9355 37.7129 38.9157 37.7292L38.8309 37.7992L17.8538 46.7293C17.7497 46.7702 17.6476 46.7904 17.5516 46.7892C17.3903 46.7895 17.2466 46.7305 17.1352 46.5952L1.09679 27.1374ZM27.9411 2.21354L21.8354 17.0361L21.7618 17.0967L16.2659 19.426L8.81761 10.3897L27.9411 2.21354ZM15.8167 19.6188L8.51708 10.7628L2.5461 25.2589L15.8167 19.6188ZM38.4118 35.9652L44.3529 21.4558L31.0994 27.0937L38.4118 35.9652ZM30.7927 26.7217L44.6279 20.7866L29.2853 2.17284L23.0703 17.3528L30.7927 26.7217ZM17.1091 20.449L22.2363 18.2603L29.6266 27.2262L24.5168 29.436L17.1091 20.449ZM29.9286 27.5925L24.7086 29.8127L24.635 29.8734L18.3691 45.1759L37.5883 36.8853L29.9286 27.5925ZM17.7495 45.2772L24.1199 29.6922L16.66 20.6418L2.44631 26.7113L17.7495 45.2772Z" fill="#2F586F"/>
</svg>
