<svg width="85" height="197" viewBox="0 0 85 197" fill="none" xmlns="http://www.w3.org/2000/svg">
<path d="M10.487 48.5473L-21.6658 9.70947L70.1995 74.8651L10.487 48.5473ZM8.44559 121.624L79.8964 84.5746L5.89378 191.123L8.44559 121.624ZM-35.7008 144.109L-0.230568 191.379L-103.324 118.558L-35.7008 144.109ZM-31.1075 5.11025L-33.4042 71.2879L-105.62 110.637L-31.1075 5.11025ZM10.7422 59.2789L10.9974 52.1245L81.1723 82.786L8.44559 120.346L10.7422 59.2789ZM-107.662 115.236L-33.4042 74.8651L-35.7008 142.831L-106.641 116.258L-107.662 115.236ZM-32.3834 70.7769L-30.0868 4.59922L7.16969 49.3139L-32.3834 70.7769ZM5.12823 123.157L2.57642 193.423L2.32124 193.167L-34.6801 143.853L5.12823 123.157ZM-34.9352 142.831L-32.6386 74.3541L7.68005 52.38L5.6386 110.126L5.12823 122.135L-34.9352 142.831ZM85 82.786C85 82.5305 85 82.5305 85 82.5305V82.275V82.0195C85 82.0195 85 82.0195 85 81.7639C85 81.7639 85 81.7639 85 81.5084C85 81.5084 85 81.5084 84.7448 81.2529L-29.5764 0.255512C-29.5764 0.255512 -29.8316 0.255512 -29.8316 0H-30.0868H-30.342H-30.5972H-30.8523C-30.8523 0 -31.1075 0 -31.1075 0.255512C-31.1075 0.255512 -31.1075 0.255512 -31.1075 0.511025L-112 114.214V114.47V114.725V114.981V115.236C-112 115.236 -112 115.492 -111.745 115.492C-111.745 115.492 -111.49 115.492 -111.49 115.747L3.08679 197C3.08679 197 3.08678 197 3.34196 197C3.34196 197 3.34197 197 3.59715 197H3.85233H4.10751C4.10751 197 4.10751 197 4.36269 197H4.61787C4.61787 197 4.87306 197 4.87306 196.744L5.12823 196.489L85 82.786C84.7448 83.0415 84.7448 83.0415 85 82.786C84.7448 83.0415 84.7448 82.786 85 82.786C84.7448 82.786 84.7448 82.786 85 82.786Z" fill="#2F586F"/>
</svg>
