<svg width="87" height="113" viewBox="0 0 87 113" fill="none" xmlns="http://www.w3.org/2000/svg">
<path d="M-32.7443 54.9025L-11.1755 45.6294L1.60892 61.4468L9.58997 104.688L4.80826 99.1983L-32.7443 54.9025ZM5.38167 60.6026C5.25651 60.3712 5.25651 60.3712 5.38167 60.6026L42.127 34.1479L80.1494 6.70323L13.4291 106.201L5.38167 60.6026ZM-13.2701 42.8739L-33.9039 51.6413L-34.0431 34.0694L-34.1658 17.0867L-13.2701 42.8739ZM-9.8728 41.3356L-32.4876 13.487L74.4073 5.02328L-9.8728 41.3356ZM4.6307 59.2142L-7.54452 43.9646L75.8007 8.15802L61.8438 18.0997L4.6307 59.2142ZM12.894 112.472C12.894 112.472 13.1277 112.346 12.894 112.472C13.1277 112.346 13.1277 112.346 13.1277 112.346L13.3614 112.219L13.5952 112.093L86.585 3.5215C86.585 3.5215 86.585 3.5215 86.6936 3.16367L86.8022 2.80585C86.8022 2.80585 86.677 2.57445 86.9107 2.44803C86.9107 2.44803 86.9107 2.44803 86.7856 2.21662C86.7856 2.21662 86.7856 2.21662 86.6604 1.98521C86.6604 1.98521 86.6604 1.98521 86.5352 1.7538C86.5352 1.7538 86.5352 1.7538 86.4101 1.52239C86.4101 1.52239 86.4101 1.52239 86.2849 1.29099C86.2849 1.29099 86.2849 1.29099 86.1598 1.05957C86.1598 1.05957 86.1598 1.05957 86.0346 0.828166C86.0346 0.828166 86.0346 0.828166 85.9094 0.596754C85.9094 0.596754 85.6757 0.723167 85.5505 0.491758L-36.0177 10.3115C-36.0177 10.3115 -36.0177 10.3115 -36.2514 10.4379L-36.4851 10.5644L-36.7188 10.6908C-36.7188 10.6908 -36.7188 10.6908 -36.9526 10.8172C-36.9526 10.8172 -36.9526 10.8172 -37.1863 10.9436C-37.1863 10.9436 -37.1863 10.9436 -37.2948 11.3014C-37.2948 11.3014 -37.1697 11.5328 -37.4034 11.6592L-36.9257 53.8739L-36.8005 54.1053L-36.6754 54.3367L-36.5502 54.5681L11.5504 111.105L11.6756 111.337C11.6756 111.337 11.8007 111.568 12.0345 111.442L12.3934 111.547C12.3934 111.547 12.6271 111.42 12.7522 111.652C12.6603 112.599 12.6603 112.599 12.894 112.472Z" fill="#2F586F"/>
</svg>
