<svg width="88" height="200" viewBox="0 0 88 200" fill="none" xmlns="http://www.w3.org/2000/svg">
<path d="M82.8536 79.5422L58.2654 162.518V109.585L82.8536 79.5422ZM58.2654 107.868V76.9671L83.9973 76.1087V76.3948L58.2654 107.868ZM9.94666 162.804L20.8112 155.079L47.6867 170.243L49.4022 171.102L9.94666 162.804ZM6.22983 165.665L48.8304 174.821L-37.5144 195.994L6.22983 165.665ZM-84.1176 137.911L-50.0944 189.7L-112.137 127.325L-84.1176 137.911ZM-93.8386 122.747L-86.9767 133.047L-112.995 123.605L-93.8386 122.747ZM-92.9808 92.1316L-94.1245 121.602L-115.854 122.461H-116.14L-92.9808 92.1316ZM-92.6949 85.8369L-114.71 114.163L-90.4077 35.7654L-92.6949 85.8369ZM-46.9494 36.3376L-58.6717 43.2046L-82.6881 28.6123L-46.9494 36.3376ZM-45.5198 35.4793L-84.1176 27.1817L4.51437 6.00858L-45.5198 35.4793ZM9.94666 10.5866L-7.77975 43.4907L-40.6594 36.3376L12.8058 4.86409L9.94666 10.5866ZM46.5431 60.9442L-6.3502 43.7768L14.8071 4.00572L46.5431 60.9442ZM51.4036 62.3748L23.6703 12.3033L81.9959 72.3891L51.4036 62.3748ZM57.4077 73.5336L52.2613 64.0916L79.7086 72.9614L57.4077 73.5336ZM21.0971 153.362L12.5198 119.599L54.5486 79.5422V112.16L21.0971 153.362ZM-30.9384 157.368L-43.8044 195.708L-45.8057 193.705L-82.1163 138.484L-30.9384 157.368ZM-92.1231 123.033L-35.2271 139.342L-31.5103 153.648L-85.2613 133.906L-92.1231 123.033ZM-50.3803 82.4034L-92.9808 120.744L-91.5513 90.4149L-59.2435 48.927L-50.3803 82.4034ZM-18.9302 53.7911L-54.0971 44.6352L-41.803 37.4821L-8.35156 44.6352L-18.9302 53.7911ZM-3.20519 57.7969L-6.63611 44.9213L47.1149 62.3748L52.8331 72.3891L-3.20519 57.7969ZM-2.34747 61.8026L52.8331 76.3948L11.6621 115.594L-2.34747 61.8026ZM-17.5007 54.0773L-7.77975 45.2074L-4.63474 57.5107L-17.5007 54.0773ZM-47.5212 79.5422L-56.0985 47.4964L-22.0752 56.3662L-47.5212 79.5422ZM-17.5007 143.062L-31.7962 139.056L-47.5212 80.9728L-20.9316 56.9385L-4.06292 61.5165L10.2326 116.738L-17.5007 143.062ZM-13.4979 144.206L11.3762 120.458L19.9535 153.648L-13.4979 144.206ZM-14.3557 145.064L19.6676 154.793L8.51711 162.518L-24.9343 155.365L-14.3557 145.064ZM-18.3584 143.92L-27.7934 152.79L-31.2243 140.2L-18.3584 143.92ZM-92.409 121.602L-50.0944 83.5479L-35.513 137.911L-92.409 121.602ZM-36.0848 183.405L-27.7934 158.226L4.22845 165.093L-40.3735 196.567L-36.0848 183.405ZM-82.6881 32.618L-61.2449 45.4936L-91.2654 84.1202L-88.9781 31.1874L-88.4063 29.1845L-82.6881 32.618ZM53.4049 172.246L21.9549 154.506L54.8345 114.163V172.818L53.4049 172.246ZM88 74.392V74.1059V73.8197C88 73.8197 88 73.5336 87.7141 73.5336L16.8085 0.286123C16.8085 0.286123 16.8085 0.286123 16.5226 0C16.5226 0 16.5226 0 16.2367 0C16.2367 0 16.2367 0 15.9508 0C15.9508 0 15.9508 0 15.6648 0C15.6648 0 15.6649 0 15.3789 0C15.3789 0 15.3789 0 15.093 0C15.093 0 15.093 0 14.8071 0L-89.8358 24.8927C-89.8358 24.8927 -89.8358 24.8927 -90.1217 24.8927C-90.1217 24.8927 -90.4077 24.8927 -90.4077 25.1788C-90.4077 25.1788 -90.6936 25.1788 -90.6936 25.4649L-90.9795 25.7511V26.0372L-121 122.461C-121 122.461 -121 122.461 -121 122.747C-121 122.747 -121 122.747 -121 123.033C-121 123.033 -121 123.033 -121 123.319C-121 123.319 -121 123.319 -121 123.605C-121 123.605 -121 123.605 -121 123.891L-44.948 200C-44.948 200 -44.948 200 -44.6621 200C-44.6621 200 -44.6621 200 -44.3762 200H-44.0903H-43.8044H-43.5185L56.264 175.68C56.264 175.68 56.264 175.68 56.5499 175.68L86.2845 75.2504C88 74.6781 88 74.6781 88 74.392Z" fill="#2F586F"/>
</svg>
