<svg width="72" height="168" viewBox="0 0 72 168" fill="none" xmlns="http://www.w3.org/2000/svg">
<path d="M25.0988 14.6593L25.9588 17.596L35.1747 51.2468L34.1613 54.4869L5.06993 150.053L25.0988 14.6593ZM37.2865 49.3285L26.209 9.4042L51.5912 3.02642L37.2865 49.3285ZM37.2247 53.2219L69.4915 70.6064L4.74297 161.333L4.08461 162.016L10.6619 140.419L37.2247 53.2219ZM85.3365 78.2303L120.411 66.1693L15.7317 153.21L85.3365 78.2303ZM70.3015 70.8598L82.6382 77.4752L9.21485 156.418L70.3015 70.8598ZM99.0236 70.8622L84.7549 75.8252L71.7399 68.8198L100.255 28.8298L124.493 61.9327L99.0236 70.8622ZM52.5279 2.87478L99.5714 28.1714L70.9249 68.2981L37.7114 50.5286L52.5279 2.87478ZM0.154403 167.19C0.291068 167.321 0.159398 167.458 0.159398 167.458C0.159398 167.458 0.159398 167.458 0.296064 167.59C0.296064 167.59 0.296062 167.59 0.432729 167.721C0.432729 167.721 0.432729 167.721 0.564399 167.585L0.69607 167.448L0.82774 167.311L127.474 63.4878L127.606 63.3511L127.738 63.2145C127.738 63.2145 127.869 63.0778 127.733 62.9461L127.728 62.6778C127.728 62.6778 127.591 62.5461 127.723 62.4094C127.723 62.4094 127.723 62.4094 127.586 62.2778L101.825 26.6531C101.688 26.5215 101.552 26.3898 101.415 26.2581L53.1513 0.313085C52.878 0.0497391 52.6097 0.0547295 52.2097 0.19639L24.2907 7.29245L24.159 7.42911L24.0273 7.56578L23.8956 7.70244L23.764 7.83911L23.6323 7.97578C23.6323 7.97578 23.5006 8.11244 23.6373 8.24412L0.412759 166.648C0.0127519 166.79 0.149407 166.921 0.154403 167.19C0.149407 166.921 0.149407 166.921 0.154403 167.19C0.149407 166.921 0.149407 166.921 0.154403 167.19C0.149407 166.921 0.149407 166.921 0.154403 167.19C0.149407 166.921 0.017737 167.058 0.154403 167.19Z" fill="#2F586F"/>
</svg>
