<svg width="113" height="200" viewBox="0 0 113 200" fill="none" xmlns="http://www.w3.org/2000/svg">
<path d="M107.854 79.5422L83.2654 162.518V109.585L107.854 79.5422ZM83.2654 107.868V76.9671L108.997 76.1087V76.3948L83.2654 107.868ZM34.9467 162.804L45.8112 155.079L72.6867 170.243L74.4022 171.102L34.9467 162.804ZM31.2298 165.665L73.8304 174.821L-12.5144 195.994L31.2298 165.665ZM-59.1176 137.911L-25.0944 189.7L-87.1368 127.325L-59.1176 137.911ZM-68.8386 122.747L-61.9767 133.047L-87.9945 123.605L-68.8386 122.747ZM-67.9808 92.1316L-69.1245 121.602L-90.8536 122.461H-91.1395L-67.9808 92.1316ZM-67.6949 85.8369L-89.71 114.163L-65.4077 35.7654L-67.6949 85.8369ZM-21.9494 36.3376L-33.6717 43.2046L-57.6881 28.6123L-21.9494 36.3376ZM-20.5198 35.4793L-59.1176 27.1817L29.5144 6.00858L-20.5198 35.4793ZM34.9467 10.5866L17.2202 43.4907L-15.6594 36.3376L37.8058 4.86409L34.9467 10.5866ZM71.5431 60.9442L18.6498 43.7768L39.8071 4.00572L71.5431 60.9442ZM76.4036 62.3748L48.6703 12.3033L106.996 72.3891L76.4036 62.3748ZM82.4077 73.5336L77.2613 64.0916L104.709 72.9614L82.4077 73.5336ZM46.0971 153.362L37.5198 119.599L79.5486 79.5422V112.16L46.0971 153.362ZM-5.93844 157.368L-18.8044 195.708L-20.8057 193.705L-57.1163 138.484L-5.93844 157.368ZM-67.1231 123.033L-10.2271 139.342L-6.51026 153.648L-60.2613 133.906L-67.1231 123.033ZM-25.3803 82.4034L-67.9808 120.744L-66.5513 90.4149L-34.2435 48.927L-25.3803 82.4034ZM6.06977 53.7911L-29.0971 44.6352L-16.803 37.4821L16.6484 44.6352L6.06977 53.7911ZM21.7948 57.7969L18.3639 44.9213L72.1149 62.3748L77.8331 72.3891L21.7948 57.7969ZM22.6525 61.8026L77.8331 76.3948L36.6621 115.594L22.6525 61.8026ZM7.49932 54.0773L17.2202 45.2074L20.3653 57.5107L7.49932 54.0773ZM-22.5212 79.5422L-31.0985 47.4964L2.92476 56.3662L-22.5212 79.5422ZM7.49932 143.062L-6.79617 139.056L-22.5212 80.9728L4.06841 56.9385L20.9371 61.5165L35.2326 116.738L7.49932 143.062ZM11.5021 144.206L36.3762 120.458L44.9535 153.648L11.5021 144.206ZM10.6443 145.064L44.6676 154.793L33.5171 162.518L0.0656662 155.365L10.6443 145.064ZM6.64159 143.92L-2.79343 152.79L-6.22435 140.2L6.64159 143.92ZM-67.409 121.602L-25.0944 83.5479L-10.513 137.911L-67.409 121.602ZM-11.0848 183.405L-2.79343 158.226L29.2285 165.093L-15.3735 196.567L-11.0848 183.405ZM-57.6881 32.618L-36.2449 45.4936L-66.2654 84.1202L-63.9781 31.1874L-63.4063 29.1845L-57.6881 32.618ZM78.4049 172.246L46.9549 154.506L79.8345 114.163V172.818L78.4049 172.246ZM113 74.392V74.1059V73.8197C113 73.8197 113 73.5336 112.714 73.5336L41.8085 0.286123C41.8085 0.286123 41.8085 0.286123 41.5226 0C41.5226 0 41.5226 0 41.2367 0C41.2367 0 41.2367 0 40.9508 0C40.9508 0 40.9508 0 40.6648 0C40.6648 0 40.6649 0 40.3789 0C40.3789 0 40.3789 0 40.093 0C40.093 0 40.093 0 39.8071 0L-64.8358 24.8927C-64.8358 24.8927 -64.8358 24.8927 -65.1217 24.8927C-65.1217 24.8927 -65.4077 24.8927 -65.4077 25.1788C-65.4077 25.1788 -65.6936 25.1788 -65.6936 25.4649L-65.9795 25.7511V26.0372L-96 122.461C-96 122.461 -96 122.461 -96 122.747C-96 122.747 -96 122.747 -96 123.033C-96 123.033 -96 123.033 -96 123.319C-96 123.319 -96 123.319 -96 123.605C-96 123.605 -96 123.605 -96 123.891L-19.948 200C-19.948 200 -19.948 200 -19.6621 200C-19.6621 200 -19.6621 200 -19.3762 200H-19.0903H-18.8044H-18.5185L81.264 175.68C81.264 175.68 81.264 175.68 81.5499 175.68L111.285 75.2504C113 74.6781 113 74.6781 113 74.392Z" fill="#2F586F"/>
</svg>
